<svg id="Layer_1" data-name="Layer 1" xmlns="http://www.w3.org/2000/svg" viewBox="0 0 4992.38 4987.95"><defs><style>.cls-1,.cls-12,.cls-2,.cls-3,.cls-4,.cls-5,.cls-6,.cls-7,.cls-8,.cls-9{fill:none;stroke-miterlimit:10;}.cls-1,.cls-6,.cls-8{stroke:#11bc92;}.cls-1,.cls-2,.cls-3,.cls-4,.cls-5,.cls-7{stroke-width:20px;}.cls-2{stroke:#f3587d;}.cls-2,.cls-5{fill-rule:evenodd;}.cls-12,.cls-3{stroke:#02e2ac;}.cls-4,.cls-5{stroke:#6f3ff5;}.cls-6{stroke-width:14px;}.cls-7,.cls-9{stroke:#5932c4;}.cls-8,.cls-9{stroke-width:16px;}.cls-10{fill:#5932c4;}.cls-11{fill:#11bc92;}.cls-12{stroke-width:12px;}.cls-13{fill:#f3587d;}</style></defs><title>coordingape</title><path class="cls-1" d="M4909,4989" transform="translate(-8.4 -11.05)"/><path class="cls-2" d="M3853.82,284.93" transform="translate(-8.4 -11.05)"/><path class="cls-2" d="M4237.88,836.27q-41.76-68.85-84-134" transform="translate(-8.4 -11.05)"/><path class="cls-2" d="M3853.82,284.93C3782.1,194.69,3712,112.42,3645,37.93A5366.51,5366.51,0,0,0,2578.89,1840.72c97.51,86.25,487,410.49,1081.07,418,575,7.3,963.85-286.89,1067.83-371.07a5326.38,5326.38,0,0,0-362-828.54" transform="translate(-8.4 -11.05)"/><path class="cls-2" d="M2578.89,1840.72a6241.4,6241.4,0,0,0-120.18,622.79" transform="translate(-8.4 -11.05)"/><path class="cls-2" d="M4909,4989q9.75-688.23,18.69-1376.49c3.93-303.8,6.23-541.34-27.95-852.39a5231.37,5231.37,0,0,0-171.95-872.45" transform="translate(-8.4 -11.05)"/><path class="cls-3" d="M4596.82,2083.79c45.27,161.79,104.07,410.53,137.18,722.64,32.94,310.65,27.82,565.09,17.62,732.42.23,2.16,1.57,13.52,7.14,22.23,3.54,5.52,7.94,8.72,12.36,8.25l14.69-1.56c8.84-.94,14.53-16.2,12.65-33.91,8.24-173.09,10.11-424.14-21.68-726.79-32.47-309.09-88.16-558.94-133.12-728.27-.24-2.16-1.57-13.52-7.15-22.23-3.53-5.53-7.93-8.72-12.36-8.25l-14.68,1.56Q4603.14,2066.83,4596.82,2083.79Z" transform="translate(-8.4 -11.05)"/><path class="cls-3" d="M4303.38,1093.13c86,160.92,163.28,345.11,218.55,552.82q16.56,62.21,29.37,122.56c6,29.51,10.2,54.55,13.1,73,3.26,7.37.71,15.7-5.66,18.52l-10.58,4.67a11.83,11.83,0,0,1-9.92-.32,16.39,16.39,0,0,1-7.58-7.95c-16.95-74.33-37.21-151.39-61.4-230.71a3346.23,3346.23,0,0,0-208.86-522.34" transform="translate(-8.4 -11.05)"/><path class="cls-3" d="M4039.44,647.82c19.48,27.52,39,56.86,55,82.48a1503.13,1503.13,0,0,1,82.59,149.87" transform="translate(-8.4 -11.05)"/><path class="cls-3" d="M4007.56,665.65c-17.79-25.88-35.48-50.25-52.85-73.1-10.07-32.14-8.72-41.52-5.06-43.56,10.47-5.84,50.09,42.73,89.79,98.83" transform="translate(-8.4 -11.05)"/><path class="cls-3" d="M4149.19,908.57A1897.94,1897.94,0,0,0,4057,741.44q-24.69-39.87-49.46-75.79" transform="translate(-8.4 -11.05)"/><circle class="cls-4" cx="3709.6" cy="3385.95" r="649"/><circle class="cls-3" cx="3704.6" cy="3391.95" r="788"/><path class="cls-4" d="M3795.59,38.05q82.27,85.17,169,177.59" transform="translate(-8.4 -11.05)"/><path class="cls-4" d="M3824.58,68.22q62,59.23,124.92,126.25" transform="translate(-8.4 -11.05)"/><path class="cls-4" d="M3502.48,38.05C3352,193.83,3189.57,368.18,3022.77,557.65q-52.3,59.4-101.09,116.09" transform="translate(-8.4 -11.05)"/><path class="cls-4" d="M3473.49,68.22a3146.81,3146.81,0,0,0-609.9,806.49" transform="translate(-8.4 -11.05)"/><path class="cls-5" d="M4597,4903V4501c-77,68.83-436.22,374.79-978,360-493.41-13.47-816.27-284.17-901-360v240" transform="translate(-8.4 -11.05)"/><polyline class="cls-6" points="4145.6 105.95 4084.6 227.95 3888.6 330.95 3941.6 217.95"/><line class="cls-6" x1="3666.6" y1="469.95" x2="3757.28" y2="605.02"/><line class="cls-6" x1="4009.6" y1="982.95" x2="4100.28" y2="1118.02"/><polyline class="cls-6" points="4618.08 887.78 4460.6 887.95 4298.6 982.95 4440.92 1005.62"/><g id="logo"><path class="cls-7" d="M2596.2,3115.77c64.37,102.93,118.23,269.3,121.61,579.23,2.65,243.2-25.14,633.29-204,1104h-360V3867c-47.91,53.4-187.55,194.89-420,248-204.68,46.77-371.49-.09-441-24q-35.5,354-71,708h-312a2588.12,2588.12,0,0,1-132-556c-32.89-267.41-16.85-482.51,0-616,36.67-290.47,62.49-495,202-627" transform="translate(-8.4 -11.05)"/><path class="cls-7" d="M765.81,3287a2480,2480,0,0,0-92,668c-.07,361.48,79.27,653.46,148,844h-315a2252.45,2252.45,0,0,1-363-642c-88.79-14.81-139.42-97.08-122-162,12.81-47.75,62.19-85.2,122-90a2723.21,2723.21,0,0,1,622-618Z" transform="translate(-8.4 -11.05)"/><path class="cls-1" d="M1501.81,2935h620c33,14.22,45,31.7,50,44,24,58.76-46.16,159.06-182,244,20.77,15.28,65.63,52.69,92,118,34,84.09,14.86,158.95,8,182h-556c-6.06-21.51-23.36-93.14,10-174,31.31-75.89,88.28-114,108-126-141.79-81.06-217.91-180.49-196-242C1460.36,2968.24,1471.42,2950.65,1501.81,2935Z" transform="translate(-8.4 -11.05)"/><path class="cls-1" d="M1545.81,3599c15.83,146.36,143.09,254.64,284,248,131.79-6.21,243.54-111.43,258-248Z" transform="translate(-8.4 -11.05)"/><circle class="cls-7" cx="1693.41" cy="3071.95" r="55"/><circle class="cls-7" cx="1949.41" cy="3071.95" r="55"/><path class="cls-7" d="M1932.92,3376.08c-3.76,3.49-28.92,26.89-48.4,19.29-8.77-3.42-12.22-11.5-12.74-12.79-7.33-18,10.39-40.2,14.25-45,13.84-17.36,40.53-35.67,59.48-28.15,1.72.68,8.34,3.43,11.72,10.49C1965.39,3336.9,1947.08,3362.91,1932.92,3376.08Z" transform="translate(-8.4 -11.05)"/><path class="cls-7" d="M1718.35,3376.08c3.76,3.49,28.92,26.89,48.4,19.29,8.77-3.42,12.22-11.5,12.74-12.79,7.33-18-10.39-40.2-14.25-45-13.84-17.36-40.53-35.67-59.48-28.15-1.72.68-8.34,3.43-11.72,10.49C1685.88,3336.9,1704.19,3362.91,1718.35,3376.08Z" transform="translate(-8.4 -11.05)"/><path class="cls-7" d="M2598.56,3119.58c-35.8,461.51-376.19,823.42-790.82,823.42-415.21,0-756-362.92-791-825.37" transform="translate(-8.4 -11.05)"/><path class="cls-7" d="M1056.8,2744.8C1164,2390,1459.72,2135,1807.74,2135c352.28,0,651,261.25,754.79,622.88" transform="translate(-8.4 -11.05)"/><path class="cls-7" d="M2455.81,3063c109.5,331.7-225.7,800.49-632,811-417.56,10.8-776.62-465.91-672-803,80.93-260.77,422.54-383.89,680-376C2054,2701.81,2372.66,2811.12,2455.81,3063Z" transform="translate(-8.4 -11.05)"/><ellipse class="cls-1" cx="1006.41" cy="2919.95" rx="42" ry="180"/><path class="cls-1" d="M1014.81,2751l89,20a422.47,422.47,0,0,1,27,132c3.54,86.47-20.57,154.15-37,191l-79,17" transform="translate(-8.4 -11.05)"/><ellipse class="cls-1" cx="2584.76" cy="2919.95" rx="42" ry="180"/><path class="cls-1" d="M2593.16,2751l-89,20a422.75,422.75,0,0,0-27,132c-3.54,86.47,20.57,154.15,37,191l79,17" transform="translate(-8.4 -11.05)"/><line class="cls-1" x1="804.41" y1="4441.95" x2="1244.41" y2="4441.95"/><line class="cls-1" x1="869.41" y1="4692.95" x2="1221.41" y2="4692.95"/><line class="cls-1" x1="2595.41" y1="4440.95" x2="2155.41" y2="4440.95"/><line class="cls-1" x1="2530.41" y1="4691.95" x2="2178.41" y2="4691.95"/><path class="cls-7" d="M4748.77,755.12c-24.37,52.91-77,118.28-200.42,201.16-96.88,65-260.7,156.48-496.61,208.54l-94.69-144.44L4331,775.23c-34-5.18-127.53-24-210-103.29-72.6-69.82-97.68-149.07-106.37-183.25L3711.9,646.43l-82.07-125.18A1242.23,1242.23,0,0,1,3818.19,322c98.64-83.53,189.17-133.68,247.16-162,126.18-61.69,215-105.12,304.7-83.88" transform="translate(-8.4 -11.05)"/><path class="cls-8" d="M4546.4,267.91,4696.6,497c2.74,15.65-.82,24.31-4.15,29.14-15.91,23.09-70,21.48-134.26-8.14a121.77,121.77,0,0,1-21.31,62.58c-22.85,32.92-55.14,44-65.32,47l-134.7-205.46c6.48-7.46,28.76-31.2,66.72-38.46a118.87,118.87,0,0,1,72.73,9.38c-4.4-72,13.9-124.25,41.94-131.06C4524.07,260.64,4533.25,260.47,4546.4,267.91Z" transform="translate(-8.4 -11.05)"/><path class="cls-8" d="M4311.68,445c-50.25,41.31-59.43,114.57-22.84,165,34.22,47.2,100.18,63,154.15,35.26Z" transform="translate(-8.4 -11.05)"/><circle class="cls-9" cx="4531.76" cy="366.63" r="24.3"/><circle class="cls-9" cx="4593.78" cy="461.23" r="24.3"/><path class="cls-9" d="M4487.84,534.08c-2.2-.55-16.94-4.18-18.85-13.21a10.49,10.49,0,0,1,1.64-7.81c4.86-7.06,17.37-5.9,20.09-5.64,9.77.9,23,6.33,24.82,15.16a9.68,9.68,0,0,1-1,6.87C4510.18,536.59,4496.14,536.12,4487.84,534.08Z" transform="translate(-8.4 -11.05)"/><path class="cls-9" d="M4435.86,454.79c-.38,2.23-2.93,17.2,4.6,22.55a10.49,10.49,0,0,0,7.81,1.62c8.41-1.65,12.34-13.58,13.19-16.18,3.06-9.32,3.36-23.62-4-28.8a9.66,9.66,0,0,0-6.72-1.79C4442.47,433.3,4437.3,446.36,4435.86,454.79Z" transform="translate(-8.4 -11.05)"/><path class="cls-9" d="M4747.86,757.07c-194.59,107-429.33,65.65-538.39-100.71-109.22-166.59-53.24-398.77,123.11-534.46" transform="translate(-8.4 -11.05)"/><path class="cls-7" d="M4492.69,39.9c170.57-50.32,350.65,1.26,442.19,140.89,92.67,141.35,66.41,329.91-51.37,466.69" transform="translate(-8.4 -11.05)"/><path class="cls-9" d="M4733,684.91c-104.28,131.19-380.54,120-491.63-40.25C4127.21,480,4224,210.51,4386.8,163.82c125.92-36.12,265.17,68.56,329.73,173.93C4772.25,428.71,4812.2,585.3,4733,684.91Z" transform="translate(-8.4 -11.05)"/><ellipse class="cls-8" cx="4406.94" cy="72.03" rx="86.36" ry="20.15" transform="translate(673.51 2416.92) rotate(-33.25)"/><path class="cls-8" d="M4479.16,24.68l15.39,41a202.65,202.65,0,0,1-45.86,45.55,204.92,204.92,0,0,1-86.37,35.4l-27.6-27.23" transform="translate(-8.4 -11.05)"/><ellipse class="cls-8" cx="4822.1" cy="705.3" rx="86.36" ry="20.15" transform="translate(394.27 2748.21) rotate(-33.25)"/><path class="cls-8" d="M4894.32,658l-31.43-30.45a202.64,202.64,0,0,0-60.06,23.88,205.11,205.11,0,0,0-66.91,65.09q7,18.09,14,36.17" transform="translate(-8.4 -11.05)"/></g><line class="cls-1" x1="147.79" y1="4818.95" x2="2827.79" y2="4818.95"/><path class="cls-1" d="M2201.09,2369.88c-4.9,47.38,134.76,104.7,145.18,91.78,10.95-13.57-105-123.79-136.85-106.91C2202.26,2358.55,2201.31,2367.76,2201.09,2369.88Z" transform="translate(-8.4 -11.05)"/><path class="cls-1" d="M2126,2284c-34.67-31.61-138.37-104.65-316-95-302.49,16.43-532.52,257.09-534,255-1.74-2.45,161.55-153.47,379-201,45-9.84,120.81-25.65,213-9,65.58,11.85,117,32,117,32,71.53,31,158.34,65.55,166,52C2155.18,2310.6,2134.28,2291.55,2126,2284Z" transform="translate(-8.4 -11.05)"/><line class="cls-1" x1="1004.6" y1="4891.95" x2="2736.6" y2="4891.95"/><line class="cls-1" x1="147.6" y1="4977.95" x2="2776.6" y2="4977.95"/><polyline class="cls-1" points="856.74 3166.47 964.6 3455.95 910.6 4127.95 750.32 3931.95"/><polyline class="cls-1" points="2685.44 3385.83 2526.6 3587.95 2526.6 4127.95 2691.42 4031.95"/><path class="cls-1" d="M65,4021c.11-55.41,76-80.48,78-78,1.76,2.19-51.83,28.95-54,72-2.34,46.52,56.94,80.56,54,84C139.91,4102.61,64.89,4076.12,65,4021Z" transform="translate(-8.4 -11.05)"/><path class="cls-10" d="M3987.16,3593.62l-184.11-148A104.24,104.24,0,0,0,3813.52,3324l94.29-76.1,98.67-82.47a14.7,14.7,0,0,0,1.92-20.71c-.2-.24-.42-.49-.64-.72l-12.6-13.32A380.8,380.8,0,0,0,3745,3011.81l2.48-50.71a29.59,29.59,0,0,0-.35-10.15,26.53,26.53,0,0,0-4.63-9.26,23.36,23.36,0,0,0-8.28-6.33,22.73,22.73,0,0,0-9.93-2.71,23.42,23.42,0,0,0-10.16,1.86,26.25,26.25,0,0,0-8.73,5.65,22.46,22.46,0,0,0-5.55,8.46,18.31,18.31,0,0,0-1.27,10.15L3696,3011a377.35,377.35,0,0,0-68.18,10l3.11-65.05a29.59,29.59,0,0,0-.35-10.15,26.16,26.16,0,0,0-4.67-9.25,22.76,22.76,0,0,0-8.24-6.34,23,23,0,0,0-9.94-2.71,23.55,23.55,0,0,0-10.15,1.86,26.71,26.71,0,0,0-8.77,5.66,22.55,22.55,0,0,0-5.37,8.42,18.17,18.17,0,0,0-1.26,10.14l-4.62,83A372,372,0,0,0,3389.3,3196a359.11,359.11,0,0,0-44.42,239.13A365.82,365.82,0,0,0,3464.14,3649a382.55,382.55,0,0,0,230.3,94.71l276.29,12.61a15.3,15.3,0,0,0,16.09-14.38l5.64-135.69A15.74,15.74,0,0,0,3987.16,3593.62Zm-284.25,85A317,317,0,0,1,3517.7,3608a301.87,301.87,0,0,1-103-165.84,295.22,295.22,0,0,1,21.54-192.24,305.48,305.48,0,0,1,137.46-139.65l-4.52,98.84a30.13,30.13,0,0,0,.36,10.2,26.33,26.33,0,0,0,4.67,9.25,26.8,26.8,0,0,0,18.18,9,23.47,23.47,0,0,0,10.16-1.86,26.3,26.3,0,0,0,8.73-5.65,22.43,22.43,0,0,0,5.54-8.46,18.21,18.21,0,0,0,1.27-10.15l5.43-121.41a318.16,318.16,0,0,1,107-13.21,311.41,311.41,0,0,1,182.25,68.2,7.48,7.48,0,0,1,1.2,10.49,7.64,7.64,0,0,1-1,1l-149.73,122.9a113,113,0,0,0-41.41-10,116.18,116.18,0,0,0-46.76,7.45,109.37,109.37,0,0,0-63.48,65.13,102.28,102.28,0,0,0-5.42,45.72,109.44,109.44,0,0,0,14.42,43.9,113.84,113.84,0,0,0,31.84,34.26,116.3,116.3,0,0,0,43.77,18,110.63,110.63,0,0,0,47.29-1.42l179.06,144.16a7.83,7.83,0,0,1,2.84,6.14l-2.38,48.1a7.74,7.74,0,0,1-8.07,7.22Zm57.75-298.84a44.06,44.06,0,0,1-8.33,23.38,44.8,44.8,0,0,1-20.38,15,41.78,41.78,0,0,1-25.19,1.22,47.57,47.57,0,0,1-21.93-12.6,41.07,41.07,0,0,1-7.37-46.62,43.92,43.92,0,0,1,17.05-18.52,47.2,47.2,0,0,1,24.59-6.26,43.36,43.36,0,0,1,30.54,14,41.24,41.24,0,0,1,11,30.21Z" transform="translate(-8.4 -11.05)"/><path class="cls-11" d="M3926.58,3237a343.43,343.43,0,0,1-12.21,293.78l43,50.65c31.08-55,49.66-122.87,52.66-192.37,3.35-73.32-10.62-146.06-39.43-205.5l-27.26,32Z" transform="translate(-8.4 -11.05)"/><path class="cls-7" d="M1340.16,657.79a713.19,713.19,0,0,1,121.09,10.38q16.38,2.83,31.83,6.26c15.44,3.43,61.33,16.7,120,55.31,202.82,133.41,259.08,406,125.67,608.78-36,54.66-88.33,98.37-88.33,98.37a523.92,523.92,0,0,1-245.56,98.41" transform="translate(-8.4 -11.05)"/><path class="cls-7" d="M1404.9,1535.26A437.6,437.6,0,0,1,1130,1464.18c-202.81-133.41-259.08-406-125.67-608.78,33.51-50.93,73.62-86.29,88.34-98.37,96.28-78.77,201-95,247.45-99.24" transform="translate(-8.4 -11.05)"/><path class="cls-12" d="M1175.24,1152.83a30,30,0,0,1-7.31,2.09c-5.21.58-10.39-1.63-15.63-1.32-14.39.84-7.18,20.35-6.16,28.82-7.73-5.15-18.08.87-24.21,7.8-9.45,10.66-8.57,8.78-21.08,9.25-3.31.13-6.77,1.76-8.11,4.78-2.33,5.27,2.63,10.94,2.75,16.7.07,2.75-1,5.47-.72,8.22.66,7.24,9.21,10.37,14.4,15.44a19.8,19.8,0,0,1,5.55,17.42,41.48,41.48,0,0,1-11.06-.79q-3.24-6.27-6.51-12.54c-1.91-3.7-4-7.53-7.31-10-1.89-1.37-4.18-2.3-5.55-4.18-2.72-3.76-.52-8.9.13-13.49,1.57-11.13-4-29.87-6.75-40.92-2.9-11.76-10.72-16.39-13.56-27.26-.5-1.92-3.18-2.54-4.9-1.57s-2.61,3-3.1,4.88a20.49,20.49,0,0,0,1.19,13.47c-2.5-5.49-16.38,8.95-17.22,11.69-1.36,4.49,1.61,10.9,1.49,15.56-.28,11.57-3.08,18.08-15,9.56-4.58-3.25-10.43-7.09-15.28-4.26,1,3.14-1.08,6.69-4,8.18s-6.51,1.36-9.73.72c-2.17-.42-4.49-1.14-5.9-2.89a13.85,13.85,0,0,0-2.17-2.85c-3.07-2.39-6.94,1.75-8.6,5.27" transform="translate(-8.4 -11.05)"/><path class="cls-12" d="M1269.79,1166.32c-23.7-7.32-45.79-13-47.42-9.26-.73,1.74,3.33,4.34,2.61,6.28-1.09,2.89-12.36,2.77-50.92-6.92" transform="translate(-8.4 -11.05)"/><path class="cls-12" d="M1317.14,1234.22h0a16.06,16.06,0,0,1,8.31-5.16c3-.68,4.46.16,5.86-1,3.46-2.79,2.17-9.91.34-13.83-3.34-7.24-13.28-11.91-20.51-13.75-8.45-2.17-64.77-12.92-55.49-31.29a6.8,6.8,0,0,1,.73-1.25,7,7,0,0,1,3.61-2.41" transform="translate(-8.4 -11.05)"/><path class="cls-3" d="M1377.53,1527.59c.26-.34.5-.72.73-1.07,6.51-11.46-2.94-21.61-8-31-1.15-2.12-11.87-29.21-8.31-29.29a115.72,115.72,0,0,1-34.07-4.41,3.43,3.43,0,0,1-2.17-1.29c-1-1.79,1.44-3.55,3.46-4,5.15-1.2,10.51-1.49,15.58-3s10.06-4.6,12-9.51a30.36,30.36,0,0,0,1.65-15.79c-5.29-27.85,7.74-57.38-7.92-116.64a287.58,287.58,0,0,0-33.32-77.34" transform="translate(-8.4 -11.05)"/><path class="cls-12" d="M1043,1196.88c-1.45,8.13-11.77,11-20.09,12.1q-18.75,2.31-37.53,4.66c-5.91-15.54-24.3-15.67-37.25-9.62" transform="translate(-8.4 -11.05)"/><path class="cls-3" d="M1452.76,666.18c2.49,9.81,5.89,22.29.21,30.33-8.68,12.26-27,1.53-33.75,15.92-.23,3.66,5.89,3.06,8.68,5.41,1.57,1.31,2,3.5,2.74,5.39s2.61,3.8,4.56,3.21c2.28,3.39-1.26,7.56-4.27,10.33-3.54,3.24-6.84,7-8.18,11.63-2.79,9.61,3.52,19.15,7.57,28.3,3.35,7.57,5.23,15.67,7.1,23.73.06-3.82,5.47-5.35,8.88-3.61s5.5,5.23,8.26,7.87c4.71,4.52,10.79,1.78,15.87,5.64,6.31,4.78,10.34,13.36,18.13,14.65,9.41,1.59,16.31-8.48,20.5-17.06,10.37,5.5,16.79,18.76,28.52,19.64,4.52.34,8.88-1.37,13.08-3l25.76-10.13c3.56-1.41,7.48-2.82,11.09-1.53,4.26,1.48,6.43,6.11,8.11,10.25l5.56,13.51c.72,1.88,1.52,3.9,1,5.83-.53,2.09-2.32,3.52-4.12,4.69A46.55,46.55,0,0,1,1564.7,854a188.9,188.9,0,0,0,9.09,45.82c-8.77-2.26-18.87.66-27-2.71" transform="translate(-8.4 -11.05)"/><path class="cls-3" d="M1376.61,1367.66c8.52,1.76,17,3,22.75,5.26,4.52,1.74,10,3.36,13.86.36,4.76-3.76,3.71-12.61,9.2-15.18,1.75-.82,3.75-.75,5.67-.93,11.24-1.07,20.21-12.89,18.21-24,2.6-3.39,7.67-3.07,11.94-3s9.67-1.3,10.29-5.52c.72-4.86-5.51-7.56-10.41-7.85" transform="translate(-8.4 -11.05)"/><path class="cls-3" d="M1502.23,946.08c10.49-3.16,8.68-5,19.4-1.92,4.47,1.28,9.95.18,12.69,5.15a8.36,8.36,0,0,1-7.3,12.15c-4.79-.05-9.4.53-13.87-.67" transform="translate(-8.4 -11.05)"/><path class="cls-3" d="M1571.47,852.93c2.42,3.79-.14,8.73-2.89,12.3s-6,7.72-4.78,12l15.58,1.44a3.82,3.82,0,0,1,2.68,1,3.86,3.86,0,0,1,.42,2.9l-1.22,10c-3.27,2.56-6.43-5.49-10.51-4.69-1.8.35-2.72,2.29-3.71,3.85-8.44,13.21-23.15,3.31-31-3.56-9.14-8-22.39-8.49-34.53-8.62-4.34,0-9.17.1-12.23,3.21-3.87,3.92-4.4,9.31-4.71,11.79-.93,7.29-6.18,17.44-25.49,29.75-5.22,6.7-10.69,15.85-7.71,23.15,2,4.75,6.22,5.51,7.71,9.9s.13,11.44-13.2,24.21c4,.41,10.39,1.69,14.3,6.6,6.51,8.21,0,19,1.1,28.61,4,34.56,106.4,50.54,112.11,39.3a20.28,20.28,0,0,0,1.92-6.51c.47-5.39-1.94-7.82-.43-10.12,1.65-2.5,5.18-.58,7.72-3.17,3.07-3.13,2.3-10.44-1.1-12.75-1.4-.95-2.56-.6-4.46-.77-8.11-.73-16.64-9.78-15.29-15.91a8.24,8.24,0,0,1,3.68-4.83c6.35-3.91,13.93,3.3,20.81-.92a10.71,10.71,0,0,0,3.07-2.89c4.67-6.16,1.84-14,4-14.78,1.15-.4,3.34,1.27,4.18,3.41,2.6,6.51-8.73,14-6.51,18.39,2.08,4.09,12.94-.82,17.15,4.5,3.77,4.8-1.59,13.11,3,17.13.86.72,1.64,1,4.83,1.63,15.28,3.14,21.12,3,23.14,6.74a17.34,17.34,0,0,1,1.52,5.13c.36,2.52-.1,3.18.26,4.34,1.21,3.94,9.41,6.51,11.48,4.21,1.72-1.86-2-5.38-2.65-13.9-.17-2.47-.72-10.57,3-12.49,3-1.59,6.65,2.26,10.27.12,2-1.21,1.66-2.89,3.39-3.46,3.32-1.1,5.93,4.87,10.12,4.7s7.77-6,9.09-10.55c2-6.8-1.29-11,2.17-15.71,1.57-2.17,2.09-1.08,3.85-3.41,2.17-2.89,2.22-5.62,5.07-14.68.3-.95.33-1,.44-1.15,3.35-3.57,18.56,15.7,35.68,14.87,7.46-.36,8.45-4.21,36.67-21.82,5.46-3.41,10-6.11,12.9-7.83" transform="translate(-8.4 -11.05)"/><path class="cls-3" d="M1755.09,1117.13c-3.25-2.42-7.84.86-9.67,4.49-6,11.89-6.83,26.82-23.3,23.61-19.66-3.82-6.33-12.24-12.73-23.07-.93-1.57-2.56-2.58-3.84-3.87-4.69-4.75-4.07-12.44-3.13-19a7.61,7.61,0,0,0,10.33-4.34c.48-1.52.48-3.29,1.52-4.51,2.22-2.63,6.81-.17,7.88,3.11s.25,6.88,1,10.25,4.39,6.67,7.33,4.88a6,6,0,0,0,2.3-3.53,18.68,18.68,0,0,0-3.37-17,7.55,7.55,0,0,0-.32-14.66c-4.79-1-11.62,1.78-13.56-2.72a10.9,10.9,0,0,1-4.21,10.52c-12.69,9.21-41.23,1-38.39,28,.46,4.34,2,8.58,1.88,12.94s-2.5,9.2-6.79,10c7.71,6.21,4.89,20.45,13.17,25.88a10.52,10.52,0,0,0,12.83-1.36,4.91,4.91,0,0,1,1.81-1.45c1.5-.47,2.89,1,4.45,1.28,2.68.58,5-2.17,7.74-2.35,3.81-.21,5.9,4.34,6.58,8.12s1.69,8.38,5.37,9.4c1.25.35,2.61.18,3.86.53,2.54.72,4.06,3.46,4.2,6.08s-.81,5.18-1.74,7.64c-1.59,1.61-4.42.62-6-1s-2.45-3.87-4.22-5.27c-1-.78-23.87,1-23.15-.68-3.4,7.87-5.11,25.1-16.93,20.71-4.17-1.55-8.43-4.34-12.69-3.1q3-8.35,5.88-16.76c-1.73-1.53-4.41.56-5.14,2.75s-.85,4.86-2.7,6.24c-1.29,1-3,1-4.67,1l-15.83-.31c-5.73-.11-12.29.16-15.91,4.64-4.06,5.06-1.72,12.9,2.61,17.76,1,1.17,2.26,2.46,2.17,4s-1.26,2.47-2.28,3.45c-5.37,5.16-8.93,12.68-7.77,20s8,13.88,15.4,13.22c2.86-.25,6.41-1.21,8.08,1.11,1,1.36,1,3.56,2.5,4.25,1.93.88,3.55-1.55,4.94-3.15a8.51,8.51,0,0,1,10.44-1.69c1.68,1,7,17.25,5.59,19.61-3.16,5.41-18.14,3.27-24,3.53-2.27.1-4.8.33-6.28,2-2.32,2.67-.44,6.92,2.17,9.32s6,4.27,7.27,7.57a15.36,15.36,0,0,1,.58,6.09c-.2,4.16-.62,8.82-3.79,11.52-1.48,1.26-3.4,1.93-4.88,3.19-3.38,2.89-3.62,8.1-2.44,12.38s3.47,8.25,4.29,12.62c1.75,9.29-3.36,19.39.33,28.1,1.79,4.21,7.35,7.56,10.85,4.6,3-2.56,3-8.6,6.9-9s8.42,9,11.58,10.89c2.47,1.45,7.45-1,12,2.34,3.68,2.66,4.43,8.55,8.39,11.45a350.51,350.51,0,0,0,26.72-29.77" transform="translate(-8.4 -11.05)"/><path class="cls-12" d="M706.31,927.82c-.48,4.19-.75,8.54.89,12.33a15,15,0,0,0,5,6" transform="translate(-8.4 -11.05)"/><path class="cls-12" d="M1045.22,815.86c2.83,2.06,6.59,3.21,10.07,4.12,21,5.55,34.39,4.34,48.94-12,.41-.49.81-1,1.19-1.45,3.86-4.93,6.3-10.59,13.57-11.86,9.9-1.72,13.64,3.82,9.31,13.21a4.22,4.22,0,0,0-.59,2.64c.68,2.9,5,1.2,7.39-.45,5.69-3.84,12.92-3.62,19-.92,1.45.63,4.13-26.51,2.72-29.65-5-10.92-27.82-5.79-23.15-17.66,8.56-.18,17.36.94,25.92,1.56q.74-6.2,1.45-12.39c-.35,3.09,15.64,2.45,17.45,1.53,7-3.57,5.13-16.39,17.76-14.31,16,2.64,16.91,34.06-1.28,28.94-4.34,9.22-6,20.25-6.51,30.43-3.28,0-6.6-.06-9.89-.11a9,9,0,0,0-1.2,8,24.73,24.73,0,0,0,27.29.25c5.18,4,12.52.17,17.86-3.61,7.49,12,28.93,10.36,34.46-2.69s-8.22-29.66-22.07-26.62a31.67,31.67,0,0,0-6.75-18.26c17.18.58,34.07-11.11,39.54-27.39,2.77-8.19,3.39-18.08,10.31-23.3,3.06-2.33,6.94-3.29,10.12-5.42,7.17-4.82,9.28-14.25,10.41-22.83q1.1-8.61,1.62-17.27" transform="translate(-8.4 -11.05)"/><polygon class="cls-11" points="4794.24 1563.93 4756.9 1574.71 4767.68 1612.05 4745.9 1579.87 4713.72 1601.65 4737.6 1570.99 4706.93 1547.11 4743.47 1560.35 4756.7 1523.81 4755.41 1562.65 4794.24 1563.93"/><polygon class="cls-13" points="33.01 1360.5 52.77 1341.78 34.05 1322.02 57.96 1335.03 70.96 1311.12 65.98 1337.88 92.74 1342.86 65.75 1346.39 69.28 1373.37 57.58 1348.8 33.01 1360.5"/><polygon class="cls-11" points="265.81 1309.28 282.44 1304.47 277.62 1287.84 287.34 1302.17 301.66 1292.45 291.04 1306.12 304.71 1316.74 288.43 1310.86 282.55 1327.14 283.11 1309.84 265.81 1309.28"/><polygon class="cls-13" points="880.49 2142.83 861.9 2137.11 856.17 2155.7 855.87 2136.25 836.42 2136.55 854.82 2130.25 848.53 2111.85 860.2 2127.4 875.76 2115.73 864.57 2131.64 880.49 2142.83"/><polygon class="cls-11" points="902.38 1898.43 893.54 1889.77 884.89 1898.61 890.39 1887.53 879.31 1882.02 891.55 1883.83 893.36 1871.6 895.42 1883.79 907.62 1881.73 896.65 1887.46 902.38 1898.43"/><polygon class="cls-10" points="1202.25 2235.2 1188.33 2221.57 1174.7 2235.49 1183.37 2218.04 1165.92 2209.38 1185.19 2212.23 1188.04 2192.96 1191.28 2212.16 1210.49 2208.92 1193.23 2217.94 1202.25 2235.2"/><polygon class="cls-11" points="606.29 2370.45 593.25 2366.44 589.24 2379.48 589.03 2365.84 575.39 2366.05 588.29 2361.63 583.88 2348.73 592.07 2359.64 602.98 2351.45 595.13 2362.61 606.29 2370.45"/><polygon class="cls-10" points="842.63 1792.13 816.85 1792.39 817.11 1818.17 808.89 1793.73 784.45 1801.95 805.16 1786.58 789.79 1765.88 810.8 1780.82 825.75 1759.8 818.03 1784.41 842.63 1792.13"/><polygon class="cls-13" points="1216.1 1891.37 1202.19 1877.74 1188.56 1891.65 1197.22 1874.21 1179.78 1865.54 1199.05 1868.39 1201.9 1849.12 1205.14 1868.33 1224.35 1865.08 1207.08 1874.1 1216.1 1891.37"/><polygon class="cls-11" points="1123.39 2107.35 1117.19 2101.28 1111.12 2107.47 1114.98 2099.7 1107.21 2095.85 1115.79 2097.12 1117.06 2088.53 1118.51 2097.09 1127.06 2095.64 1119.37 2099.66 1123.39 2107.35"/><polygon class="cls-10" points="426.16 1115.77 419.96 1109.7 413.89 1115.9 417.75 1108.13 409.98 1104.27 418.56 1105.54 419.83 1096.96 421.27 1105.51 429.83 1104.07 422.14 1108.09 426.16 1115.77"/><polygon class="cls-11" points="274.76 1117.94 268.56 1111.87 262.49 1118.06 266.35 1110.29 258.58 1106.43 267.16 1107.7 268.43 1099.12 269.87 1107.67 278.43 1106.23 270.74 1110.25 274.76 1117.94"/><polygon class="cls-10" points="1234.82 1626.03 1214.98 1606.59 1195.54 1626.43 1207.9 1601.56 1183.02 1589.2 1210.49 1593.27 1214.56 1565.79 1219.18 1593.18 1246.57 1588.55 1221.95 1601.41 1234.82 1626.03"/><polygon class="cls-11" points="1280.09 1900.32 1273.89 1894.25 1267.82 1900.44 1271.68 1892.67 1263.91 1888.81 1272.49 1890.08 1273.76 1881.5 1275.21 1890.05 1283.76 1888.61 1276.07 1892.63 1280.09 1900.32"/><polygon class="cls-13" points="990.47 1620.56 985.38 1615.58 980.4 1620.66 983.57 1614.29 977.2 1611.12 984.24 1612.16 985.28 1605.12 986.46 1612.14 993.48 1610.95 987.17 1614.25 990.47 1620.56"/><polygon class="cls-11" points="355.84 1943.48 318.51 1954.28 329.32 1991.61 307.51 1959.45 275.35 1981.26 299.19 1950.58 268.51 1926.74 305.06 1939.93 318.26 1903.38 317 1942.22 355.84 1943.48"/><polygon class="cls-13" points="389.31 2778.34 369.56 2797.06 388.28 2816.82 364.37 2803.81 351.36 2827.72 356.34 2800.96 329.58 2795.98 356.57 2792.45 353.04 2765.47 364.74 2790.04 389.31 2778.34"/><polygon class="cls-10" points="516.99 2600.53 553.76 2600.16 553.39 2563.39 565.11 2598.24 599.96 2586.52 570.43 2608.44 592.35 2637.96 562.38 2616.66 541.08 2646.62 552.08 2611.54 516.99 2600.53"/><polygon class="cls-13" points="176.48 2005.69 195.07 2011.41 200.79 1992.82 201.1 2012.27 220.55 2011.96 202.14 2018.26 208.44 2036.67 196.76 2021.11 181.2 2032.79 192.39 2016.87 176.48 2005.69"/><polygon class="cls-13" points="299.69 184.24 303.7 171.2 290.66 167.19 304.3 166.98 304.09 153.34 308.51 166.25 321.42 161.83 310.5 170.02 318.69 180.93 307.53 173.08 299.69 184.24"/><polygon class="cls-10" points="250.86 2932.04 257.06 2938.11 263.13 2931.91 259.27 2939.68 267.04 2943.54 258.45 2942.27 257.19 2950.85 255.74 2942.3 247.19 2943.74 254.88 2939.73 250.86 2932.04"/><polygon class="cls-11" points="538.29 2973.57 544.49 2979.64 550.56 2973.44 546.7 2981.21 554.47 2985.07 545.89 2983.8 544.62 2992.38 543.17 2983.83 534.62 2985.27 542.31 2981.26 538.29 2973.57"/><polygon class="cls-10" points="156.07 364.07 175.51 344.23 155.67 324.79 180.55 337.15 192.9 312.27 188.84 339.75 216.31 343.81 188.93 348.44 193.55 375.83 180.69 351.21 156.07 364.07"/><polygon class="cls-11" points="4719.92 830.05 4713.74 823.98 4707.65 830.17 4711.52 822.4 4703.75 818.54 4712.34 819.82 4713.61 811.24 4715.05 819.79 4723.6 818.36 4715.92 822.36 4719.92 830.05"/><polygon class="cls-13" points="180.12 2680.57 185.2 2685.55 190.18 2680.47 187.01 2686.84 193.38 2690.01 186.35 2688.96 185.31 2696 184.12 2688.99 177.1 2690.17 183.41 2686.88 180.12 2680.57"/><polygon class="cls-10" points="221.36 1698.36 247.14 1698.09 246.88 1672.31 255.1 1696.75 279.54 1688.53 258.83 1703.9 274.2 1724.6 253.19 1709.66 238.24 1730.68 245.96 1706.07 221.36 1698.36"/><polygon class="cls-11" points="583.71 2795.98 589.9 2802.05 595.97 2795.85 592.11 2803.62 599.88 2807.48 591.3 2806.21 590.03 2814.8 588.59 2806.24 580.03 2807.69 587.72 2803.67 583.71 2795.98"/><polygon class="cls-11" points="741.87 171.51 752.68 208.84 790 198.03 757.84 219.84 779.66 252 748.97 228.15 725.13 258.84 738.33 222.29 701.78 209.09 740.61 210.35 741.87 171.51"/><polygon class="cls-13" points="1148.74 218.03 1167.46 237.79 1187.21 219.07 1174.21 242.98 1198.12 255.99 1171.36 251.01 1166.38 277.76 1162.85 250.78 1135.86 254.31 1160.44 242.61 1148.74 218.03"/><polygon class="cls-13" points="804.08 350.87 809.8 332.28 791.21 326.55 810.66 326.25 810.36 306.8 816.66 325.21 835.06 318.91 819.5 330.59 831.18 346.14 815.27 334.96 804.08 350.87"/><polygon class="cls-10" points="2189.6 1829.74 2189.34 1803.95 2163.56 1804.22 2188 1796 2179.78 1771.56 2195.15 1792.26 2215.85 1776.89 2200.91 1797.91 2221.93 1812.85 2197.32 1805.13 2189.6 1829.74"/><polygon class="cls-13" points="1799.49 382.41 1813.13 368.49 1799.21 354.86 1816.66 363.53 1825.32 346.08 1822.47 365.35 1841.74 368.2 1822.53 371.45 1825.78 390.65 1816.76 373.39 1799.49 382.41"/><polygon class="cls-10" points="1302.43 356.49 1308.5 350.29 1302.3 344.22 1310.07 348.08 1313.93 340.31 1312.66 348.89 1321.25 350.16 1312.69 351.61 1314.14 360.16 1310.12 352.47 1302.43 356.49"/><polygon class="cls-10" points="1548.51 204.71 1567.95 184.87 1548.11 165.43 1572.98 177.79 1585.34 152.91 1581.27 180.39 1608.75 184.45 1581.36 189.08 1585.99 216.46 1573.13 191.85 1548.51 204.71"/><polygon class="cls-13" points="1050.96 427.23 1055.94 422.15 1050.86 417.17 1057.23 420.34 1060.4 413.96 1059.36 421 1066.4 422.04 1059.38 423.23 1060.57 430.24 1057.27 423.94 1050.96 427.23"/><polygon class="cls-10" points="496.75 305.99 496.49 280.21 470.7 280.47 495.14 272.25 486.92 247.81 502.29 268.52 523 253.15 508.06 274.16 529.07 289.1 504.47 281.39 496.75 305.99"/><polygon class="cls-11" points="722.6 793.57 727.42 810.2 744.04 805.38 729.72 815.1 739.44 829.42 725.77 818.8 715.15 832.47 721.03 816.19 704.75 810.31 722.05 810.87 722.6 793.57"/><polygon class="cls-13" points="2549.72 934.98 2563.63 948.61 2577.26 934.69 2568.6 952.14 2586.04 960.8 2566.78 957.95 2563.93 977.22 2560.68 958.02 2541.48 961.26 2558.74 952.24 2549.72 934.98"/><polygon class="cls-10" points="2376.05 277.35 2395.49 257.51 2375.65 238.08 2400.53 250.43 2412.88 225.56 2408.82 253.03 2436.3 257.09 2408.91 261.72 2413.54 289.11 2400.67 264.49 2376.05 277.35"/><polygon class="cls-13" points="2304.31 542.34 2284.56 561.06 2303.28 580.82 2279.37 567.81 2266.36 591.72 2271.34 564.96 2244.58 559.98 2271.57 556.45 2268.04 529.47 2279.74 554.04 2304.31 542.34"/><polygon class="cls-10" points="2165.86 696.04 2172.06 702.11 2178.13 695.91 2174.27 703.68 2182.04 707.54 2173.45 706.27 2172.19 714.85 2170.74 706.3 2162.19 707.74 2169.88 703.73 2165.86 696.04"/><polygon class="cls-11" points="2453.29 737.57 2459.49 743.64 2465.56 737.44 2461.7 745.21 2469.47 749.07 2460.89 747.8 2459.62 756.38 2458.17 747.83 2449.62 749.27 2457.31 745.26 2453.29 737.57"/><polygon class="cls-11" points="2498.71 559.98 2504.9 566.05 2510.97 559.85 2507.11 567.62 2514.88 571.48 2506.3 570.21 2505.03 578.8 2503.59 570.24 2495.03 571.69 2502.72 567.67 2498.71 559.98"/><polygon class="cls-13" points="161.47 767.09 181.23 748.37 162.51 728.61 186.42 741.62 199.42 717.71 194.44 744.47 221.2 749.45 194.21 752.98 197.74 779.96 186.04 755.39 161.47 767.09"/><polygon class="cls-11" points="394.27 715.87 410.9 711.06 406.08 694.43 415.8 708.76 430.12 699.04 419.5 712.71 433.17 723.33 416.89 717.45 411.01 733.73 411.57 716.43 394.27 715.87"/><polygon class="cls-10" points="554.62 522.36 548.42 516.29 542.35 522.49 546.21 514.72 538.44 510.86 547.02 512.13 548.29 503.55 549.73 512.1 558.29 510.66 550.6 514.68 554.62 522.36"/><polygon class="cls-11" points="403.22 524.53 397.02 518.46 390.95 524.65 394.81 516.88 387.04 513.02 395.62 514.29 396.89 505.71 398.33 514.26 406.89 512.82 399.2 516.84 403.22 524.53"/><polygon class="cls-10" points="349.82 1104.95 375.6 1104.68 375.34 1078.9 383.56 1103.34 408 1095.12 387.29 1110.49 402.66 1131.19 381.65 1116.25 366.7 1137.27 374.42 1112.66 349.82 1104.95"/><polygon class="cls-13" points="2324.89 1199.18 2305 1217.76 2323.57 1237.65 2299.76 1224.47 2286.59 1248.28 2291.76 1221.56 2265.04 1216.38 2292.05 1213.05 2288.72 1186.05 2300.24 1210.7 2324.89 1199.18"/><polygon class="cls-11" points="2091.73 1248.7 2075.06 1253.39 2079.76 1270.05 2070.15 1255.65 2055.76 1265.27 2066.47 1251.68 2052.88 1240.96 2069.12 1246.95 2075.12 1230.72 2074.43 1248.01 2091.73 1248.7"/><polygon class="cls-10" points="1929.97 1441.04 1936.13 1447.15 1942.24 1440.99 1938.32 1448.74 1946.07 1452.65 1937.49 1451.32 1936.16 1459.89 1934.79 1451.33 1926.21 1452.71 1933.93 1448.74 1929.97 1441.04"/><polygon class="cls-11" points="2081.38 1439.97 2087.54 1446.08 2093.65 1439.94 2089.74 1447.68 2097.48 1451.6 2088.91 1450.27 2087.57 1458.84 2086.2 1450.28 2077.63 1451.65 2085.34 1447.69 2081.38 1439.97"/><polygon class="cls-10" points="2139.01 859.95 2113.23 860.04 2113.3 885.82 2105.26 861.32 2080.76 869.36 2101.59 854.14 2086.37 833.33 2107.27 848.42 2122.37 827.51 2114.47 852.07 2139.01 859.95"/><polygon class="cls-13" points="2837.56 176.46 2882.62 201.29 2907.45 156.23 2897.76 206.75 2948.29 216.44 2897.24 222.84 2903.64 273.88 2881.78 227.31 2835.21 249.18 2872.75 214 2837.56 176.46"/></svg>