<svg xmlns="http://www.w3.org/2000/svg" viewBox="0 0 5000.97 5005.98"><title>LINE ART AUTUM 2021</title><g style="isolation:isolate"><g id="Layer_1" data-name="Layer 1"><path d="M2002.2,3471a40.09,40.09,0,0,1-45.14,16.6" transform="translate(1.79 -1.06)" style="fill:none;stroke:#11bc92;stroke-miterlimit:10;stroke-width:14px"/><path d="M2010,3409.39a43,43,0,0,0,30.42-24.33" transform="translate(1.79 -1.06)" style="fill:none;stroke:#11bc92;stroke-miterlimit:10;stroke-width:14px"/><path d="M1978.52,3879.93c-4.15.68-87,15.73-115.6,88.23-24.78,62.89,2.25,141.4,68.45,182.53" transform="translate(1.79 -1.06)" style="fill:none;stroke:#11bc92;stroke-miterlimit:10;stroke-width:14px"/><path d="M2036.32,3281.62a40,40,0,0,1-4.56,12.17,40.61,40.61,0,0,1-12.17,13.18" transform="translate(1.79 -1.06)" style="fill:none;stroke:#11bc92;stroke-miterlimit:10;stroke-width:14px"/><path d="M1811.2,3431.7a34.52,34.52,0,0,0,30.42,2" transform="translate(1.79 -1.06)" style="fill:none;stroke:#11bc92;stroke-miterlimit:10;stroke-width:14px"/><path d="M2062.18,4743.93a63.5,63.5,0,0,0-21.06,16.07c-1.69,2-15.89,19.16-15.06,42.48.43,11.92,4.66,21.93,4.18,22.07s-2.55-6.14-4.56-12.17" transform="translate(1.79 -1.06)" style="fill:none;stroke:#11bc92;stroke-miterlimit:10;stroke-width:14px"/><path d="M2676.21,2679.59l31.44,27" transform="translate(1.79 -1.06)" style="fill:none;stroke:#11bc92;stroke-miterlimit:10;stroke-width:14px"/><path d="M1991.7,4802.75a133.68,133.68,0,0,0-37.52,44.62c-19.9,38.56-14.59,75.54-12.17,88.22-80.74-8.87-167.12-15.37-258.59-18.25-59-1.86-115.82-2.09-170.36-1" transform="translate(1.79 -1.06)" style="fill:none;stroke:#11bc92;stroke-miterlimit:10;stroke-width:14px"/><g id="head"><path d="M1664.83,1465.73c13.53-25.42,51.36-88.25,129.13-130.14a317.15,317.15,0,0,1,157.18-37.52q4,29.64,7.91,59.28" transform="translate(1.79 -1.06)" style="fill:none;stroke:#11bc92;stroke-miterlimit:10;stroke-width:12px"/><path d="M2028.21,1695.59,2263.48,1582c-3.93-18.82-27.14-120.81-125.75-182.53-76.8-48.07-153.75-43.17-178.48-40.56l40.57,218c-48.6-10.28-96.74,13.4-115.61,54.76a97.06,97.06,0,0,0,112.56,133.86q42.09,92.79,84.17,185.58a286.8,286.8,0,0,0,32.75-17.06c37.29-22.47,94.1-67.22,125.45-145.19,37.17-92.44,15.54-174.38,8.11-198.76" transform="translate(1.79 -1.06)" style="fill:none;stroke:#5932c4;stroke-miterlimit:10;stroke-width:14px"/><path d="M1931.87,1354.86l-4-30.42a280,280,0,0,0-230.2,139.94" transform="translate(1.79 -1.06)" style="fill:none;stroke:#11bc92;stroke-miterlimit:10;stroke-width:8px"/><path d="M1959.05,1357.35l.2,1.57c-17.63-3.38-76.22-12.32-137.91,20.28-51.63,27.28-77,68.64-86.2,85.52" transform="translate(1.79 -1.06)" style="fill:none;stroke:#5932c4;stroke-miterlimit:10;stroke-width:14px"/><circle cx="1983.4" cy="1674.28" r="48.68" style="fill:none;stroke:#11bc92;stroke-miterlimit:10;stroke-width:14px"/><path d="M1712.83,1689.51l-186.59,18.25c-24.18-14.62-37.09-31.42-43.61-41.58-16.28-25.38-15.92-59.51-15.21-127.77.17-16.13.85-33.18,12.65-46.17,9.74-10.7,22.6-14,31-15.69,33.51-6.58,127.57-11.87,253.52-13.18,3.74-.26,8.84,0,13.18,3,10.65,7.36,9,25.59,8.12,46.65-.89,21.27.9,42.61,0,63.88-.69,16-1.78,42.43-3,77.07a83.38,83.38,0,0,1-70,35.5Z" transform="translate(1.79 -1.06)" style="fill:none;stroke:#5932c4;stroke-miterlimit:10;stroke-width:14px"/><path d="M1595.2,1744.27c-26.88,12.53-44.6,38.43-45.64,66.93-1.29,35.55,24,58,27.38,60.84,59.65,3.11,144.94,16.68,225.13,70,113.13,75.19,171.75,200,203.83,185.58,18.6-8.35-1.79-50,30.42-88.22,29.09-34.53,71.75-31.48,82.14-63.89,5-15.5,0-31-4.77-41.4" transform="translate(1.79 -1.06)" style="fill:none;stroke:#5932c4;stroke-miterlimit:10;stroke-width:14px"/><path d="M1550.58,1797q-6.6,39-13.19,78.08c1,12.8,4.84,33.15,20.29,46.65,14.62,12.79,31.64,11.72,61.86,14.2,0,0,47.93,3.94,90.25,14.53,41.5,10.4,70,28.36,95.32,44.29,29.94,18.85,60.36,38,88.57,73.35,26.82,33.61,34.81,60.78,63.55,69.63,6.58,2,25.94,8,41.57-2a35.78,35.78,0,0,0,9.81-9.46" transform="translate(1.79 -1.06)" style="fill:none;stroke:#5932c4;stroke-miterlimit:10;stroke-width:14px"/><path d="M2213.79,1718.92c-11.86,54.95-33.5,86.56-30.42,88.22,3.39,1.83,35.25-33.37,46.64-83.15,12.29-53.7-4.18-102.75-8.11-102.43C2218.4,1621.85,2226.24,1661.23,2213.79,1718.92Z" transform="translate(1.79 -1.06)" style="fill:none;stroke:#11bc92;stroke-miterlimit:10;stroke-width:8px"/><path d="M1981.56,2056.61c-18.18-51.13-38.62-89.27-54.76-115.61-19.27-31.46-40.72-59.67-44.62-103.44a159.1,159.1,0,0,1,2-42.59" transform="translate(1.79 -1.06)" style="fill:none;stroke:#11bc92;stroke-miterlimit:10;stroke-width:14px"/><rect x="1966.97" y="1803.08" width="32.45" height="219.04" transform="translate(-586.61 922.61) rotate(-22.93)" style="fill:none;stroke:#11bc92;stroke-miterlimit:10;stroke-width:14px"/></g><g id="body"><path d="M1541.45,1896.38a91.62,91.62,0,0,0-39.55,16.23c-25.82,18.75-33.48,45.51-35.49,53.74" transform="translate(1.79 -1.06)" style="fill:none;stroke:#5932c4;stroke-miterlimit:10;stroke-width:14px"/><path d="M2028.72,3314.07c12.88,1.24,29.31-7.31,30.42-16.73,1.44-12.22-24-16.37-57.8-47.16-20.42-18.57-17.66-23-38-39.55-13.37-10.88-21.09-14.29-48.68-30.42-13-7.61-31.93-18.91-54.76-33.46" transform="translate(1.79 -1.06)" style="fill:none;stroke:#5932c4;stroke-miterlimit:10;stroke-width:14px"/><path d="M1740.32,3244.63a198.37,198.37,0,0,0,10.33,50.6c10.47,30.33,30.86,33,48.38,70.56a144.9,144.9,0,0,1,11.72,35.87,139.63,139.63,0,0,1,1.61,37.86c-.55,12.63,8.5,21,15.63,20.29,5-.49,9.78-5.56,11.75-12.24q4.44-14.18,8.61-29.3,6.47-23.52,11.19-45.51c-1.64,17.82,1.9,35.84,6.2,53.21,5.46,22,1.22,47.66,5,70,1.07,6.36,11.06,14.46,17.51,14.46,6.13,0,10.12-7.8,12.55-12.17,6-10.76,6.42-21.12,6.61-27.73,1-33,0-44.7,0-44.7-1.25-15.11-3.34-34.82-7.06-58a161.15,161.15,0,0,1,26.39,31.42c11.55,18,16.72,34.08,20.35,45.64,9.9,31.5,6,41.44,17.75,65.41,5,10.11,13.9,28.42,22.82,27.38,10-1.18,15.73-26.21,16.73-42.6.61-10.1-2.13-23-7.61-48.67-4-18.64-8.41-31.24-12.16-42.59-2-6.13-4.08-11.9-7.1-18.76a135.08,135.08,0,0,0-8.12-16.23c-4.43-7.41-6.13-8.95-16.73-22.82-3-4-9.91-13-9.12-13.69.57-.52,5.47,3.19,25.07,22.63,14.52,14.38,21.84,22.69,29.69,35.18,13,20.78,12,30.89,22.81,35.49,7.87,3.36,20.77,3.24,25.86-3.55,13.48-18-27.84-82.43-60.64-112.23-3.64-3.31-14.15-12.56-12.37-15.54,2.1-3.52,20.23,3.55,22.81,4.56,19.34,7.54,21.67,14.22,32,15.21" transform="translate(1.79 -1.06)" style="fill:none;stroke:#5932c4;stroke-miterlimit:10;stroke-width:14px"/><path d="M1687.46,3233.51A363.09,363.09,0,0,1,1862.92,3094" transform="translate(1.79 -1.06)" style="fill:none;stroke:#11bc92;stroke-miterlimit:10;stroke-width:14px"/><path d="M1502.92,1923.42a90.12,90.12,0,0,0,22.31,31.78c33.32,30,76.71,19.36,121.69,22.31,74.9,4.91,142.63,45.07,180.5,83.15,41.53,41.75,30.4,64.13,91.27,127.78,57.65,60.28,81.39,54.59,87.21,52.73,22.08-7.06,31.2-37.15,34.48-50.71" transform="translate(1.79 -1.06)" style="fill:none;stroke:#11bc92;stroke-miterlimit:10;stroke-width:14px"/><path d="M1208.83,1875.08q-16.72,86.72-33.46,173.41l243.38,9.13q13.68-112.56,27.38-225.13" transform="translate(1.79 -1.06)" style="fill:none;stroke:#11bc92;stroke-miterlimit:10;stroke-width:14px"/><path d="M1467.42,1538.41a324.66,324.66,0,0,0-29.41,30.42,331.44,331.44,0,0,0-58.81,102.42" transform="translate(1.79 -1.06)" style="fill:none;stroke:#5932c4;stroke-miterlimit:10;stroke-width:14px"/><path d="M1403.54,1844.66l-157.19,28.4c-25.47,8.94-52,2.49-65.91-15.21a46,46,0,0,1-7.21-13.21,57,57,0,0,1-2.93-22.29l8.11-62.87c1.06-8.82,6.48-46,36.91-65.51a71.19,71.19,0,0,1,18.86-8.52l194.2-2a59.45,59.45,0,0,1,46.14,37.52q-2,25.86-4.06,51.72c.23,2.09,3.62,38.69-24.33,59.83C1428.68,1845.68,1409.33,1845.07,1403.54,1844.66Z" transform="translate(1.79 -1.06)" style="fill:none;stroke:#5932c4;stroke-miterlimit:10;stroke-width:14px"/><path d="M1173.23,1844.64l-67.84,48.7-45.63,231.21" transform="translate(1.79 -1.06)" style="fill:none;stroke:#5932c4;stroke-miterlimit:10;stroke-width:14px"/><circle cx="1311.36" cy="1956.21" r="42.59" style="fill:none;stroke:#5932c4;stroke-miterlimit:10;stroke-width:14px"/><line x1="1225.84" y1="1891.27" x2="1253.22" y2="1910.53" style="fill:none;stroke:#11bc92;stroke-miterlimit:10;stroke-width:14px"/><line x1="1215.7" y1="2017.01" x2="1250.18" y2="1992.68" style="fill:none;stroke:#11bc92;stroke-miterlimit:10;stroke-width:14px"/><line x1="1414.56" y1="1867.94" x2="1385.65" y2="1896.84" style="fill:none;stroke:#11bc92;stroke-miterlimit:10;stroke-width:14px"/><line x1="1366.79" y1="1997.75" x2="1396.71" y2="2027.66" style="fill:none;stroke:#11bc92;stroke-miterlimit:10;stroke-width:14px"/><path d="M1446.13,2091.08l-435.05,45.64,1,70,424.9,18.25-6.08,48.68-420.85,74q1.51-72,3-144" transform="translate(1.79 -1.06)" style="fill:none;stroke:#11bc92;stroke-miterlimit:10;stroke-width:14px"/><circle cx="1117.84" cy="2170.65" r="13.69" style="fill:none;stroke:#5932c4;stroke-miterlimit:10;stroke-width:14px"/><circle cx="1332.78" cy="2157.8" r="13.69" style="fill:none;stroke:#5932c4;stroke-miterlimit:10;stroke-width:14px"/><circle cx="1333.4" cy="2253.96" r="13.69" style="fill:none;stroke:#5932c4;stroke-miterlimit:10;stroke-width:14px"/><circle cx="1233.96" cy="2491.6" r="69.97" style="fill:none;stroke:#5932c4;stroke-miterlimit:10;stroke-width:14px"/><path d="M1081.06,2344.61l24.33,348.84h24.34l-18.25,63.89,91.27,133.86,107.49,80.11c1.93-31.61,5.84-84.69,14.2-150.08,19.71-154.23,45.7-232.53,82.14-422.88,12.35-64.52,23.09-119.24,33.46-194.7,35.88-261,22.67-424.89,100.4-456.34,27-10.93,86.62-14.61,97.35-15.21,43.76-2.45,69.85,2,94.31-15.21,19.11-13.47,28-33.69,32.45-47.66" transform="translate(1.79 -1.06)" style="fill:none;stroke:#5932c4;stroke-miterlimit:10;stroke-width:14px"/><path d="M1497.8,2711.7a200.19,200.19,0,0,1,180.51,58.82" transform="translate(1.79 -1.06)" style="fill:none;stroke:#11bc92;stroke-miterlimit:10;stroke-width:14px"/><path d="M1344.72,2691.42l-239.33,2V2622l254.54-5.58Z" transform="translate(1.79 -1.06)" style="fill:none;stroke:#11bc92;stroke-miterlimit:10;stroke-width:14px"/><path d="M1507.94,2746.18a205.12,205.12,0,0,1,172.4,46.65" transform="translate(1.79 -1.06)" style="fill:none;stroke:#11bc92;stroke-miterlimit:10;stroke-width:14px"/><path d="M1312.27,3174.13a308.64,308.64,0,0,0,54.76,13.69c46.12,7.11,79.28,1.34,124.73-4.57,31.85-4.14,78.92-9.54,138.42-13.69" transform="translate(1.79 -1.06)" style="fill:none;stroke:#11bc92;stroke-miterlimit:10;stroke-width:14px"/><path d="M1397.45,2726.92c12.29,4.73,53.61,22.41,76.06,66.92,24.21,48,16.89,108.23-18.26,155.16" transform="translate(1.79 -1.06)" style="fill:none;stroke:#11bc92;stroke-miterlimit:10;stroke-width:14px"/><path d="M1427.87,2298q-8.4,92.28-13.69,190.14-2.9,54.83-4.56,108c-.39,3.14-3.3,35.56-9.13,100.39-5.72,63.67-8.35,96.33,3,136.9,3.86,13.75,8.67,26.14,17.72,45,31.58,65.7,64.89,106.25,140.47,204.51,50.52,65.68,61.16,80.74,88.23,109.52a913,913,0,0,0,70,66.93A318.72,318.72,0,0,1,1869,3143.7a211.84,211.84,0,0,0-3-39.54c-10.71-62-45.24-93.74-110.88-181.7-38.5-51.58-57.9-77.85-65.57-101.23-18.37-56-8.2-109.74,3-146A993.6,993.6,0,0,0,1799,2444c10.25-32.9,18.19-64.47,24.34-94.31" transform="translate(1.79 -1.06)" style="fill:none;stroke:#5932c4;stroke-miterlimit:10;stroke-width:14px"/><path d="M1500.89,2016a989,989,0,0,0-28.4,150.09c-1,9-2.87,53.11-6.59,140.95-3.28,77.45-5.18,127.21-2.34,194.63.45,10.44.91,19.06,1.23,24.85a231.86,231.86,0,0,1,45.22-3.48c23.51.5,59,1.26,90.26,22.31,10.8,7.29,20,16.3,34.48,30.43,23.39,22.85,25.12,29.47,33.33,30.28,9.47.94,23-6.29,57.93-68.82,20.17-36.06,32.27-63.3,40.57-81.12a1129.68,1129.68,0,0,1,56.79-106.48" transform="translate(1.79 -1.06)" style="fill:none;stroke:#11bc92;stroke-miterlimit:10;stroke-width:14px"/><path d="M2064.72,2253.34a111.44,111.44,0,0,1-20.28,40.56c-20.94,26.39-48.12,35.55-58.82,38.54a167,167,0,0,1,12.17,154.14l75,97.35" transform="translate(1.79 -1.06)" style="fill:none;stroke:#11bc92;stroke-miterlimit:10;stroke-width:14px"/><path d="M1687.46,3233.51q-13.95-.45-28.38-.57c-200.16-1.44-302.27,52.18-340.73-4.05-13.07-19.12-12.77-64.13-12.17-154.14.3-43.83,2.35-79.76,4.06-103.44" transform="translate(1.79 -1.06)" style="fill:none;stroke:#5932c4;stroke-miterlimit:10;stroke-width:14px"/><path d="M1998.8,2135.7a367.76,367.76,0,0,1,45.64,64.91c78.13,141.72,50.41,298.42,36.5,369.12-20.29,103.23-40.62,93.92-54.76,194.71-10.91,77.79-7.24,143.45-2,229.18,4.79,78.64,13.15,144,20.29,190.65-.38,10.64-2.55,26.21-12.17,40.56a60.18,60.18,0,0,1-20.28,18.93" transform="translate(1.79 -1.06)" style="fill:none;stroke:#5932c4;stroke-miterlimit:10;stroke-width:14px"/><path d="M1500.89,2016a779.17,779.17,0,0,1,105.46,12.17c58.43,10.81,101.8,18.84,142,44.62,42.69,27.39,62.28,62.32,93.52,119.67,53.39,98,97,178.16,72.79,263.66-12.56,44.31-38.79,73.48-91.26,131.83a731.5,731.5,0,0,1-109.52,99.38" transform="translate(1.79 -1.06)" style="fill:none;stroke:#11bc92;stroke-miterlimit:10;stroke-width:14px"/><polyline points="1790.68 2931.72 1926.57 2795.83 1912.37 2885.07 1821.11 2970.25" style="fill:none;stroke:#11bc92;stroke-miterlimit:10;stroke-width:14px"/><path d="M1967.54,2930.75H1938.8c-6.6,0-12-6.69-12-14.86a175.57,175.57,0,0,1,0-128.48,17.55,17.55,0,0,1,3.53-10.5,10.94,10.94,0,0,1,8.47-4.36h28.74c6.6,0,12,6.68,12,14.86v128.48C1979.54,2924.06,1974.14,2930.75,1967.54,2930.75Z" transform="translate(1.79 -1.06)" style="fill:none;stroke:#11bc92;stroke-miterlimit:10;stroke-width:14px"/><path d="M1884.21,3160.44a492.58,492.58,0,0,1,160.23,23.83" transform="translate(1.79 -1.06)" style="fill:none;stroke:#11bc92;stroke-miterlimit:10;stroke-width:14px"/><path d="M1896.38,3211.65a165.15,165.15,0,0,1,20.28,14.19c10.51,8.6,16.33,13.37,18.62,19,5.38,13.35-8,33.94-29.77,51.95a136.34,136.34,0,0,1-37.9,17.9c-15.19,4.45-26.92,9.7-37.28,3.15-11.56-7.3-18.78-19.64-25.56-31.52a60,60,0,0,1,91.61-74.71Z" transform="translate(1.79 -1.06)" style="fill:none;stroke:#11bc92;stroke-miterlimit:10;stroke-width:14px"/></g><g id="bottom"><path d="M1529.3,4717.56q0-11.75,0-24.33c-.2-74.38-2.92-148.73-4-223.1-4.1-268.45-19.47-403.56-24.34-444.17-7.49-62.43-15-108.58-18.26-127.78-18.89-112.44-40.32-195-48.78-227.88-21.59-83.87-54.86-217.15-104.43-428.63" transform="translate(1.79 -1.06)" style="fill:none;stroke:#5932c4;stroke-miterlimit:10;stroke-width:14px"/><path d="M1840.57,4709.42c-2.52,11.33-3.86,27.34,4.17,42a43.33,43.33,0,0,0,3,4.7c37.82,51.25,119.17,9.63,176.45,66.93,30.94,30.95,51.31,87.27,32.46,121.69-20.53,37.48-117,32.77-308.29,24.34-90-4-77.56-7.7-133.86-8.12-64.39-.47-77.41,4.43-93.29-8.11-48.87-38.57-17.65-157.58-12.17-178.48a349.79,349.79,0,0,1,20.3-56.79" transform="translate(1.79 -1.06)" style="fill:none;stroke:#5932c4;stroke-miterlimit:10;stroke-width:14px"/><path d="M2029.46,3429.65c-8.58,82.75-15.68,149.55-20.52,194.73-9.5,88.78-13.5,124.14-18.25,182.54-8.58,105.38-3.83,91.79-9.13,127.77-13,88.1-31.4,101.52-57.8,222.08-6.85,31.29-3,18.66-21.3,112.57-20.52,105.58-23,104.32-30.42,152.11-5.72,37.14-15.17,101.54-24.34,194.7-4.34,44.17-6.52,73.41-7.13,93.27" transform="translate(1.79 -1.06)" style="fill:none;stroke:#5932c4;stroke-miterlimit:10;stroke-width:14px"/><path d="M2031.91,3322.18q-.27,19-.69,38.54" transform="translate(1.79 -1.06)" style="fill:none;stroke:#5932c4;stroke-miterlimit:10;stroke-width:14px"/><path d="M2032.27,3232.94v35.5" transform="translate(1.79 -1.06)" style="fill:none;stroke:#5932c4;stroke-miterlimit:10;stroke-width:14px"/></g><path d="M2032.27,2742.13a351.93,351.93,0,0,0,60.84,22.31c56.53,15,98.79,10.82,156.17,8.11,92.64-4.38,144.81,21.47,158.19-2.23,3.69-6.53,3.16-14,2-19.4" transform="translate(1.79 -1.06)" style="fill:none;stroke:#5932c4;stroke-miterlimit:10;stroke-width:14px"/><path d="M2092.61,2526.13c20.71,7.9,48.59,17.76,82.14,27.38,32.13,9.21,59.82,17.15,96.84,22.31,33.22,4.62,57.07,7.56,90.25,6.59,29.93-.88,57.5-4.83,72.68,12.34a37.54,37.54,0,0,1,7.94,15" transform="translate(1.79 -1.06)" style="fill:none;stroke:#5932c4;stroke-miterlimit:10;stroke-width:14px"/><path d="M2735,2693.45q10.36,15.63,20.74,31.25" transform="translate(1.79 -1.06)" style="fill:none;stroke:#11bc92;stroke-miterlimit:10;stroke-width:14px"/><path d="M2412,2757.34a168.28,168.28,0,0,1,30.42-147.55" transform="translate(1.79 -1.06)" style="fill:none;stroke:#11bc92;stroke-miterlimit:10;stroke-width:14px"/><path d="M2369.45,2594.58a283,283,0,0,0-22.82,167.32" transform="translate(1.79 -1.06)" style="fill:none;stroke:#11bc92;stroke-miterlimit:10;stroke-width:14px"/><path d="M2987.23,3321.55a168.29,168.29,0,0,0,59.57-138.38" transform="translate(1.79 -1.06)" style="fill:none;stroke:#11bc92;stroke-miterlimit:10;stroke-width:14px"/><path d="M2403.42,2759.7c27.59-.35,43.8,3.61,53.68,7.56,2.67,1.06,10.59,3,21.07,6.33,6.86,2.19,14.29,3.68,21.25,1.8,12.61-3.4,26.75-1.6,36.71-10,3.61,0,6.82-2.13,10.24-3.26,9.28-3.06,19-4.35,28.71-5.63,10.76-1.42,22.38-1.72,33.22-2.26,12.19-.6,24.84-4.64,35.52-10.54,9.89-5.47,23.33-3.48,34.09-6.93,8.78-2.81,13.87-10.16,25.16-22.17,8.1-8.6,12.32-13.17,15.39-20.77,2.47-6.1,1.59-7.71,5.29-16.53,1.89-4.52,3.29-6.89,2.83-10.51a13.36,13.36,0,0,0-6.09-9.47c-3.57-2.19-7.17-1.82-11.15-1.35a39.53,39.53,0,0,0-16.44,6,50.07,50.07,0,0,0-16.69,17.64,130.16,130.16,0,0,1-28.19,12.2c-4.76,1.41-9.66,4-16.31,3.52-4.18-.29-7.17-1.46-10.94-3-11.85-4.72-20.1-8.16-22.56-9.16-12.65-5.17-26.34-10.56-42.08-7.82-2,.34-3.56.74-4.57,1,.78-7.79-.92-13-2.36-16.07-5-10.6-14.83-13-51.81-29.06-16.27-7.05-16.28-7.93-21.63-9.46-10.19-2.91-21.9-3.72-29.07-8.79-2.87-2-6.5-5.81-8.79-13.52" transform="translate(1.79 -1.06)" style="fill:none;stroke:#5932c4;stroke-miterlimit:10;stroke-width:14px"/><path d="M2571.76,2673.18a203,203,0,0,0,23.41-7.7c7.25-2.89,9.85-4.43,14.45-5.07,9.3-1.3,17.46,2.36,22.82,5.58.7.38,7.75,4.39,8.06,11.19.18,4.27-2.39,7.55-4.49,10.23a25.63,25.63,0,0,1-8.07,6.75" transform="translate(1.79 -1.06)" style="fill:none;stroke:#5932c4;stroke-miterlimit:10;stroke-width:14px"/><path d="M2726.06,2682.29a8.2,8.2,0,0,1,10.83,4.34" transform="translate(1.79 -1.06)" style="fill:none;stroke:#5932c4;stroke-miterlimit:10;stroke-width:14px"/><path d="M2721.85,2691.42a61.5,61.5,0,0,0,19.6-4.05c7.7-3,9.17-5.39,15.21-6.43,6.86-1.17,18-.3,22,6.76,2.62,4.61,1.25,10.17.68,12.51a23.78,23.78,0,0,1-5.33,9.87,29.3,29.3,0,0,1-9.72,7.53c-1.84-.48-4.26.88-5.58,2.23a16.08,16.08,0,0,0-2.91,4.86c-2.21,4.91-6,9.54-9,14-4.06,5.91-13.39,7.2-20.25,9.27-5.94,1.8-12.9,1.86-18.95,3.18-9.1-1.62-19.42,1.18-27.09,6.35-7.92,5.34-19.48,3.15-28.38,6.62-7.66,0-15.87.35-23.53.35-2.25,0-5,1.11-6.11,3.08a11.12,11.12,0,0,0-1,6.58c-8.54-.89-17.62.18-26,1.9-12.16,2.46-24.67,3.7-36.59,7.16-9,0-18.64.21-27.65.21h-27.72c-2.64.88-6.2,1.1-8.84,2a4.52,4.52,0,0,1-1.8.33,3.09,3.09,0,0,1-2.49-2.85,6.68,6.68,0,0,1,.79-4" transform="translate(1.79 -1.06)" style="fill:none;stroke:#5932c4;stroke-miterlimit:10;stroke-width:14px"/><path d="M2740.44,2743.14c2.36,0,5,0,7.35,0,4.71-3.29,11.23-2.68,16.45-5.1a59.82,59.82,0,0,0,.15-8.88,47.9,47.9,0,0,1,5.05-2.42,46.62,46.62,0,0,1,8.52-2.57,14,14,0,0,0,6.76-5.07,14.4,14.4,0,0,0,2.23-10.79l-6.22-4.61" transform="translate(1.79 -1.06)" style="fill:none;stroke:#5932c4;stroke-miterlimit:10;stroke-width:14px"/><path d="M3115.36,3212.51a283.05,283.05,0,0,1-77.12,150.24" transform="translate(1.79 -1.06)" style="fill:none;stroke:#11bc92;stroke-miterlimit:10;stroke-width:14px"/><path d="M2452.1,2616.38" transform="translate(1.79 -1.06)" style="fill:none;stroke:#000;stroke-miterlimit:10;stroke-width:14px"/><g id="head-2" data-name="head"><path d="M4187.22,2552.76a312.17,312.17,0,0,0-13.8-50.05,317.22,317.22,0,0,0-92.86-132.26l-46.39,40.2c15.44,9.15,65.24,41.28,89.85,106.57a205.42,205.42,0,0,1,9.76,35" transform="translate(1.79 -1.06)" style="fill:none;stroke:#11bc92;stroke-miterlimit:10;stroke-width:12px"/><path d="M3759.43,2617.1q-50.47-120.48-100.94-241c15.41-11.49,100.38-72.5,215.13-53.38,89.38,14.89,143.75,69.55,160.55,87.89l-174.86,136.41c43.21,24.5,63.58,74.13,50.3,117.61a97.06,97.06,0,0,1-173,25.67l-186,83.21a286.73,286.73,0,0,1-13.22-34.47c-13-41.54-25.94-112.71,2.25-191.87,33.42-93.87,103.91-140.9,125.63-154.24" transform="translate(1.79 -1.06)" style="fill:none;stroke:#5932c4;stroke-miterlimit:10;stroke-width:14px"/><path d="M4131.9,2638.39" transform="translate(1.79 -1.06)" style="fill:none;stroke:#11bc92;stroke-miterlimit:10;stroke-width:14px"/><circle cx="3809.55" cy="2631.76" r="48.68" style="fill:none;stroke:#11bc92;stroke-miterlimit:10;stroke-width:14px"/><path d="M4051.47,2940.49c11.83,27.2,7.94,58.34-10.17,80.36-22.59,27.48-56.39,27.5-60.82,27.43-46.74-37.19-119.61-83.55-215-96.77-134.55-18.66-261.14,36-275.62,3.92-8.4-18.58,34.46-36.26,35.67-86.24,1.1-45.13-32.87-71.11-19.18-102.27,6.55-14.91,20.59-23.22,31-27.84" transform="translate(1.79 -1.06)" style="fill:none;stroke:#5932c4;stroke-miterlimit:10;stroke-width:14px"/><path d="M4050,3009.55l-41.87,67.22c-9.26,8.89-25.59,21.62-46.1,21.49-19.43-.11-31.46-12.19-55.74-30.35,0,0-38.5-28.82-77.22-48.92-38-19.72-71.23-25.17-100.74-30-34.91-5.72-70.38-11.53-114.93-3.74-42.36,7.4-66.35,22.44-93.74,10-6.28-2.85-24.73-11.21-29.79-29.07a35.58,35.58,0,0,1-1.07-13.59" transform="translate(1.79 -1.06)" style="fill:none;stroke:#5932c4;stroke-miterlimit:10;stroke-width:14px"/><path d="M3605,2511.6c-27.54,49-32.27,87-35.68,86.23-3.75-.87-4.29-48.35,20.16-93.18,26.38-48.36,71.22-74.18,74-71.34C3665.85,2435.85,3633.89,2460.15,3605,2511.6Z" transform="translate(1.79 -1.06)" style="fill:none;stroke:#11bc92;stroke-miterlimit:10;stroke-width:8px"/><path d="M3555.14,2918.39c47.5-26.24,88.08-41.26,117.62-50.29,35.28-10.8,70-17.71,102-47.91a158.51,158.51,0,0,0,26.7-33.24" transform="translate(1.79 -1.06)" style="fill:none;stroke:#11bc92;stroke-miterlimit:10;stroke-width:14px"/><rect x="3633.11" y="2699.94" width="32.45" height="219.04" transform="translate(2692.05 7312.95) rotate(-115.57)" style="fill:none;stroke:#11bc92;stroke-miterlimit:10;stroke-width:14px"/><path d="M4057.36,2425.75l23.2-20.1a281.37,281.37,0,0,1,71.68,114.88,277.59,277.59,0,0,1,8.08,30.85" transform="translate(1.79 -1.06)" style="fill:none;stroke:#11bc92;stroke-miterlimit:10;stroke-width:8px"/></g><g id="body-2" data-name="body"><line x1="3480.15" y1="4256.11" x2="3507.53" y2="4274.37" style="fill:none;stroke:#11bc92;stroke-miterlimit:10;stroke-width:14px"/><line x1="3495.36" y1="4143.55" x2="3504.49" y2="4178.53" style="fill:none;stroke:#11bc92;stroke-miterlimit:10;stroke-width:14px"/><line x1="3518.18" y1="4336.73" x2="3556.2" y2="4354.99" style="fill:none;stroke:#11bc92;stroke-miterlimit:10;stroke-width:14px"/><line x1="3609.07" y1="4347.89" x2="3641.39" y2="4345.86" style="fill:none;stroke:#11bc92;stroke-miterlimit:10;stroke-width:14px"/><line x1="3668.12" y1="4300.64" x2="3697.67" y2="4297.62" style="fill:none;stroke:#11bc92;stroke-miterlimit:10;stroke-width:14px"/><path d="M3973.23,2774.8a91.59,91.59,0,0,1,39.54,16.23c25.83,18.75,33.48,45.51,35.5,53.74" transform="translate(1.79 -1.06)" style="fill:none;stroke:#11bc92;stroke-miterlimit:10;stroke-width:14px"/><path d="M3774.36,4123.05a198.12,198.12,0,0,1-10.34,50.61c-10.47,30.33-30.86,33-48.37,70.55a144.6,144.6,0,0,0-11.72,35.87,139.24,139.24,0,0,0-1.61,37.86c.54,12.63-8.5,21-15.63,20.29-5.05-.48-9.78-5.56-11.76-12.23q-4.44-14.19-8.61-29.3-6.46-23.53-11.18-45.51c1.64,17.82-1.9,35.83-6.21,53.2-5.46,22-1.21,47.66-5,70-1.07,6.36-11.07,14.46-17.51,14.47-6.14,0-10.12-7.8-12.55-12.18-6-10.76-6.42-21.12-6.61-27.73-1-32.94,0-44.7,0-44.7,1.24-15.11,3.34-34.81,7.06-58a125.8,125.8,0,0,0-26.4,31.42c-19.26,32.75-11.76,55.69-33.53,92.06-4.76,8-18.83,31.46-30.42,28.9-9.53-2.09-12.91-20.79-13.69-25.12-2.11-11.65-.7-21.49,7.6-48.68,8.91-29.2,13.67-44.79,23.87-65.15,5.46-10.91,10.92-21.81,20.24-35.24,5.36-7.72,9.78-13.09,9.13-13.69s-5.47,3.19-25.08,22.62a145.47,145.47,0,0,0-29.68,35.18c-13.42,22.41-15.59,40.25-27.38,42.59-7.17,1.43-17-3-21.3-10.65-14-24.92,31.23-85.51,60.64-112.23,3.64-3.3,14.16-12.56,12.38-15.54-2.1-3.52-20.23,3.55-22.82,4.56-19.33,7.54-21.66,14.22-31.94,15.21-12.88,1.24-29.31-7.31-30.42-16.73-1.45-12.21,24-16.37,57.8-47.15,20.42-18.58,17.66-23,38-39.55,13.37-10.88,21.08-14.3,48.67-30.43,13-7.59,32.32-17.51,54.76-33.46" transform="translate(1.79 -1.06)" style="fill:none;stroke:#5932c4;stroke-miterlimit:10;stroke-width:14px"/><path d="M3827.22,4111.93a363.27,363.27,0,0,0-175.46-139.49" transform="translate(1.79 -1.06)" style="fill:none;stroke:#11bc92;stroke-miterlimit:10;stroke-width:14px"/><path d="M4356.55,2769.73q16.72,86.71,33.46,173.41l-243.38,9.13q-13.68-112.56-27.38-225.13" transform="translate(1.79 -1.06)" style="fill:none;stroke:#11bc92;stroke-miterlimit:10;stroke-width:14px"/><path d="M4036.61,2412a208.81,208.81,0,0,1,44.11,36.51c37.75,41.27,49.24,87.63,53.24,111" transform="translate(1.79 -1.06)" style="fill:none;stroke:#5932c4;stroke-miterlimit:10;stroke-width:14px"/><path d="M4111.14,2723.08l157.18,28.4c25.47,8.94,52,2.49,65.92-15.21a46.38,46.38,0,0,0,7.21-13.21,57.14,57.14,0,0,0,2.93-22.29l-8.11-62.87c-1.06-8.82-6.48-46-36.91-65.51a71.42,71.42,0,0,0-18.87-8.52l-194.19-2a59.79,59.79,0,0,0-25.46,10.54,60.41,60.41,0,0,0-20.69,27q2,25.86,4.06,51.71c-.23,2.09-3.62,38.7,24.34,59.84C4086,2724.1,4105.35,2723.49,4111.14,2723.08Z" transform="translate(1.79 -1.06)" style="fill:none;stroke:#5932c4;stroke-miterlimit:10;stroke-width:14px"/><path d="M4341.45,2723.06l67.83,48.7q22.81,115.6,45.64,231.21" transform="translate(1.79 -1.06)" style="fill:none;stroke:#5932c4;stroke-miterlimit:10;stroke-width:14px"/><circle cx="4259.64" cy="2850.86" r="42.59" style="fill:none;stroke:#5932c4;stroke-miterlimit:10;stroke-width:14px"/><line x1="4302.57" y1="2785.69" x2="4324.88" y2="2767.44" style="fill:none;stroke:#11bc92;stroke-miterlimit:10;stroke-width:14px"/><line x1="4317.78" y1="2887.1" x2="4344.15" y2="2903.32" style="fill:none;stroke:#11bc92;stroke-miterlimit:10;stroke-width:14px"/><line x1="4189.68" y1="2790.58" x2="4164.33" y2="2770.29" style="fill:none;stroke:#11bc92;stroke-miterlimit:10;stroke-width:14px"/><line x1="4172.77" y1="2902.31" x2="4194.06" y2="2882.03" style="fill:none;stroke:#11bc92;stroke-miterlimit:10;stroke-width:14px"/><path d="M4117.23,2969.51l386.47,45.63-.9,70-377.47,18.26,5.41,48.67,373.87,74q-1.36-72-2.71-144" transform="translate(1.79 -1.06)" style="fill:none;stroke:#11bc92;stroke-miterlimit:10;stroke-width:14px"/><path d="M4117.23,3605.34c-12.29,4.73-53.61,22.41-76.06,66.93-24.21,48-16.89,108.22,18.25,155.15" transform="translate(1.79 -1.06)" style="fill:none;stroke:#11bc92;stroke-miterlimit:10;stroke-width:14px"/><circle cx="4400.43" cy="3049.07" r="13.69" style="fill:none;stroke:#5932c4;stroke-miterlimit:10;stroke-width:14px"/><circle cx="4185.49" cy="3036.22" r="13.69" style="fill:none;stroke:#5932c4;stroke-miterlimit:10;stroke-width:14px"/><circle cx="4399.85" cy="3146.58" r="13.69" style="fill:none;stroke:#5932c4;stroke-miterlimit:10;stroke-width:14px"/><circle cx="4291.7" cy="3367.65" r="13.69" style="fill:none;stroke:#5932c4;stroke-miterlimit:10;stroke-width:14px"/><circle cx="4291.3" cy="3370.03" r="69.97" style="fill:none;stroke:#11bc92;stroke-miterlimit:10;stroke-width:14px"/><path d="M4409.28,3206.8v365.07h-24.34l18.26,63.89-91.27,133.86L4161.85,3877.9c-5.46-30.76-13.14-77.19-20.29-133.86-26.38-209.26-21.25-366.46-20.28-421.86,2.34-132.89-7.72-333.07-64.9-620.62" transform="translate(1.79 -1.06)" style="fill:none;stroke:#5932c4;stroke-miterlimit:10;stroke-width:14px"/><path d="M4158.3,3570.35l251,1.52v-71.49l-261.63-1.52Z" transform="translate(1.79 -1.06)" style="fill:none;stroke:#11bc92;stroke-miterlimit:10;stroke-width:14px"/><path d="M4019.87,3590.13a200.22,200.22,0,0,0-180.5,58.81" transform="translate(1.79 -1.06)" style="fill:none;stroke:#11bc92;stroke-miterlimit:10;stroke-width:14px"/><path d="M4009.73,3624.61a205.06,205.06,0,0,0-172.39,46.64" transform="translate(1.79 -1.06)" style="fill:none;stroke:#11bc92;stroke-miterlimit:10;stroke-width:14px"/><path d="M4178.07,4052.32a154.38,154.38,0,0,1-30.42,13.92c-46.44,15.38-85.95,3.44-124.73-4.56-32.59-6.73-79-13.63-138.43-13.69" transform="translate(1.79 -1.06)" style="fill:none;stroke:#11bc92;stroke-miterlimit:10;stroke-width:14px"/><path d="M4068.55,2969.51c17.22,109.86,24.74,200,28.39,263.43,0,0,2.32,40.1,8.12,241.58h0c.38,3.15,3.3,35.56,9.12,100.4,5.72,63.66,8.35,96.32-3,136.9-3.86,13.75-8.68,26.13-17.73,45-31.57,65.69-64.89,106.25-140.47,204.5-50.52,65.68-61.16,80.74-88.22,109.52a912.84,912.84,0,0,1-70,66.93,318.62,318.62,0,0,0-149.07-115.6,211,211,0,0,1,3-39.55c10.7-62,45.24-93.74,110.88-181.7,38.49-51.58,57.9-77.84,65.57-101.23,18.36-56,8.2-109.74-3-146a992.59,992.59,0,0,1-106.48-231.21c-10.26-32.89-18.2-64.47-24.34-94.31" transform="translate(1.79 -1.06)" style="fill:none;stroke:#5932c4;stroke-miterlimit:10;stroke-width:14px"/><path d="M4036.1,3091a759.64,759.64,0,0,1,16.22,105.47c2.24,27,1,30,3.79,80.33,2.79,51.38,4.92,77,7.38,110.33,2,27.37,1.39,57.88,2.3,85.31.24,7.24-2.21,17.5-2.81,24.72a178.42,178.42,0,0,0-81.67-3,350.75,350.75,0,0,0-31.33,18.63c-24.06,16-29.64,24-48.31,34.63-22.59,12.83-34.42,19.55-46.62,16.19-18.94-5.2-22.39-30.16-43.81-79.88-10.26-23.79-23.37-46.24-34.88-69.44-13.75-27.71-33.88-67.52-60-116.47" transform="translate(1.79 -1.06)" style="fill:none;stroke:#5932c4;stroke-miterlimit:10;stroke-width:14px"/><path d="M3827.22,4111.93c6.9-.19,16.67-.43,28.37-.56,196.52-2.33,254.91,29.78,294.09,1.8,30.37-21.69,50-80.07,12.17-235.27" transform="translate(1.79 -1.06)" style="fill:none;stroke:#5932c4;stroke-miterlimit:10;stroke-width:14px"/><path d="M3447.93,3129.51a117.93,117.93,0,0,0,22.31,42.81c21.2,25.78,47.66,35.25,58.82,38.54A167,167,0,0,0,3516.89,3365l-75,97.35" transform="translate(1.79 -1.06)" style="fill:none;stroke:#11bc92;stroke-miterlimit:10;stroke-width:14px"/><path d="M3525,2997c-4.68,7.09-11.45,17.33-19.64,29.64-19.92,29.93-33.63,49.69-35.12,52.39-78.14,141.72-50.41,298.42-36.51,369.13,20.3,103.22,40.62,93.92,54.76,194.7,10.92,77.79,7.24,143.45,2,229.18-4.78,78.64-13.15,144-20.28,190.65.38,10.64,2.54,26.21,12.17,40.56a67.48,67.48,0,0,0,8.78,10.42,60.67,60.67,0,0,0,11.49,8.51" transform="translate(1.79 -1.06)" style="fill:none;stroke:#5932c4;stroke-miterlimit:10;stroke-width:14px"/><path d="M3591.93,2999.7c2.36,7.22,11.36,37.57-4.06,69.19-14.92,30.61-46.71,50.08-79.1,50.7a88.88,88.88,0,0,1-43.94-11" transform="translate(1.79 -1.06)" style="fill:none;stroke:#11bc92;stroke-miterlimit:10;stroke-width:14px"/><path d="M3660.89,3115.54c-21.57,28.31-87.95,122.63-60.85,219,12.89,45.83,43.24,79.14,91.27,131.83a780.7,780.7,0,0,0,109.52,99.38" transform="translate(1.79 -1.06)" style="fill:none;stroke:#11bc92;stroke-miterlimit:10;stroke-width:14px"/><polyline points="3727.58 3810.14 3591.7 3674.25 3605.89 3763.49 3697.16 3848.68" style="fill:none;stroke:#11bc92;stroke-miterlimit:10;stroke-width:14px"/><path d="M3547.14,3809.17h28.73a12,12,0,0,0,12-12,116.67,116.67,0,0,0,0-103.78,12.26,12.26,0,0,0-3.52-8.47,12,12,0,0,0-8.48-3.53h-28.73a12,12,0,0,0-12,12v103.78A12,12,0,0,0,3547.14,3809.17Z" transform="translate(1.79 -1.06)" style="fill:none;stroke:#11bc92;stroke-miterlimit:10;stroke-width:14px"/><path d="M3630.46,4038.86a492.58,492.58,0,0,0-160.22,23.83" transform="translate(1.79 -1.06)" style="fill:none;stroke:#5932c4;stroke-miterlimit:10;stroke-width:14px"/><path d="M3647.2,4073.11a191.13,191.13,0,0,0-42.59,24.34c-15.45,11.7-23.17,17.54-25.21,25.85-6.32,25.68,34.82,57.69,67.67,69.85,22.85,8.45,34.31,5,37.28,3.16,11.56-7.31,18.78-19.65,25.55-31.52,13.53-17.14,17.82-39.45,10.31-58.21C3709.92,4080.89,3678.88,4065.33,3647.2,4073.11Z" transform="translate(1.79 -1.06)" style="fill:none;stroke:#11bc92;stroke-miterlimit:10;stroke-width:14px"/></g><line x1="2779.47" y1="3113.09" x2="2816.99" y2="3108.02" style="fill:none;stroke:#11bc92;stroke-miterlimit:10;stroke-width:14px"/><path d="M3474.3,3585.84A1674,1674,0,0,1,2981.51,3320" transform="translate(1.79 -1.06)" style="fill:none;stroke:#5932c4;stroke-miterlimit:10;stroke-width:14px"/><path d="M3050.46,3178c18,6.28,45.23,16.06,78.11,28.85,63.84,24.85,111.54,46.53,173.33,74.73,28.7,13.1,67.93,31.27,114.59,53.75" transform="translate(1.79 -1.06)" style="fill:none;stroke:#5932c4;stroke-miterlimit:10;stroke-width:14px"/><path d="M1951.14,4060.44a1261.33,1261.33,0,0,1-15.85,324.91c-32.8,181.58-95.37,296.5-45,344.38,49.37,46.93,148-26.86,219,36.51,30.14,26.89,56.16,79.25,36.5,109.52-14.91,23-50.35,24.29-60.84,24.34" transform="translate(1.79 -1.06)" style="fill:none;stroke:#5932c4;stroke-miterlimit:10;stroke-width:14px"/><path d="M2993.71,3320.55c-17.54,1.44-34.18-7.35-49.1-16.68-6.11-3.82-14-4.74-20.89-6.87s-13.82-5.17-18.45-10.7c-8.39-10-21-16.63-24.35-29.25-2.92-2.11-4.36-5.66-6.53-8.55-5.85-7.81-13.1-14.46-20.31-21.05-8-7.33-17.36-14.23-25.93-20.87-9.65-7.48-17.71-18-23.08-29-5-10.14-17.13-16.2-24-25.19-5.59-7.33-5.54-16.28-7.93-32.59-1.71-11.69-2.56-17.85-.72-25.84,1.47-6.41,3.11-7.23,5.13-16.58,1-4.79,1.25-7.53,3.71-10.24a13.31,13.31,0,0,1,10.4-4.27c4.19.25,6.93,2.62,9.92,5.28a39.43,39.43,0,0,1,10,14.35,50,50,0,0,1,3.58,24,129.24,129.24,0,0,0,16.13,26.14c3.09,3.88,5.63,8.8,11.34,12.23,3.6,2.15,6.72,2.91,10.66,3.84,12.43,2.91,21.16,4.82,23.75,5.41,13.33,3,27.64,6.43,39,17.69,1.41,1.4,2.49,2.64,3.16,3.44,3.82-6.83,8.19-10.12,11.14-11.82,10.14-5.84,19.61-2.18,59.11,5.85,13.86,2.83,13.36,2.51,23.15,4.64,16.49,3.57,30.17,7.13,40.11,9.87" transform="translate(1.79 -1.06)" style="fill:none;stroke:#5932c4;stroke-miterlimit:10;stroke-width:14px"/><path d="M2904.5,3161.08a206.39,206.39,0,0,1-14.78-19.72c-4.28-6.52-5.54-9.27-8.94-12.43-6.88-6.39-15.66-8.06-21.9-8.49-.8-.09-8.87-.85-13,4.55-2.6,3.4-2.38,7.56-2.19,11a25.64,25.64,0,0,0,2.75,10.16" transform="translate(1.79 -1.06)" style="fill:none;stroke:#5932c4;stroke-miterlimit:10;stroke-width:14px"/><path d="M2772.8,3080.18a8.21,8.21,0,0,0-11.36-2.65" transform="translate(1.79 -1.06)" style="fill:none;stroke:#5932c4;stroke-miterlimit:10;stroke-width:14px"/><path d="M2771,3090.08a61.91,61.91,0,0,1-13.75-14.55c-4.6-6.86-4.43-9.67-8.79-14-4.95-4.89-14.55-10.54-21.88-7-4.78,2.28-6.85,7.62-7.72,9.86a23.77,23.77,0,0,0-1.28,11.14,29.34,29.34,0,0,0,3.65,11.75c1.79.65,3,3.15,3.3,5a16.36,16.36,0,0,1-.39,5.65c-1,5.28-.57,11.24-.61,16.61-.05,7.17,6.85,13.57,11.29,19.2,3.84,4.87,9.5,8.91,13.71,13.46,8.39,3.88,15.25,12.09,18.57,20.71,3.44,8.92,14.16,13.75,19.48,21.69,6.28,4.39,12.81,9.37,19.09,13.76,1.84,1.29,3.46,3.78,3.24,6a11,11,0,0,1-3,5.94c7.52,4.17,14.35,10.25,20.27,16.48,8.55,9,18.1,17.16,25.89,26.82,7.39,5.16,15.16,10.85,22.55,16l22.72,15.87c1.66,2.24,4.45,4.46,6.12,6.69a4.41,4.41,0,0,0,1.27,1.31,3.1,3.1,0,0,0,3.68-.92,6.67,6.67,0,0,0,1.64-3.72" transform="translate(1.79 -1.06)" style="fill:none;stroke:#5932c4;stroke-miterlimit:10;stroke-width:14px"/><path d="M2726.16,3121.83c-1.94-1.36-4.11-2.82-6-4.17-2-5.4-7.67-8.64-10.57-13.61a60.07,60.07,0,0,1,5-7.36,46.38,46.38,0,0,0-2.75-4.88,47.34,47.34,0,0,0-5.51-7,13.87,13.87,0,0,1-2.64-8,14.44,14.44,0,0,1,4.35-10.12l7.73-.21" transform="translate(1.79 -1.06)" style="fill:none;stroke:#5932c4;stroke-miterlimit:10;stroke-width:14px"/><path d="M3035.13,3183.05" transform="translate(1.79 -1.06)" style="fill:none;stroke:#000;stroke-miterlimit:10;stroke-width:14px"/><path d="M1699.13,2394l-38-50.61a27.93,27.93,0,0,0,10.76-30.87L1701.4,2299l31.07-14.88a3.94,3.94,0,0,0,1.75-5.48l-2.39-4.29a102,102,0,0,0-57.09-47.41l4-13a7.92,7.92,0,0,0,.58-2.66,7.13,7.13,0,0,0-.59-2.71,6.23,6.23,0,0,0-1.73-2.19,6.09,6.09,0,0,0-2.4-1.36,6.3,6.3,0,0,0-2.76-.19,7.06,7.06,0,0,0-2.64.89,6,6,0,0,0-2,1.83,4.88,4.88,0,0,0-1,2.55l-4.12,13.39a101.06,101.06,0,0,0-18.36-1.92l5.11-16.68a7.92,7.92,0,0,0,.58-2.66,7,7,0,0,0-.6-2.71,6.09,6.09,0,0,0-1.72-2.19,6.16,6.16,0,0,0-2.4-1.36,6.3,6.3,0,0,0-2.76-.19,7.17,7.17,0,0,0-2.65.89,6,6,0,0,0-1.95,1.83,4.88,4.88,0,0,0-1,2.55l-6.69,21.25a99.66,99.66,0,0,0-59.41,28.92,96.2,96.2,0,0,0-27.35,59.14,98,98,0,0,0,16.81,63.43,102.46,102.46,0,0,0,53.52,39.82l70.89,21.55a4.1,4.1,0,0,0,5.13-2.67l10.44-34.85A4.22,4.22,0,0,0,1699.13,2394Zm-79.41,3.25a84.91,84.91,0,0,1-43.41-30.58,80.88,80.88,0,0,1-15.78-49.87,79.09,79.09,0,0,1,18.31-48.48,81.82,81.82,0,0,1,44.92-27.16l-7.71,25.36a8,8,0,0,0-.58,2.67,7,7,0,0,0,.6,2.71,7.16,7.16,0,0,0,4.12,3.55,6.3,6.3,0,0,0,2.76.19,7.06,7.06,0,0,0,2.64-.89,6,6,0,0,0,2-1.83,4.88,4.88,0,0,0,1-2.55l9.44-31.16a85.27,85.27,0,0,1,28.66,3.65,83.44,83.44,0,0,1,42.8,29.76,2,2,0,0,1-.7,3l-47,22a30.29,30.29,0,0,0-10.09-5.33,31.14,31.14,0,0,0-12.63-1.16,29.31,29.31,0,0,0-20.79,12.71,27.43,27.43,0,0,0-4.43,11.51,29.3,29.3,0,0,0,.84,12.35,30.46,30.46,0,0,0,6,11,31.16,31.16,0,0,0,10.17,7.57,29.62,29.62,0,0,0,12.37,2.76l36.95,49.27a2.09,2.09,0,0,1,.33,1.78l-3.8,12.33a2.07,2.07,0,0,1-2.57,1.34Zm34.76-73.76a11.8,11.8,0,0,1-3.71,5.52,12,12,0,0,1-6.28,2.54,11.18,11.18,0,0,1-6.62-1.35,12.73,12.73,0,0,1-4.86-4.72,11,11,0,0,1,1.17-12.59,11.76,11.76,0,0,1,5.65-3.68,12.66,12.66,0,0,1,6.8,0,11.62,11.62,0,0,1,7,5.66A11.06,11.06,0,0,1,1654.48,2323.44Z" transform="translate(1.79 -1.06)" style="fill:#6f3ff5;fill-rule:evenodd"/><path d="M1704.12,2298.33a87.14,87.14,0,0,1-21.41,71.47l7.41,15.15c11.09-11.58,19.91-27.1,25-44,5.42-17.82,6.54-36.58,3.18-53l-8.71,6.17Z" transform="translate(1.79 -1.06)" style="fill:#02e2ac;fill-rule:evenodd;mix-blend-mode:soft-light"/><path d="M2782.69,2219.54a224,224,0,0,1-20.28,162.25l25.69,22.31a261.82,261.82,0,0,0,17.58-202.82Z" transform="translate(1.79 -1.06)" style="fill:none;stroke:#11bc92;stroke-miterlimit:10;stroke-width:14px;fill-rule:evenodd"/><path d="M2809.09,2421.32l-99.58-84.8a59.26,59.26,0,0,0,14.7-32.41,58.65,58.65,0,0,0-7.05-34.74l53.28-40.6,55.89-44.18a8.14,8.14,0,0,0,1-11.83l-6.78-7.57a210.85,210.85,0,0,0-136.72-69.62l2.15-28.05a16.5,16.5,0,0,0,0-5.65,14.51,14.51,0,0,0-2.43-5.18,12.89,12.89,0,0,0-4.47-3.65,12.75,12.75,0,0,0-5.47-1.63,12.9,12.9,0,0,0-5.65.86,15.06,15.06,0,0,0-4.93,3,12.32,12.32,0,0,0-3.11,4.59,10.23,10.23,0,0,0-.82,5.59l-2.21,28.88a208.09,208.09,0,0,0-37.89,4.48l2.7-35.95a16.76,16.76,0,0,0,0-5.65,14.51,14.51,0,0,0-2.43-5.18,12.93,12.93,0,0,0-4.48-3.65,13,13,0,0,0-11.11-.77,15.1,15.1,0,0,0-4.94,3,12.29,12.29,0,0,0-3.1,4.59,10.06,10.06,0,0,0-.82,5.59l-3.82,45.9a206.08,206.08,0,0,0-106.64,85.36,199,199,0,0,0-28.23,131.74,202.63,202.63,0,0,0,62.77,120.27A211.82,211.82,0,0,0,2644.93,2500l152.79,11.2a8.48,8.48,0,0,0,9.13-7.72l5.19-75A8.69,8.69,0,0,0,2809.09,2421.32ZM2650.43,2464A175.63,175.63,0,0,1,2549,2422.12a167.51,167.51,0,0,1-54.54-93.38,163.67,163.67,0,0,1,14.86-106.13,169.05,169.05,0,0,1,78.23-75.22l-4,54.66a16.7,16.7,0,0,0,0,5.64,14.21,14.21,0,0,0,2.44,5.18,12.59,12.59,0,0,0,4.47,3.65,13,13,0,0,0,11.11.77,14.77,14.77,0,0,0,4.94-3,12.14,12.14,0,0,0,3.1-4.59,10,10,0,0,0,.82-5.58l4.86-67.13a176.25,176.25,0,0,1,59.46-5.71,172.67,172.67,0,0,1,99.86,40.54,4.2,4.2,0,0,1,0,6.48l-84.88,65.77a62.81,62.81,0,0,0-22.77-6.17,64.39,64.39,0,0,0-26,3.42,60.7,60.7,0,0,0-36.15,35.1,56.75,56.75,0,0,0-3.67,25.23,60.45,60.45,0,0,0,7.32,24.53,62.84,62.84,0,0,0,17.13,19.36,64.84,64.84,0,0,0,24,10.64,61.44,61.44,0,0,0,26.21-.07l97,82.54a4.28,4.28,0,0,1,1.48,3.44l-2.05,26.6a4.24,4.24,0,0,1-4.56,3.86Zm36.51-164.59a24.33,24.33,0,0,1-5,12.82,24.75,24.75,0,0,1-11.51,8,23,23,0,0,1-14,.28,26.34,26.34,0,0,1-11.95-7.3,22.72,22.72,0,0,1-3.36-25.92,24.32,24.32,0,0,1,9.71-10,26,26,0,0,1,13.74-3,24,24,0,0,1,16.61,8.25A22.77,22.77,0,0,1,2686.94,2299.44Z" transform="translate(1.79 -1.06)" style="fill:none;stroke:#5932c4;stroke-miterlimit:10;stroke-width:14px;fill-rule:evenodd"/><path d="M3040.19,572.7a985.06,985.06,0,0,1,167.43,14.35q22.65,3.91,44,8.65s84.8,23.09,165.94,76.47c280.39,184.44,358.18,561.25,173.74,841.64-49.71,75.57-122.12,136-122.12,136a724.45,724.45,0,0,1-339.49,136.06" transform="translate(1.79 -1.06)" style="fill:none;stroke:#5932c4;stroke-miterlimit:10;stroke-width:14px;fill-rule:evenodd"/><path d="M3129.71,1785.82a605.07,605.07,0,0,1-380-98.27c-280.38-184.44-358.17-561.26-173.73-841.65,46.32-70.41,101.78-119.3,122.13-135.95C2831.21,601,2976,578.59,3040.19,572.7" transform="translate(1.79 -1.06)" style="fill:none;stroke:#5932c4;stroke-miterlimit:10;stroke-width:14px;fill-rule:evenodd"/><path d="M2812.18,1257.11a41.89,41.89,0,0,1-10.11,2.89c-7.2.79-14.37-2.26-21.61-1.83-19.89,1.16-9.92,28.13-8.51,39.85-10.69-7.13-25,1.19-33.47,10.78-13.07,14.74-11.85,12.14-29.15,12.79-4.57.18-9.36,2.43-11.21,6.61-3.22,7.28,3.63,15.12,3.8,23.08.09,3.81-1.39,7.57-1,11.37.92,10,12.74,14.33,19.91,21.34a27.36,27.36,0,0,1,7.67,24.08,57.23,57.23,0,0,1-15.28-1.08q-4.48-8.68-9-17.34c-2.65-5.12-5.46-10.42-10.11-13.81-2.61-1.9-5.78-3.19-7.67-5.79-3.77-5.19-.72-12.3.17-18.64,2.18-15.39-5.56-41.3-9.33-56.57-4-16.27-14.82-22.67-18.75-37.7-.69-2.65-4.39-3.51-6.77-2.16s-3.61,4.09-4.28,6.74a28.38,28.38,0,0,0,1.64,18.63c-3.45-7.59-22.64,12.37-23.8,16.16-1.89,6.21,2.22,15.06,2.06,21.51-.39,16-4.26,25-20.79,13.22-6.32-4.5-14.42-9.81-21.12-5.9,1.43,4.35-1.49,9.25-5.57,11.31s-8.95,1.88-13.45,1c-3-.58-6.21-1.57-8.16-4-1-1.29-1.68-2.92-3-3.93-4.24-3.31-9.59,2.42-11.89,7.28" transform="translate(1.79 -1.06)" style="fill:none;stroke:#02e2ac;stroke-miterlimit:10;stroke-width:12px;isolation:isolate"/><path d="M2942.92,1275.76c-32.77-10.13-63.3-18-65.56-12.81-1,2.41,4.61,6,3.61,8.68-1.5,3.95-17.08,3.83-70.39-9.56" transform="translate(1.79 -1.06)" style="fill:none;stroke:#02e2ac;stroke-miterlimit:10;stroke-width:12px;isolation:isolate"/><path d="M3008.39,1369.63h0a22.21,22.21,0,0,1,11.48-7.14c4.15-.93,6.17.23,8.11-1.34,4.78-3.86,3-13.7.46-19.12-4.61-10-18.36-16.46-28.35-19-11.68-3-89.55-17.87-76.71-43.26a9.1,9.1,0,0,1,1-1.74,9.79,9.79,0,0,1,5-3.33" transform="translate(1.79 -1.06)" style="fill:none;stroke:#02e2ac;stroke-miterlimit:10;stroke-width:12px;isolation:isolate"/><path d="M3091.88,1775.22a17.16,17.16,0,0,0,1-1.48c9-15.84-4.06-29.88-11.06-42.87-1.58-2.94-16.4-40.39-11.48-40.5a159.92,159.92,0,0,1-47.11-6.09,4.75,4.75,0,0,1-3-1.79c-1.44-2.48,2-4.9,4.79-5.55,7.12-1.67,14.53-2.06,21.53-4.15s13.91-6.37,16.62-13.15a41.9,41.9,0,0,0,2.28-21.83c-7.31-38.5,10.71-79.33-10.94-161.26a397.84,397.84,0,0,0-46.07-106.92" transform="translate(1.79 -1.06)" style="fill:none;stroke:#02e2ac;stroke-miterlimit:10;stroke-width:12px;isolation:isolate"/><path d="M2629.32,1318c-2,11.24-16.26,15.28-27.77,16.73q-25.93,3.19-51.88,6.45c-8.17-21.49-33.6-21.67-51.5-13.3" transform="translate(1.79 -1.06)" style="fill:none;stroke:#02e2ac;stroke-miterlimit:10;stroke-width:12px;isolation:isolate"/><path d="M3195.88,584.3c3.44,13.57,8.15,30.82.29,41.94-12,16.94-37.33,2.11-46.66,22-.31,5.07,8.14,4.24,12,7.49,2.17,1.8,2.71,4.84,3.79,7.45s3.61,5.25,6.31,4.43c3.14,4.69-1.75,10.46-5.91,14.28-4.89,4.49-9.46,9.71-11.31,16.08-3.86,13.29,4.87,26.48,10.47,39.13,4.63,10.46,7.23,21.67,9.81,32.81.09-5.29,7.57-7.4,12.28-5s7.6,7.23,11.42,10.89c6.51,6.24,14.92,2.46,21.94,7.79,8.72,6.61,14.29,18.48,25.07,20.26,13.05,2.2,22.54-11.73,28.33-23.59,14.35,7.6,23.22,25.94,39.43,27.15,6.25.47,12.28-1.89,18.09-4.17q17.82-7,35.61-14c4.93-1.95,10.35-3.91,15.33-2.12,5.89,2.05,8.89,8.45,11.22,14.17l7.68,18.68c1,2.59,2.1,5.39,1.43,8.06-.73,2.88-3.21,4.86-5.7,6.48a64.36,64.36,0,0,1-46.16,9.42,260.83,260.83,0,0,0,12.59,63.35c-12.13-3.13-26.09.91-37.32-3.76" transform="translate(1.79 -1.06)" style="fill:none;stroke:#02e2ac;stroke-miterlimit:10;stroke-width:12px;isolation:isolate"/><path d="M3296.82,1212.72c8.52,1.76,17,3,22.75,5.26,4.52,1.74,10,3.36,13.86.36,4.76-3.76,3.71-12.61,9.2-15.18,1.75-.82,3.75-.75,5.67-.93,11.24-1.07,20.21-12.89,18.21-24,2.6-3.39,7.67-3.07,11.94-3s9.67-1.3,10.29-5.52c.72-4.86-5.51-7.56-10.41-7.85" transform="translate(1.79 -1.06)" style="fill:none;stroke:#02e2ac;stroke-miterlimit:10;stroke-width:12px;isolation:isolate"/><path d="M3264.27,971.27c14.5-4.37,12-6.91,26.83-2.65,6.18,1.77,13.75.25,17.54,7.11,4,7.26-1.61,16.88-10.09,16.8-6.62-.07-13,.74-19.18-.93" transform="translate(1.79 -1.06)" style="fill:none;stroke:#02e2ac;stroke-miterlimit:10;stroke-width:12px;isolation:isolate"/><path d="M3360,842.49c3.34,5.24-.19,12.07-4,17s-8.27,10.67-6.6,16.66l21.53,2c1.35.13,2.85.33,3.71,1.38s.75,2.59.58,4l-1.68,13.82c-4.53,3.54-8.9-7.6-14.54-6.49-2.49.49-3.76,3.17-5.13,5.32-11.66,18.27-32,4.58-42.87-4.92-12.64-11-30.95-11.74-47.74-11.92-6-.05-12.67.15-16.9,4.44-5.35,5.42-6.08,12.88-6.52,16.31-1.28,10.07-8.54,24.11-35.24,41.13-7.21,9.26-14.78,21.91-10.65,31.95,2.7,6.56,8.6,7.61,10.65,13.69,2,5.87.18,15.81-18.25,33.46,5.49.58,14.37,2.35,19.77,9.13,9,11.35,0,26.23,1.52,39.55,5.54,47.78,147.1,69.88,155,54.34a27.86,27.86,0,0,0,2.65-9c.66-7.46-2.68-10.82-.59-14,2.28-3.45,7.16-.8,10.67-4.37,4.25-4.33,3.19-14.44-1.52-17.63-1.93-1.32-3.54-.83-6.17-1.07-11.2-1-23-13.52-21.13-22,.86-4,4.53-6.32,5.08-6.67,8.79-5.41,19.26,4.56,28.77-1.27a14.83,14.83,0,0,0,4.25-4c6.45-8.52,2.55-19.39,5.59-20.43,1.59-.55,4.61,1.75,5.78,4.71,3.59,9-12.07,19.42-9,25.43,2.87,5.65,17.89-1.14,23.7,6.22,5.22,6.63-2.2,18.13,4.09,23.68,1.19,1,2.27,1.35,6.68,2.25,21.13,4.34,29.2,4.19,32,9.32a23.71,23.71,0,0,1,2.09,7.09c.5,3.49-.13,4.4.37,6,1.67,5.45,13,9,15.87,5.82,2.38-2.57-2.84-7.43-3.66-19.21-.24-3.42-1-14.61,4.07-17.27,4.21-2.2,9.2,3.12,14.2.17,2.83-1.67,2.3-4,4.68-4.79,4.6-1.52,8.21,6.73,14.05,6.5,5.64-.22,10.74-8.28,12.56-14.59,2.7-9.39-1.78-15.19,3-21.71,2.18-3,2.9-1.5,5.33-4.72,3-4,3.06-7.77,7-20.29.42-1.32.46-1.43.62-1.59,4.62-4.94,25.65,21.7,49.33,20.55,10.31-.5,11.68-5.81,50.69-30.16,7.55-4.72,13.8-8.45,17.84-10.83" transform="translate(1.79 -1.06)" style="fill:none;stroke:#02e2ac;stroke-miterlimit:10;stroke-width:12px;isolation:isolate"/><path d="M3613.86,1207.75c-4.5-3.34-10.84,1.19-13.37,6.21-8.29,16.44-9.44,37.07-32.22,32.64-27.17-5.29-8.75-16.92-17.6-31.9-1.28-2.17-3.53-3.56-5.3-5.35-6.49-6.57-5.63-17.19-4.33-26.33,5.21,2.71,12.53-.34,14.28-6,.66-2.11.67-4.55,2.1-6.24,3.07-3.63,9.42-.23,10.9,4.3s.34,9.51,1.33,14.17,6.06,9.22,10.13,6.75a8.3,8.3,0,0,0,3.18-4.88,25.86,25.86,0,0,0-4.66-23.58,10.43,10.43,0,0,0-.44-20.26c-6.62-1.44-16.07,2.46-18.75-3.76a15.06,15.06,0,0,1-5.82,14.54c-17.54,12.74-57,1.39-53.07,38.76.63,6,2.73,11.85,2.59,17.89s-3.45,12.71-9.38,13.86c10.66,8.59,6.76,28.27,18.2,35.78a14.54,14.54,0,0,0,17.74-1.88,6.76,6.76,0,0,1,2.5-2c2.08-.65,4,1.32,6.15,1.77,3.71.8,6.92-3,10.71-3.25,5.27-.3,8.15,6,9.09,11.22s2.34,11.58,7.43,13c1.73.48,3.61.25,5.34.73,3.5,1,5.61,4.78,5.8,8.41s-1.12,7.16-2.41,10.56c-2.19,2.22-6.11.86-8.23-1.43s-3.39-5.34-5.84-7.28c-1.37-1.08-33,1.35-32-.94-4.7,10.88-7.07,34.7-23.41,28.63-5.77-2.14-11.65-6-17.55-4.29q4.22-11.54,8.14-23.17c-2.39-2.11-6.1.78-7.11,3.81s-1.18,6.71-3.73,8.62c-1.79,1.35-4.22,1.36-6.46,1.32l-21.88-.43c-7.92-.16-17,.22-22,6.41-5.61,7-2.38,17.84,3.61,24.56,1.43,1.61,3.12,3.39,3,5.55-.14,2-1.75,3.42-3.15,4.77-7.43,7.14-12.35,17.53-10.74,27.71s11,19.19,21.29,18.28c3.95-.35,8.85-1.68,11.17,1.53,1.37,1.88,1.33,4.92,3.45,5.88,2.67,1.21,4.91-2.15,6.83-4.36a11.77,11.77,0,0,1,14.43-2.34c2.33,1.38,9.64,23.85,7.73,27.11-4.37,7.48-25.07,4.53-33.17,4.89-3.13.14-6.63.45-8.68,2.81-3.21,3.7-.61,9.57,3,12.89s8.27,5.91,10.05,10.46c1,2.65.93,5.58.8,8.42-.27,5.76-.85,12.2-5.23,15.93-2.05,1.75-4.7,2.67-6.75,4.41-4.68,4-5,11.2-3.38,17.12s4.8,11.4,5.94,17.44c2.41,12.85-4.65,26.81.46,38.85,2.47,5.82,10.16,10.46,15,6.36,4.16-3.54,4.12-11.89,9.54-12.5,5.2-.59,11.64,12.52,16,15.06,3.42,2,10.3-1.31,16.58,3.24,5.09,3.68,6.12,11.81,11.6,15.82a483.12,483.12,0,0,0,36.94-41.15" transform="translate(1.79 -1.06)" style="fill:none;stroke:#02e2ac;stroke-miterlimit:10;stroke-width:12px;isolation:isolate"/><path d="M2626.52,772.88c-.48,4.19-.75,8.54.89,12.33a15,15,0,0,0,5,6" transform="translate(1.79 -1.06)" style="fill:none;stroke:#02e2ac;stroke-miterlimit:10;stroke-width:12px;isolation:isolate"/><path d="M2632.45,791.24c3.92,2.85,9.11,4.44,13.92,5.7,29,7.67,47.55,6,67.66-16.56q.85-1,1.65-2c5.34-6.81,8.71-14.64,18.76-16.39,13.68-2.38,18.86,5.28,12.87,18.26a5.77,5.77,0,0,0-.81,3.65c.94,4,6.85,1.65,10.21-.63,7.87-5.31,17.86-5,26.26-1.26,2,.87,5.7-36.66,3.75-41-6.84-15.09-38.46-8-32-24.41,11.84-.25,24,1.3,35.84,2.16q1-8.56,2-17.13c-.49,4.26,21.62,3.38,24.13,2.11,9.72-4.94,7.09-22.66,24.55-19.78,22.1,3.64,23.37,47.08-1.77,40-6,12.75-8.3,28-8.95,42.08-4.54,0-9.13-.09-13.67-.15a12.38,12.38,0,0,0-1.67,11.05,34.18,34.18,0,0,0,37.73.35c7.16,5.5,17.32.23,24.7-5,10.35,16.64,40,14.32,47.64-3.72s-11.36-41-30.52-36.8a43.84,43.84,0,0,0-9.32-25.25c23.74.81,47.09-15.36,54.66-37.86,3.83-11.32,4.69-25,14.25-32.21,4.23-3.22,9.6-4.55,14-7.49,9.91-6.67,12.82-19.71,14.38-31.57q1.51-11.91,2.24-23.88" transform="translate(1.79 -1.06)" style="fill:none;stroke:#02e2ac;stroke-miterlimit:10;stroke-width:12px;isolation:isolate"/><path d="M4940.42,224.33c-3,2.09-5.52,3.74-7.23,4.83a126.26,126.26,0,0,1-33.27,12.2,117.84,117.84,0,0,1-139-91.87c-3.51-17.19-1.82-35.39-1.82-35.39a119.78,119.78,0,0,1,12.78-42.68,118.21,118.21,0,0,1,47.64-48.77,123.61,123.61,0,0,1,33.27-12.2c9.46-2,52-10.77,91.39,16.14,37.53,25.67,45.62,65.7,47.65,75.73a119.53,119.53,0,0,1,1.82,35.39c-2.58,26-13.8,50.59-28.22,65.68A182,182,0,0,1,4940.42,224.33Z" transform="translate(1.79 -1.06)" style="fill:none;stroke:#f3587d;stroke-miterlimit:10;stroke-width:10px;fill-rule:evenodd"/><path d="M4983.8,92.09l-7.87.16a14.3,14.3,0,0,1-4.71-.43,37.61,37.61,0,0,1-3.83-1.87c-3.12-1.42-6.69-1.36-10.12-1.27l-11,.28c-14.7.38-29.17,5.86-42.95,11-7.93,3-16.87,5.28-25.33,5.44s-17.37-2.51-22.88-8.93c-.91-1.06-1.4-3.17,0-3.46-.44-2.88,1.7-6.09,3.66-8.25s4.2-4.29,4.92-7.12c1.15-4.56,4.67-8.83,2.84-13.16-1.19-2.8-3.4-5.24-3.74-8.27A30.62,30.62,0,0,1,4864,44.87a15.78,15.78,0,0,1,6-8.93c6.34-4.27,12.46-10.39,17.63-16a28.4,28.4,0,0,0,3.7-5.27" transform="translate(1.79 -1.06)" style="fill:none;stroke:#5932c4;stroke-miterlimit:10;stroke-width:10px"/><path d="M4976.93,171.55a53.31,53.31,0,0,1-11.86-15.39,7.17,7.17,0,0,0-2-2.84,6.49,6.49,0,0,0-3.48-.84,86,86,0,0,0-17,1,72.15,72.15,0,0,0-11.3-9.71c-4.11-2.82-9-4.81-13.95-4.7-3.39-2.55-8.62-2.38-12.83-1.83s-8.19,2.18-12.12,3.8l-18.79,7.7c-2.31.95-.54,4.15-.26,6.7,1.77,16.4-12.76,22.14-11,37.44.86,7.43,4.86,11.08,2.33,14.75-1.94,2.82-6.19,3.41-10.67,4a23.44,23.44,0,0,1-11-.53c-4.84-1.54-4.72-3.57-8.84-4.38-5.18-1-7,1.88-9.78.09s-4.09-7-4.52-8.76c-.38-1.56-.26-1.84-.7-2.51-1.62-2.45-4.84-1.16-9.18-3-3.34-1.44-2.7-2.74-6.74-4.83a25.35,25.35,0,0,0-7.71-2.36,41.59,41.59,0,0,0-11.75-.5" transform="translate(1.79 -1.06)" style="fill:none;stroke:#5932c4;stroke-miterlimit:10;stroke-width:10px"/><path d="M4473,401.46c3.45,7.94,6.08,14.59,7.79,19.09,0,0,12.56,38.4,12.56,83,0,154.27-125.06,279.33-279.32,279.33-41.58,0-83.06-12.56-83.06-12.56a283.76,283.76,0,0,1-93-49.94,279.83,279.83,0,0,1-90.67-133.78,292.61,292.61,0,0,1-12.56-83.05c-.06-22.9-.32-126,80.85-204.59,77.41-75,174.21-74.78,198.48-74.73a284.2,284.2,0,0,1,83,12.56c59.07,18.31,110.94,56,139.13,96.71C4445.23,346.56,4460,371.72,4473,401.46Z" transform="translate(1.79 -1.06)" style="fill:none;stroke:#11bc92;stroke-miterlimit:10;stroke-width:10px;fill-rule:evenodd"/><path d="M4186.46,238l-3.36,18.35c-.67,3.69-1.37,7.46-3.23,10.72-1.66,2.94-4.17,5.3-6.15,8-4.8,6.58-6.35,14.89-7.77,22.9q-2.27,12.78-4.54,25.56c-6.09,34.32-.23,70.52,5.16,105,3.1,19.81,4.26,41.68.61,61.4s-14.06,39.15-31.58,48.89c-2.91,1.62-8,1.77-8.06-1.55-6.9-.35-13.33-6.85-17.43-12.41s-8-11.81-14.19-14.81c-10.05-4.83-18.3-15-29.22-12.83-7.07,1.43-13.79,5.38-21,4.75-8.63-.76-18.09-4-25.79-8s-14.61-10.08-17.91-18.09c-6.9-16.75-18.2-33.85-28.83-48.52a66.22,66.22,0,0,0-10.5-11.12" transform="translate(1.79 -1.06)" style="fill:none;stroke:#f3587d;stroke-miterlimit:10;stroke-width:10px"/><path d="M4367.74,291.62a126.31,126.31,0,0,1-41.36,20.25c-2.7.75-5.55,1.48-7.58,3.42s-2.91,4.9-3.6,7.69a204.86,204.86,0,0,0-5.87,40,169.16,169.16,0,0,0-27.91,21.64c-8.51,8.2-15.43,18.52-17.54,30.15-7.52,6.68-9.62,18.91-10.32,28.94s1.17,20.06,3,29.94c7.29,38.33,6.54,40.5,9,47.3,12.83,35.67,80,45,97.16,47.08" transform="translate(1.79 -1.06)" style="fill:none;stroke:#f3587d;stroke-miterlimit:10;stroke-width:10px"/><path d="M4362.76,568.05l35.36,1.6c5.84,6.44,4.94,18,4.33,26.69s-3.54,17-6.43,25.2c-7.3,2.63-11.5,11.25-14.38,18.45s-3.67,15-4.43,22.77c-6.66,3.48-15,6.24-22.5,6.33a26.27,26.27,0,0,0-6.14.43c-7.89,2-10.37,11.81-11.41,19.89-4.37,3.84-10.07,9.52-14.44,13.36-5,4.42-10.54,10.23-9.13,16.77,1.46,6.81-4.35,20.51-6.72,27.05" transform="translate(1.79 -1.06)" style="fill:none;stroke:#f3587d;stroke-miterlimit:10;stroke-width:10px"/><path d="M1354.5,3461a1194.35,1194.35,0,0,1-135,7.63c-175.92,0-351.42-53.13-351.42-53.13a1182.74,1182.74,0,0,1-393.71-211.3" transform="translate(1.79 -1.06)" style="fill:none;stroke:#11bc92;stroke-miterlimit:10;stroke-width:16px;fill-rule:evenodd"/><path d="M2292.47,2783a1185,1185,0,0,1-245.19,347.33" transform="translate(1.79 -1.06)" style="fill:none;stroke:#11bc92;stroke-miterlimit:10;stroke-width:16px;fill-rule:evenodd"/><path d="M2286.27,1797.37a923.38,923.38,0,0,1,62,137.92s53.11,162.48,53.11,351.4a1184.6,1184.6,0,0,1-34.71,285.51" transform="translate(1.79 -1.06)" style="fill:none;stroke:#11bc92;stroke-miterlimit:10;stroke-width:16px;fill-rule:evenodd"/><path d="M2159.64,1567.13" transform="translate(1.79 -1.06)" style="fill:none;stroke:#11bc92;stroke-miterlimit:10;stroke-width:16px;fill-rule:evenodd"/><path d="M284.1,3009.25C129.55,2809.47,37.57,2558.82,37.57,2286.69c0-652.75,529.16-1181.91,1181.91-1181.91,163.94,0,302.65,37.87,351.46,53.13a1170.12,1170.12,0,0,1,283.19,132.53" transform="translate(1.79 -1.06)" style="fill:none;stroke:#11bc92;stroke-miterlimit:10;stroke-width:16px;fill-rule:evenodd"/><path d="M2070.53,2228.19c129.19-187.39,240-418.78,256-674.49,6.47-103.08,15.47-284.88-97.86-362.64-138.95-95.33-378.1,23.19-374.14,46s246.88-69.15,328.09,23c31.36,35.58,37.67,97.53,22.21,177.1" transform="translate(1.79 -1.06)" style="fill:none;stroke:#f3587d;stroke-miterlimit:10;stroke-width:16px"/><path d="M11.7,3152.12c26.89,10.87,51.59,18.84,70,24.78,330.59,106.66,780.72,3.25,1191-229.78" transform="translate(1.79 -1.06)" style="fill:none;stroke:#f3587d;stroke-miterlimit:10;stroke-width:16px"/><path d="M5.34,2703.21c19.8-39,34.14-67.54,24.56-73.13-4.65-2.71-14.32.34-27,8.08" transform="translate(1.79 -1.06)" style="fill:none;stroke:#f3587d;stroke-miterlimit:10;stroke-width:16px"/><path d="M1111.2,2721.35C667.32,2969.54,185.48,3068.48,10.45,2991" transform="translate(1.79 -1.06)" style="fill:none;stroke:#f3587d;stroke-miterlimit:10;stroke-width:16px"/><path d="M1444.1,1143.93c-57.36-.69-90,16.12-109.52,32.45-38.42,32.2-60.63,91.92-95.33,89.24-8.08-.62-15.34-4.52-22.31,0-14.4,9.35-5.24,40.26-16.22,44.62-7,2.78-12.38-9.14-22.31-8.11-17.75,1.83-17.62,41.64-35.66,45.89-16.47,3.88-42.73-23.08-39.38-41.84,2-11.42,13.71-12.25,16.22-24.33,4.05-19.46-20.49-44.89-30.91-41.38-7.93,2.68,0,21.35-13.66,45.37-7,12.41-17.65,22.39-26.06,33.93-2.57,3.53-37.25,47.83-32.85,96.9,3,33.69,22.48,48.22,12.21,63.94-7.21,11-23.45,14-28.17,30-.68,2.29-2.07,8.08-3.24,14.19-2.13,11.09-1.58,13.17-2.62,16.74-3.69,12.67-18.17,12.62-26.81,22.22-14.22,15.79-9.44,54.11,10.14,71,19.85,17.1,42.14,1.17,54.76,16.22,18.11,21.58-9.52,76.07-16.49,89.82-14.95,29.48-24.68,32-26.1,50.13-2,25,15.57,34,28.39,64.9,14.26,34.29,15.87,79.14.54,113.13-19.79,43.87-51.6,33.74-65.44,75.49-12.16,36.68,9.3,53.88-9.15,95.32-6.45,14.47-14.26,24-13.16,40.56,1,15.5,8.78,20.24,18.36,40.41,8.4,17.71,20.68,43.6,13.76,67.36-7.4,25.4-30.12,25.52-34.15,50.43-3,18.85,9.31,22.8,7.31,43.15-2.3,23.45-21.83,49.84-48.59,54-15.39,2.36-28.19-3.41-34.07-6.58-29.21-1.49-56.4-29-73.77-52.52-29.94-40.6-36.47-55.41-60-62.64-38.49-11.82-58.7,34.71-115.34,34.77-40.43.05-87.09-23.59-97.36-56.79-9.7-31.39,19.75-50,8.12-81.12-10.62-28.45-48.7-49.19-73-40.57-33.23,11.8-35.73,76.7-43.88,75.58-8.85-1.22,14.29-75.13-21-124.25-27.34-38-61.21-21.52-108.5-64.5-47-42.69-54.61-96.3-68.28-93.13-15.19,3.53,4.32,67.44-34.15,108.95-19.3,20.82-36,17.5-56.79,32.45-25,18-50.67,58.73-44.62,162.26" transform="translate(1.79 -1.06)" style="fill:none;stroke:#f3587d;stroke-miterlimit:10;stroke-width:16px"/><path d="M735,3334.52c42.68-2.73,55.42-12.73,58.57-22,4.55-13.34-11.74-22.57-15.21-51.72-.38-3.23-4.46-41,14.76-53.55,11.81-7.7,19.75,2.39,37-4.25,21.79-8.41,19.22-28.49,38.6-34.76,14.54-4.69,32.61-2.39,48.17,10.32,12.54,10.24,27.49,21.87,43.16,17.77,10.09-2.64,16.72-9.86,20-13.81,15.8-19.24,3.07-34.49,15.91-52.54,11.12-15.61,25.44-10.93,41.17-31.54a74,74,0,0,0,10.48-19.14" transform="translate(1.79 -1.06)" style="fill:none;stroke:#f3587d;stroke-miterlimit:10;stroke-width:16px"/><path d="M2361.89,2053.32c-23.43,9.52-30,19.79-31.48,27.62-2.94,15.48,13.51,23.65,12.17,44.62-.8,12.46-7.77,27.87-19.69,32.79-13.58,5.6-22.18-7.11-37.1-2.36-12.89,4.09-15.3,16.37-26.37,30.42-8.76,11.12-24,24.63-52,33.66,8.55,8.68,17.23,20.58,15.54,33.27-2.25,16.81-20.56,18.89-32.46,42.59-1.33,2.67-15.12,31-3.4,48.63,8.64,13,23.93,9.34,27.74,20.33,4.41,12.7-14.34,22.59-14.19,40.56.07,9.07,5,21.59,26.36,36.51,30.79-11.67,42.14-12.09,44.62-8.12,4.71,7.53-24.84,26.92-19.49,41.62,4.48,12.34,32.64,18.78,52.11,9.35s24.94-32.48,30.25-30.68c5.71,1.93-3.38,27.36,10,52.85a64.14,64.14,0,0,0,8.23,12.05" transform="translate(1.79 -1.06)" style="fill:none;stroke:#f3587d;stroke-miterlimit:10;stroke-width:16px"/><path d="M3851.5,3415l10.44,34.85a4.09,4.09,0,0,0,5.13,2.67L3938,3431a102.49,102.49,0,0,0,53.52-39.82,98,98,0,0,0,16.8-63.43,96.15,96.15,0,0,0-27.35-59.14,99.63,99.63,0,0,0-59.4-28.92l-6.69-21.25a4.88,4.88,0,0,0-1-2.55,6,6,0,0,0-2-1.83,7.17,7.17,0,0,0-2.65-.89,6.26,6.26,0,0,0-5.16,1.55,6,6,0,0,0-1.72,2.2,7,7,0,0,0-.6,2.7,8.29,8.29,0,0,0,.59,2.67l5.1,16.67a101,101,0,0,0-18.35,1.92l-4.12-13.39a5.05,5.05,0,0,0-1-2.55,6,6,0,0,0-2-1.83,7.17,7.17,0,0,0-2.65-.89,6.25,6.25,0,0,0-2.75.19,6.13,6.13,0,0,0-2.41,1.36,6,6,0,0,0-1.72,2.2,7,7,0,0,0-.6,2.7,8.29,8.29,0,0,0,.59,2.67l4,13a102,102,0,0,0-57.09,47.41L3817,3296a4,4,0,0,0,1.75,5.48l31.08,14.89,29.46,13.47a27.88,27.88,0,0,0,10.76,30.87l-37.95,50.62A4.19,4.19,0,0,0,3851.5,3415Zm25.69,16.08a2.06,2.06,0,0,1-2.56-1.34l-3.8-12.33a2.06,2.06,0,0,1,.33-1.78l37-49.27a29.66,29.66,0,0,0,12.37-2.76,31.12,31.12,0,0,0,10.17-7.57,30.28,30.28,0,0,0,6-11,29.3,29.3,0,0,0,.84-12.35,27.46,27.46,0,0,0-4.42-11.51,29.68,29.68,0,0,0-9-8.58,29.29,29.29,0,0,0-11.84-4.13,31.17,31.17,0,0,0-12.64,1.16,30.34,30.34,0,0,0-10.08,5.33l-47-22a2,2,0,0,1-.7-3,83.45,83.45,0,0,1,42.79-29.76,85,85,0,0,1,28.66-3.64l9.45,31.15a5,5,0,0,0,1,2.55,6.07,6.07,0,0,0,2,1.83,7.17,7.17,0,0,0,2.65.89,6.1,6.1,0,0,0,2.75-.19,7,7,0,0,0,4.13-3.55,7.14,7.14,0,0,0,.6-2.71,8,8,0,0,0-.59-2.66l-7.7-25.37a81.82,81.82,0,0,1,44.92,27.16,79.18,79.18,0,0,1,18.31,48.49A81,81,0,0,1,3975,3384a84.89,84.89,0,0,1-43.42,30.58Zm20.48-98.83a11.64,11.64,0,0,1,7-5.67,12.66,12.66,0,0,1,6.8,0,11.77,11.77,0,0,1,5.64,3.68,10.83,10.83,0,0,1,2.58,6.07,11,11,0,0,1-1.4,6.52,12.8,12.8,0,0,1-4.86,4.72,11.2,11.2,0,0,1-6.63,1.35,12,12,0,0,1-6.28-2.54,11.7,11.7,0,0,1-3.7-5.52A11,11,0,0,1,3897.67,3332.24Z" transform="translate(1.79 -1.06)" style="fill:#6f3ff5;fill-rule:evenodd"/><path d="M3847.13,3315.7a87.14,87.14,0,0,0,21.42,71.48l-7.42,15.14c-11.08-11.58-19.91-27.1-25-44-5.43-17.82-6.54-36.58-3.18-53l8.7,6.16Z" transform="translate(1.79 -1.06)" style="fill:#02e2ac;fill-rule:evenodd;mix-blend-mode:soft-light"/><path d="M1533.34,4648.61a489.92,489.92,0,0,1,304.22-8.12" transform="translate(1.79 -1.06)" style="fill:none;stroke:#11bc92;stroke-miterlimit:10;stroke-width:14px"/><path d="M1538.41,4734.93a379.52,379.52,0,0,1,295.1-15.21" transform="translate(1.79 -1.06)" style="fill:none;stroke:#11bc92;stroke-miterlimit:10;stroke-width:14px"/><path d="M2818.18,4712.49a315.19,315.19,0,0,1,260.65,29.39" transform="translate(1.79 -1.06)" style="fill:none;stroke:#11bc92;stroke-miterlimit:10;stroke-width:14px"/><path d="M2775.63,4622.24A546.13,546.13,0,0,1,3122.45,4677" transform="translate(1.79 -1.06)" style="fill:none;stroke:#11bc92;stroke-miterlimit:10;stroke-width:14px"/><path d="M3374.92,4707.42c6.3-.68,96-8.79,152.11,60.85,43.41,53.85,48.53,131.61,12.17,194.7" transform="translate(1.79 -1.06)" style="fill:none;stroke:#11bc92;stroke-miterlimit:10;stroke-width:14px"/><circle cx="1596.99" cy="4820.45" r="53.24" style="fill:none;stroke:#11bc92;stroke-miterlimit:10;stroke-width:14px"/><g id="bottom-2" data-name="bottom"><path d="M4319,4839.25c-1.07-8.95,3.89-17.32,11.66-20.28a18.82,18.82,0,0,1,19,3.78,44.42,44.42,0,0,1,4.4,2.51c47.7,31.64,4.81,92.76,57.59,139.76,28.5,25.39,81.71,43.74,115.38,30.71,36.67-14.18,35.73-89.16,34.74-237.7-.47-69.89-4.5-60.44-2.82-104.07,1.93-49.91,7.11-59.77-4.31-72.65-13.59-15.31-45.39-30.91-170.55-17.6-15.44,1.64-37.4,4.26-63.84,8.39" transform="translate(1.79 -1.06)" style="fill:none;stroke:#5932c4;stroke-miterlimit:10;stroke-width:14px"/><path d="M4320.27,4572.1c-20.74-24.22-55.13-33.14-86.93-30.62s-61.87,14.88-91.34,27.09l-121.42,50.33c-15.87-.4-40.58.52-56.45.12-76.9,37.62-96.59,41.18-99.41,36.68-7.52-12,110.07-73.29,191.66-209.91a542.58,542.58,0,0,0,77.07-296.11q1.4-11.37,2.78-22.72" transform="translate(1.79 -1.06)" style="fill:none;stroke:#5932c4;stroke-miterlimit:10;stroke-width:14px"/><path d="M4321.55,4833.21a462.54,462.54,0,0,1-189.26,80.69c-65.25,11.72-137.06,32-202.06,45L3712,4986.25c-28,5.17-158.56,26.31-248.81-56.74-27.26-25.09-41.58-51.15-51.72-70-60.78-112.83-37.34-231.95-30.42-264.68,8.19-38.77,11.92-29.54,63.89-188.62,10.48-32.07,18.84-58.53,24.34-76.06" transform="translate(1.79 -1.06)" style="fill:none;stroke:#5932c4;stroke-miterlimit:10;stroke-width:14px"/><path d="M3468.21,4247V4101" transform="translate(1.79 -1.06)" style="fill:none;stroke:#5932c4;stroke-miterlimit:10;stroke-width:14px"/><path d="M2829.34,4724.66a124.71,124.71,0,0,1-7.65,45.73c-.4.75-1.29,2.4-2.51,4.39-42,68.43-160.9,29.12-204.83,84.76-20.5,26-23.82,71.51-6.08,97.35,35.77,52.1,158.76,26.23,278,25.65,15.16-.07,28.05-.14,48-1.25,21.4-1.2,26.81-2.63,56-1.48,40.27,1.59,54.46,5.27,65.21.64a50.67,50.67,0,0,0,7.44-4.9c29-23.24,21.46-85.33,18.87-104.86-7.57-57.26-26.65-81-11.79-112.39a70.37,70.37,0,0,1,14.84-20.45" transform="translate(1.79 -1.06)" style="fill:none;stroke:#5932c4;stroke-miterlimit:10;stroke-width:14px"/><path d="M3078.83,4741.88a99.34,99.34,0,0,0,26.24-24.4c33.86-46,17.61-106.16,8.21-171.3-6.54-45.33-11.84-108.9-6.08-188.62,25.74,31.06,80.93,88.63,170.36,121.69a396.5,396.5,0,0,0,127.78,24.34" transform="translate(1.79 -1.06)" style="fill:none;stroke:#5932c4;stroke-miterlimit:10;stroke-width:14px"/><path d="M2836.22,4724.42a79.24,79.24,0,0,1-42.38-23.08c-20.81-22.05-21.32-48.76-21.29-54.76-6.08-67.94-9.69-142.25-9.13-222.09a2307.81,2307.81,0,0,1,18.26-273.8c13.36-37.18,42.07-98.66,103.43-139.94,74-49.8,154.76-42.79,276.85-30.43,75.48,7.65,185.34,25.55,314.36,72" transform="translate(1.79 -1.06)" style="fill:none;stroke:#5932c4;stroke-miterlimit:10;stroke-width:14px"/></g><path d="M1354.86,3298.86c13.14,3,153.09,37,206.87,170.37,44.67,110.71,11.17,243.39-85.18,328.56" transform="translate(1.79 -1.06)" style="fill:none;stroke:#11bc92;stroke-miterlimit:10;stroke-width:14px"/><path d="M1481.62,3794.75a674.4,674.4,0,0,1,489.8,84.17" transform="translate(1.79 -1.06)" style="fill:none;stroke:#11bc92;stroke-miterlimit:10;stroke-width:14px"/><path d="M1508,3942.61c27-21.83,104.58-78.55,219-85.19,92.52-5.36,162.86,24.68,194.7,40.76" transform="translate(1.79 -1.06)" style="fill:none;stroke:#11bc92;stroke-miterlimit:10;stroke-width:14px"/><path d="M1529.3,3985.3a428.89,428.89,0,0,1,46.78,158.15c2.55,27.16,2.49,54.48,2.43,81.76q-.21,102.07-.44,204.16c-.08,39.21,3.94,82.67,3.94,121.88v32.45" transform="translate(1.79 -1.06)" style="fill:none;stroke:#11bc92;stroke-miterlimit:10;stroke-width:14px"/><path d="M1873.1,4177.88l-68.68,345.65" transform="translate(1.79 -1.06)" style="fill:none;stroke:#11bc92;stroke-miterlimit:10;stroke-width:14px"/><path d="M1963.75,3565.55a1055.39,1055.39,0,0,1-16.32,211" transform="translate(1.79 -1.06)" style="fill:none;stroke:#11bc92;stroke-miterlimit:10;stroke-width:14px"/><path d="M1396.12,3399.2l80.43,288.05" transform="translate(1.79 -1.06)" style="fill:none;stroke:#11bc92;stroke-miterlimit:10;stroke-width:14px"/><path d="M4377.06,4905l104.16-29c0-100.06,9.19-196.26,9.19-296.31" transform="translate(1.79 -1.06)" style="fill:none;stroke:#11bc92;stroke-miterlimit:10;stroke-width:14px"/><path d="M4279.66,4570.51c-31.56,84.61-61.84,184.37-13.06,260.36" transform="translate(1.79 -1.06)" style="fill:none;stroke:#11bc92;stroke-miterlimit:10;stroke-width:14px"/><path d="M4205.45,4556.83a301.21,301.21,0,0,0-39.55,161.24c3.4,83.28,40.71,141.14,56.28,162.76" transform="translate(1.79 -1.06)" style="fill:none;stroke:#11bc92;stroke-miterlimit:10;stroke-width:14px"/><path d="M4120.2,4876.8a188.37,188.37,0,0,0-67.65,4,266.27,266.27,0,0,0-35.74,11.34c-56.25,22.56-125.29,30.26-157,33.8-8.74,1-90.4,10.08-120.65,6.36a88.71,88.71,0,0,0-26.74.58,96,96,0,0,0-21.95,6.88c-28.09,11.36-58.45,5.93-60.13,5.61-23.84-4.53-41-18.51-51-28.92" transform="translate(1.79 -1.06)" style="fill:none;stroke:#11bc92;stroke-miterlimit:10;stroke-width:14px"/><path d="M2710.2,4818.16c11.1,13.43,13.76,31.79,14.92,49.17.3,4.56.47,17.4.65,42.91.07,8.56.11,15.61.13,20.28a1007.83,1007.83,0,0,0,312.34-4.06" transform="translate(1.79 -1.06)" style="fill:none;stroke:#11bc92;stroke-miterlimit:10;stroke-width:14px"/><path d="M2778.63,4196.32c10.69,1,90.21,7.15,152.12-54.76s55.77-141.42,54.76-152.11" transform="translate(1.79 -1.06)" style="fill:none;stroke:#11bc92;stroke-miterlimit:10;stroke-width:14px"/><circle cx="2975.13" cy="4852.39" r="42.59" style="fill:none;stroke:#11bc92;stroke-miterlimit:10;stroke-width:14px"/><circle cx="4425.33" cy="4654.69" r="42.59" style="fill:none;stroke:#11bc92;stroke-miterlimit:10;stroke-width:14px"/><path d="M2815.14,4251.08v261.64" transform="translate(1.79 -1.06)" style="fill:none;stroke:#11bc92;stroke-miterlimit:10;stroke-width:14px"/><path d="M3028.15,4019.47c37.26,6.14,74.9-7.12,112.66-7.54,86.35-1,160.68,64,246.39,74.5,10.26,1.26,26.36,4,36.44,6.26" transform="translate(1.79 -1.06)" style="fill:none;stroke:#11bc92;stroke-miterlimit:10;stroke-width:14px"/><path d="M3137,4316.78c11.92,35.61,42.39,62.59,76.29,78.75s71.37,22.93,108.34,29.55c17.19,3.08,34.64,8.55,47.76,20.08" transform="translate(1.79 -1.06)" style="fill:none;stroke:#11bc92;stroke-miterlimit:10;stroke-width:14px"/><path d="M4082.86,4220.91a706.25,706.25,0,0,1-64.27,224.27c-32.58,68.22-102.16,117.54-169.25,152.39" transform="translate(1.79 -1.06)" style="fill:none;stroke:#11bc92;stroke-miterlimit:10;stroke-width:14px"/><path d="M3482.11,4423.18a705.87,705.87,0,0,0-59.47,211.12" transform="translate(1.79 -1.06)" style="fill:none;stroke:#11bc92;stroke-miterlimit:10;stroke-width:14px"/><path d="M3827.87,4649.07a267.49,267.49,0,0,1-83.47,60.84c53.31-15,122.76,6.18,177.92,1.29" transform="translate(1.79 -1.06)" style="fill:none;stroke:#11bc92;stroke-miterlimit:10;stroke-width:14px"/><path d="M3057,4335.87a404.2,404.2,0,0,0-3.26,188.73" transform="translate(1.79 -1.06)" style="fill:none;stroke:#11bc92;stroke-miterlimit:10;stroke-width:14px"/><polygon points="110.84 98.41 65.78 73.58 40.95 118.64 50.64 68.12 0.11 58.44 51.16 52.03 44.76 0.99 66.62 47.56 113.19 25.69 75.65 60.88 110.84 98.41" style="fill:#f3587d"/><polygon points="470.86 796.13 460.05 758.8 422.72 769.61 454.88 747.8 433.07 715.64 463.75 739.49 487.6 708.8 474.4 745.35 510.95 758.55 472.11 757.29 470.86 796.13" style="fill:#11bc92"/><polygon points="268.86 588.75 250.14 568.99 230.38 587.71 243.39 563.8 219.48 550.8 246.24 555.78 251.22 529.02 254.75 556.01 281.73 552.48 257.16 564.18 268.86 588.75" style="fill:#f3587d"/><polygon points="217.64 355.95 212.83 339.32 196.2 344.14 210.53 334.42 200.81 320.1 214.48 330.72 225.1 317.05 219.22 333.33 235.5 339.21 218.2 338.65 217.64 355.95" style="fill:#11bc92"/><polygon points="601.01 935.39 601.39 972.16 638.16 971.78 603.3 983.5 615.02 1018.36 593.11 988.83 563.58 1010.75 584.89 980.78 554.92 959.47 590.01 970.48 601.01 935.39" style="fill:#5932c4"/><polygon points="178.69 997.44 159.25 1017.28 179.09 1036.71 154.22 1024.36 141.86 1049.23 145.93 1021.76 118.45 1017.7 145.84 1013.07 141.21 985.68 154.07 1010.3 178.69 997.44" style="fill:#f3587d"/><polygon points="831.19 403.27 825.47 421.86 844.06 427.59 824.61 427.89 824.91 447.34 818.61 428.94 800.21 435.23 815.76 423.56 804.09 408 820 419.19 831.19 403.27" style="fill:#f3587d"/><polygon points="586.79 381.38 578.13 390.22 586.97 398.87 575.89 393.37 570.38 404.45 572.19 392.21 559.96 390.4 572.15 388.34 570.09 376.14 575.82 387.11 586.79 381.38" style="fill:#11bc92"/><polygon points="923.56 81.51 909.93 95.43 923.85 109.06 906.4 100.39 897.74 117.84 900.59 98.57 881.32 95.72 900.52 92.48 897.28 73.27 906.3 90.53 923.56 81.51" style="fill:#5932c4"/><polygon points="1278.81 15.47 1274.8 28.51 1287.84 32.52 1274.2 32.73 1274.41 46.37 1269.99 33.47 1257.09 37.88 1268 29.69 1259.81 18.78 1270.97 26.63 1278.81 15.47" style="fill:#11bc92"/><polygon points="480.49 441.13 480.75 466.91 506.53 466.65 482.09 474.87 490.31 499.31 474.94 478.6 454.24 493.97 469.18 472.96 448.16 458.01 472.77 465.73 480.49 441.13" style="fill:#5932c4"/><polygon points="579.73 67.66 566.1 81.57 580.01 95.2 562.57 86.54 553.9 103.98 556.75 84.71 537.48 81.86 556.69 78.62 553.44 59.41 562.46 76.68 579.73 67.66" style="fill:#f3587d"/><polygon points="795.71 160.37 789.64 166.57 795.83 172.64 788.06 168.78 784.21 176.55 785.48 167.97 776.89 166.7 785.45 165.25 784 156.7 788.02 164.39 795.71 160.37" style="fill:#11bc92"/><polygon points="24.13 195.6 18.06 201.8 24.26 207.87 16.49 204.01 12.63 211.78 13.9 203.2 5.32 201.93 13.87 200.49 12.43 191.93 16.45 199.62 24.13 195.6" style="fill:#5932c4"/><polygon points="26.3 347 20.23 353.2 26.42 359.27 18.65 355.41 14.79 363.18 16.06 354.6 7.48 353.33 16.03 351.89 14.59 343.33 18.61 351.02 26.3 347" style="fill:#11bc92"/><polygon points="314.39 48.94 294.95 68.78 314.79 88.22 289.92 75.86 277.56 100.74 281.63 73.27 254.15 69.2 281.54 64.58 276.91 37.19 289.77 61.81 314.39 48.94" style="fill:#5932c4"/><polygon points="588.68 3.67 582.61 9.87 588.8 15.94 581.03 12.08 577.17 19.85 578.44 11.27 569.86 10 578.41 8.55 576.97 0 580.99 7.69 588.68 3.67" style="fill:#11bc92"/><polygon points="308.92 293.29 303.94 298.38 309.02 303.36 302.65 300.19 299.48 306.56 300.52 299.52 293.48 298.48 300.5 297.3 299.31 290.28 302.61 296.59 308.92 293.29" style="fill:#f3587d"/><polygon points="1279.84 185.92 1290.64 223.25 1327.97 212.44 1295.81 234.25 1317.62 266.41 1286.94 242.57 1263.1 273.25 1276.29 236.7 1239.74 223.5 1278.58 224.76 1279.84 185.92" style="fill:#11bc92"/><polygon points="1686.7 232.45 1705.42 252.2 1725.18 233.48 1712.17 257.39 1736.08 270.4 1709.32 265.42 1704.34 292.18 1700.81 265.19 1673.83 268.72 1698.4 257.02 1686.7 232.45" style="fill:#f3587d"/><polygon points="1529.92 630.1 1534.73 646.73 1551.36 641.91 1537.03 651.63 1546.75 665.96 1533.08 655.33 1522.46 669 1528.34 652.72 1512.06 646.84 1529.36 647.4 1529.92 630.1" style="fill:#11bc92"/><polygon points="1508.89 104.77 1508.52 68 1471.75 68.37 1506.6 56.65 1494.88 21.8 1516.8 51.33 1546.32 29.41 1525.02 59.38 1554.98 80.68 1519.9 69.68 1508.89 104.77" style="fill:#5932c4"/><polygon points="1591.61 800.1 1611.05 780.25 1591.21 760.82 1616.08 773.17 1628.44 748.3 1624.37 775.77 1651.85 779.84 1624.46 784.46 1629.09 811.85 1616.22 787.23 1591.61 800.1" style="fill:#f3587d"/><polygon points="1342.05 365.28 1347.77 346.69 1329.18 340.97 1348.63 340.66 1348.32 321.21 1354.62 339.62 1373.03 333.32 1357.47 345 1369.15 360.56 1353.23 349.37 1342.05 365.28" style="fill:#f3587d"/><polygon points="250.74 1346.73 254.76 1333.69 241.72 1329.68 255.36 1329.46 255.15 1315.82 259.56 1328.73 272.47 1324.31 261.56 1332.5 269.75 1343.41 258.59 1335.57 250.74 1346.73" style="fill:#11bc92"/><polygon points="907.07 1053.59 913.14 1047.39 906.94 1041.32 914.71 1045.18 918.57 1037.41 917.3 1045.99 925.88 1047.26 917.33 1048.7 918.77 1057.26 914.75 1049.57 907.07 1053.59" style="fill:#f3587d"/><polygon points="2230.09 39.29 2234.1 26.25 2221.06 22.24 2234.7 22.03 2234.49 8.39 2238.91 21.3 2251.82 16.88 2240.9 25.07 2249.09 35.98 2237.93 28.13 2230.09 39.29" style="fill:#f3587d"/><polygon points="1738.42 991.06 1744.49 984.86 1738.29 978.79 1746.06 982.65 1749.92 974.88 1748.65 983.46 1757.23 984.73 1748.68 986.17 1750.13 994.73 1746.11 987.04 1738.42 991.06" style="fill:#11bc92"/><polygon points="1840.4 370.9 1846.47 364.7 1840.27 358.63 1848.04 362.49 1851.9 354.72 1850.63 363.31 1859.21 364.57 1850.66 366.02 1852.1 374.57 1848.09 366.88 1840.4 370.9" style="fill:#5932c4"/><polygon points="1881.93 83.47 1888 77.27 1881.8 71.2 1889.57 75.06 1893.43 67.29 1892.16 75.87 1900.74 77.14 1892.19 78.59 1893.63 87.14 1889.62 79.45 1881.93 83.47" style="fill:#11bc92"/><polygon points="2086.47 219.12 2105.91 199.28 2086.07 179.84 2110.95 192.2 2123.3 167.32 2119.24 194.8 2146.71 198.86 2119.33 203.49 2123.95 230.88 2111.09 206.26 2086.47 219.12" style="fill:#5932c4"/><polygon points="1204.67 721.11 1210.74 714.92 1204.54 708.84 1212.31 712.7 1216.17 704.93 1214.9 713.52 1223.48 714.78 1214.93 716.23 1216.37 724.78 1212.36 717.1 1204.67 721.11" style="fill:#11bc92"/><polygon points="1588.93 441.64 1593.91 436.56 1588.83 431.58 1595.2 434.75 1598.37 428.38 1597.32 435.41 1604.36 436.45 1597.35 437.64 1598.53 444.66 1595.24 438.35 1588.93 441.64" style="fill:#f3587d"/><polygon points="1034.72 320.4 1034.45 294.62 1008.67 294.88 1033.11 286.66 1024.89 262.22 1040.26 282.93 1060.96 267.56 1046.02 288.57 1067.04 303.52 1042.43 295.8 1034.72 320.4" style="fill:#5932c4"/><polygon points="1704.34 38.05 1710.41 31.86 1704.21 25.79 1711.98 29.65 1715.84 21.88 1714.57 30.46 1723.16 31.73 1714.6 33.17 1716.05 41.73 1712.03 34.04 1704.34 38.05" style="fill:#11bc92"/><polygon points="1350.11 919.39 1344.04 925.59 1350.23 931.66 1342.46 927.8 1338.6 935.57 1339.87 926.99 1331.29 925.72 1339.85 924.27 1338.4 915.72 1342.42 923.41 1350.11 919.39" style="fill:#5932c4"/><polygon points="1963.55 699 1969.62 692.8 1963.42 686.73 1971.19 690.59 1975.05 682.82 1973.78 691.4 1982.36 692.67 1973.81 694.12 1975.25 702.67 1971.23 694.98 1963.55 699" style="fill:#11bc92"/><polygon points="2088.22 965.05 2093.03 981.67 2109.66 976.86 2095.33 986.58 2105.05 1000.9 2091.38 990.28 2080.76 1003.95 2086.64 987.67 2070.36 981.79 2087.66 982.35 2088.22 965.05" style="fill:#11bc92"/><polygon points="2343.95 1113.74 2343.69 1087.95 2317.9 1088.22 2342.34 1080 2334.13 1055.56 2349.49 1076.26 2370.2 1060.89 2355.26 1081.91 2376.27 1096.85 2351.67 1089.13 2343.95 1113.74" style="fill:#5932c4"/><polygon points="4788.96 459.51 4834.02 484.34 4858.85 439.28 4849.16 489.8 4899.69 499.49 4848.64 505.89 4855.04 556.93 4833.18 510.36 4786.61 532.23 4824.15 497.05 4788.96 459.51" style="fill:#f3587d"/><polygon points="2672.27 26.56 2683.08 63.89 2720.4 53.08 2688.24 74.89 2710.06 107.05 2679.37 83.2 2655.53 113.89 2668.73 77.34 2632.18 64.14 2671.01 65.4 2672.27 26.56" style="fill:#11bc92"/><polygon points="3079.14 73.08 3097.86 92.84 3117.61 74.12 3104.61 98.03 3128.52 111.04 3101.76 106.06 3096.78 132.81 3093.25 105.83 3066.26 109.36 3090.84 97.66 3079.14 73.08" style="fill:#f3587d"/><polygon points="2922.35 470.74 2927.17 487.37 2943.79 482.55 2929.47 492.27 2939.18 506.59 2925.52 495.97 2914.9 509.64 2920.77 493.36 2904.49 487.48 2921.79 488.04 2922.35 470.74" style="fill:#11bc92"/><polygon points="2734.48 205.92 2740.2 187.33 2721.61 181.6 2741.06 181.3 2740.76 161.85 2747.06 180.26 2765.46 173.96 2749.9 185.64 2761.58 201.19 2745.67 190.01 2734.48 205.92" style="fill:#f3587d"/><polygon points="2685.8 391.64 2699.43 377.73 2685.52 364.1 2702.96 372.77 2711.62 355.32 2708.77 374.59 2728.04 377.44 2708.84 380.68 2712.08 399.89 2703.06 382.63 2685.8 391.64" style="fill:#5932c4"/><polygon points="3651.05 624.63 3650.79 598.84 3625.01 599.11 3649.45 590.89 3641.23 566.45 3656.6 587.15 3677.3 571.78 3662.36 592.8 3683.38 607.74 3658.77 600.02 3651.05 624.63" style="fill:#5932c4"/><polygon points="3729.89 237.46 3743.53 223.54 3729.61 209.91 3747.06 218.58 3755.72 201.13 3752.87 220.4 3772.14 223.25 3752.93 226.5 3756.18 245.7 3747.16 228.44 3729.89 237.46" style="fill:#f3587d"/><polygon points="3232.83 211.54 3238.9 205.34 3232.7 199.27 3240.47 203.13 3244.33 195.36 3243.06 203.94 3251.65 205.21 3243.09 206.66 3244.54 215.21 3240.52 207.52 3232.83 211.54" style="fill:#5932c4"/><polygon points="3478.91 59.76 3498.35 39.92 3478.51 20.48 3503.38 32.84 3515.74 7.96 3511.67 35.44 3539.15 39.5 3511.76 44.13 3516.39 71.51 3503.53 46.9 3478.91 59.76" style="fill:#5932c4"/><polygon points="2981.36 282.28 2986.34 277.2 2981.26 272.22 2987.63 275.39 2990.8 269.01 2989.76 276.05 2996.8 277.09 2989.78 278.28 2990.97 285.29 2987.67 278.99 2981.36 282.28" style="fill:#f3587d"/><polygon points="2427.15 161.04 2426.89 135.26 2401.1 135.52 2425.54 127.3 2417.32 102.86 2432.69 123.57 2453.4 108.2 2438.46 129.21 2459.47 144.15 2434.87 136.44 2427.15 161.04" style="fill:#5932c4"/><polygon points="2144.83 725.92 2145.09 751.7 2170.88 751.44 2146.43 759.65 2154.66 784.1 2139.28 763.39 2118.58 778.76 2133.52 757.75 2112.51 742.8 2137.11 750.52 2144.83 725.92" style="fill:#f3587d"/><polygon points="2653 648.62 2657.82 665.25 2674.44 660.43 2660.12 670.15 2669.84 684.47 2656.17 673.85 2645.55 687.52 2651.43 671.24 2635.15 665.36 2652.45 665.92 2653 648.62" style="fill:#11bc92"/><polygon points="2416.45 569.53 2430.08 555.61 2416.17 541.98 2433.61 550.65 2442.28 533.2 2439.43 552.47 2458.69 555.32 2439.49 558.56 2442.73 577.77 2433.71 560.51 2416.45 569.53" style="fill:#5932c4"/><polygon points="2327.75 739.63 2333.82 733.43 2327.63 727.36 2335.4 731.22 2339.26 723.45 2337.99 732.03 2346.57 733.3 2338.01 734.75 2339.46 743.3 2335.44 735.61 2327.75 739.63" style="fill:#11bc92"/><polygon points="3946.35 1269.79 3921.53 1314.85 3966.59 1339.67 3916.06 1329.98 3906.38 1380.51 3899.98 1329.46 3848.93 1335.87 3895.5 1314.01 3873.64 1267.44 3908.82 1304.97 3946.35 1269.79" style="fill:#f3587d"/><polygon points="4743.21 990.42 4723.45 1009.14 4742.18 1028.9 4718.27 1015.89 4705.26 1039.8 4710.24 1013.05 4683.48 1008.07 4710.47 1004.53 4706.94 977.55 4718.64 1002.12 4743.21 990.42" style="fill:#f3587d"/><polygon points="4345.56 833.64 4328.93 838.46 4333.74 855.08 4324.03 840.76 4309.7 850.47 4320.32 836.8 4306.66 826.18 4322.94 832.06 4328.81 815.78 4328.26 833.08 4345.56 833.64" style="fill:#11bc92"/><polygon points="4480.12 790.03 4494.03 803.66 4507.66 789.74 4499 807.19 4516.44 815.85 4497.18 813 4494.33 832.27 4491.08 813.07 4471.88 816.31 4489.14 807.29 4480.12 790.03" style="fill:#f3587d"/><polygon points="4936.37 1533.81 4949.4 1537.82 4953.42 1524.78 4953.63 1538.42 4967.27 1538.21 4954.36 1542.63 4958.78 1555.54 4950.59 1544.63 4939.68 1552.82 4947.53 1541.66 4936.37 1533.81" style="fill:#f3587d"/><polygon points="4892.19 1185.65 4898.39 1191.72 4904.46 1185.52 4900.6 1193.29 4908.37 1197.15 4899.78 1195.88 4898.52 1204.46 4897.07 1195.91 4888.52 1197.36 4896.2 1193.34 4892.19 1185.65" style="fill:#11bc92"/><polygon points="4534.01 892.65 4539.1 897.63 4544.08 892.55 4540.91 898.92 4547.28 902.09 4540.24 901.05 4539.2 908.09 4538.02 901.07 4531 902.25 4537.31 898.96 4534.01 892.65" style="fill:#f3587d"/><polygon points="4937.6 1008.06 4943.8 1014.13 4949.87 1007.94 4946.01 1015.71 4953.78 1019.57 4945.2 1018.3 4943.93 1026.88 4942.49 1018.32 4933.93 1019.77 4941.62 1015.75 4937.6 1008.06" style="fill:#11bc92"/><polygon points="4276.66 1267.27 4282.86 1273.34 4288.93 1267.14 4285.07 1274.91 4292.84 1278.77 4284.26 1277.5 4282.99 1286.08 4281.54 1277.53 4272.99 1278.97 4280.68 1274.96 4276.66 1267.27" style="fill:#11bc92"/><polygon points="4949.1 1975.99 4911.77 1986.8 4922.58 2024.12 4900.77 1991.96 4868.61 2013.78 4892.45 1983.1 4861.77 1959.25 4898.32 1972.45 4911.52 1935.9 4910.26 1974.74 4949.1 1975.99" style="fill:#11bc92"/><polygon points="4620.61 1789.54 4646.4 1789.28 4646.13 1763.49 4654.35 1787.94 4678.8 1779.72 4658.09 1795.09 4673.46 1815.79 4652.44 1800.85 4637.5 1821.87 4645.22 1797.26 4620.61 1789.54" style="fill:#f3587d"/><polygon points="4584.01 1989.52 4597.93 2003.15 4611.56 1989.24 4602.89 2006.68 4620.34 2015.35 4601.07 2012.5 4598.22 2031.76 4594.98 2012.56 4575.77 2015.8 4593.03 2006.78 4584.01 1989.52" style="fill:#5932c4"/><polygon points="4219.04 2093.77 4244.82 2093.51 4244.56 2067.72 4252.78 2092.16 4277.22 2083.94 4256.51 2099.31 4271.88 2120.02 4250.87 2105.07 4235.92 2126.09 4243.64 2101.49 4219.04 2093.77" style="fill:#5932c4"/><polygon points="4442.73 1520.2 4468.52 1519.93 4468.25 1494.15 4476.47 1518.59 4500.91 1510.37 4480.21 1525.74 4495.58 1546.44 4474.56 1531.5 4459.62 1552.52 4467.34 1527.91 4442.73 1520.2" style="fill:#f3587d"/><polygon points="4871.76 2557.07 4885.67 2570.7 4899.3 2556.79 4890.63 2574.23 4908.08 2582.9 4888.81 2580.05 4885.96 2599.32 4882.72 2580.11 4863.51 2583.36 4880.77 2574.34 4871.76 2557.07" style="fill:#f3587d"/><polygon points="4236.03 1631.47 4242.22 1637.55 4248.3 1631.35 4244.44 1639.12 4252.21 1642.98 4243.62 1641.71 4242.35 1650.29 4240.91 1641.74 4232.35 1643.18 4240.05 1639.16 4236.03 1631.47" style="fill:#11bc92"/><polygon points="104.96 3385.51 123.68 3405.26 143.44 3386.55 130.43 3410.45 154.34 3423.46 127.58 3418.48 122.6 3445.24 119.07 3418.25 92.08 3421.78 116.66 3410.08 104.96 3385.51" style="fill:#f3587d"/><polygon points="92.61 4774.09 97.43 4790.71 114.05 4785.9 99.73 4795.62 109.44 4809.94 95.78 4799.32 85.16 4812.99 91.03 4796.71 74.75 4790.83 92.05 4791.39 92.61 4774.09" style="fill:#11bc92"/><polygon points="154.3 4944.08 173.74 4924.24 153.9 4904.8 178.78 4917.16 191.13 4892.28 187.07 4919.76 214.54 4923.82 187.16 4928.45 191.78 4955.84 178.92 4931.22 154.3 4944.08" style="fill:#f3587d"/><polygon points="49 4639.52 62.63 4625.61 48.72 4611.98 66.16 4620.64 74.82 4603.2 71.97 4622.47 91.24 4625.32 72.04 4628.56 75.28 4647.77 66.26 4630.5 49 4639.52" style="fill:#f3587d"/><polygon points="792.78 4183.28 796.79 4170.24 783.76 4166.23 797.4 4166.01 797.18 4152.37 801.6 4165.28 814.51 4160.86 803.6 4169.05 811.79 4179.96 800.63 4172.12 792.78 4183.28" style="fill:#f3587d"/><polygon points="55.23 3276.46 61.31 3270.26 55.11 3264.19 62.88 3268.05 66.74 3260.28 65.47 3268.86 74.05 3270.13 65.5 3271.58 66.94 3280.13 62.92 3272.44 55.23 3276.46" style="fill:#11bc92"/><polygon points="151.62 4585.63 156.6 4580.55 151.52 4575.57 157.89 4578.73 161.06 4572.36 160.02 4579.4 167.06 4580.44 160.04 4581.63 161.22 4588.64 157.93 4582.34 151.62 4585.63" style="fill:#f3587d"/><polygon points="267.03 4182.04 273.11 4175.84 266.91 4169.77 274.68 4173.63 278.54 4165.86 277.27 4174.44 285.85 4175.71 277.3 4177.16 278.74 4185.71 274.72 4178.02 267.03 4182.04" style="fill:#11bc92"/><polygon points="526.24 4842.98 532.31 4836.79 526.11 4830.72 533.88 4834.58 537.74 4826.81 536.47 4835.39 545.05 4836.66 536.5 4838.1 537.95 4846.66 533.93 4838.97 526.24 4842.98" style="fill:#11bc92"/><polygon points="1048.52 4499.03 1048.25 4473.24 1022.47 4473.51 1046.91 4465.29 1038.69 4440.85 1054.06 4461.56 1074.76 4446.19 1059.82 4467.2 1080.84 4482.14 1056.23 4474.43 1048.52 4499.03" style="fill:#f3587d"/><polygon points="1248.49 4535.63 1262.12 4521.72 1248.21 4508.09 1265.65 4516.75 1274.32 4499.31 1271.47 4518.57 1290.74 4521.42 1271.53 4524.67 1274.77 4543.87 1265.76 4526.61 1248.49 4535.63" style="fill:#5932c4"/><polygon points="989.85 4305.03 989.58 4279.24 963.8 4279.51 988.24 4271.29 980.02 4246.85 995.39 4267.55 1016.09 4252.18 1001.15 4273.2 1022.17 4288.14 997.56 4280.42 989.85 4305.03" style="fill:#5932c4"/><polygon points="707.52 4869.9 707.79 4895.69 733.57 4895.42 709.13 4903.64 717.35 4928.08 701.98 4907.38 681.27 4922.75 696.22 4901.73 675.2 4886.79 699.8 4894.51 707.52 4869.9" style="fill:#f3587d"/><polygon points="779.17 4676.91 778.9 4651.13 753.12 4651.39 777.56 4643.17 769.34 4618.73 784.71 4639.44 805.42 4624.06 790.47 4645.08 811.49 4660.02 786.88 4652.31 779.17 4676.91" style="fill:#f3587d"/><polygon points="1172.08 4658.04 1185.71 4644.13 1171.8 4630.5 1189.25 4639.16 1197.91 4621.72 1195.06 4640.99 1214.33 4643.84 1195.12 4647.08 1198.37 4666.28 1189.35 4649.02 1172.08 4658.04" style="fill:#f3587d"/><polygon points="890.45 4883.62 896.52 4877.42 890.32 4871.35 898.09 4875.21 901.95 4867.44 900.68 4876.02 909.26 4877.29 900.71 4878.73 902.15 4887.29 898.14 4879.6 890.45 4883.62" style="fill:#11bc92"/><polygon points="70.88 4130.3 75.69 4146.92 92.32 4142.11 77.99 4151.83 87.71 4166.15 74.04 4155.53 63.42 4169.2 69.3 4152.92 53.02 4147.04 70.32 4147.6 70.88 4130.3" style="fill:#11bc92"/><polygon points="132.57 4300.29 152 4280.45 132.16 4261.01 157.04 4273.37 169.4 4248.49 165.33 4275.97 192.81 4280.03 165.42 4284.66 170.05 4312.05 157.18 4287.43 132.57 4300.29" style="fill:#f3587d"/><polygon points="27.26 3995.73 40.89 3981.82 26.98 3968.19 44.42 3976.85 53.09 3959.41 50.24 3978.68 69.51 3981.53 50.3 3984.77 53.55 4003.98 44.53 3986.71 27.26 3995.73" style="fill:#f3587d"/><polygon points="771.05 3539.49 775.06 3526.45 762.02 3522.44 775.66 3522.22 775.45 3508.58 779.87 3521.49 792.77 3517.07 781.86 3525.26 790.05 3536.17 778.89 3528.33 771.05 3539.49" style="fill:#f3587d"/><polygon points="422.88 3583.67 428.96 3577.47 422.76 3571.4 430.53 3575.26 434.39 3567.49 433.12 3576.07 441.7 3577.34 433.15 3578.78 434.59 3587.34 430.57 3579.65 422.88 3583.67" style="fill:#11bc92"/><polygon points="129.89 3941.84 134.87 3936.76 129.78 3931.78 136.16 3934.94 139.32 3928.57 138.28 3935.61 145.32 3936.65 138.31 3937.84 139.49 3944.85 136.19 3938.55 129.89 3941.84" style="fill:#f3587d"/><polygon points="245.3 3538.25 251.37 3532.05 245.17 3525.98 252.94 3529.84 256.8 3522.07 255.53 3530.65 264.12 3531.92 255.56 3533.37 257.01 3541.92 252.99 3534.23 245.3 3538.25" style="fill:#11bc92"/><polygon points="504.5 4199.19 510.57 4193 504.38 4186.93 512.15 4190.79 516.01 4183.02 514.74 4191.6 523.32 4192.87 514.77 4194.31 516.21 4202.87 512.19 4195.18 504.5 4199.19" style="fill:#11bc92"/><polygon points="1213.23 3526.76 1224.04 3564.08 1261.36 3553.27 1229.2 3575.09 1251.02 3607.24 1220.33 3583.4 1196.49 3614.08 1209.68 3577.53 1173.13 3564.34 1211.97 3565.59 1213.23 3526.76" style="fill:#11bc92"/><polygon points="1026.78 3855.24 1026.52 3829.45 1000.73 3829.72 1025.17 3821.5 1016.95 3797.06 1032.32 3817.76 1053.03 3802.39 1038.09 3823.41 1059.1 3838.35 1034.5 3830.64 1026.78 3855.24" style="fill:#f3587d"/><polygon points="968.11 3661.24 967.85 3635.45 942.06 3635.72 966.5 3627.5 958.28 3603.06 973.65 3623.76 994.36 3608.39 979.41 3629.41 1000.43 3644.35 975.83 3636.63 968.11 3661.24" style="fill:#5932c4"/><polygon points="1178.44 4945.11 1178.17 4919.32 1152.39 4919.59 1176.83 4911.37 1168.61 4886.93 1183.98 4907.63 1204.69 4892.26 1189.74 4913.28 1210.76 4928.22 1186.15 4920.5 1178.44 4945.11" style="fill:#f3587d"/><polygon points="1150.35 4014.25 1163.98 4000.34 1150.07 3986.71 1167.51 3995.37 1176.17 3977.93 1173.33 3997.2 1192.59 4000.05 1173.39 4003.29 1176.63 4022.49 1167.61 4005.23 1150.35 4014.25" style="fill:#f3587d"/><polygon points="399.62 4409.67 399.36 4383.89 373.57 4384.15 398.01 4375.93 389.8 4351.49 405.17 4372.2 425.87 4356.83 410.93 4377.84 431.94 4392.78 407.34 4385.07 399.62 4409.67" style="fill:#5932c4"/><polygon points="615.95 4036.33 615.69 4010.55 589.9 4010.81 614.34 4002.59 606.13 3978.15 621.49 3998.86 642.2 3983.49 627.26 4004.5 648.27 4019.44 623.67 4011.72 615.95 4036.33" style="fill:#5932c4"/><polygon points="1299.11 4679.6 1303.92 4696.22 1320.55 4691.41 1306.22 4701.13 1315.94 4715.45 1302.27 4704.83 1291.65 4718.5 1297.53 4702.22 1281.25 4696.34 1298.55 4696.9 1299.11 4679.6" style="fill:#11bc92"/><polygon points="2197.71 4772.48 2202.53 4789.11 2219.15 4784.3 2204.83 4794.01 2214.54 4808.34 2200.88 4797.71 2190.26 4811.38 2196.13 4795.1 2179.85 4789.22 2197.15 4789.78 2197.71 4772.48" style="fill:#11bc92"/><polygon points="2259.4 4942.48 2278.84 4922.64 2259 4903.2 2283.88 4915.55 2296.23 4890.68 2292.17 4918.15 2319.64 4922.22 2292.26 4926.84 2296.88 4954.23 2284.02 4929.61 2259.4 4942.48" style="fill:#f3587d"/><polygon points="2555.61 4681.77 2559.62 4668.73 2546.58 4664.72 2560.22 4664.51 2560.01 4650.87 2564.43 4663.77 2577.34 4659.36 2566.43 4667.55 2574.61 4678.46 2563.45 4670.61 2555.61 4681.77" style="fill:#f3587d"/><polygon points="2256.72 4584.03 2261.7 4578.94 2256.62 4573.96 2262.99 4577.13 2266.16 4570.76 2265.12 4577.8 2272.16 4578.84 2265.14 4580.02 2266.32 4587.04 2263.03 4580.73 2256.72 4584.03" style="fill:#f3587d"/><polygon points="2372.13 4180.44 2378.2 4174.24 2372.01 4168.17 2379.78 4172.03 2383.64 4164.26 2382.37 4172.84 2390.95 4174.11 2382.39 4175.55 2383.84 4184.11 2379.82 4176.42 2372.13 4180.44" style="fill:#11bc92"/><polygon points="2013.22 4432.81 2019.29 4426.61 2013.09 4420.54 2020.86 4424.4 2024.72 4416.63 2023.45 4425.21 2032.03 4426.48 2023.48 4427.92 2024.92 4436.48 2020.91 4428.79 2013.22 4432.81" style="fill:#11bc92"/><polygon points="4767.52 4876.66 4778.33 4913.98 4815.65 4903.18 4783.49 4924.99 4805.31 4957.15 4774.63 4933.3 4750.78 4963.98 4763.98 4927.44 4727.43 4914.24 4766.27 4915.5 4767.52 4876.66" style="fill:#11bc92"/><polygon points="3153.62 4497.43 3153.35 4471.64 3127.57 4471.9 3152.01 4463.69 3143.79 4439.24 3159.16 4459.95 3179.86 4444.58 3164.92 4465.6 3185.94 4480.54 3161.33 4472.82 3153.62 4497.43" style="fill:#f3587d"/><polygon points="3198.21 4785.36 3211.84 4771.44 3197.93 4757.81 3215.37 4766.48 3224.03 4749.03 3221.18 4768.3 3240.45 4771.15 3221.25 4774.4 3224.49 4793.6 3215.47 4776.34 3198.21 4785.36" style="fill:#5932c4"/><polygon points="2118.35 3417.58 2118.09 3391.79 2092.3 3392.06 2116.74 3383.84 2108.52 3359.4 2123.89 3380.1 2144.6 3364.73 2129.66 3385.75 2150.67 3400.69 2126.07 3392.97 2118.35 3417.58" style="fill:#5932c4"/><polygon points="2319.64 3537.87 2319.9 3563.66 2345.69 3563.39 2321.24 3571.61 2329.47 3596.05 2314.1 3575.35 2293.39 3590.72 2308.33 3569.7 2287.32 3554.76 2311.92 3562.48 2319.64 3537.87" style="fill:#f3587d"/><polygon points="2689.7 3554.32 2689.44 3528.53 2663.65 3528.8 2688.1 3520.58 2679.88 3496.14 2695.25 3516.84 2715.95 3501.47 2701.01 3522.49 2722.02 3537.43 2697.42 3529.72 2689.7 3554.32" style="fill:#f3587d"/><polygon points="2814.99 3821.7 2828.62 3807.78 2814.7 3794.15 2832.15 3802.82 2840.81 3785.37 2837.96 3804.64 2857.23 3807.49 2838.02 3810.73 2841.27 3829.94 2832.25 3812.68 2814.99 3821.7" style="fill:#f3587d"/><polygon points="2995.55 4882.01 3001.62 4875.81 2995.42 4869.74 3003.19 4873.6 3007.05 4865.83 3005.78 4874.42 3014.36 4875.69 3005.81 4877.13 3007.25 4885.68 3003.24 4877.99 2995.55 4882.01" style="fill:#11bc92"/><polygon points="2175.98 4128.69 2180.79 4145.32 2197.42 4140.51 2183.09 4150.22 2192.81 4164.55 2179.14 4153.92 2168.52 4167.59 2174.4 4151.31 2158.12 4145.43 2175.42 4145.99 2175.98 4128.69" style="fill:#11bc92"/><polygon points="2237.67 4298.69 2257.11 4278.85 2237.26 4259.41 2262.14 4271.76 2274.49 4246.89 2270.43 4274.36 2297.91 4278.43 2270.52 4283.05 2275.15 4310.44 2262.28 4285.82 2237.67 4298.69" style="fill:#f3587d"/><polygon points="2132.36 3994.13 2145.99 3980.22 2132.08 3966.58 2149.53 3975.25 2158.19 3957.8 2155.34 3977.07 2174.61 3979.92 2155.4 3983.16 2158.65 4002.37 2149.63 3985.11 2132.36 3994.13" style="fill:#f3587d"/><polygon points="2234.99 3940.24 2239.97 3935.15 2234.89 3930.17 2241.26 3933.34 2244.42 3926.97 2243.38 3934.01 2250.42 3935.05 2243.41 3936.23 2244.59 3943.25 2241.3 3936.94 2234.99 3940.24" style="fill:#f3587d"/><polygon points="2609.6 4197.59 2615.68 4191.39 2609.48 4185.32 2617.25 4189.18 2621.11 4181.41 2619.84 4189.99 2628.42 4191.26 2619.86 4192.71 2621.31 4201.26 2617.29 4193.57 2609.6 4197.59" style="fill:#11bc92"/><polygon points="3131.88 3853.64 3131.62 3827.85 3105.83 3828.11 3130.27 3819.9 3122.05 3795.45 3137.42 3816.16 3158.13 3800.79 3143.19 3821.81 3164.2 3836.75 3139.6 3829.03 3131.88 3853.64" style="fill:#f3587d"/><polygon points="3331.86 3890.24 3345.49 3876.32 3331.57 3862.69 3349.02 3871.36 3357.68 3853.91 3354.83 3873.18 3374.1 3876.03 3354.89 3879.27 3358.14 3898.48 3349.12 3881.22 3331.86 3890.24" style="fill:#5932c4"/><polygon points="3073.21 3659.63 3072.95 3633.85 3047.16 3634.11 3071.6 3625.89 3063.38 3601.45 3078.75 3622.16 3099.46 3606.79 3084.51 3627.8 3105.53 3642.74 3080.93 3635.03 3073.21 3659.63" style="fill:#5932c4"/><polygon points="4548.73 3717.2 4548.99 3742.99 4574.78 3742.72 4550.34 3750.94 4558.56 3775.38 4543.19 3754.68 4522.48 3770.05 4537.42 3749.03 4516.41 3734.09 4541.01 3741.8 4548.73 3717.2" style="fill:#f3587d"/><polygon points="4223 4451.78 4222.73 4426 4196.95 4426.26 4221.39 4418.05 4213.17 4393.6 4228.54 4414.31 4249.25 4398.94 4234.3 4419.95 4255.32 4434.9 4230.72 4427.18 4223 4451.78" style="fill:#f3587d"/><polygon points="4809.9 4394.85 4823.53 4380.94 4809.61 4367.31 4827.06 4375.97 4835.72 4358.52 4832.87 4377.79 4852.14 4380.64 4832.94 4383.89 4836.18 4403.09 4827.16 4385.83 4809.9 4394.85" style="fill:#f3587d"/><polygon points="4964.65 4644.32 4970.72 4638.12 4964.52 4632.05 4972.29 4635.91 4976.15 4628.14 4974.88 4636.72 4983.46 4637.99 4974.91 4639.44 4976.35 4647.99 4972.34 4640.3 4964.65 4644.32" style="fill:#11bc92"/><polygon points="2504.72 4408.07 2504.46 4382.28 2478.67 4382.55 2503.11 4374.33 2494.89 4349.89 2510.26 4370.59 2530.97 4355.22 2516.03 4376.24 2537.04 4391.18 2512.44 4383.46 2504.72 4408.07" style="fill:#5932c4"/><polygon points="2721.05 4034.73 2720.79 4008.94 2695 4009.2 2719.44 4000.99 2711.22 3976.54 2726.59 3997.25 2747.3 3981.88 2732.36 4002.9 2753.37 4017.84 2728.77 4010.12 2721.05 4034.73" style="fill:#5932c4"/><polygon points="3404.21 4677.99 3409.02 4694.62 3425.65 4689.81 3411.32 4699.52 3421.04 4713.85 3407.37 4703.23 3396.75 4716.89 3402.63 4700.61 3386.35 4694.73 3403.65 4695.29 3404.21 4677.99" style="fill:#11bc92"/><polygon points="3320.49 4546.85 3325.3 4563.47 3341.93 4558.66 3327.6 4568.37 3337.32 4582.7 3323.65 4572.08 3313.03 4585.74 3318.91 4569.46 3302.63 4563.59 3319.93 4564.15 3320.49 4546.85" style="fill:#11bc92"/><polygon points="4960.65 4004.57 4966.72 3998.37 4960.52 3992.3 4968.29 3996.16 4972.15 3988.39 4970.88 3996.97 4979.46 3998.24 4970.91 3999.68 4972.35 4008.24 4968.34 4000.55 4960.65 4004.57" style="fill:#11bc92"/><polygon points="4908.15 3362.01 4908.41 3387.79 4934.2 3387.53 4909.76 3395.74 4917.98 3420.19 4902.61 3399.48 4881.9 3414.85 4896.85 3393.84 4875.83 3378.89 4900.43 3386.61 4908.15 3362.01" style="fill:#f3587d"/><polygon points="4764.49 3952.83 4769.3 3969.45 4785.93 3964.64 4771.6 3974.35 4781.32 3988.68 4767.65 3978.06 4757.03 3991.72 4762.91 3975.44 4746.63 3969.57 4763.93 3970.13 4764.49 3952.83" style="fill:#11bc92"/><polygon points="4826.18 4122.82 4845.62 4102.98 4825.78 4083.54 4850.65 4095.9 4863.01 4071.02 4858.94 4098.5 4886.42 4102.56 4859.03 4107.19 4863.66 4134.57 4850.8 4109.95 4826.18 4122.82" style="fill:#f3587d"/><polygon points="4720.88 3818.26 4734.51 3804.35 4720.59 3790.72 4738.04 3799.38 4746.7 3781.94 4743.85 3801.2 4763.12 3804.05 4743.91 3807.3 4747.16 3826.5 4738.14 3809.24 4720.88 3818.26" style="fill:#f3587d"/><polygon points="4823.5 3764.37 4828.48 3759.28 4823.4 3754.3 4829.77 3757.47 4832.94 3751.1 4831.9 3758.14 4838.93 3759.18 4831.92 3760.36 4833.1 3767.38 4829.81 3761.07 4823.5 3764.37" style="fill:#f3587d"/><polygon points="3279.99 2549.72 3291.7 2553.33 3295.31 2541.61 3295.5 2553.87 3307.75 2553.68 3296.16 2557.64 3300.13 2569.24 3292.77 2559.44 3282.97 2566.8 3290.01 2556.77 3279.99 2549.72" style="fill:#f3587d"/><polygon points="2450.02 3063.25 2416.49 3072.96 2426.2 3106.49 2406.6 3077.6 2377.71 3097.2 2399.13 3069.63 2371.57 3048.21 2404.4 3060.07 2416.26 3027.23 2415.13 3062.12 2450.02 3063.25" style="fill:#11bc92"/><polygon points="3044.55 2007.59 3067.72 2007.35 3067.48 1984.19 3074.87 2006.14 3096.82 1998.76 3078.22 2012.57 3092.03 2031.17 3073.15 2017.74 3059.73 2036.62 3066.66 2014.52 3044.55 2007.59" style="fill:#f3587d"/><polygon points="2963.45 2959.11 2975.95 2971.36 2988.19 2958.86 2980.41 2974.53 2996.08 2982.32 2978.77 2979.76 2976.21 2997.07 2973.3 2979.81 2956.04 2982.73 2971.55 2974.62 2963.45 2959.11" style="fill:#5932c4"/><polygon points="3348.78 2007.59 3371.95 2007.35 3371.71 1984.19 3379.09 2006.14 3401.05 1998.76 3382.45 2012.57 3396.26 2031.17 3377.38 2017.74 3363.95 2036.62 3370.89 2014.52 3348.78 2007.59" style="fill:#5932c4"/><polygon points="2836.53 2537.49 2859.69 2537.26 2859.45 2514.09 2866.84 2536.05 2888.79 2528.66 2870.19 2542.47 2884 2561.07 2865.12 2547.65 2851.7 2566.53 2858.63 2544.42 2836.53 2537.49" style="fill:#f3587d"/><polygon points="3838.73 1646.11 3851.23 1658.36 3863.47 1645.86 3855.69 1661.53 3871.36 1669.31 3854.05 1666.75 3851.49 1684.06 3848.57 1666.81 3831.32 1669.72 3846.83 1661.62 3838.73 1646.11" style="fill:#f3587d"/><polygon points="3060.18 2439.43 3079.62 2419.59 3059.78 2400.15 3084.65 2412.51 3097.01 2387.63 3092.95 2415.11 3120.42 2419.17 3093.03 2423.8 3097.66 2451.18 3084.8 2426.57 3060.18 2439.43" style="fill:#f3587d"/><polygon points="2456.32 1658.29 2456.05 1632.51 2430.27 1632.77 2454.71 1624.56 2446.49 1600.11 2461.86 1620.82 2482.57 1605.45 2467.62 1626.46 2488.64 1641.41 2464.03 1633.69 2456.32 1658.29" style="fill:#f3587d"/><polygon points="2683.94 1908.9 2683.68 1883.11 2657.89 1883.38 2682.33 1875.16 2674.11 1850.72 2689.48 1871.42 2710.19 1856.05 2695.25 1877.07 2716.26 1892.01 2691.66 1884.29 2683.94 1908.9" style="fill:#5932c4"/><polyline points="4078.02 1853.45 4098.72 1838.08 4083.78 1859.1" style="fill:#f3587d"/><polygon points="4306.45 132.4 4325.89 112.56 4306.05 93.13 4330.93 105.48 4343.28 80.61 4339.22 108.08 4366.7 112.14 4339.31 116.77 4343.94 144.16 4331.07 119.54 4306.45 132.4" style="fill:#5932c4"/><polygon points="3312.81 2914.62 3279.27 2924.33 3288.98 2957.86 3269.39 2928.97 3240.5 2948.57 3261.92 2921 3234.35 2899.58 3267.19 2911.44 3279.04 2878.6 3277.91 2913.49 3312.81 2914.62" style="fill:#11bc92"/><polygon points="4801.4 2407.07 4775.61 2407.33 4775.88 2433.12 4767.66 2408.67 4743.22 2416.89 4763.92 2401.52 4748.55 2380.82 4769.57 2395.76 4784.51 2374.75 4776.79 2399.35 4801.4 2407.07" style="fill:#5932c4"/><polyline points="4595.12 3455.94 4612.42 3456.5 4595.79 3461.31" style="fill:#11bc92"/><polygon points="4607.05 2700.33 4615.88 2708.99 4624.54 2700.15 4619.04 2711.23 4630.12 2716.73 4617.88 2714.92 4616.07 2727.16 4614.01 2714.96 4601.81 2717.02 4612.78 2711.29 4607.05 2700.33" style="fill:#11bc92"/></g></g></svg>