<svg xmlns="http://www.w3.org/2000/svg" viewBox="0 0 4991.77 5115.79"><defs><style>.cls-1{isolation:isolate;}.cls-11,.cls-12,.cls-13,.cls-14,.cls-15,.cls-16,.cls-17,.cls-18,.cls-2,.cls-3,.cls-4,.cls-5,.cls-6,.cls-7,.cls-8{fill:none;stroke-miterlimit:10;}.cls-11,.cls-13,.cls-14,.cls-2,.cls-4,.cls-8{stroke:#11bc92;}.cls-16,.cls-17,.cls-18,.cls-2,.cls-3,.cls-7{stroke-width:14px;}.cls-12,.cls-15,.cls-3,.cls-5{stroke:#5932c4;}.cls-4,.cls-5,.cls-6{stroke-width:12px;}.cls-16,.cls-17,.cls-18,.cls-6,.cls-7{stroke:#f3587d;}.cls-8{stroke-width:8px;}.cls-9{fill:#5932c4;}.cls-10{fill:#11bc92;}.cls-11,.cls-12{stroke-width:16px;}.cls-13,.cls-15{stroke-width:10px;}.cls-14{stroke-width:6px;}.cls-16{opacity:0.6;}.cls-17,.cls-18{opacity:0.3;}.cls-17{mix-blend-mode:multiply;}.cls-18{mix-blend-mode:screen;}</style></defs><title>solarpunk</title><g class="cls-1"><g id="Layer_1" data-name="Layer 1"><g id="background"><path class="cls-2" d="M4116.18,3616.75a1209.67,1209.67,0,0,0,178.57-6.23,1194.6,1194.6,0,0,0,215.82-43.95" transform="translate(12.09 63.91)"/><path class="cls-2" d="M4120.3,3561a1210.79,1210.79,0,0,0,174.45-6.39,1194.6,1194.6,0,0,0,215.82-43.95" transform="translate(12.09 63.91)"/><path class="cls-2" d="M4095.59,3392.25a1210.38,1210.38,0,0,0,199.16-5.25,1193.66,1193.66,0,0,0,215.82-44" transform="translate(12.09 63.91)"/><path class="cls-2" d="M4102.47,3336.74a1210.91,1210.91,0,0,0,192.28-5.62,1194.52,1194.52,0,0,0,215.82-44" transform="translate(12.09 63.91)"/><path class="cls-2" d="M4113.48,3281.36a1209.31,1209.31,0,0,0,181.27-6.12,1194.52,1194.52,0,0,0,215.82-44" transform="translate(12.09 63.91)"/><path class="cls-2" d="M4126.83,3226a1210.47,1210.47,0,0,0,167.92-6.6,1194.52,1194.52,0,0,0,215.82-44" transform="translate(12.09 63.91)"/><path class="cls-2" d="M4144.88,3170.49a1211,1211,0,0,0,149.87-7,1194.52,1194.52,0,0,0,215.82-44" transform="translate(12.09 63.91)"/><path class="cls-2" d="M4179.2,3114.65c35.75-.47,74.44-2.56,115.55-7.06a1194.6,1194.6,0,0,0,215.82-44" transform="translate(12.09 63.91)"/><path class="cls-2" d="M4240.91,3056.74q28.23-1.71,58.36-5a1148.22,1148.22,0,0,0,211.3-43.95" transform="translate(12.09 63.91)"/><path class="cls-2" d="M4348,2988.8a1190.74,1190.74,0,0,0,162.55-36.92" transform="translate(12.09 63.91)"/><path class="cls-2" d="M4423.41,2918.77c32-7.07,61.12-14.9,87.16-22.77" transform="translate(12.09 63.91)"/><path class="cls-2" d="M4168.36,2942.75a914.05,914.05,0,0,0,342.21-50.18" transform="translate(12.09 63.91)"/><path class="cls-2" d="M4172,2887a914.25,914.25,0,0,0,338.62-50.34" transform="translate(12.09 63.91)"/><path class="cls-2" d="M4145,2829.64a913.94,913.94,0,0,0,365.57-48.83" transform="translate(12.09 63.91)"/><path class="cls-2" d="M4145,2773.76a913.72,913.72,0,0,0,365.57-48.84" transform="translate(12.09 63.91)"/><path class="cls-2" d="M4150.5,2718.25A913.69,913.69,0,0,0,4510.57,2669" transform="translate(12.09 63.91)"/><path class="cls-2" d="M4156.47,2662.74a913.82,913.82,0,0,0,354.1-49.58" transform="translate(12.09 63.91)"/><path class="cls-2" d="M4166,2607.36a913.75,913.75,0,0,0,344.55-50.08" transform="translate(12.09 63.91)"/><path class="cls-2" d="M4177.61,2552a913.9,913.9,0,0,0,333-50.56" transform="translate(12.09 63.91)"/><path class="cls-2" d="M4193.27,2496.49a914,914,0,0,0,317.3-51" transform="translate(12.09 63.91)"/><path class="cls-2" d="M4223.05,2440.65a915.15,915.15,0,0,0,287.52-51" transform="translate(12.09 63.91)"/><path class="cls-2" d="M4276.59,2382.74q24.49-1.71,50.64-5a883.24,883.24,0,0,0,183.34-43.95" transform="translate(12.09 63.91)"/><path class="cls-2" d="M4369.53,2314.8a918.72,918.72,0,0,0,141-36.92" transform="translate(12.09 63.91)"/><path class="cls-2" d="M4434.94,2244.77c27.75-7.07,53-14.9,75.63-22.77" transform="translate(12.09 63.91)"/><path class="cls-3" d="M10.23,3632.45c24.64-12.17,52.52-15.69,79.8-19l273.64-33.58c49.22-6,98.45-12.08,147.76-17.36q166.27-17.82,333.53-24.14" transform="translate(12.09 63.91)"/><path class="cls-3" d="M1414,3576.66A2484.25,2484.25,0,0,0,1684.51,3625" transform="translate(12.09 63.91)"/><path class="cls-3" d="M3269,3629h24" transform="translate(12.09 63.91)"/><path class="cls-3" d="M4106.54,3656l410.46,8V1650c-15.22,113.56-45.08,273.6-109.23,420.81-62,142.3-126.62,205.43-151.41,235.55-82.35,100.12-163.73,370.27-165.79,1110" transform="translate(12.09 63.91)"/><g id="_2" data-name="2"><path class="cls-4" d="M1871.13,3526.83h31.43v-1039l-31.43,29.33Z" transform="translate(12.09 63.91)"/><path class="cls-5" d="M2245.51,3142.14l-72.67-42.62V2358H2034.56l-446.28,439.88V2911l69.14,58.65q-4,80.85-6.28,163.38-5.48,201.54,0,393.8l283.67,3.29" transform="translate(12.09 63.91)"/><path class="cls-5" d="M1731.56,2665.23q-3.13,427.74-6.28,855.49h62.85V2610.55" transform="translate(12.09 63.91)"/><path class="cls-5" d="M2097.41,3535.21" transform="translate(12.09 63.91)"/><line class="cls-5" x1="2109.5" y1="2421.91" x2="2109.5" y2="3527.34"/><rect class="cls-5" x="2040.84" y="2408.27" width="31.43" height="4.19" transform="translate(4125.2 4884.64) rotate(180)"/><rect class="cls-5" x="2040.84" y="2391.51" width="31.43" height="4.19" transform="translate(4125.2 4851.12) rotate(180)"/><rect class="cls-5" x="2122.55" y="3133.03" width="31.43" height="4.19" transform="translate(4288.63 6334.16) rotate(180)"/><rect class="cls-5" x="2122.55" y="3162.36" width="31.43" height="4.19" transform="translate(4288.63 6392.81) rotate(180)"/><rect class="cls-5" x="2122.55" y="3183.3" width="31.43" height="4.19" transform="translate(4288.63 6434.7) rotate(180)"/><rect class="cls-5" x="2116.27" y="2391.51" width="31.43" height="4.19" transform="translate(4276.06 4851.12) rotate(180)"/><rect class="cls-5" x="2040.84" y="2441.79" width="31.43" height="4.19" transform="translate(4125.2 4951.67) rotate(180)"/><rect class="cls-5" x="2040.84" y="2425.03" width="31.43" height="4.19" transform="translate(4125.2 4918.15) rotate(180)"/><rect class="cls-5" x="1619.71" y="2793.69" width="31.43" height="4.19" transform="translate(3282.94 5655.48) rotate(180)"/><rect class="cls-5" x="1619.71" y="2814.64" width="31.43" height="4.19" transform="translate(3282.94 5697.37) rotate(180)"/><rect class="cls-5" x="1619.71" y="2839.78" width="31.43" height="4.19" transform="translate(3282.94 5747.65) rotate(180)"/></g><path class="cls-3" d="M3983.68,3185.29c-4.27-291.82,17-523.89,36.71-678.07,37.13-290.71,82.77-415.57,98.68-456.65,42-108.47,88-178.49,120.25-220.51,20.32-27.63,47.93-59.55,82.61-85.45,30.78-23,58.73-34.94,81.23-41.34" transform="translate(12.09 63.91)"/><path class="cls-3" d="M4115,2510" transform="translate(12.09 63.91)"/><path class="cls-3" d="M3445.43,3096.49c-42.69,54.38-74.61,119.91-70.43,192.41.6,10.43,1.14,19.76,4,30.1,6.68,24.16,23.53,44.84,47.74,62.56" transform="translate(12.09 63.91)"/><line class="cls-3" x1="3387.09" y1="3476.62" x2="3387.09" y2="3352.91"/><path class="cls-3" d="M3415,3351c9-29.21,40.48-124.08,117.54-217.69" transform="translate(12.09 63.91)"/><g id="_2-2" data-name="2"><path class="cls-4" d="M340,3549H318.38V2476.11L340,2506.4Z" transform="translate(12.09 63.91)"/><path class="cls-5" d="M491.42,3549l-497.51,8.65V3259.16l30.28-56.24,108.16-95.18V2342h95.17l307.17,454.26v116.8l-47.59,60.57q2.77,83.51,4.32,168.72Q495.2,3350.49,491.42,3549Z" transform="translate(12.09 63.91)"/><path class="cls-5" d="M410.16,3529.1,408,2609l45,67q.22,426.55.44,853.1" transform="translate(12.09 63.91)"/><line class="cls-5" x1="196.35" y1="2405.91" x2="196.35" y2="3621.58"/><rect class="cls-4" x="213.66" y="2457.82" width="21.63" height="4.33"/><rect class="cls-4" x="213.66" y="2440.52" width="21.63" height="4.33"/><rect class="cls-4" x="157.42" y="3206.26" width="21.63" height="4.33"/><rect class="cls-4" x="157.42" y="3236.54" width="21.63" height="4.33"/><rect class="cls-4" x="157.42" y="3258.17" width="21.63" height="4.33"/><rect class="cls-4" x="161.74" y="2440.52" width="21.63" height="4.33"/><rect class="cls-4" x="213.66" y="2492.43" width="21.63" height="4.33"/><rect class="cls-6" x="213.66" y="2475.13" width="21.63" height="4.33"/><rect class="cls-5" x="503.52" y="2855.83" width="21.63" height="4.33"/><rect class="cls-4" x="503.52" y="2877.47" width="21.63" height="4.33"/><rect class="cls-4" x="503.52" y="2903.42" width="21.63" height="4.33"/></g><g id="_3" data-name="3"><path class="cls-3" d="M4650.88,3654.2H4589V2679.87l61.88-84.27Z" transform="translate(12.09 63.91)"/><rect class="cls-3" x="4662.97" y="2390.91" width="68.06" height="1332.47"/><rect class="cls-3" x="4731.03" y="2390.91" width="86.63" height="1332.47"/><rect class="cls-3" x="4755.78" y="2417.24" width="30.94" height="5.27"/><rect class="cls-3" x="4755.78" y="2433.04" width="30.94" height="5.27"/><rect class="cls-3" x="4755.78" y="2448.84" width="30.94" height="5.27"/><rect class="cls-7" x="4681.53" y="3286.24" width="30.94" height="5.27"/><rect class="cls-7" x="4681.53" y="3338.91" width="30.94" height="5.27"/><rect class="cls-3" x="4681.53" y="3381.04" width="30.94" height="5.27"/><rect class="cls-3" x="4681.53" y="3396.84" width="30.94" height="5.27"/><rect class="cls-2" x="4681.53" y="3454.77" width="30.94" height="5.27"/><rect class="cls-2" x="4681.53" y="3486.37" width="30.94" height="5.27"/><path class="cls-3" d="M4972.63,3670H4811.75V2679.87a291.25,291.25,0,0,1,92.82,31.6,251.45,251.45,0,0,1,61.87,47.4Q4969.55,3214.44,4972.63,3670Z" transform="translate(12.09 63.91)"/></g></g><path class="cls-4" d="M3585.62,3136.22a133.75,133.75,0,0,1,3.66,24.93c1.27,19.93.48,39.94,3.11,59.92.42,3.13.94,6.2,1.43,9.26.3,6,.68,12.09,1,18.15a36.52,36.52,0,0,1-.95,6.2c-1.91,7.07-5.51,14-9.08,20.92-1.49,2.28-2.85,4.6-4.5,6.83-.93,1.26-2,2.58-3.08,3.88a150.76,150.76,0,0,1-28.16,25.06c-19.28,12.86-43,20.36-68,27.48-.5.19-.13.71.41.57,1.27-.23,2.53-.55,3.8-.8-.24.94.44,1.94,2.37,1.91,19.5-.56,36-2.08,50.76-5.37a147.86,147.86,0,0,1-24.55,10.53c-.45.11-.12.67.34.53,1.12-.29,2.07-.72,3.17-1-.29.09-.54.22-.84.31-2.71.86-.85,3.5,1.94,3a176.63,176.63,0,0,0,43-13.44,2.65,2.65,0,0,0,2.29-.33c1.09-.86,2.1-1.56,3.19-2.32,3.89-2,7.73-4.26,11.34-6.64a65,65,0,0,1-17,22.26c-2.15,1.79,2.2,3.39,4.53,2.23,2.71-1.4,5.06-3,7.46-4.52a1.77,1.77,0,0,0,2.39-.09c.84-1,1.59-2.08,2.4-3.12a79.71,79.71,0,0,0,7.58-6.21,16.39,16.39,0,0,1-1.1,1.87c-12.34,17.52-8.69,24,6.93,6.7a13,13,0,0,1,4.87-3.21c-1,1.74-2,3.45-2.92,5.22-.74,1.31,2.12,2.27,3.6,1.31a41,41,0,0,0,9.59-8.8c5.86-.64,12.33-.74,18-1.24m-212-226.37a45.76,45.76,0,0,0,20.16-7.08,29.13,29.13,0,0,0,7.1-6.74c9.46,1,19.28.42,27.26-3.29a33.11,33.11,0,0,0,9.63-6.18,12.72,12.72,0,0,0,1.94-1.69,31,31,0,0,0,11.4,6.15,59,59,0,0,0,16.51,2.69m-102.56-74.51a10.67,10.67,0,0,1-13.09,6.58c-4.89,1.14-8.18,4.21-8.18,7.61,0,1.78,1.13,3.17,2.7,4.36a5.12,5.12,0,0,0-.85,1.7,38.57,38.57,0,0,0-13.26,5.41c-3.92-.26-8,.59-10.55,3.24-3.39,3.47-5.1,7.42-3.91,11.12h-.32c-11-1.05-22.92.77-30.15,6a13.88,13.88,0,0,0-5.4,6.5c-4.64-1-10.13-.86-14,.81-6.49,2.83-11.31,6.3-13.58,11.22-.17.35-.06.7-.18,1.06a13.28,13.28,0,0,0-3.89,3.87c-1.94,3.22.54,7.14,3.73,9.53,2.5,1.9,7.32,2.71,11.45,2.17,8.74,3.38,21,3.31,30.09.16a33.35,33.35,0,0,0,13.79.08,9.62,9.62,0,0,0,2,.46c2.43.06,3.75-1,4.08-2.23,1.2-.4,2.43-.7,3.61-1.16a40,40,0,0,0,21.55,5.1c.29,0,.56-.08.85-.1a41.32,41.32,0,0,0,6.58-.8c3.36,3.41,8.94,5.86,14.64,7.33a32.46,32.46,0,0,0,10.88.65m10.06-265.59a18.19,18.19,0,0,0-2.84,3.83,9.92,9.92,0,0,0-1.17,3.53,20,20,0,0,0-2,3.61,3.1,3.1,0,0,1-.42-.08c-2.07-.25-4.14-.47-6.24-.6,3.72.3-4-.49-5-.56a56,56,0,0,0-10.81.37,31.67,31.67,0,0,0-17.83,8.46c-4.37,4-5.36,9.34-4.2,14.52a24.06,24.06,0,0,0-1.7,2.24,14.28,14.28,0,0,0-5.66,3.87,4.49,4.49,0,0,0-1.32,3.47,57,57,0,0,0-19.53,1.73,38.17,38.17,0,0,0-22.76,16.56c-5-1-10.09,1.74-10.09,5,0,2.26,2.59,4.26,5.86,4.9-2.57,17.23,18.18,32.69,47.66,28.2,15.59-2.42,30.58-10.06,35.65-19.79,6.43,5,18.15,6.77,27.52,3.34,2-.74,4.07-1.45,6.08-2.14a50.35,50.35,0,0,0,12.94,5.38m-84-177.52a38.58,38.58,0,0,0-12.06,4c-6.64,3.45-7.6,9.61-6.07,14.57a10,10,0,0,0,2.14,3.44l-.31.25a36.73,36.73,0,0,0-16.45,4.61,15.68,15.68,0,0,0-4.79.55,10.81,10.81,0,0,0-7-2.12,13,13,0,0,0-2.06.27c-13.82-3-27.7,2.23-35.5,10a9.58,9.58,0,0,0-2.12,10.58c-7.41.36-14.17,3.26-18.41,7.34-6.76,6.15-1.85,16.06,8.57,19.15,5.87,1.74,11.62,2.76,18.11,1.39a48.22,48.22,0,0,0,6.93-1.87c4.87-1.59,7.26-4.67,9.05-7.74a7.32,7.32,0,0,0-.52-7.14c1.78.18,3.55.23,5.22.3-1.53,3.17-2,6.54-.08,9.83,4.34,7,12.09,10.65,23.71,11.58,6.11.46,13.3-1.63,18.43-3.52,6.06-2.15,11.25-5,14.75-8.71a25.45,25.45,0,0,0,3.33-.63c1.3.19,2.59.42,3.91.55l-.52.31c-6.39,4.08-7.67,10.92-2.87,15.79,4.2,4.32,11.89,6.41,19.67,5.13,4.8-.81,9-1.93,12.67-4.15m192.1-327c-3.39,2.58-3.62,2.84-5.49,6.11a6.57,6.57,0,0,0-.68,4.58c-3,.68-5.4,2.1-6,4.39a3.88,3.88,0,0,1-.12.86,14.69,14.69,0,0,0-7-1.95c-3.13-.06-6.26-.6-9.35-.39-7.22.54-12.27,2.71-16.13,6.64-3.07,3.12-2.6,8.14,1.5,10.91a8.61,8.61,0,0,0-1.07,5.05,14.45,14.45,0,0,0-2.79,6.13c-.34,2.64.75,5.42,2.79,8a10.93,10.93,0,0,0-2.92,5.36,19.58,19.58,0,0,0-4.43-2.33,10.07,10.07,0,0,0-1.53-.41,8.83,8.83,0,0,0-6.2-3.44,44.16,44.16,0,0,0-10.59-.17c-3.25.35-7.35,2.38-9.64,3.69-5.69,3.35-6.77,8.78-4.07,13.23a3.89,3.89,0,0,0-1.12,1.76c-.58-.17-1.12-.35-1.73-.48a7.4,7.4,0,0,0-4.55-2.25c-3.21-.62-6.77.28-8.61,2a16.39,16.39,0,0,0-3.82,1.45,6.59,6.59,0,0,0-3.28,8.57c1.09,2.8,5.06,4.33,9.37,4.56-2.17-.11,3,.74.08,0,.68.17,1.38.37,2.05.57a3.55,3.55,0,0,0,1,2c-.87.38-1.72.77-2.52,1.21a25,25,0,0,0-5.44-1.83,17.4,17.4,0,0,0-12,1.53c-4.1,2.24-4.15,6.39-1.44,9.15,0,.1.15.13.24.22a3.7,3.7,0,0,0-1.09.27,35.58,35.58,0,0,1-5.07,1.9,7.27,7.27,0,0,0-2.36.89,22.09,22.09,0,0,0-9.63-.47c-2.86.44-5.49,2.15-6.2,4a11.77,11.77,0,0,0-.56,7.48,6.52,6.52,0,0,0,.21,4.26,48.83,48.83,0,0,0-10.17,2.28,8.3,8.3,0,0,0-3.62-.78c-5.81,0-7.54,3.93-5.37,6.41-1.2,2.67-.54,5.72,2.74,7.68.59.35,1.27.51,1.89.81l-.06,0a8.19,8.19,0,0,0-3.34,1.83c-3.05,2-5.1,4.33-5.66,7.2a8.64,8.64,0,0,1-.65.92,7.9,7.9,0,0,0-1,3.43c-2.72.87-4,2.72-4,4.56a43.89,43.89,0,0,0-9.51,2c-7.14,2.4-10.77,7.32-11.58,12.25l-1.16.08a17.68,17.68,0,0,0-3.56-.54c-5.58-.38-10.7.54-14.81,3M3940.9,2623c1.07-.11,1.93-.4,2.93-.56a11.54,11.54,0,0,0,3.36.47c4,0,6.34-1.64,7.11-3.58,13.25-6.25,16.95-18.74,10.19-28.72,2.85-.58,5.58-1.25,8.27-2a26.71,26.71,0,0,0,9-4.27c3.52-.35,6.85-1.8,8.31-4.38.25-.45.67-2,.94-2.71h.05a1.88,1.88,0,0,1-.05.49,1.25,1.25,0,0,1,.23-.5c.31-.07.61-.16.93-.2,8.46-.4,9.25-7.92,1.45-9.71-.12,0-.27,0-.39-.07a19.93,19.93,0,0,0-6.29-1,17.32,17.32,0,0,0-1.69-3c-.1-.13-.25-.24-.35-.37,8-6.33,10.71-15,3.21-21.53a10.94,10.94,0,0,0,.1-6.73c0-.12,0-.22,0-.34s-.05-.05-.06-.08a10.44,10.44,0,0,0-2.94-4.17c-1.37-4-7-7.39-14.1-5.81-.23.05-.48.14-.72.19a45,45,0,0,0-10.25.06c-6.92.9-14.29,3.75-18.42,7.73a20.89,20.89,0,0,0-3.8-2c-1.24-.48-2.7-.76-4.07-1.14a4.93,4.93,0,0,0-2.4-5,10.58,10.58,0,0,0-5.94-9.93c-.83-.44-1.61-.74-2.41-1.11,3.1-2.38,2.45-6.3-.63-8.53-2.82-2.08-6.8-3.11-11.06-3.15a21.29,21.29,0,0,0-6.5,1,53.84,53.84,0,0,0-15.16-.36c-2.34-.44-4.65-.89-7.15-1.16-4.8-.51-9.2-.11-12.74,2.17a7.71,7.71,0,0,0-3.73,6.15,5.74,5.74,0,0,0,.56,6.53l0,.08a18.87,18.87,0,0,0-4,1.25,3.72,3.72,0,0,0-2-3.25c-.62-.39-1.34-.58-2-.91,0-.08-.12-.15-.16-.22-.54-2.49-2.9-4.82-7.59-5.81-9.5-2-20.19-2.22-29.11,1.1a23.61,23.61,0,0,0-7,4.12c-.48-.15-1-.21-1.49-.34l-1-.23a33.35,33.35,0,0,0-9.93-1,17.59,17.59,0,0,0-1.81.19,46.28,46.28,0,0,0-6.07-.62m-357.92,530.1c.54-.41,1.1-.79,1.59-1.11a4.13,4.13,0,0,1,5.12.7c1.65.64,2.42,2,1.15,3A31,31,0,0,0,3436.4,3040.13Zm-1.24-173.49a24.82,24.82,0,0,0-2.85-.82c-2.46-1-4.4-2.44-4.54-4.2a2.59,2.59,0,0,1,.82-1.8,6,6,0,0,0,2.74,3.09,26,26,0,0,0,5.36,2.39c.24.06.43.06.67.11a3.63,3.63,0,0,0,.31,1.78c-.47-.05-.89-.15-1.36-.24S3435.58,2866.69,3435.16,2866.64Zm82.58-282.73c1.53.48,3.15,1,4.83,1.3a6.2,6.2,0,0,0-.06.62,46.6,46.6,0,0,0-8.22,2.47,6,6,0,0,0-.05-3.66A8.87,8.87,0,0,0,3517.74,2583.91ZM3628,2617.85a4.82,4.82,0,0,1-3-.51,3.88,3.88,0,0,0-.17-1.16,25.38,25.38,0,0,0,7.33-6.91c.26-.42.41-.88.65-1.31,1.61.23,2.91,1.09,2.16,2.37a8,8,0,0,0-.55.84s.09-.07.13-.07a12.92,12.92,0,0,1,6.13-.22c2.73.46,3,2.77.79,3.73C3637.2,2616.37,3632.85,2617.11,3628,2617.85ZM3890.93,2558a13.13,13.13,0,0,0-.88,1.36l-.75-.14A14.41,14.41,0,0,1,3890.93,2558Zm-66.15-12.78a7.58,7.58,0,0,0,1,1.45,12.21,12.21,0,0,0-1.89,1.18,5.8,5.8,0,0,0-.47.52C3822.11,2547.41,3822.69,2545.73,3824.78,2545.24Zm-29.24.4h2.74a3.17,3.17,0,0,1,.7.15,3.73,3.73,0,0,1,3,.12,34.65,34.65,0,0,0,3.4,1.09c-.3.18-.65.32-.92.52a1.3,1.3,0,0,1-.37.14,4.07,4.07,0,0,0-2.11,3.17c-1.52-.11-3.07-.18-4.52-.37a15,15,0,0,1-2.57.5A4.15,4.15,0,0,0,3795.54,2545.64Zm22.15,13.2a8.35,8.35,0,0,1,5.24-2.71c.34.28.5.61,1,.86a21.66,21.66,0,0,0,6.31,2.12,3.27,3.27,0,0,1-1.83.63c-.6-1.23-2.18-2.23-4.77-2.23-4.23,0-5.81,2.63-4.78,4.61C3817.61,2561.22,3816.78,2559.94,3817.69,2558.84Zm4.15,17.19q-3,3.64-5.89,7.33a62.16,62.16,0,0,0,3.31-7C3820.13,2576.29,3821,2576.15,3821.84,2576Zm-29.46,40.26c1.82-1.49,3.56-3,5.31-4.53a143.06,143.06,0,0,0,33.64-34.56,9,9,0,0,0,4.91,2.65c-3.45,2.18-6.45,4.45-8.31,7.48s-1,6.51,1.27,9.52C3816.86,2603.14,3804.54,2609.61,3792.38,2616.29Zm-340.57,58.83a13.1,13.1,0,0,0,8.78-1.31,9.77,9.77,0,0,0,.45,1.79,15.78,15.78,0,0,0,1,2,45.51,45.51,0,0,0-7.91-1.35,13.47,13.47,0,0,0-2.72-1.21l-.16,0s0-.08,0-.12C3451.4,2675,3451.56,2675.07,3451.81,2675.12ZM3335.63,2798a7.76,7.76,0,0,0,2.08,2c-1.2-.35-2.1-1-2.1-1.87A.88.88,0,0,0,3335.63,2798Zm339.16-284.88Zm-351,286c-2.84.59-6.13,1.6-9.09.7-3.77-1.15-.44-4,1.24-5.16a4,4,0,0,1,5.1.76,5.46,5.46,0,0,1,1-.22C3326,2794.32,3327.67,2798.29,3323.83,2799.1Zm17.26,16.78a4,4,0,0,1-1.09.74,4.47,4.47,0,0,1-3.55-.13,5.75,5.75,0,0,1-.84,0c-4.06-.08-4.06-4.16,0-4.09a13.48,13.48,0,0,1,2,.12C3340.26,2811.74,3343.46,2814.18,3341.09,2815.88Zm75.49,46.16c-.08-.06-.15-.14-.25-.21l.25.22v0l-.88-.74a9.69,9.69,0,0,0-3-1.21c.11,0,.2-.09.31-.12C3415.36,2859.38,3416.72,2860.73,3416.58,2862Zm-57.16,221.2a12.61,12.61,0,0,1,.72-2.89,1.59,1.59,0,0,1-.35-1.14c.33-.12.68-.21,1-.35.31.07.63.12.95.18a7.14,7.14,0,0,0,1.52,1.22,18.85,18.85,0,0,0,7.19,2.23c0,.09,0,.17,0,.26-.41,1-2.45,2.21-3.79,2.45a24.05,24.05,0,0,1-4.07,0C3361,3085.23,3359.34,3084.33,3359.42,3083.24Z" transform="translate(12.09 63.91)"/><g id="astro"><path class="cls-2" d="M1550.79,3219.82c-3.35.54-70.23,12.69-93.32,71.22-20,50.77,1.82,114.14,55.26,147.35" transform="translate(12.09 63.91)"/><path class="cls-2" d="M2170.84,2209.83a32.36,32.36,0,0,1-7.54,38.09" transform="translate(12.09 63.91)"/><path class="cls-2" d="M2131.51,2176.25a34.74,34.74,0,0,0,1.17-31.42" transform="translate(12.09 63.91)"/><path class="cls-2" d="M2060.32,2102.67a32.23,32.23,0,0,1,6.47,8.26,32.89,32.89,0,0,1,4,13.93" transform="translate(12.09 63.91)"/><path class="cls-2" d="M2057.81,2311.22a27.89,27.89,0,0,0,14.17-20.13" transform="translate(12.09 63.91)"/><path class="cls-2" d="M2113.51,2294.26a27.84,27.84,0,0,0,14.17-20.12" transform="translate(12.09 63.91)"/><g id="head"><path class="cls-4" d="M1291.1,1203.14c10.93-20.52,41.46-71.24,104.24-105.05a256.06,256.06,0,0,1,126.89-30.29q3.23,23.92,6.38,47.85" transform="translate(12.09 63.91)"/><path class="cls-3" d="M1584.44,1388.7l189.92-91.7c-3.17-15.19-21.9-97.52-101.51-147.34-62-38.81-124.11-34.85-144.07-32.75l32.75,176c-39.24-8.29-78.1,10.82-93.33,44.21a78.35,78.35,0,0,0,90.86,108.06L1627,1595a232.62,232.62,0,0,0,26.44-13.77c30.1-18.14,76-54.27,101.27-117.21,30-74.62,12.54-140.77,6.54-160.45" transform="translate(12.09 63.91)"/><path class="cls-8" d="M1506.67,1113.64l-3.23-24.55a226,226,0,0,0-185.83,113" transform="translate(12.09 63.91)"/><path class="cls-3" d="M1528.61,1115.65l.17,1.27c-14.24-2.73-61.53-9.94-111.33,16.37-41.68,22-62.16,55.41-69.59,69" transform="translate(12.09 63.91)"/><circle class="cls-2" cx="1558.92" cy="1436.26" r="39.3"/><path class="cls-3" d="M1329.85,1383.79l-150.62,14.73c-19.52-11.8-29.94-25.36-35.21-33.56-13.14-20.49-12.85-48-12.27-103.14.13-13,.68-26.79,10.21-37.28,7.86-8.63,18.24-11.3,25-12.66,27-5.31,103-9.58,204.66-10.64,3-.21,7.13,0,10.64,2.42,8.59,5.94,7.26,20.66,6.55,37.66-.72,17.17.73,34.4,0,51.57-.56,12.91-1.44,34.25-2.42,62.21a67.31,67.31,0,0,1-56.51,28.66Z" transform="translate(12.09 63.91)"/><path class="cls-3" d="M1234.9,1428c-21.7,10.11-36,31-36.85,54-1,28.69,19.38,46.82,22.11,49.11,48.15,2.51,117,13.46,181.73,56.51,91.33,60.69,138.65,161.45,164.54,149.81,15-6.75-1.44-40.37,24.56-71.22,23.48-27.87,57.92-25.41,66.31-51.58,4-12.51,0-25-3.85-33.42" transform="translate(12.09 63.91)"/><path class="cls-3" d="M1198.88,1470.56q-5.34,31.49-10.65,63c.81,10.34,3.91,26.76,16.38,37.66,11.8,10.33,25.54,9.46,49.93,11.46,0,0,38.7,3.18,72.86,11.73,33.5,8.4,56.51,22.9,76.95,35.76,24.16,15.21,48.72,30.67,71.49,59.21,21.65,27.13,28.1,49.06,51.3,56.21,5.32,1.61,20.94,6.45,33.56-1.62a28.91,28.91,0,0,0,7.92-7.63" transform="translate(12.09 63.91)"/><path class="cls-8" d="M1734.25,1407.53c-9.57,44.36-27,69.88-24.55,71.22,2.73,1.47,28.45-26.94,37.65-67.13,9.92-43.34-3.38-82.94-6.55-82.68C1738,1329.17,1744.3,1361,1734.25,1407.53Z" transform="translate(12.09 63.91)"/><path class="cls-2" d="M1546.78,1680.13a493.8,493.8,0,0,0-44.2-93.32c-15.56-25.4-32.87-48.17-36-83.51a128.65,128.65,0,0,1,1.61-34.38" transform="translate(12.09 63.91)"/><rect class="cls-2" x="1535.05" y="1475.37" width="26.2" height="176.82" transform="translate(-474.83 790.64) rotate(-22.93)"/></g><path class="cls-2" d="M682.89,3689a1124.32,1124.32,0,0,0,363.92-17.8c188.31-40.54,326-121.11,406-176.78" transform="translate(12.09 63.91)"/><g id="body"><path class="cls-3" d="M1004.84,2418.32" transform="translate(12.09 63.91)"/><path class="cls-3" d="M1191.51,1550.79a177.11,177.11,0,0,0-31.93,13.1c-60.58,32.09-101.93,99.86-128.91,228.81" transform="translate(12.09 63.91)"/><path class="cls-3" d="M2095.37,2122.47c7-7.76,9.34-22.52,3.76-27.77-7.23-6.81-22.15,7.7-58.36,14.83-21.86,4.33-23.41.41-43.92,5.65-13.48,3.44-19.4,6.81-43.12,17-11.18,4.77-27.61,11.62-48,19.44" transform="translate(12.09 63.91)"/><path class="cls-3" d="M1911.74,2276.18a160.37,160.37,0,0,0,37.79,17.61c24.71,7.79,36.23-4.16,69,2.53a116.67,116.67,0,0,1,28.9,9.63,113,113,0,0,1,25.33,17.15c7.93,6.42,17.7,4.57,20.67-.39,2.08-3.48,1.09-9-2.29-13.51q-7.07-9.69-14.87-19.66-12.15-15.49-24.15-29.13c10.78,9.63,24.17,16,37.5,21.55,16.89,7,31.5,22.11,47.81,30.39,4.64,2.36,14.69-.22,17.79-4.41,3-4-.2-10.31-1.86-14-4.1-9.06-10.62-14.31-14.81-17.61-20.93-16.5-29-21.48-29-21.48-10.4-6.45-24.19-14.56-41-23.29a129.94,129.94,0,0,1,33.06-2c17.22,1.16,30.14,5.53,39.38,8.73,35.15,12.17,42.72,24.64,51,19.92,8.45-4.84,10.16-23.19,3.57-33.62-3.77-6-12.4-9.91-29.67-17.8-1-.43-5-2.27-10.38-4.44-9-3.6-16.35-5.91-23.09-8.14a157.94,157.94,0,0,0-15.58-4.41,110.29,110.29,0,0,0-14.43-2.53c-6.93-.68-8.75-.32-22.84-.11-4,0-13.19.18-13.26-.66-.06-.62,4.7-2,26.72-5.39,16.31-2.51,25.22-3.26,37.09-2.35,19.73,1.55,25.8,7.05,34,2.25,6-3.49,12.08-11.91,10.13-18.48-5.2-17.39-66.85-21.55-101.94-14.59-3.9.77-15,3.14-16,.56-1.27-3.06,12-11.42,13.92-12.61,14.19-8.92,19.64-7.22,25.24-13.45" transform="translate(12.09 63.91)"/><path class="cls-2" d="M1879.13,2305.13a293.1,293.1,0,0,1-6.18-180.85" transform="translate(12.09 63.91)"/><path class="cls-2" d="M1160.4,1572.61a72.85,72.85,0,0,0,18,25.66c26.9,24.22,61.93,15.63,98.24,18,60.46,4,115.13,36.38,145.71,67.12,33.52,33.7,24.54,51.77,73.67,103.15,43.08,45,62.7,44.46,69.11,42.93.57-.13,1-.28,1.29-.36" transform="translate(12.09 63.91)"/><path class="cls-3" d="M1131.75,1261.82a263.42,263.42,0,0,0-23.75,24.55,267.79,267.79,0,0,0-47.47,82.68" transform="translate(12.09 63.91)"/><path class="cls-3" d="M1040.62,1518.72l-126.89,22.93c-20.56,7.22-42,2-53.2-12.28a36.88,36.88,0,0,1-5.82-10.66,46,46,0,0,1-2.37-18l6.55-50.75c.85-7.12,5.23-37.13,29.79-52.88a57.61,57.61,0,0,1,15.23-6.88l156.77-1.61a48,48,0,0,1,37.24,30.28q-1.61,20.88-3.28,41.75c.19,1.69,2.93,31.24-19.64,48.3C1060.92,1519.55,1045.3,1519.05,1040.62,1518.72Z" transform="translate(12.09 63.91)"/><path class="cls-3" d="M854.71,1518.71,799.94,1558l-36.83,186.64" transform="translate(12.09 63.91)"/><circle class="cls-3" cx="926" cy="1693.71" r="34.38"/><line class="cls-2" x1="856.97" y1="1641.29" x2="879.07" y2="1656.84"/><line class="cls-2" x1="848.78" y1="1742.79" x2="876.61" y2="1723.15"/><line class="cls-2" x1="1009.31" y1="1622.46" x2="985.97" y2="1645.79"/><line class="cls-2" x1="970.75" y1="1727.25" x2="994.9" y2="1751.39"/><path class="cls-2" d="M1011.3,1717.65l-287.64,36.84.66,56.51,280.93,14.73-4,39.29L723,1924.76q1-58.12,2-116.24" transform="translate(12.09 63.91)"/><ellipse class="cls-3" cx="794.75" cy="1846.64" rx="11.11" ry="11.05"/><ellipse class="cls-3" cx="792.33" cy="1928.98" rx="11.11" ry="11.05"/><circle class="cls-3" cx="972.35" cy="1835.46" r="11.05"/><circle class="cls-3" cx="972.05" cy="1913.08" r="11.05"/><path class="cls-2" d="M1006.5,2582.25a248.27,248.27,0,0,0,44.21,11.05c37.23,5.74,64,1.08,100.68-3.69,25.71-3.34,63.71-7.7,111.74-11.05a916.68,916.68,0,0,1,334.41,11.88" transform="translate(12.09 63.91)"/><circle class="cls-3" cx="914.38" cy="2105.73" r="56.48"/><path class="cls-3" d="M1003.29,2674c34.24-428.23,29.8-899.92,29.8-899.92l51.67-239.66s76.66-89.64,145-92.93c22.94-1.1,52.48,3.87,76.13-15.56,16.86-13.86,23.35-34.05,26.2-48.78" transform="translate(12.09 63.91)"/><path class="cls-3" d="M763.47,1916.21q18.24,254.58,36.47,509.16h19.65l-14.73,65.39,73.68,137L1004,2683.91l-.74-9.95" transform="translate(12.09 63.91)"/><path class="cls-2" d="M993.14,2202.27l-193.2,1.61q-2.09-28.4-4.18-56.79l193.74-4.85" transform="translate(12.09 63.91)"/><path class="cls-2" d="M1449.52,2177.42a161.6,161.6,0,0,1,124.89-88.83" transform="translate(12.09 63.91)"/><path class="cls-2" d="M1476.76,2187.41a165.57,165.57,0,0,1,113.1-89.42" transform="translate(12.09 63.91)"/><path class="cls-2" d="M1516.63,2306.11l-27.14,43.65-73.67,68.76" transform="translate(12.09 63.91)"/><line class="cls-2" x1="1403.34" y1="2451.33" x2="1494.47" y2="2360.2"/><path class="cls-2" d="M1545.15,2311.23v62.56c0,6.59-4.35,12-9.68,12h-23.2c-5.33,0-9.69-5.4-9.69-12a141.87,141.87,0,0,1-8.82-34.95" transform="translate(12.09 63.91)"/><path class="cls-2" d="M1075.26,2221.24c9.92,3.82,43.28,18.09,61.4,54,19.55,38.75,13.64,87.37-14.74,125.25" transform="translate(12.09 63.91)"/><path class="cls-3" d="M1130.77,1909c.17,19.81.22,86.87,44.12,140,8.33,10.08,35.36,31.82,89.43,75.32,32.65,26.26,43.6,31.72,67.87,54.85,1.85,1.76,21.48,19.23,60.73,54.16,38.55,34.3,58.47,51.7,90.24,63.84,10.78,4.1,21.13,6.93,37.71,10.12,57.79,11.09,100.1,9,200.15,7.15,66.88-1.21,81.76-.87,113.44-4.6a736,736,0,0,0,77-13.25,257.27,257.27,0,0,1-3.4-152.3,170.85,170.85,0,0,0-27.09-17.05c-45.37-22.84-82.55-15.7-171.14-15.38-55,.19-82.5-.18-97.18-6.11-76-30.76-108-128.84-122.71-174.12a269,269,0,0,1-8.54-31.72c-5-25.61-8.81-44.13-9.21-46.58-7-42.14-151-188.43-259.13-133.2C1129.5,1762.76,1130.64,1893.67,1130.77,1909Z" transform="translate(12.09 63.91)"/><path class="cls-3" d="M1577.56,2311.23c-1.48,39.71.79,78.86,3.63,125.3,3.87,63.49,10.62,116.25,16.38,153.91-.31,8.58-2.06,21.15-9.83,32.74a48.48,48.48,0,0,1-16.37,15.28c-37.67-14.25-68.44-18.08-88.64-19.13-53.54-2.78-83.34,11.41-173.36,10.85-9.93-.06-12.45-.25-22.91-.46-172.46-3.43-242.94,33.42-275.05-3.27-2.65-3-4.61-7.62-6.07-14" transform="translate(12.09 63.91)"/><path class="cls-3" d="M1560.7,1744a358.83,358.83,0,0,1,20.51,89.09c3.31,33.63.88,58.55-3.22,98.48-9.67,94-25,123-5.66,148.53,7.22,9.53,21.38,21.4,52.31,25.73" transform="translate(12.09 63.91)"/><path class="cls-2" d="M1965.34,2159.1a132.92,132.92,0,0,1,19-6.33c10.63-2.69,16.52-4.17,21.27-2.95,11.24,2.92,18.17,21.5,19.39,44.27a109.82,109.82,0,0,1-6.6,33.19c-4.41,12-6.64,22.12-15.87,25.69-10.29,4-21.76,2.75-32.72,1.44a48.44,48.44,0,0,1-4.45-95.33Z" transform="translate(12.09 63.91)"/><path class="cls-2" d="M979.81,2271.4" transform="translate(12.09 63.91)"/></g><path class="cls-2" d="M799.63,4050.8a107.87,107.87,0,0,0-46.81-4.89c-34.78,4.16-57.09,24.45-64.47,31.8-30.62-58-65.38-118.66-104.86-181.1q-38.19-60.41-76.44-114.32" transform="translate(12.09 63.91)"/><path class="cls-9" d="M1384.06,1944.3l-45.4-23.43a22.55,22.55,0,0,0-3-26.22l16.7-20.19,17.35-21.73a3.18,3.18,0,0,0-.48-4.47l-.17-.13-3.25-2.28a82.32,82.32,0,0,0-58.14-14.4l-1.66-10.86a6.28,6.28,0,0,0-.52-2.13,5.76,5.76,0,0,0-1.38-1.76,5,5,0,0,0-2-1,4.8,4.8,0,0,0-2.23-.14,5.05,5.05,0,0,0-2.07.83,5.7,5.7,0,0,0-1.6,1.57,4.87,4.87,0,0,0-.82,2,4.05,4.05,0,0,0,.17,2.21l1.71,11.18a81.44,81.44,0,0,0-14,5l-2.14-13.92a6.51,6.51,0,0,0-.51-2.13,5.68,5.68,0,0,0-1.39-1.76,5,5,0,0,0-2-1,4.91,4.91,0,0,0-2.22-.14,5,5,0,0,0-2.08.83,5.87,5.87,0,0,0-1.61,1.57,4.8,4.8,0,0,0-.77,2,3.84,3.84,0,0,0,.17,2.2l2.6,17.8a80.44,80.44,0,0,0-33,41.89,77.68,77.68,0,0,0,.89,52.59,79.19,79.19,0,0,0,34.5,40.2,82.78,82.78,0,0,0,52.89,10.14l59.09-9.24a3.32,3.32,0,0,0,2.8-3.75l-4.66-29A3.42,3.42,0,0,0,1384.06,1944.3Zm-56.57,30.26a68.58,68.58,0,0,1-42.3-7,65.35,65.35,0,0,1-29-30.7,63.91,63.91,0,0,1-3.72-41.67,66,66,0,0,1,23.11-35.52l3.3,21.14a6.64,6.64,0,0,0,.52,2.15,5.65,5.65,0,0,0,1.39,1.76,5.8,5.8,0,0,0,4.24,1.13,5.19,5.19,0,0,0,2.07-.83,5.77,5.77,0,0,0,1.61-1.58,4.8,4.8,0,0,0,.81-2,3.88,3.88,0,0,0-.17-2.21l-4.08-26a68.65,68.65,0,0,1,22.11-7.41,67.33,67.33,0,0,1,41.56,6.59,1.63,1.63,0,0,1,.71,2.17,2.26,2.26,0,0,1-.16.26l-26.44,32.5a24.35,24.35,0,0,0-9.2-.33,25.25,25.25,0,0,0-9.59,3.59,23.64,23.64,0,0,0-10.64,16.54,21.93,21.93,0,0,0,.82,9.92,23.6,23.6,0,0,0,5,8.69,24.51,24.51,0,0,0,8.22,5.88,25.16,25.16,0,0,0,10.05,1.93,23.86,23.86,0,0,0,10-2.34l44.17,22.83a1.68,1.68,0,0,1,.86,1.18l1.57,10.3a1.67,1.67,0,0,1-1.4,1.87Zm-.65-65.82a9.5,9.5,0,0,1-.76,5.31,9.66,9.66,0,0,1-3.67,4.06,9,9,0,0,1-5.29,1.34,10.38,10.38,0,0,1-5.19-1.72,8.89,8.89,0,0,1-3.57-9.56,9.44,9.44,0,0,1,2.81-4.66,10.15,10.15,0,0,1,4.95-2.39,9.37,9.37,0,0,1,7.07,1.65,9,9,0,0,1,3.63,5.93Z" transform="translate(12.09 63.91)"/><path class="cls-2" d="M639.78,3717.12a306.37,306.37,0,0,1,143.74,190.36" transform="translate(12.09 63.91)"/><circle class="cls-2" cx="607.61" cy="3794.27" r="42.98" transform="translate(-2010.99 1057.26) rotate(-34.11)"/><path class="cls-2" d="M1160.64,3328.9a427.4,427.4,0,0,1,117,12.11c99.44,24.55,166.17,79.44,199.39,111.4" transform="translate(12.09 63.91)"/><path class="cls-2" d="M1160.64,3278c27.19,9.21,82.75,23.82,150.95,11.3,95.23-17.48,152.82-76.41,171.14-96.87" transform="translate(12.09 63.91)"/><path class="cls-10" d="M1354.08,1873a70.35,70.35,0,0,1,9.54,59.47l10.71,8.41c4-12.31,5-26.69,2.72-40.76-2.33-14.86-8.1-28.89-16.31-39.64l-4.16,7.54Z" transform="translate(12.09 63.91)"/><path class="cls-2" d="M1138.72,3346.53c11.78,1.12,44.18,5.79,72.77,31.61a124.71,124.71,0,0,1,32.29,46.82" transform="translate(12.09 63.91)"/><path class="cls-2" d="M1153.37,3245c30.14,6.92,96.26,17.15,151.76-19.38a147.62,147.62,0,0,0,17.76-13.72" transform="translate(12.09 63.91)"/><path class="cls-11" d="M1690.54,1285" transform="translate(12.09 63.91)"/><g id="bottom"><path class="cls-3" d="M642.42,3711.24l16.26-11c49.63-33.81,98.09-69.28,147.31-103.66,108.23-75.74,181.45-131.84,227.79-169,109.22-56.39,123.93-108.76,125.85-133.53.33-4.13-2.81-22.58-9.09-59.47-9.58-56.32-19.42-101.69-27.23-135-6.52-27.81-9.78-41.72-12.15-48.92-19.82-60.18-53.37-98.66-61.12-108.36-28.11-35.21-54-113.85-40.36-306.76" transform="translate(12.09 63.91)"/><path class="cls-3" d="M1564.26,2658.83q3.2,68,6,136.07,1.5,36.53,2.88,73.06s2,115.93-12.53,292.92c-1.45,17.73-4.18,44.35-4.28,63.16,0,2.68,0,11.8-1.14,24.07-.42,4.5-1,9.37-2,15.91-.5,3.4-3.26,21.73-7.67,40.12-14.93,62.29-26.38,110.06-39,139.15-66.2,152.77-667.95,451.59-717.82,472.32-4.68,1.94-18.94,7.51-26.19,21.8a41.56,41.56,0,0,0-1.78,4.13c-8.06,22.23,39.55,99.7,35.14,148.23-3.23,35.46-36,75-66.65,76.78-34.5,2-74.94-63.71-155.82-195-12.2-19.82-18.31-29.73-25.44-43-4-7.33-7.78-14.8-14.45-26-3.33-5.62-8.54-14.4-15.27-24.13-20.71-29.9-34.06-37.3-36.48-58.39a46.81,46.81,0,0,1-.33-7.63c2.26-50.39,99.61-84,113.79-88.93a303.78,303.78,0,0,1,47.14-12.13" transform="translate(12.09 63.91)"/><path class="cls-3" d="M1563.45,2641.93l.81,16.9" transform="translate(12.09 63.91)"/></g><path class="cls-2" d="M1047.34,2750.75c10.61,2.42,123.58,29.87,167,137.53,36.06,89.37,9,196.47-68.77,265.23" transform="translate(12.09 63.91)"/><path class="cls-2" d="M1538.87,2966a852.21,852.21,0,0,1-13.18,170.33" transform="translate(12.09 63.91)"/><path class="cls-2" d="M1050,2797.73c-4.92,21.18-8.41,52.07,4.85,82.34,11.26,25.7,28.27,36.53,43.59,53.28,20.35,22.25,43,60.71,47.09,130.92" transform="translate(12.09 63.91)"/><path class="cls-2" d="M1139.06,4163.89a100.9,100.9,0,0,0-43.85,3.51c-31.25,9.76-48.29,32.22-53.82,40.25-38.05-48-80.36-97.88-127.31-148.51q-45.44-49-89.8-92" transform="translate(12.09 63.91)"/><g id="bottom-2" data-name="bottom"><path class="cls-3" d="M939.61,3870.46a70.87,70.87,0,0,0,13.06-12.9,74.72,74.72,0,0,0,15-37.85" transform="translate(12.09 63.91)"/><path class="cls-3" d="M1420.57,3541.21a2029.28,2029.28,0,0,1-131.58,247,2029.3,2029.3,0,0,1-180,245c-7.46,4.66-16.8,12.44-20.34,24.51a34.81,34.81,0,0,0-.93,4.1c-7.46,47.48,58,69.09,57.63,130.22-.21,33-19.65,73.82-48.12,82-31,8.85-79.63-45.44-176.54-152.61-45.57-50.44-37-45.73-66.62-76.17-33.89-34.82-43.42-39.21-45.11-54.39-4.92-44.22,68.18-88.91,86.67-99.63l2.7-1.54,41.25-19.22" transform="translate(12.09 63.91)"/></g><path class="cls-2" d="M945.75,3877.34a242.9,242.9,0,0,1,160,143.37" transform="translate(12.09 63.91)"/><circle class="cls-2" cx="928.23" cy="3959.07" r="42.98" transform="translate(-2515.52 1879.85) rotate(-45)"/><path class="cls-3" d="M288,3568.65" transform="translate(12.09 63.91)"/><path class="cls-2" d="M1159.83,3295" transform="translate(12.09 63.91)"/><path class="cls-2" d="M650.6,3723.68a1124.55,1124.55,0,0,0,363.92-17.79c188.31-40.55,326-121.12,406-176.79" transform="translate(12.09 63.91)"/><path class="cls-2" d="M809.48,2146.28" transform="translate(12.09 63.91)"/><path class="cls-2" d="M1187.28,2138.21c-18.19-19.09-152-164.08-118.67-354.39,13.81-79,51.28-136.48,77.5-169.52" transform="translate(12.09 63.91)"/><polygon class="cls-2" points="835.3 2319.97 849.02 2449.94 895.84 2449.94 868.4 2537.12 914.41 2617.04 970.92 2646.1 991.91 2311.9 835.3 2319.97"/><path class="cls-3" d="M1211.49,3385.41" transform="translate(12.09 63.91)"/><path class="cls-3" d="M429,4373.68a4400.42,4400.42,0,0,1,895.66,57.17" transform="translate(12.09 63.91)"/><path class="cls-3" d="M1020.7,4326.86c165.06-23.43,322.37,87.75,489.08,86.56" transform="translate(12.09 63.91)"/><path class="cls-3" d="M341,4306.56a3928.7,3928.7,0,0,1,527,34.08" transform="translate(12.09 63.91)"/><path class="cls-3" d="M3331.82,3651.2c4,30.54-41.42,35.68-69.46,48.42-57.33,26-52.9,112.81-98.14,156.6-49.75,48.16-135.35,25-196.28,57.92-75.35,40.7-86.1,149.46-154.2,201.39-41.61,31.72-96.89,36.52-147.75,48.79s-105.68,39.69-118.7,90.37c-9.47,36.89,3.89,82.94-23.82,109.07-19.45,18.33-50.16,16.81-74,28.89-62.45,31.65-46.2,129.43-90.73,183.46-20.44,24.8-51.62,37.62-77.48,56.7-57.43,42.37-85.55,112.8-110.93,179.5-10.38,27.29-20.92,56.72-13.8,85C2178.33,4984,2325.7,4969,2366,5048.73" transform="translate(12.09 63.91)"/></g><g id="rob"><polyline class="cls-11" points="3964.79 3124.94 3888.76 3089.66 3791.89 3046.07 3791.89 2983.73 3791.89 2933.06 3791.89 2880.59"/><polyline class="cls-11" points="3529.91 3164.41 3705.51 3080.78 3785.43 3080.78 3961.11 3161.54"/><polyline class="cls-11" points="3705.51 2971.81 3705.51 3049.3 3529.91 3131.66"/><path class="cls-12" d="M3751.14,2055.92h226.64a48.24,48.24,0,0,1,48.24,48.24V2456a48.24,48.24,0,0,1-48.24,48.25H3482.24A48.25,48.25,0,0,1,3434,2456V2104.16a48.24,48.24,0,0,1,48.25-48.24h236.21" transform="translate(12.09 63.91)"/><rect class="cls-12" x="3689.86" y="2568.19" width="113.18" height="119.71"/><path class="cls-12" d="M3516.7,3039.48v51a45,45,0,0,0,45,45H3911.4a45,45,0,0,0,45-45V2669a45,45,0,0,0-45-45H3561.68a45,45,0,0,0-45,45v200.18" transform="translate(12.09 63.91)"/><path class="cls-11" d="M3755,2207.82a56.6,56.6,0,1,1-39.18-.8" transform="translate(12.09 63.91)"/><rect class="cls-12" x="3727.95" y="1979.7" width="39.18" height="361.31" rx="19.59" ry="19.59"/><path class="cls-12" d="M3434,2098.36c-16.66,18.86-63,76.33-69.65,163.24-8.58,113,56.61,190.75,69.65,205.69" transform="translate(12.09 63.91)"/><rect class="cls-12" x="3649.6" y="3197.22" width="198.07" height="261.19"/><polyline class="cls-11" points="3569.99 2895.21 3569.99 2730.44 3920.24 2730.44 3920.24 3100.97"/><rect class="cls-12" x="3352.75" y="3458.41" width="790.09" height="285.13" rx="131" ry="131"/><rect class="cls-11" x="3383.42" y="3490.06" width="726.52" height="225.22" rx="107" ry="107"/><circle class="cls-12" cx="3492.4" cy="3599.85" r="36.33"/><circle class="cls-12" cx="3741.84" cy="3599.85" r="36.33"/><circle class="cls-12" cx="3996.12" cy="3603.08" r="36.33"/><circle class="cls-11" cx="3737.8" cy="2828.92" r="47.63"/><path class="cls-12" d="M3414.14,2708.18a68.55,68.55,0,0,1,40.73-13.39h54.5" transform="translate(12.09 63.91)"/><path class="cls-12" d="M3414.14,2708.18" transform="translate(12.09 63.91)"/><path class="cls-12" d="M3508.56,2840.09h-53.69a69.22,69.22,0,0,1-69-69v-7.28a68.79,68.79,0,0,1,.84-10.71" transform="translate(12.09 63.91)"/><rect class="cls-12" x="3129.96" y="2628.59" width="363.26" height="55.7" rx="27.85" ry="27.85" transform="translate(2553.08 -1454.52) rotate(40.81)"/><path class="cls-12" d="M3456.16,2948.64" transform="translate(12.09 63.91)"/><path class="cls-12" d="M3456.16,2948.64a68.45,68.45,0,0,1,18.59-34.19l199.79-199.79a69.2,69.2,0,0,1,97.6,0l5.14,5.14a69.2,69.2,0,0,1,0,97.6l-199.79,199.79a69.22,69.22,0,0,1-97.6,0l-5.14-5.14a67.93,67.93,0,0,1-9.09-11.24" transform="translate(12.09 63.91)"/><rect class="cls-12" x="3181.63" y="2955.53" width="363.26" height="55.7" rx="27.85" ry="27.85" transform="translate(-197.06 317.83) rotate(-4.19)"/><rect class="cls-13" x="3071.9" y="2437.49" width="95.05" height="15.34" rx="7.67" ry="7.67" transform="translate(2810.82 -1441.48) rotate(47.27)"/><rect class="cls-13" x="3048.49" y="2466.55" width="95.05" height="15.34" rx="7.67" ry="7.67" transform="translate(2381.59 -1357.93) rotate(40.81)"/><rect class="cls-13" x="3025.08" y="2498.03" width="95.05" height="15.34" rx="7.67" ry="7.67" transform="translate(1676.59 -1136.7) rotate(30)"/><rect class="cls-13" x="3115.5" y="2431.84" width="95.05" height="15.34" rx="7.67" ry="7.67" transform="translate(3588.47 -1469.63) rotate(58.3)"/><rect class="cls-13" x="3025.08" y="2548.08" width="95.05" height="15.34" rx="7.67" ry="7.67" transform="translate(424.1 -362.62) rotate(8.51)"/><rect class="cls-13" x="3034.36" y="2956.23" width="95.05" height="15.34" rx="7.67" ry="7.67" transform="translate(304.56 -212.86) rotate(5.4)"/><rect class="cls-13" x="3036.32" y="2993.49" width="95.05" height="15.34" rx="7.67" ry="7.67" transform="translate(-43.09 121.67) rotate(-1.06)"/><rect class="cls-13" x="3039.9" y="3032.56" width="95.05" height="15.34" rx="7.67" ry="7.67" transform="translate(-547.25 763.99) rotate(-11.87)"/><rect class="cls-13" x="3063.04" y="2922.93" width="95.05" height="15.34" rx="7.67" ry="7.67" transform="translate(967.88 -696.16) rotate(16.43)"/><rect class="cls-13" x="3073.31" y="3069.83" width="95.05" height="15.34" rx="7.67" ry="7.67" transform="translate(-1166.02 2287.18) rotate(-33.36)"/><path class="cls-12" d="M3198.51,2593l-7,9a35.25,35.25,0,0,1-49.29,6.29l-27.67-21.41c1.41-1.94,9.11-12.9,6.48-27.66a36.67,36.67,0,0,0-12.77-21.62l48.64-62.88a36.39,36.39,0,0,0,19.83,7c17,.64,27.9-11.51,29.45-13.3l27.68,21.41a35.25,35.25,0,0,1,6.29,49.29q-4,5.16-8,10.34" transform="translate(12.09 63.91)"/><path class="cls-12" d="M3239.42,3021.18l.82,11.33a35.24,35.24,0,0,1-32.5,37.59l-34.89,2.53c-.25-2.39-1.83-15.69-13.64-24.93a36.73,36.73,0,0,0-23.95-7.58l-5.74-79.29a36.32,36.32,0,0,0,19.44-8c13.06-10.84,13.09-27.2,13.06-29.56l34.89-2.53a35.23,35.23,0,0,1,37.58,32.5q.48,6.53,1,13" transform="translate(12.09 63.91)"/><path class="cls-14" d="M3398,2273.4c-.9,56,10.8,90.58,8.07,91.22-3,.72-22.86-41-21-92,1.55-42.15,17.38-76.54,20.18-75.89C3407.78,2197.3,3398.72,2226.55,3398,2273.4Z" transform="translate(12.09 63.91)"/><line class="cls-15" x1="3071.89" y1="3020.11" x2="3070.95" y2="3030.05"/><line class="cls-15" x1="3096.11" y1="3023.34" x2="3095.17" y2="3033.28"/><line class="cls-15" x1="3106.77" y1="2984.72" x2="3104.52" y2="2994.45"/><line class="cls-15" x1="3130.35" y1="2991.14" x2="3128.09" y2="3000.87"/><line class="cls-15" x1="3073.45" y1="3060.69" x2="3074.02" y2="3070.66"/><line class="cls-15" x1="3097.88" y1="3060.23" x2="3098.45" y2="3070.2"/><line class="cls-15" x1="3079.23" y1="3104.32" x2="3081.69" y2="3114"/><line class="cls-15" x1="3103.13" y1="3099.23" x2="3105.58" y2="3108.91"/><line class="cls-15" x1="3116.39" y1="3146.97" x2="3122.04" y2="3155.2"/><line class="cls-15" x1="3137.04" y1="3133.92" x2="3142.7" y2="3142.15"/><line class="cls-15" x1="3118.97" y1="2487.68" x2="3111.67" y2="2494.49"/><line class="cls-15" x1="3134.94" y1="2506.17" x2="3127.64" y2="2512.98"/><line class="cls-15" x1="3168.55" y1="2484.36" x2="3160.41" y2="2490.14"/><line class="cls-15" x1="3181.92" y1="2504.81" x2="3173.78" y2="2510.59"/><line class="cls-15" x1="3093.2" y1="2519.07" x2="3087.01" y2="2526.91"/><line class="cls-15" x1="3111.78" y1="2534.94" x2="3105.59" y2="2542.78"/><line class="cls-15" x1="3068.57" y1="2555.54" x2="3063.98" y2="2564.41"/><line class="cls-15" x1="3089.82" y1="2567.6" x2="3085.23" y2="2576.47"/><line class="cls-15" x1="3068.06" y1="2612.1" x2="3066.82" y2="2622.01"/><line class="cls-15" x1="3092.17" y1="2616.05" x2="3090.94" y2="2625.96"/></g><g id="tree"><path class="cls-7" d="M1060.13,1321.53q7.84,1.29,15.83,2.41" transform="translate(12.09 63.91)"/><path class="cls-7" d="M1095.6,1273.19c-32.34-3.23-64.39-7.91-95.29-18C928.87,1232,860.68,1189,801.76,1143.18c-5.38-4.17-18.63,6.51-13.39,11.65,44.26,42.81,89.25,84.64,140.88,118.66,42.67,28,85.06,40.5,130.88,48" transform="translate(12.09 63.91)"/><path class="cls-7" d="M1302.14,1202.26c-28.33-22-57.51-43.37-88.15-60.87-64.4-36.64-140.45-53.87-201.36-96.24-9.75,8-15,19.07-7.33,29.22,40.83,53.18,95.71,90.71,152.33,125.33" transform="translate(12.09 63.91)"/><path class="cls-7" d="M1348,1102.25q4.33,6.69,8.6,13.43" transform="translate(12.09 63.91)"/><path class="cls-7" d="M1396.59,1077c-45.78-62.83-98.28-121.51-145-182.21-5.78-7.48-22,4.12-16.8,12.08,33,49.89,59.26,105.65,89.35,157.58,3.35,5.78,6.84,11.46,10.24,17.18q6.9,10.26,13.62,20.61" transform="translate(12.09 63.91)"/><path class="cls-7" d="M1789.67,1372.35c7.75,24.1,14.67,48.53,23.06,72.22.39,1,.73,2,1.16,3.11a921.37,921.37,0,0,0,35.92,114.09c-7.09-3.35-14.18-6.84-21.16-10.29-23-11.39-49.68-24.57-77.69-39.41" transform="translate(12.09 63.91)"/><path class="cls-7" d="M1784.2,1355.87c1.89,5.47,3.7,11,5.47,16.48" transform="translate(12.09 63.91)"/><path class="cls-7" d="M1686.11,1574.53c16.93,11.33,32.87,22.29,47,32.57,44.6,23.48,90.12,45,137.34,63.33,35,13.64,71,25,105.07,41.26a363,363,0,0,1,78.67,51.82,560.22,560.22,0,0,1,104.88,76.88c32.71,24.9,62.31,53.77,85.51,86.39,19.13,26.83,47.47,60.27,47.76,95.17a107.79,107.79,0,0,1-1,14.9c3.78,73.57,8.3,147.05,10.92,220.71.38,10.44.63,20.78.87,31.16,14.85,76.73,5.78,161.91-1.36,235.77-16.06,166.71,7.52,334.87-26.6,500.07-15.47,75.13-24.94,150.65-32,227.13-6.31,68.87-23.83,131.48-75.71,180-132.35,123.76-334.57,94.2-494.63,154.57-5.83.39-11.75.68-17.67,1.17-3.73.39-8.39,7.33-4.8,9.46-3.21,4.47-4.47,11.7,2.38,9.81,7.32-2.33,14.7-4.18,22.18-5.93,48.09,7.09,92.45,13.11,142.53,5.15a765.11,765.11,0,0,1,160.79-8.64c-13.93,7.09-29.08,12.52-43,18.15-24.42,9.51-52,20.28-78.58,20.28-8.63,0-26,16.9-13.73,23-1.26,2.48-1.26,4.95,2.13,5.54a133.51,133.51,0,0,0,14.57.77c92.74,30.38,186.4-26.35,281.43-19,54.31,4.23,106.72,16.21,161.37,12.57a908.23,908.23,0,0,0,156.66-25.67c-6.89,7.18-14.9,13.5-22.23,20.43-5.48,5.24-10.77,20.34,1.46,21.31,32.18,2.38,62.21-6.12,92.35-16.6,28.59-9.9,54.46-9.08,75.76-32,14.32-15.48,59,19.17,73.91,26,22.72,10.49,49.61,9.13,73.82,7.38,6-.49,14-8.68,12.87-15a125.76,125.76,0,0,0-6.7-23.05c7.86,3.69,15.62,7.57,23.73,10.78,18.25,7.42,37.81,9.9,57.17,11.79,45.27,4.61,91.24-4.91,135.55-12.77,51.44-9,102.74-11.54,154.81-12.18,49.6-.77,99.15-4.22,148.07,6,9.42,2,24.66-14.76,16.36-23.15-45-44.79-99.2-63.24-159.62-78.28-75.42-18.78-148.65-57.66-219.22-89.3-53.77-24-110.51-59.49-140.35-111.72a136.07,136.07,0,0,1-14.08-36.93c-11.6-22.91-19.6-48.19-25.09-72.7-17.08-75-18.59-152.78-19.31-229.36-1.46-144.77-18.93-288.53-30.58-432.76-10.34-128.75-19.46-259.45-16.94-389.32,30-63.24,74.5-118.13,121.09-169.91,81.14-90.22,152.92-146.9,224.51-195,17.23-18.3,39.06-32.38,59.69-46.4,18.78-12.71,37.71-24.85,57.07-36.5,22.33-3.83,45.14-5.19,69.11-1.74,43,6.16,85.81,13.1,129.05,18.25,47.32,5.62,95.7,4.37,143.26,4.76,91,.67,182.49-2,270.28-27.87,42.56-12.42,84.4-27,125.7-43.09s78.91-40.52,120.84-55.13c6.45-2.19,11.45-17.18,1.22-14.76-37.23,8.64-71.3,26-108.72,34.07-43,9.32-85.7,19.27-128.71,28.93-90,20.23-184,19.51-275.8,18.44-83.28-1.07-166-11.94-249.11-14.76,53.87-26,109.48-48.14,165.74-68.27,73.52-26.36,148.74-47,222.56-72.51,66-22.76,120.94-58.58,175-100.57.09,0,.14,0,.19,0,53.14-37,111.48-70.38,160.35-113.08,4.08-3.59,5.87-7.18,4.18-12.28a8.64,8.64,0,0,0-1.17-.1c-53.19-2-106.24,40.67-149,66.93-53.29,32.76-109.44,60.47-167.39,84.15-1.94.78-4.32-.19-4.22-2.57,1.79-106.38,50-207.28,90.22-304,18.39-44.26,37.71-87.89,54.79-132.83,18.15-47.66,41.89-90.95,64.06-136.62,5.05-10.49-7.86-12.08-13.73-6.06-35.19,36-57.71,85.94-78.48,131.08-20.14,43.63-41.06,88.18-58.87,133-8.2,14-16.2,28.25-23.59,42.61-8.34,30.87-15.91,61.93-23.24,93-.58,2.57-5.14,2.82-5.53,0-9.47-67.55-51-129-51.3-198-.24-49.31,18.88-93.86,37.46-138.65,4.08-18.3,5.2-37.13-.87-57.22-3-.44-5.92-.88-9-1.26-27.48,71.49-43.3,145.45-53.15,221.3a280.57,280.57,0,0,0,7.18,61.1c.83,6.75,1.9,13.55,3.35,20.34,14.66,64.64,17.81,274.3-75.6,303.22-52.33,16.16-48,9.9-100.57,24.81-25.09,7.23-50.33,14.21-74.88,23.53-31.64,11.84-60.42,30.57-91.25,44.26,8.55-19.9,17.23-39.79,25-60.08,13.55-36.64,17.81-77.45,24.75-115.85,7.53-41.54,17.19-82.16,33.49-121.18,16.7-40.08,34.17-79.06,47.51-120.4,27.48-84.16,34.22-170.11,52-256.21,8.2-40,21.65-79.2,32.18-118.7,8.15-30.09,29.45-57.42,32.13-88.87,1-11.79-10.78-10-17.23-4.22-39.12,34.26-60.86,87.41-77.17,135.5-11.11,32.95-15.38,68-22.71,102-8,37.37-22.81,72.65-30.92,110.22-2.57,12-4.65,24.36-6.69,36.64-4.95,9.51-10.05,19-15.53,28.2-33.54,67.16-54.89,139-72.42,211.84q-2.1,7.85-3.93,15.57a2.86,2.86,0,0,1-5-1.75c-.24-31.4-8.83-61.05-15.1-91.63-5.77-28-7.47-56.29-6.26-84.83.54-12.66,1.65-25.28,3.16-37.76-.39-16.2.77-32.22,5-48.23,10.48-39.65,32.32-81.88,31.73-123.9,13.11-36.41,22.62-74.6,12.19-106.87-2.24-6.94-11.17-6.31-16.4-4.28a37.7,37.7,0,0,0-3.55,1.66c-38,98.42-55.86,201.93-69.15,306.33-8.06,63.33,20.33,118.46,22.9,179.62,1.65,40-24.17,90-34.55,128.75-11.51,42.76-22.08,83.18-49.65,118.76-27.42,35.28-66.29,58.38-102.89,82.74-86.77,57.76-167.19,117.11-240.52,191.46-31.55,31.74-64.79,61.1-91.63,97.41-5.15,6.84-10,14-14.56,21.39q.87-47.6,5.72-95.22c1.27-12.71,3-25.38,4.86-38-3.69-51.2-5.05-102.6-1.36-154.19,4.52-63.53,12.91-128.32,27.61-191.26,2.34-36,6.41-72.27,12.09-108.52,2.23-6.35,4.51-12.61,6.84-18.92,13.74-37.18,35.72-62.52,67.75-85.32,59.55-42.42,130.65-65.23,190.29-107.74,53.05-37.86,95.13-91.68,133.22-143.85,9.66-13.3,65.28-88.91,24.51-97.07-32.75-6.65-70.95,43.68-88.66,65.42-15.77,19.42-27.86,40.87-39.8,62.61-12.86,10.87-25.13,22.62-37.37,34.5-33.24,32.18-69.93,58.44-108.9,83-36.79,23.15-78.38,37-114.88,60.38a1029.06,1029.06,0,0,1,47-128.17c16.3-36.31,43.72-60.33,69.35-89.79,28.53-32.95,55.71-67.21,82.6-101.72,27-34.6,53.73-69.45,81.93-103.13,55.51-66.29,61.33-73.67,71-94.3,21.4-45.43,22.59-89.89,20.32-120-35.15,14.75-51.74,33.79-60.37,49-10.37,18.28-7,28.78-22.17,53.77-10,16.41-23.06,30.19-35.09,45.14-16,19.61-30.77,40.33-45,61.44-24.9,36.93-48.82,74.64-76.44,109.63-1.11,1.31-3.83.92-4.46-.63-13.88-34.07-18.64-71.68-20.63-108.13-3.75-68.68,3.5-117.83,3.5-117.83,3.85-54.2,7.5-102.43,10.7-143.39a441.9,441.9,0,0,0-26.28,62.2c-13.86,41.36-18.26,74.14-18.88,81-2.38,26.45-2.52,53-2.62,79.4-.1,26.15-2,51.93-3.79,78-4.66,65,21.94,98.47-19.07,158.89-30.67,45.28-75.13,79.11-103.13,126.52-36.3,61.54-58.91,129.83-77.26,198.59-15.39,57.42-18.83,134.49-47.95,186.66,3.83-6.79-20.33-69.79-22.42-78.28-9-36.21.29-78.19-6-115-12.28-73.23-6.56-145.44-3.5-219.65,6-144,35-256.54,75.86-391.41,19.07-63,22.33-130.5,26.65-195.82,1.69-25.24-34.61-.88-38.45,11.79-18.53,62.12-35.57,124.73-53.47,187.14C2521,776.58,2481,854.42,2477.18,937.79c-3.11,68.83-18.44,118.52-40.72,225.39-16.07-28.74-13.93-66.59-15.58-98.86-1.9-39.7-9.81-76.25-23.69-113.42-29.5-78.91-52.17-160-82.74-238.77-29.16-75.37-64.21-149.53-87.5-226.85-18.11-60.27-31.79-130.93-2.52-189.8-16.7-2.58-32.48,7.52-48.29,11.6-16.22,31.4-22.48,71.1-27.14,103.08-7.13,49.94,6.85,108.86,33.1,154.42,12,38.64,26.8,76.88,40.87,114.35-25.72-15.43-53.34-29.31-78.92-42.91-44.79-24-89.63-47.5-133.31-73.57-20.63-12.23-41.4-25.14-60.33-39.89-15.29-11.89-27.76-22.52-47.36-25.43-8.89-1.16-19.86,5.68-26.11,14.51.19,8.69,1.31,17.09,9.51,20.43,12.71,5.24,23.15,17.86,33.68,26.36,15.63,12.56,31.59,24.7,48.1,36.15,58.62,40.72,120.89,73,184.85,104.34,27.42,13.5,55.19,28.05,78.14,48.44,23.34,20.77,39.31,46.25,52.6,74.45,30.14,64.06,47.08,133.21,62,202.28a2.65,2.65,0,0,1-.34,1.94c12.72,64.16,17.57,129.38,25,194.32,3.69,32.85,16.6,64,20.24,96.77,2.09,19.51-1.6,43.2-3.39,61.64-23.1-28.11-50.14-52.42-74.55-79.3-35.28-39-72.21-76.35-110.36-112.69-75.28-71.93-154.58-139.78-234-206.94-26.4-31.16-48.73-64.16-73.53-97.65-34.26-45.81-68.42-91.92-83.42-148-3.5-12.66-21.41,3.16-22.81,9.71-2.38,11-4.22,22.18-5.58,33.49,12.81,51.25,63,98.86,86,143.22,20.86,40.42,35.72,81.72,68.38,114.58,21.74,21.79,45.66,41.84,64.89,66-35.58-25.53-72-46.92-116.09-59.88-123.51-36.6-247.91-69.94-369-114-19.9-8-39.75-15.78-57.7-28.4-9.32-6.64-25.34,4.91-23.69,16a147.18,147.18,0,0,0,5.49,23.78c2.08,2.92,4,5.68,5.87,8.35,10.29,15,29.46,13.68,46,16.74,81.92,14.85,155.59,54.21,231.35,86.87,36.88,15.87,74.11,27.32,113.32,36,37.08,8.11,172.82,110.9,201.07,132.74,81.09,63,143.75,133.12,191.75,226.35,35.67,69.3,47.46,103.62,46.83,179.08-.58,64.89,6.65,154.14-7.72,214.61-43-13.1-60-63.91-92.3-91.14a896.72,896.72,0,0,0-126.82-89c-16.6-9.56-33.48-18.44-50.52-27-3.45-3.73-6.79-7.42-10.39-11-19.36-19.9-39.64-39.7-56.68-61.54-19.07-24.16-30.24-58.87-41.49-87.21-43.43-109.34-60.15-99.16-80.42-171.66-21.52-77-13.62-135.32-30-137.81-4.89-.74-13.34,3.9-29,35" transform="translate(12.09 63.91)"/><path class="cls-16" d="M1295.65,1197.24c-10.62-8.16-21.36-16.2-32.26-24m126.9-104.83c-44.25-59.62-94.11-115.71-138.73-173.65-3.06-3.93-9-2.57-13.2.77,24.31,35,51.83,67.71,78.33,101.19,23.31,29.45,44.52,59.43,62.91,91.54m406.64,226c20.64,38.29,42.88,76.25,57.06,117.43,15.1,43.53,26,87.88,50.23,127.82,22.57,37.37,51.11,70.33,79.79,103,2,2.38-.68,6.41-3.49,4.51-57.13-38.48-111.19-81.39-163.27-126.52-16.55-8.25-34.4-17.27-52.87-27M1095.6,1273.19c-32.34-3.23-64.39-7.91-95.29-18C928.87,1232,860.68,1189,801.76,1143.18c-2.57-1.84-6.5-.68-9.8,1.65,12.72,16.36,28.54,30.87,43.68,44a730.38,730.38,0,0,0,77.94,58.48c34.51,22.72,73.82,32.09,113.71,40.72,18.46,4,36.77,8.54,55.12,12.94m29.27-26.25c-5.37-.47-10.73-1-16.08-1.5m167.79-99.91c-16.09-11.44-32.52-22.25-49.4-31.89-57.7-32.85-124.68-50.14-181.8-83.72,12.72,10.92,25,22.47,37.18,33.92,34.89,33,69.49,63.63,111,88.33q19.59,11.68,39.39,23.22M2659,3450.28c.39,2.63-2.91,5.15-4.85,2.63-105.22-136.28-77.5-314.2-68.33-474.16.19-3.59,5.82-3.59,5.72.1a1201.94,1201.94,0,0,0,3.06,144C2613.26,3232.52,2642.13,3340.22,2659,3450.28Z" transform="translate(12.09 63.91)"/><path class="cls-16" d="M3136.53,3523.47c-75.42-18.78-148.65-57.66-219.22-89.3-53.77-24-110.51-59.49-140.35-111.72a136.07,136.07,0,0,1-14.08-36.93c-11.6-22.91-19.6-48.19-25.09-72.7-17.08-75-18.59-152.78-19.31-229.36-1.46-144.77-18.93-288.53-30.58-432.76-10.34-128.75-19.46-259.45-16.94-389.32,30-63.24,74.5-118.13,121.09-169.91,81.14-90.22,152.92-146.9,224.51-195,17.23-18.3,39.06-32.38,59.69-46.4,18.78-12.71,37.71-24.85,57.07-36.5a233.61,233.61,0,0,1,33.4-3.54c-34.75-16.25-89.45,23.54-115.56,40.87-52.51,34.89-105.26,67.6-153.12,109.14-53.09,46.06-103.32,95.85-153.74,144.72-47.13,45.87-95.13,95.22-125.07,154.39-16.31,32.08-28.78,69-21.16,105.26,3.54,17.18,9.56,33.78,13,50.91,3.74,18.73,4,37.61,5.25,56.69,5.53,94,11.16,187.62,23.88,280.9,10.23,74.45,14.84,148.65,21.59,223.3,3,32.51,5.92,65.31,6.26,98.08,0,12.23.1,25.09-1.11,37.7,5,54,7.76,108.18,14.7,162,8,62.46,20.82,126.29,51.35,181.85,34,62,87.5,109.25,154.67,132.34,72.5,25.2,149.72,29.13,224.46,44.37,37.71,7.66,76.48,16.84,112.54,30.42,16.16,6.27,33.73,12.92,47.46,23.69,9.38,7.52,17.23,16.4,25.78,24.7,1.16-3.59.92-7.08-1.75-9.66C3251.11,3557,3197,3538.51,3136.53,3523.47Z" transform="translate(12.09 63.91)"/><path class="cls-16" d="M2202.39,1186.77c-54.31-52-110.75-101.68-167.87-150.7,35.38,46.55,72.8,91.44,111.47,135.16,27.57,31.21,55.19,62.13,85.27,90.81,27.09,25.72,54.89,50.91,79.6,79,23.82,27,44.6,56.1,58.77,89.34,15.39,35.87,22.18,75.61,26.74,114.15,8.74,73.67,6.26,148.61,19.7,221.5q4.51-91.72,2.77-183.54c-1.26-69.16-1.89-139.83-13.1-208.21-8.35-51-21.55-101.09-34.9-151.07,4,31.78,16.31,62.07,19.85,93.9,2.09,19.51-1.6,43.2-3.39,61.64-23.1-28.11-50.14-52.42-74.55-79.3C2277.47,1260.49,2240.54,1223.11,2202.39,1186.77Z" transform="translate(12.09 63.91)"/><path class="cls-17" d="M2210.11,340.47a158.37,158.37,0,0,1,14.31-45,44.21,44.21,0,0,0-14.56.63C2209.38,311,2209.43,325.82,2210.11,340.47Z" transform="translate(12.09 63.91)"/><path class="cls-16" d="M2559.92,2141.43c14.22-35.52,19.08-73.48,20-111.86-12.91-47.42-10.05-97.7-8.79-146.38,1.56-60.76-3.64-121.37-3.25-182.19a432.74,432.74,0,0,1,8.79-84.44c5.67-28.92,13.34-61.2,6.4-90.66-3.2-13.58-7.47-26.69-11.94-39.74-1.89,4.22-3.88,8.25-6.11,12.18,3.83-6.79-20.33-69.79-22.42-78.28-9-36.21.29-78.19-6-115-12.28-73.23-6.56-145.44-3.5-219.65.92-23.44,2.57-46,4.76-68q-8.31,46.68-13.54,93.77a1546.81,1546.81,0,0,0-6.07,271.87q4.59,70.77,15.29,141.13c6.45,42.86,6.75,85.32,3.74,128.56-3,44.65-5.87,89-5.19,133.76.77,47.8,5.14,95.22,11.06,142.59,4.9,39.94,12.81,80.12,12.77,120.4C2555.84,2078.44,2551.28,2113,2559.92,2141.43Z" transform="translate(12.09 63.91)"/><path class="cls-18" d="M1678.05,1016.42c-14.46-7.82-31.15-9.95-46.15-16.5-1.46-.58-3.79,2.14-2.14,3,14.17,7.81,29.85,12.22,44.7,18.64C1676.94,1022.63,1680.87,1018,1678.05,1016.42Z" transform="translate(12.09 63.91)"/><path class="cls-3" d="M4785.41,1563.62c-2.09-16.37-6.16-31-14.51-44.61,3.5,1.08,7,2.19,10.33,3.35,5.76,2.05,14.81-1.21,15.07-8,.7-14.08-7.84-26.75-19.66-37.34,15.49-.16,31.1-2.7,45.25-8.67,2.53-1,5.81-4.55,5.1-7.59-5.79-24.64-23.73-43.33-44.14-58.11a169,169,0,0,0,45.8-16.51c2.07-1.1,5.23-3.82,4.46-6.66-6.12-21.43-30.42-33.72-49-43a63.71,63.71,0,0,0-7.72-3.19c.27-.19.58-.35.8-.52,13.72-9.29,48.16-25.81,47.85-45.58-.36-20-41.14-21.94-54.67-23.34-11.91-1.29-25-2.95-38-3.15,6-10.45,6.4-20.9-5.37-29-17.79-12.41-40.21-4.23-59.38,9.11,4.13-37.81,3.74-88.42-31.25-70.22-14.23,7.41-21.14,26-27.49,39.72a72.31,72.31,0,0,0-13.5-2.66c-12.76-1.42-26.35,1.2-39.5,6.25,1-3.32,1.87-6.58,2.73-9.62,4.75-16.75,11.71-45.16-7.43-55.65-18.84-10.3-48.9,6.26-64.05,16.73-6.55,4.55-22.24,17-30.1,29.64-9.7-14.14-23.27-23.3-41.34-18.45-27.92,7.49-20.25,45.57-10.26,74.13-.83.4-1.69.77-2.5,1.25-.32-7-3-13.84-9.11-20.06-10.58-10.7-24.22-15.47-38.47-16.18,13.95-17.51,20.73-36.93-4.65-46.23a54.31,54.31,0,0,0-19.85-3c11.89-25.88,16.83-53.67-9.69-54.17-18.42-.38-37.71,8.75-53.09,18-7,4.22-15.95,10-22.43,17.13-.52-16.21-6.71-29.29-23.42-30.16-17.65-.89-26.62,11-34.72,24.33-1.65-7.59-2.92-15.25-4-22.91-1.2-8.56-15.1-6-18.86-1.23-9.51,12.17-22.57,24.59-25.92,40.12-.58,2.7-2,7-2.65,11.21-23.67-12.38-50.16-20.35-76.11-18.85-3.68.2-10.21,3.34-9.36,8,3,16.29,7,34.2,14.46,49.87-7.43,0-14.9.27-22.41.68-29.43,1.72-62.06,5.26-86,23.84-2.53,2-4.17,5.8-2.32,8.78,10.73,17.48,28.58,30.18,45.93,41.1-10.83,2.83-21,7.31-29.86,15.67-2.1,2-4.58,5.91-2.33,8.95A52,52,0,0,0,3985,1321c-20.79,8.82-39.77,21.13-55.32,39-2.39,2.68-1,6,.94,8.26,12.09,14.1,37,16.67,55.75,21.13-3.91,3.44-7.73,7.15-11.47,11-17.9,18.26-35.94,41.79-46.11,65.4-10.84,24.94,14.15,34.58,34.8,37a74.27,74.27,0,0,0,8.29.54,83.75,83.75,0,0,0-10.06,13.07c-1.55,2.48-1.74,6.11.92,8,11.43,8.37,23.51,7.52,36.26,8.72-16.18,8.32-31.87,17.27-43.48,32.31-2.32,3-.52,7.12,2.72,8.49,16.17,7,34.92,10.1,52,14.51a205.3,205.3,0,0,0,26.36,4.77c4.36.64,8.73,1.1,13.14,1.41,4.25.39,8.46.71,12.72,1.08a222.53,222.53,0,0,0,28.16.57c-1.69,11.26-2,22.9-2,35.07-.12,20.4,11.65,36.37,33.51,29.89,16.78-4.94,30.17-17,43.42-27.82a93.88,93.88,0,0,0,8.17,24.72c11.7,23.51,34.37,44.19,58.42,54.43,22,9.34,39.24.67,46.53-21.21a154,154,0,0,0,6.43-30.68c1.31,1.41,2.47,2.54,3.21,3.21,20.95,19.51,52.7,34.35,81.65,32.1,4.47-.32,9.74-3.31,9.69-8.3-.31-17.42.61-39.48-2.28-60.19,1.14.43,2.23.79,3.24,1.19,17.72,6.24,44.5,11.87,62.43,3.77,18.4-8.33,3.45-34-3.91-45.59a116.32,116.32,0,0,0-12.26-15.66,74.33,74.33,0,0,0,15.18-.42c.58-.07,1.16-.18,1.77-.29-1.13,6-.31,11.94,4,17.37,11.15,13.73,35.22.67,45.69-6.65a154.62,154.62,0,0,0,13.64-10.73c3.68,11.36,10.1,22.15,16.72,31.66,10.6,15.22,23.7,31.59,43.68,20.84,15.7-8.42,21.32-32,25.21-47.62.29-1.35.64-2.75,1-4.2,13.22,10.86,29,24.35,45.88,25.29,24.28,1.44,27-25.56,28.83-43.56a73.66,73.66,0,0,0-1.14-23.58c2.63,2.72,5.25,5.4,8,8,25.39,24.15,62.78,39.58,98,36.72C4778.36,1573.54,4786.24,1569.78,4785.41,1563.62Z" transform="translate(12.09 63.91)"/><path class="cls-2" d="M4754.52,1457.47c-14.56,9.19-32.31,12.72-49.26,14.26-16.72,1.54-33.26.62-50-.15a268,268,0,0,1-65.4-10.8c-1.34-.38-2.7-.82-4-1.25,1.22,3.1,2.47,6.19,3.5,9.38,1.86,5.87,3.79,12.87,1.76,19-1.86,5.75-6.12,8.6-12,6.53-4.72-1.6-9-4.62-13-7.41s-8.22-5.43-12.37-8.11a228.35,228.35,0,0,1-26.84-19.9c-7.39-6.46-15.55-14.24-21.64-23.13,1,3.51,2.12,6.95,3.3,10.38,3.05,8.85,6.44,17.55,9.57,26.37,3,8.22,6.05,16.82,7.1,25.51.42,3.71.76,8.57-2,11.55s-7.27,3.46-11.24,3.5c-15.25,0-31.34-4.91-44.49-12.55-26-15.18-40.36-43.18-54.52-68.6-.3,5.49.65,11.26,1.11,16.67a255.85,255.85,0,0,1,1.38,25.91c-.06,6.9-.38,14.71-3.66,20.93-2.36,4.38-7.07,7.92-12.37,6.55-6.67-1.81-10.71-9.92-13.57-15.58a191.55,191.55,0,0,1-11.23-29.31c-1.59-5.19-3-10.42-4.43-15.64-3.43,7.75-7.28,15.32-11.35,22.78a318.81,318.81,0,0,1-17.87,29.31c-10.05,14.19-21.23,28.06-34,39.88-7.44,6.91-23.6,21.42-33.17,9.79-3.65-4.47-4.45-10.5-4.38-16.11.09-7.8,1.87-15.54,4-23a249.38,249.38,0,0,1,10.29-28.57c-17.17,12.13-34.68,23.64-54.09,32a257.69,257.69,0,0,1-40.11,13.33c-11.84,3-24,6.13-36.22,6.6-4.64.2-10.3.46-14.59-1.74-3.36-1.71-7.64-4.39-7.95-8.61-.28-3.75,2-7.14,4.35-9.9,1.43-1.67,3-3.22,4.53-4.78-3.3.66-6.69,1.25-10,1.85a412.63,412.63,0,0,1-41.8,5.55,202.76,202.76,0,0,1-26.53.62c-5.92-.34-12.74-.78-18-3.77-11.3-6.32,1.86-17.69,8-22.09a139.69,139.69,0,0,1,14.35-8.83c-17.58-.43-35.2-1-52.48-4-10.05-1.8-34-6.1-30.64-21.22,1.62-7.18,7-13.46,11.88-18.73a203.4,203.4,0,0,1,22.75-20.3c12.74-10,26.21-19.09,39.86-27.78-3.26-.55-6.59-1.12-9.83-1.72-8.7-1.67-17.68-1.88-26.38-3.39-8.43-1.42-19-3-25.76-8.75-4.22-3.58-4.88-8.84-.73-12.7,5.75-5.34,14-8.21,21.17-10.88,9.36-3.39,19-6.17,28.61-8.8,18.74-5.07,37.89-10.06,57.38-11.13-6.18-.58-12.35-1.19-18.5-2-18.18-2.14-36.93-4.71-54.2-11-8.73-3.12-25-10.52-18.08-22.44,3.59-6.19,11-9.32,17.51-11.39,9.92-3.23,20.44-4.82,30.88-5.72a232.41,232.41,0,0,1,31.57-.62l-3.83-.89c-17.67-4.21-35.8-9-52.18-17-5.46-2.71-11.73-5.93-15.39-11-2.48-3.44-3.22-8.2,0-11.49,4.18-4.24,12.09-4.41,17.58-4.49a155.27,155.27,0,0,1,28.61,2.67,248.41,248.41,0,0,1,28.25,6.56c1.7.47,3.5,1,5.3,1.54a96.7,96.7,0,0,1,1.74-23.22c1.28-5.93,3.51-14,9.65-16.77,7-3.09,14.62,2.39,19.48,7,1.59,1.49,3,3,4.5,4.68a119.1,119.1,0,0,1,6.64-17.9c2.4-5.06,5.49-11.27,10.5-14.33,4.6-2.77,9.5-.53,13.1,2.92,6.38,6.16,10.32,14.75,13.31,22.93a138.15,138.15,0,0,1,7.62,30.51c1.54-3.1,3.13-6.19,4.78-9.23,8.75-16.18,18.93-32.35,32.16-45.31,4.78-4.67,10.27-9.44,16.69-11.73,4.14-1.49,10.14-2.22,13.6,1.15,4.13,4,4,11.58,3.82,16.85-.28,9.55-2,19.1-4,28.43a390.71,390.71,0,0,1-11.4,41.93c3-4.76,6.33-9.34,9.57-13.89,7-9.76,14.2-19.33,22-28.52a169.94,169.94,0,0,1,15.67-16.66c3.73-3.48,8.08-7.44,13.14-8.94,13.07-3.89,9.23,19.16,8,25.08-2.66,13.44-8.15,26.13-14.94,38.12a156.19,156.19,0,0,1,15.49-6.26c7.91-2.61,25.26-7.53,27.87,4.87,1.35,6.36-1.51,13.5-4.08,19.26a175,175,0,0,1-14.34,25,395.15,395.15,0,0,1-31,40.25c-6.46,7.35-12.84,14.79-19.61,21.87a251.36,251.36,0,0,1,30.81-14.7c10.27-4,20.93-7.62,31.89-9.3,8.25-1.31,17.13-1.84,25.14,1.05a.54.54,0,0,1,.33.61c-2.37,11.92-11.29,21.53-20.17,29.91a128.41,128.41,0,0,1,17.46-3.57c9-1.21,18.22-2,27,.93a42.5,42.5,0,0,1,6.4,2.74c2.22-19.26,7.08-38.25,11.55-57.06,1.61-6.73,2.87-13.54,4.69-20.23,2.4-8.84,4.94-18.15,9.78-26,3.07-5,7.5-9,13.26-5.27,6.48,4.17,9.91,12.54,12.53,19.37,1.82,4.63,3.41,9.38,4.87,14.15,4.82-10.74,10.35-21.21,16-31.45,3.69-6.54,7.15-13.06,10.47-19.81a217.57,217.57,0,0,1,11.78-21.79,60.09,60.09,0,0,1,8.47-11.22c2.07-2,4.64-4.29,7.67-4.7,4.22-.52,7.84,2,9.81,5.58,2.82,5.07,3.48,11.29,3.78,17a163.4,163.4,0,0,1-1.05,24.43c-1.39,12.89-3.64,25.72-6.27,38.4,1.5-1,3-2.07,4.46-3.15a409.29,409.29,0,0,1,39.35-25.06c9-4.91,18.33-9.67,28.17-12.52,5.77-1.67,13.9-3.77,19.37-.21,3.74,2.39,4.25,6.94,3.76,11-.88,6.69-3.76,13.1-6.73,19.08-7,14.12-15.87,27.36-25.2,40.09a227.87,227.87,0,0,1,23.78-12.67,173.94,173.94,0,0,1,33.58-11.8c10.44-2.39,21.5-3.81,32.17-2,6.55,1.09,15.45,3.22,19.6,9,2.56,3.53,2.4,7.83.93,11.79-2.14,5.63-6.22,10.55-10.25,14.93a166.83,166.83,0,0,1-18.18,16.45c-7.35,5.88-15,11.41-22.83,16.7,3.56-.24,7.14-.33,10.68-.38a154,154,0,0,1,31.2,2.82c7.14,1.47,15.17,3.47,20.93,8.34a.56.56,0,0,1,0,.88c-12.21,10.45-27.45,16.75-42.8,21.08a272.91,272.91,0,0,1-37.08,7.56l3.35,0a209.67,209.67,0,0,1,46.21,6.26,280.28,280.28,0,0,1,36.31,12.15c11.94,4.8,23.84,10,34.79,16.85,9.44,5.81,19.08,13.06,24.07,23.24A.71.71,0,0,1,4754.52,1457.47Z" transform="translate(12.09 63.91)"/><path class="cls-3" d="M4482.41,760.62c-2.09-16.37-6.16-31-14.51-44.61,3.5,1.08,7,2.19,10.33,3.35,5.76,2,14.81-1.21,15.07-8,.7-14.08-7.84-26.75-19.66-37.34,15.49-.16,31.1-2.7,45.25-8.67,2.53-1,5.81-4.55,5.1-7.59-5.79-24.64-23.73-43.33-44.14-58.11a169,169,0,0,0,45.8-16.51c2.07-1.1,5.23-3.82,4.46-6.66-6.12-21.43-30.42-33.72-49-43a63.71,63.71,0,0,0-7.72-3.19c.27-.19.58-.35.8-.52,13.72-9.29,48.16-25.81,47.85-45.58-.36-20-41.14-21.94-54.67-23.34-11.91-1.29-25-2.95-38-3.15,6-10.45,6.4-20.9-5.37-29-17.79-12.41-40.21-4.23-59.38,9.11,4.13-37.81,3.74-88.42-31.25-70.22-14.23,7.41-21.14,26.05-27.49,39.72a72.31,72.31,0,0,0-13.5-2.66c-12.76-1.42-26.35,1.2-39.5,6.25,1-3.32,1.87-6.58,2.73-9.62,4.75-16.75,11.71-45.16-7.43-55.65-18.84-10.3-48.9,6.26-64.05,16.73-6.55,4.55-22.24,17-30.1,29.64-9.7-14.14-23.27-23.3-41.34-18.45-27.92,7.49-20.25,45.57-10.26,74.13-.83.4-1.69.77-2.5,1.25-.32-7-3-13.84-9.11-20.06-10.58-10.7-24.22-15.47-38.47-16.18,14-17.51,20.73-36.93-4.65-46.23a54.31,54.31,0,0,0-19.85-3c11.89-25.88,16.83-53.67-9.69-54.17-18.42-.38-37.71,8.75-53.09,18-7,4.22-16,10-22.43,17.13-.52-16.21-6.71-29.29-23.42-30.16-17.65-.89-26.62,11-34.72,24.33-1.65-7.59-2.92-15.25-4-22.91-1.2-8.56-15.1-6-18.86-1.23-9.51,12.17-22.57,24.59-25.92,40.12-.58,2.7-2,7-2.65,11.21-23.67-12.38-50.16-20.35-76.11-18.85-3.68.2-10.21,3.34-9.36,8,3,16.29,7,34.2,14.46,49.87-7.43-.05-14.9.27-22.41.68-29.43,1.72-62.06,5.26-86,23.84-2.53,1.95-4.17,5.8-2.32,8.78,10.73,17.48,28.58,30.18,45.93,41.1-10.83,2.83-21,7.31-29.86,15.67-2.1,2-4.58,5.91-2.33,8.95A52,52,0,0,0,3682,518c-20.79,8.82-39.77,21.13-55.32,39-2.39,2.68-1,6,.94,8.26,12.09,14.1,37,16.67,55.75,21.13-3.91,3.44-7.73,7.15-11.47,11-17.9,18.26-35.94,41.79-46.11,65.4-10.84,24.94,14.15,34.58,34.8,37a74.27,74.27,0,0,0,8.29.54,83.75,83.75,0,0,0-10.06,13.07c-1.55,2.48-1.74,6.11.92,8,11.43,8.37,23.51,7.52,36.26,8.72-16.18,8.32-31.87,17.27-43.48,32.31-2.32,3-.52,7.12,2.72,8.49,16.17,6.95,34.92,10.1,52,14.51a205.3,205.3,0,0,0,26.36,4.77c4.36.64,8.73,1.1,13.14,1.41,4.25.39,8.46.71,12.72,1.08a222.53,222.53,0,0,0,28.16.57c-1.69,11.26-2,22.9-2,35.07-.12,20.4,11.65,36.37,33.51,29.89,16.78-4.94,30.17-17,43.42-27.82a93.88,93.88,0,0,0,8.17,24.72c11.7,23.51,34.37,44.19,58.42,54.43,22,9.34,39.24.67,46.53-21.21a154,154,0,0,0,6.43-30.68c1.31,1.41,2.47,2.54,3.21,3.21,21,19.51,52.7,34.35,81.65,32.1,4.47-.32,9.74-3.31,9.69-8.3-.31-17.42.61-39.48-2.28-60.19,1.14.43,2.23.79,3.24,1.19,17.72,6.24,44.5,11.87,62.43,3.77,18.4-8.33,3.45-34-3.91-45.59a116.32,116.32,0,0,0-12.26-15.66,74.33,74.33,0,0,0,15.18-.42c.58-.07,1.16-.18,1.77-.29-1.13,6-.31,11.94,4,17.37,11.15,13.73,35.22.67,45.69-6.65a154.62,154.62,0,0,0,13.64-10.73c3.68,11.36,10.1,22.15,16.72,31.66,10.6,15.22,23.7,31.59,43.68,20.84,15.7-8.42,21.32-32,25.21-47.62.29-1.35.64-2.75,1-4.2,13.22,10.86,29,24.35,45.88,25.29,24.28,1.44,27-25.56,28.83-43.56a73.66,73.66,0,0,0-1.14-23.58c2.63,2.72,5.25,5.4,8,8,25.39,24.15,62.78,39.58,98,36.72C4475.36,770.54,4483.24,766.78,4482.41,760.62Z" transform="translate(12.09 63.91)"/><path class="cls-2" d="M4451.52,654.47c-14.56,9.19-32.31,12.72-49.26,14.26-16.72,1.54-33.26.62-50-.15a268,268,0,0,1-65.4-10.8c-1.34-.38-2.7-.82-4-1.25,1.22,3.1,2.47,6.19,3.5,9.38,1.86,5.87,3.79,12.87,1.76,19-1.86,5.75-6.12,8.6-12,6.53-4.72-1.6-9-4.62-13-7.41s-8.22-5.43-12.37-8.11a228.35,228.35,0,0,1-26.84-19.9c-7.39-6.46-15.55-14.24-21.64-23.13,1,3.51,2.12,7,3.3,10.38,3.05,8.85,6.44,17.55,9.57,26.37,3,8.22,6.05,16.82,7.1,25.51.42,3.71.76,8.57-2,11.55s-7.27,3.46-11.24,3.5c-15.25,0-31.34-4.91-44.49-12.55-26-15.18-40.36-43.18-54.52-68.6-.3,5.49.65,11.26,1.11,16.67a255.85,255.85,0,0,1,1.38,25.91c-.06,6.9-.38,14.71-3.66,20.93-2.36,4.38-7.07,7.92-12.37,6.55-6.67-1.81-10.71-9.92-13.57-15.58a191.55,191.55,0,0,1-11.23-29.31c-1.59-5.19-3-10.42-4.43-15.64-3.43,7.75-7.28,15.32-11.35,22.78a318.81,318.81,0,0,1-17.87,29.31c-10,14.19-21.23,28.06-34,39.88-7.44,6.91-23.6,21.42-33.17,9.79-3.65-4.47-4.45-10.5-4.38-16.11.09-7.8,1.87-15.54,4-23a249.38,249.38,0,0,1,10.29-28.57c-17.17,12.13-34.68,23.64-54.09,32A257.69,257.69,0,0,1,3886.44,718c-11.84,3-24,6.13-36.22,6.6-4.64.2-10.3.46-14.59-1.74-3.36-1.71-7.64-4.39-8-8.61-.28-3.75,2-7.14,4.35-9.9,1.43-1.67,3-3.22,4.53-4.78-3.3.66-6.69,1.25-9.95,1.85a412.63,412.63,0,0,1-41.8,5.55,202.76,202.76,0,0,1-26.53.62c-5.92-.34-12.74-.78-18-3.77-11.3-6.32,1.86-17.69,8-22.09a139.69,139.69,0,0,1,14.35-8.83c-17.58-.43-35.2-1-52.48-4-10.05-1.8-34-6.1-30.64-21.22,1.62-7.18,7-13.46,11.88-18.73a203.4,203.4,0,0,1,22.75-20.3c12.74-10,26.21-19.09,39.86-27.78-3.26-.55-6.59-1.12-9.83-1.72-8.7-1.67-17.68-1.88-26.38-3.39-8.43-1.42-19-3-25.76-8.75-4.22-3.58-4.88-8.84-.73-12.7,5.75-5.34,14-8.21,21.17-10.88,9.36-3.39,19-6.17,28.61-8.8,18.74-5.07,37.89-10.06,57.38-11.13-6.18-.58-12.35-1.19-18.5-2-18.18-2.14-36.93-4.71-54.2-11-8.73-3.12-25-10.52-18.08-22.44,3.59-6.19,11-9.32,17.51-11.39,9.92-3.23,20.44-4.82,30.88-5.72a232.41,232.41,0,0,1,31.57-.62l-3.83-.89c-17.67-4.21-35.8-9-52.18-17-5.46-2.71-11.73-5.93-15.39-11-2.48-3.44-3.22-8.2,0-11.49,4.18-4.24,12.09-4.41,17.58-4.49a155.27,155.27,0,0,1,28.61,2.67,248.41,248.41,0,0,1,28.25,6.56c1.7.47,3.5,1,5.3,1.54a96.7,96.7,0,0,1,1.74-23.22c1.28-5.93,3.51-14,9.65-16.77,7-3.09,14.62,2.39,19.48,7,1.59,1.49,3,3,4.5,4.68a119.1,119.1,0,0,1,6.64-17.9c2.4-5.06,5.49-11.27,10.5-14.33,4.6-2.77,9.5-.53,13.1,2.92,6.38,6.16,10.32,14.75,13.31,22.93a138.15,138.15,0,0,1,7.62,30.51c1.54-3.1,3.13-6.19,4.78-9.23,8.75-16.18,18.93-32.35,32.16-45.31,4.78-4.67,10.27-9.44,16.69-11.73,4.14-1.49,10.14-2.22,13.6,1.15,4.13,4.05,4,11.58,3.82,16.85-.28,9.55-2,19.1-4,28.43a390.71,390.71,0,0,1-11.4,41.93c3-4.76,6.33-9.34,9.57-13.89,6.95-9.76,14.2-19.33,22-28.52a169.94,169.94,0,0,1,15.67-16.66c3.73-3.48,8.08-7.44,13.14-8.94,13.07-3.89,9.23,19.16,8,25.08-2.66,13.44-8.15,26.13-14.94,38.12a156.19,156.19,0,0,1,15.49-6.26c7.91-2.61,25.26-7.53,27.87,4.87,1.35,6.36-1.51,13.5-4.08,19.26a175,175,0,0,1-14.34,25,395.15,395.15,0,0,1-31,40.25c-6.46,7.35-12.84,14.79-19.61,21.87a251.36,251.36,0,0,1,30.81-14.7c10.27-4,20.93-7.62,31.89-9.3,8.25-1.31,17.13-1.84,25.14,1a.54.54,0,0,1,.33.61c-2.37,11.92-11.29,21.53-20.17,29.91a128.41,128.41,0,0,1,17.46-3.57c9-1.21,18.22-2,26.95.93a42.5,42.5,0,0,1,6.4,2.74c2.22-19.26,7.08-38.25,11.55-57.06,1.61-6.73,2.87-13.54,4.69-20.23,2.4-8.84,4.94-18.15,9.78-26,3.07-5,7.5-9,13.26-5.27,6.48,4.17,9.91,12.54,12.53,19.37,1.82,4.63,3.41,9.38,4.87,14.15,4.82-10.74,10.35-21.21,16-31.45,3.69-6.54,7.15-13.06,10.47-19.81a217.57,217.57,0,0,1,11.78-21.79,60.09,60.09,0,0,1,8.47-11.22c2.07-2,4.64-4.29,7.67-4.7,4.22-.52,7.84,2.05,9.81,5.58,2.82,5.07,3.48,11.29,3.78,17a163.4,163.4,0,0,1-1.05,24.43c-1.39,12.89-3.64,25.72-6.27,38.4,1.5-1,3-2.07,4.46-3.15a409.29,409.29,0,0,1,39.35-25.06c9-4.91,18.33-9.67,28.17-12.52,5.77-1.67,13.9-3.77,19.37-.21,3.74,2.39,4.25,6.94,3.76,10.95-.88,6.69-3.76,13.1-6.73,19.08-7,14.12-15.87,27.36-25.2,40.09a227.87,227.87,0,0,1,23.78-12.67,173.94,173.94,0,0,1,33.58-11.8c10.44-2.39,21.5-3.81,32.17-2,6.55,1.09,15.45,3.22,19.6,9,2.56,3.53,2.4,7.83.93,11.79-2.14,5.63-6.22,10.55-10.25,14.93a166.83,166.83,0,0,1-18.18,16.45c-7.35,5.88-15,11.41-22.83,16.7,3.56-.24,7.14-.33,10.68-.38a154,154,0,0,1,31.2,2.82c7.14,1.47,15.17,3.47,20.93,8.34a.56.56,0,0,1,0,.88c-12.21,10.45-27.45,16.75-42.8,21.08a272.91,272.91,0,0,1-37.08,7.56l3.35,0a209.67,209.67,0,0,1,46.21,6.26,280.28,280.28,0,0,1,36.31,12.15c11.94,4.8,23.84,10,34.79,16.85,9.44,5.81,19.08,13.06,24.07,23.24A.71.71,0,0,1,4451.52,654.47Z" transform="translate(12.09 63.91)"/><path class="cls-3" d="M3583.41,458.62c-2.09-16.37-6.16-31-14.51-44.61,3.5,1.08,7,2.19,10.33,3.35,5.76,2.05,14.81-1.21,15.07-8,.7-14.08-7.84-26.75-19.66-37.34,15.49-.16,31.1-2.7,45.25-8.67,2.53-1.05,5.81-4.55,5.1-7.59-5.79-24.64-23.73-43.33-44.14-58.11a169,169,0,0,0,45.8-16.51c2.07-1.1,5.23-3.82,4.46-6.66-6.12-21.43-30.42-33.72-49-43a63.71,63.71,0,0,0-7.72-3.19c.27-.19.58-.35.8-.52,13.72-9.29,48.16-25.81,47.85-45.58-.36-20-41.14-21.94-54.67-23.34-11.91-1.29-25-3-38-3.15,6-10.45,6.4-20.9-5.37-29-17.79-12.41-40.21-4.23-59.38,9.11,4.13-37.81,3.74-88.42-31.25-70.22-14.23,7.41-21.14,26.05-27.49,39.72a72.31,72.31,0,0,0-13.5-2.66c-12.76-1.42-26.35,1.2-39.5,6.25,1-3.32,1.87-6.58,2.73-9.62,4.75-16.75,11.71-45.16-7.43-55.65-18.84-10.3-48.9,6.26-64,16.73-6.55,4.55-22.24,17-30.1,29.64-9.7-14.14-23.27-23.3-41.34-18.45-27.92,7.49-20.25,45.57-10.26,74.13-.83.4-1.69.77-2.5,1.25-.32-7-3-13.84-9.11-20.06-10.58-10.7-24.22-15.47-38.47-16.18,14-17.51,20.73-36.93-4.65-46.23a54.31,54.31,0,0,0-19.85-3c11.89-25.88,16.83-53.67-9.69-54.17-18.42-.38-37.71,8.75-53.09,18-7,4.22-16,10-22.43,17.13-.52-16.21-6.71-29.29-23.42-30.16-17.65-.89-26.62,11-34.72,24.33-1.65-7.59-2.92-15.25-4-22.91-1.2-8.56-15.1-6-18.86-1.23-9.51,12.17-22.57,24.59-25.92,40.12-.58,2.7-2,7-2.65,11.21C2910.45,51.41,2884,43.44,2858,44.94c-3.68.2-10.21,3.34-9.36,8,3,16.29,7,34.2,14.46,49.87-7.43,0-14.9.27-22.41.68-29.43,1.72-62.06,5.26-86,23.84-2.53,1.95-4.17,5.8-2.32,8.78,10.73,17.48,28.58,30.18,45.93,41.1-10.83,2.83-21,7.31-29.86,15.67-2.1,2-4.58,5.91-2.33,9A52,52,0,0,0,2783,216c-20.79,8.82-39.77,21.13-55.32,39-2.39,2.68-1,6,.94,8.26,12.09,14.1,37,16.67,55.75,21.13-3.91,3.44-7.73,7.15-11.47,11-17.9,18.26-35.94,41.79-46.11,65.4-10.84,24.94,14.15,34.58,34.8,37a74.27,74.27,0,0,0,8.29.54,83.75,83.75,0,0,0-10.06,13.07c-1.55,2.48-1.74,6.11.92,8,11.43,8.37,23.51,7.52,36.26,8.72-16.18,8.32-31.87,17.27-43.48,32.31-2.32,3-.52,7.12,2.72,8.49,16.17,6.95,34.92,10.1,52,14.51a205.3,205.3,0,0,0,26.36,4.77c4.36.64,8.73,1.1,13.14,1.41,4.25.39,8.46.71,12.72,1.08a222.53,222.53,0,0,0,28.16.57c-1.69,11.26-2,22.9-2,35.07-.12,20.4,11.65,36.37,33.51,29.89,16.78-4.94,30.17-17,43.42-27.82a93.88,93.88,0,0,0,8.17,24.72c11.7,23.51,34.37,44.19,58.42,54.43,22,9.34,39.24.67,46.53-21.21a154,154,0,0,0,6.43-30.68c1.31,1.41,2.47,2.54,3.21,3.21,21,19.51,52.7,34.35,81.65,32.1,4.47-.32,9.74-3.31,9.69-8.3-.31-17.42.61-39.48-2.28-60.19,1.14.43,2.23.79,3.24,1.19,17.72,6.24,44.5,11.87,62.43,3.77,18.4-8.33,3.45-34-3.91-45.59a116.32,116.32,0,0,0-12.26-15.66,74.33,74.33,0,0,0,15.18-.42c.58-.07,1.16-.18,1.77-.29-1.13,6-.31,11.94,4,17.37,11.15,13.73,35.22.67,45.69-6.65a154.62,154.62,0,0,0,13.64-10.73c3.68,11.36,10.1,22.15,16.72,31.66,10.6,15.22,23.7,31.59,43.68,20.84,15.7-8.42,21.32-32,25.21-47.62.29-1.35.64-2.75,1-4.2,13.22,10.86,29,24.35,45.88,25.29,24.28,1.44,27-25.56,28.83-43.56a73.66,73.66,0,0,0-1.14-23.58c2.63,2.72,5.25,5.4,8,8,25.39,24.15,62.78,39.58,98,36.72C3576.36,468.54,3584.24,464.78,3583.41,458.62Z" transform="translate(12.09 63.91)"/><path class="cls-2" d="M3552.52,352.47c-14.56,9.19-32.31,12.72-49.26,14.26-16.72,1.54-33.26.62-50-.15a268,268,0,0,1-65.4-10.8c-1.34-.38-2.7-.82-4-1.25,1.22,3.1,2.47,6.19,3.5,9.38,1.86,5.87,3.79,12.87,1.76,19-1.86,5.75-6.12,8.6-12,6.53-4.72-1.6-8.95-4.62-13-7.41s-8.22-5.43-12.37-8.11a228.35,228.35,0,0,1-26.84-19.9c-7.39-6.46-15.55-14.24-21.64-23.13,1,3.51,2.12,6.95,3.3,10.38,3,8.85,6.44,17.55,9.57,26.37,3,8.22,6.05,16.82,7.1,25.51.42,3.71.76,8.57-2,11.55s-7.27,3.46-11.24,3.5c-15.25,0-31.34-4.91-44.49-12.55-26-15.18-40.36-43.18-54.52-68.6-.3,5.49.65,11.26,1.11,16.67a255.85,255.85,0,0,1,1.38,25.91c-.06,6.9-.38,14.71-3.66,20.93-2.36,4.38-7.07,7.92-12.37,6.55-6.67-1.81-10.71-9.92-13.57-15.58a191.55,191.55,0,0,1-11.23-29.31c-1.59-5.19-3-10.42-4.43-15.64-3.43,7.75-7.28,15.32-11.35,22.78a318.81,318.81,0,0,1-17.87,29.31c-10,14.19-21.23,28.06-34,39.88-7.44,6.91-23.6,21.42-33.17,9.79-3.65-4.47-4.45-10.5-4.38-16.11.09-7.8,1.87-15.54,4-23a249.38,249.38,0,0,1,10.29-28.57c-17.17,12.13-34.68,23.64-54.09,32A257.69,257.69,0,0,1,2987.44,416c-11.84,3-24,6.13-36.22,6.6-4.64.2-10.3.46-14.59-1.74-3.36-1.71-7.64-4.39-8-8.61-.28-3.75,2-7.14,4.35-9.9,1.43-1.67,3-3.22,4.53-4.78-3.3.66-6.69,1.25-9.95,1.85a412.63,412.63,0,0,1-41.8,5.55,202.76,202.76,0,0,1-26.53.62c-5.92-.34-12.74-.78-18-3.77-11.3-6.32,1.86-17.69,8-22.09a139.69,139.69,0,0,1,14.35-8.83c-17.58-.43-35.2-1-52.48-4-10.05-1.8-34-6.1-30.64-21.22,1.62-7.18,7-13.46,11.88-18.73a203.4,203.4,0,0,1,22.75-20.3c12.74-10,26.21-19.09,39.86-27.78-3.26-.55-6.59-1.12-9.83-1.72-8.7-1.67-17.68-1.88-26.38-3.39-8.43-1.42-19-3-25.76-8.75-4.22-3.58-4.88-8.84-.73-12.7,5.75-5.34,14-8.21,21.17-10.88,9.36-3.39,19-6.17,28.61-8.8,18.74-5.07,37.89-10.06,57.38-11.13-6.18-.58-12.35-1.19-18.5-2-18.18-2.14-36.93-4.71-54.2-11-8.73-3.12-25-10.52-18.08-22.44,3.59-6.19,11-9.32,17.51-11.39,9.92-3.23,20.44-4.82,30.88-5.72a232.41,232.41,0,0,1,31.57-.62l-3.83-.89c-17.67-4.21-35.8-8.95-52.18-17-5.46-2.71-11.73-5.93-15.39-11-2.48-3.44-3.22-8.2,0-11.49,4.18-4.24,12.09-4.41,17.58-4.49a155.27,155.27,0,0,1,28.61,2.67,248.41,248.41,0,0,1,28.25,6.56c1.7.47,3.5,1,5.3,1.54a96.7,96.7,0,0,1,1.74-23.22c1.28-5.93,3.51-14,9.65-16.77,7-3.09,14.62,2.39,19.48,7,1.59,1.49,3,3,4.5,4.68a119.1,119.1,0,0,1,6.64-17.9c2.4-5.06,5.49-11.27,10.5-14.33,4.6-2.77,9.5-.53,13.1,2.92,6.38,6.16,10.32,14.75,13.31,22.93a138.15,138.15,0,0,1,7.62,30.51c1.54-3.1,3.13-6.19,4.78-9.23,8.75-16.18,18.93-32.35,32.16-45.31,4.78-4.67,10.27-9.44,16.69-11.73,4.14-1.49,10.14-2.22,13.6,1.15,4.13,4,4,11.58,3.82,16.85-.28,9.55-2,19.1-4,28.43a390.71,390.71,0,0,1-11.4,41.93c3-4.76,6.33-9.34,9.57-13.89,6.95-9.76,14.2-19.33,22-28.52a169.94,169.94,0,0,1,15.67-16.66c3.73-3.48,8.08-7.44,13.14-8.94,13.07-3.89,9.23,19.16,8,25.08-2.66,13.44-8.15,26.13-14.94,38.12a156.19,156.19,0,0,1,15.49-6.26c7.91-2.61,25.26-7.53,27.87,4.87,1.35,6.36-1.51,13.5-4.08,19.26a175,175,0,0,1-14.34,25,395.15,395.15,0,0,1-31,40.25c-6.46,7.35-12.84,14.79-19.61,21.87a251.36,251.36,0,0,1,30.81-14.7c10.27-4,20.93-7.62,31.89-9.3,8.25-1.31,17.13-1.84,25.14,1a.54.54,0,0,1,.33.61c-2.37,11.92-11.29,21.53-20.17,29.91a128.41,128.41,0,0,1,17.46-3.57c9-1.21,18.22-2,26.95.93a42.5,42.5,0,0,1,6.4,2.74c2.22-19.26,7.08-38.25,11.55-57.06,1.61-6.73,2.87-13.54,4.69-20.23,2.4-8.84,4.94-18.15,9.78-26,3.07-5,7.5-9,13.26-5.27,6.48,4.17,9.91,12.54,12.53,19.37,1.82,4.63,3.41,9.38,4.87,14.15,4.82-10.74,10.35-21.21,16.05-31.45,3.69-6.54,7.15-13.06,10.47-19.81a217.57,217.57,0,0,1,11.78-21.79,60.09,60.09,0,0,1,8.47-11.22c2.07-2,4.64-4.29,7.67-4.7,4.22-.52,7.84,2,9.81,5.58,2.82,5.07,3.48,11.29,3.78,17a163.4,163.4,0,0,1-1.05,24.43c-1.39,12.89-3.64,25.72-6.27,38.4,1.5-1,3-2.07,4.46-3.15a409.29,409.29,0,0,1,39.35-25.06c9-4.91,18.33-9.67,28.17-12.52,5.77-1.67,13.9-3.77,19.37-.21,3.74,2.39,4.25,6.94,3.76,11-.88,6.69-3.76,13.1-6.73,19.08-7,14.12-15.87,27.36-25.2,40.09a227.87,227.87,0,0,1,23.78-12.67,173.94,173.94,0,0,1,33.58-11.8c10.44-2.39,21.5-3.81,32.17-2,6.55,1.09,15.45,3.22,19.6,9,2.56,3.53,2.4,7.83.93,11.79-2.14,5.63-6.22,10.55-10.25,14.93a166.83,166.83,0,0,1-18.18,16.45c-7.35,5.88-15,11.41-22.83,16.7,3.56-.24,7.14-.33,10.68-.38a154,154,0,0,1,31.2,2.82c7.14,1.47,15.17,3.47,20.93,8.34a.56.56,0,0,1,0,.88c-12.21,10.45-27.45,16.75-42.8,21.08a272.91,272.91,0,0,1-37.08,7.56l3.35,0a209.67,209.67,0,0,1,46.21,6.26,280.28,280.28,0,0,1,36.31,12.15c11.94,4.8,23.84,10,34.79,16.85,9.44,5.81,19.08,13.06,24.07,23.24A.71.71,0,0,1,3552.52,352.47Z" transform="translate(12.09 63.91)"/><path class="cls-3" d="M2235.25,245.68c-8.87-13.92-18.78-25.4-32.13-34.17,3.62-.52,7.23-1,10.76-1.37,6.09-.6,12.88-7.41,10.24-13.64-5.37-13-18.5-20.86-33.69-25.41,13.94-6.74,27-15.69,37.24-27.13,1.84-2,3.31-6.58,1.38-9-15.74-19.82-39.93-29.09-64.7-33.77a168.88,168.88,0,0,0,34.4-34.45c1.41-1.88,3.11-5.69,1.2-7.93-14.66-16.77-41.89-17.54-62.62-18a64.27,64.27,0,0,0-8.34.4c.16-.29.38-.56.51-.81,8.45-14.25,32.57-43.87,23.86-61.63-8.85-17.93-46.56-2.32-59.4,2.18-11.33,3.92-23.89,8-35.72,13.35,1-12-3.12-21.64-17.23-24-21.38-3.65-38.19,13.31-49.84,33.55-12.37-36-34.3-81.59-58.19-50.22-9.72,12.77-8,32.58-8,47.65a71.5,71.5,0,0,0-13.34,3.35c-12.16,4.15-23.33,12.3-33.08,22.48-.53-3.42-1.11-6.75-1.62-9.87C1874.14,0,1868.34-28.65,1846.55-30c-21.43-1.29-41.57,26.5-50.82,42.43-4,6.9-12.89,24.83-14.59,39.63-14.81-8.65-31-11.15-45.27.93-22.07,18.67,1.1,49.86,22.31,71.44-.59.71-1.21,1.42-1.74,2.2-3.27-6.21-8.63-11.24-16.78-14.27-14.14-5.18-28.5-3.68-41.7,1.75,5.16-21.78,3-42.25-23.91-39.85A54.63,54.63,0,0,0,1654.82,80c-.26-28.48-7.64-55.73-31.84-44.87-16.83,7.5-30.39,24-40.35,38.91-4.55,6.8-10.19,15.8-13,25-7.37-14.44-18.55-23.64-34-17.31-16.34,6.72-19.41,21.26-21,36.81-4.73-6.17-9.14-12.55-13.37-19-4.73-7.24-16.23,1-17.59,6.92-3.42,15.07-9.94,31.87-6.35,47.34.63,2.7,1.16,7.22,2.38,11.28-26.69-1.12-54.06,3-76.89,15.37-3.25,1.75-7.82,7.38-5,11.26,9.62,13.47,20.89,28,34.33,39-6.74,3.12-13.37,6.59-20,10.17-25.89,14.09-53.9,31.19-67.65,58.2-1.45,2.84-1.29,7,1.65,8.93,17.16,11.25,38.71,15.14,59.07,17.62-8.61,7.17-15.94,15.58-20.35,26.89-1,2.71-1.63,7.3,1.71,9.1a52.13,52.13,0,0,0,21.3,5.52c-15,16.84-27,36.07-33.44,58.83-1,3.44,1.66,5.83,4.37,7.08,17,7.6,40.61-.7,59.45-4.64-2.08,4.77-4,9.76-5.71,14.81-8.41,24.14-14.71,53.11-13.85,78.81.82,27.18,27.54,25.26,47.24,18.62a78.94,78.94,0,0,0,7.73-3,84.65,84.65,0,0,0-3.54,16.11c-.34,2.89,1,6.26,4.27,6.88,13.9,2.7,24.46-3.22,36.51-7.57-11.09,14.42-21.47,29.21-25.56,47.76-.83,3.69,2.56,6.67,6.07,6.53,17.59-.61,35.89-5.74,53.22-9a202.78,202.78,0,0,0,25.87-6.92q6.33-1.92,12.5-4.32c4-1.45,7.95-3,12-4.45a221,221,0,0,0,25.71-11.47c3.27,10.9,7.94,21.57,13.1,32.58,8.59,18.51,26,27.95,43.06,12.77,13.08-11.62,20-28.24,27.43-43.67a93.53,93.53,0,0,0,17.93,18.88c20.59,16.29,49.91,25.34,76,24.36,23.85-.91,35.78-16.12,33-39-1.2-10.4-4-20.56-7.25-30.49,1.78.71,3.31,1.24,4.27,1.53,27.26,8.73,62.31,8.62,87.55-5.74,3.9-2.21,7.39-7.15,5.23-11.65-7.71-15.63-16.27-36-27.72-53.48,1.22-.09,2.35-.23,3.45-.3,18.68-1.9,45.31-8.22,58.08-23.19,13.09-15.38-11.36-32.21-23-39.58a116.65,116.65,0,0,0-17.77-8.94,74.29,74.29,0,0,0,13.55-6.85c.5-.31,1-.65,1.49-1,1.52,5.87,4.81,10.93,11.05,14,15.94,7.67,32.14-14.4,38.49-25.49a152.71,152.71,0,0,0,7.77-15.51c8.17,8.71,18.58,15.73,28.62,21.51,16.07,9.25,34.9,18.49,48.4.25,10.62-14.31,5.67-38,2.51-53.82-.31-1.35-.59-2.76-.85-4.25,16.59,4.19,36.6,9.68,52.28,3.34,22.59-9.05,13.58-34.65,7.53-51.69a73.9,73.9,0,0,0-11.08-20.86c3.54,1.35,7,2.65,10.64,3.83,33.27,11,73.67,9.06,104.29-8.52C2233.09,257.66,2238.62,250.9,2235.25,245.68Z" transform="translate(12.09 63.91)"/><path class="cls-2" d="M2162.08,162.81c-9.27,14.52-23.82,25.27-38.5,33.89-14.46,8.52-29.82,14.74-45.27,21.15a267.6,267.6,0,0,1-63.76,18.1c-1.38.23-2.8.41-4.19.59,2.43,2.28,4.88,4.54,7.17,7,4.18,4.52,8.91,10,9.69,16.44.77,6-1.87,10.39-8.09,11-5,.56-10.07-.36-15-1.14s-9.75-1.42-14.65-2.08a227.52,227.52,0,0,1-32.76-6.56c-9.43-2.7-20.13-6.26-29.43-11.7,2.39,2.75,4.88,5.38,7.41,8,6.53,6.71,13.3,13.14,19.9,19.78,6.17,6.17,12.64,12.64,17.28,20.05,2,3.18,4.34,7.43,3.09,11.32s-5.1,6.22-8.68,8c-13.79,6.5-30.45,8.91-45.59,7.6-30-2.67-54.92-21.86-78.56-38.83,2.07,5.1,5.39,9.91,8.11,14.61a256.75,256.75,0,0,1,12.29,22.86c2.88,6.26,5.92,13.46,5.6,20.49-.26,5-3,10.18-8.39,11.19-6.81,1.21-13.92-4.4-18.92-8.31a191.26,191.26,0,0,1-22.64-21.73c-3.66-4-7.15-8.15-10.68-12.26.2,8.47-.06,17-.56,25.45a321,321,0,0,1-3.68,34.12c-3,17.13-7.25,34.43-13.79,50.58-3.8,9.42-12.23,29.43-25.84,23-5.21-2.5-8.5-7.61-10.83-12.72-3.24-7.1-4.93-14.86-6.16-22.52a248.94,248.94,0,0,1-2.87-30.23c-10.36,18.29-21.3,36.17-35.29,52a257.87,257.87,0,0,1-30.61,29.15c-9.44,7.75-19.08,15.76-30,21.4-4.13,2.16-9.13,4.8-14,4.64-3.77-.12-8.78-.72-10.86-4.4-1.85-3.27-1.24-7.31-.29-10.81.59-2.12,1.35-4.19,2.07-6.25-2.71,2-5.52,4-8.21,5.91a413.48,413.48,0,0,1-35.46,22.83,202.82,202.82,0,0,1-23.73,11.87c-5.5,2.21-11.86,4.72-17.93,4.27-12.92-.9-5.86-16.8-2.19-23.38a137.59,137.59,0,0,1,9.22-14.1c-16.09,7.1-32.25,14.12-49.19,18.73-9.86,2.65-33.36,9-36.76-6.14-1.59-7.19.57-15.15,2.77-22a204.11,204.11,0,0,1,11.93-28.05c7.28-14.45,15.57-28.44,24.22-42.12-3.18.89-6.43,1.8-9.63,2.63-8.58,2.2-16.79,5.84-25.3,8.18-8.23,2.3-18.51,5.36-27,3.05-5.34-1.43-8.19-5.91-6.08-11.17,2.93-7.28,9.13-13.38,14.52-18.86,7-7.06,14.52-13.66,22.14-20.15,14.79-12.57,30-25.25,47.17-34.52-5.84,2.11-11.69,4.18-17.58,6.1-17.36,5.81-35.42,11.48-53.71,13.17-9.23.9-27.14,1.15-25.92-12.6.62-7.13,5.94-13.1,11-17.77,7.59-7.15,16.43-13.06,25.49-18.33a232.56,232.56,0,0,1,28.3-14l-3.84.82c-17.78,3.73-36.2,7.17-54.45,6.86-6.1-.12-13.14-.37-18.61-3.4-3.71-2.06-6.41-6.05-4.92-10.39,2-5.62,9.06-9.13,14-11.55a155.15,155.15,0,0,1,27-9.78,247.37,247.37,0,0,1,28.36-6.1c1.74-.3,3.59-.59,5.45-.87a96.54,96.54,0,0,1-8.32-21.74c-1.37-5.91-2.81-14.19,1.59-19.28,5-5.79,14.23-4.07,20.58-2,2.07.67,4,1.48,6.07,2.32a118.81,118.81,0,0,1-1.62-19c0-5.6.16-12.54,3.39-17.45,3-4.46,8.36-4.52,13.1-2.93,8.39,2.86,15.61,8.94,21.8,15.07a137.48,137.48,0,0,1,19.9,24.35c.07-3.46.19-6.93.39-10.38,1-18.37,3.34-37.33,9.79-54.7,2.34-6.26,5.27-12.91,10.1-17.72,3.12-3.11,8.23-6.33,12.8-4.76,5.46,1.91,8.52,8.79,10.63,13.63,3.82,8.75,6.33,18.13,8.49,27.43a389.79,389.79,0,0,1,7.55,42.78c.66-5.57,1.74-11.15,2.73-16.64,2.14-11.79,4.62-23.54,7.78-35.19a170.2,170.2,0,0,1,7.08-21.74c1.89-4.74,4.14-10.17,8.07-13.69,10.17-9.09,16.52,13.4,17.94,19.28,3.32,13.28,3.76,27.11,2.72,40.85a158.68,158.68,0,0,1,11.35-12.27c6-5.73,19.64-17.57,27.29-7.46,3.94,5.18,4.39,12.86,4.51,19.16a174.61,174.61,0,0,1-2.31,28.74A397.11,397.11,0,0,1,1688.5,251c-2.72,9.4-5.32,18.85-8.43,28.14a249.93,249.93,0,0,1,21.61-26.43c7.57-8,15.69-15.81,24.89-22,6.91-4.71,14.71-9,23.19-9.77a.54.54,0,0,1,.56.41c2.93,11.8-1,24.29-5.51,35.65a128.59,128.59,0,0,1,14.28-10.66c7.64-4.94,15.63-9.57,24.78-10.65a42.75,42.75,0,0,1,7-.24c-6.19-18.38-9.89-37.63-13.86-56.54-1.41-6.78-3.17-13.48-4.37-20.31-1.6-9-3.27-18.52-2.23-27.68.64-5.83,3-11.32,9.75-10.41,7.64,1,14.31,7.12,19.59,12.18,3.62,3.41,7.08,7,10.43,10.73-.21-11.77.33-23.6,1.12-35.29.56-7.5.9-14.87,1-22.39A219.21,219.21,0,0,1,1813.65,61a60.53,60.53,0,0,1,2.89-13.76c1-2.72,2.37-5.85,4.93-7.52,3.6-2.27,8-1.49,11.26.87,4.71,3.39,8,8.73,10.65,13.75a163.62,163.62,0,0,1,9.46,22.55c4.23,12.25,7.66,24.82,10.69,37.41.93-1.56,1.83-3.15,2.69-4.75a410,410,0,0,1,24.93-39.44c6.06-8.28,12.46-16.55,20.15-23.33,4.51-4,11-9.33,17.44-8.44,4.39.56,6.8,4.47,8.06,8.31,2,6.42,2.18,13.45,2,20.12-.33,15.77-2.7,31.52-5.72,47a228.1,228.1,0,0,1,16.12-21.59,173.55,173.55,0,0,1,25.35-25c8.43-6.61,17.83-12.6,28.25-15.52,6.39-1.81,15.35-3.67,21.55-.24,3.82,2.1,5.51,6.06,5.87,10.27.46,6-1.13,12.19-2.92,17.88a167.29,167.29,0,0,1-9.43,22.63c-4.15,8.44-8.73,16.71-13.54,24.83,3.12-1.73,6.32-3.34,9.5-4.89a153.58,153.58,0,0,1,29.42-10.75c7.09-1.72,15.21-3.32,22.49-1.37a.57.57,0,0,1,.37.81c-6.61,14.65-17.71,26.85-29.74,37.3a274.85,274.85,0,0,1-30.34,22.64l3-1.4a210.25,210.25,0,0,1,44.48-14,282.07,282.07,0,0,1,38-4.48c12.85-.74,25.83-1.1,38.66.43,11,1.23,22.82,3.68,31.67,10.76A.76.76,0,0,1,2162.08,162.81Z" transform="translate(12.09 63.91)"/><path class="cls-3" d="M1134.34,1008.51c-3-16.24-7.85-30.6-16.92-43.75,3.55.88,7.07,1.8,10.49,2.78,5.87,1.73,14.72-2,14.62-8.79-.07-14.1-9.29-26.28-21.66-36.22,15.45-1,30.9-4.38,44.71-11.12,2.46-1.19,5.55-4.86,4.67-7.85-7.12-24.29-26-42-47.24-55.63a168.77,168.77,0,0,0,44.84-19c2-1.21,5-4.1,4.09-6.89-7.28-21.06-32.21-32-51.24-40.27a64,64,0,0,0-7.88-2.76c.26-.21.56-.38.78-.56,13.19-10,46.68-28.4,45.29-48.13-1.45-19.94-42.27-19.66-55.86-20.32-12-.64-25.14-1.58-38.11-1.07,5.44-10.77,5.25-21.23-6.94-28.71-18.44-11.42-40.39-2-58.81,12.33,2.07-38-1.08-88.49-35-68.41-13.8,8.17-19.69,27.16-25.28,41.15a72.6,72.6,0,0,0-13.63-1.91c-12.82-.73-26.25,2.62-39.11,8.39.79-3.37,1.51-6.68,2.21-9.76,3.83-17,9.23-45.73-10.45-55.16-19.37-9.26-48.49,8.91-63,20.19-6.29,4.9-21.28,18.16-28.43,31.24-10.46-13.6-24.51-22-42.29-16.17-27.47,9-17.73,46.61-6.2,74.58-.82.44-1.65.86-2.44,1.39-.7-7-3.77-13.67-10.19-19.54-11.14-10.11-25-14.13-39.29-14.06,13-18.25,18.69-38-7.16-45.92a54.39,54.39,0,0,0-20-1.88c10.47-26.49,13.88-54.52-12.62-53.56-18.41.62-37.18,10.78-52,20.87-6.77,4.6-15.38,10.81-21.46,18.33-1.4-16.16-8.3-28.89-25-28.85-17.67.08-26,12.4-33.34,26.19-2.07-7.49-3.75-15.07-5.23-22.66-1.67-8.49-15.41-5.19-18.91-.2-8.83,12.67-21.19,25.78-23.69,41.47-.43,2.73-1.63,7.13-2,11.34-24.31-11.08-51.2-17.59-77-14.68-3.67.4-10,3.89-8.91,8.54,3.86,16.1,8.84,33.77,17.16,49-7.42.36-14.87,1.08-22.35,1.9-29.29,3.32-61.67,8.63-84.57,28.48-2.41,2.09-3.84,6-1.83,8.9,11.66,16.87,30.17,28.58,48.1,38.54-10.67,3.41-20.63,8.44-29,17.27-2,2.11-4.25,6.15-1.83,9.06a52,52,0,0,0,17.65,13.14c-20.27,9.94-38.56,23.27-53.11,41.93-2.24,2.8-.66,6,1.39,8.2C283.05,873.34,308.1,874.55,327,878c-3.72,3.64-7.33,7.56-10.86,11.57-16.87,19.21-33.61,43.69-42.48,67.82-9.47,25.49,16,33.76,36.77,35a76.61,76.61,0,0,0,8.3.09,83.79,83.79,0,0,0-9.33,13.59c-1.41,2.56-1.4,6.2,1.36,8,11.87,7.73,23.88,6.22,36.68,6.72-15.7,9.19-30.88,19-41.66,34.64-2.15,3.1-.13,7.14,3.18,8.32,16.52,6.06,35.41,8.19,52.71,11.66a204.33,204.33,0,0,0,26.57,3.32c4.39.41,8.78.64,13.2.7,4.26.16,8.49.24,12.76.39a222.51,222.51,0,0,0,28.15-1c-1.07,11.33-.76,23-.12,35.12,1,20.38,13.61,35.69,35.09,28,16.49-5.85,29.2-18.62,41.84-30.14a94,94,0,0,0,9.51,24.24c13,22.84,36.72,42.25,61.3,51.16,22.44,8.14,39.21-1.46,45.3-23.71a154.21,154.21,0,0,0,4.75-31c1.38,1.33,2.6,2.39,3.38,3,22,18.34,54.49,31.43,83.27,27.61,4.45-.57,9.55-3.84,9.23-8.82-1.26-17.37-1.54-39.45-5.56-60,1.17.38,2.27.67,3.31,1,18,5.27,45.08,9.43,62.54.37,17.91-9.33,1.59-34.12-6.39-45.32a116.38,116.38,0,0,0-13.1-15,74.65,74.65,0,0,0,15.14-1.25c.57-.11,1.15-.24,1.75-.38-.8,6,.34,11.94,5,17.12,11.89,13.1,35.2-1.25,45.26-9.13a153.75,153.75,0,0,0,13-11.45c4.3,11.14,11.3,21.56,18.43,30.69,11.41,14.62,25.38,30.26,44.75,18.43,15.22-9.26,19.55-33.07,22.57-48.92.22-1.36.5-2.78.82-4.25,13.78,10.12,30.26,22.73,47.18,22.76,24.33.11,25.61-27,26.42-45.07a73.93,73.93,0,0,0-2.42-23.48c2.77,2.57,5.53,5.1,8.42,7.55,26.67,22.73,64.85,36.1,99.83,31.33C1127.84,1018.79,1135.5,1014.62,1134.34,1008.51Z" transform="translate(12.09 63.91)"/><path class="cls-2" d="M1097.71,904.2c-14,10-31.57,14.46-48.41,16.92-16.61,2.45-33.17,2.44-49.9,2.57a268,268,0,0,1-65.89-7.22c-1.37-.3-2.74-.67-4.1-1,1.39,3,2.81,6,4,9.18,2.19,5.75,4.49,12.64,2.8,18.87-1.54,5.85-5.64,8.93-11.64,7.18-4.8-1.35-9.19-4.12-13.43-6.69s-8.5-5-12.8-7.43a228,228,0,0,1-27.88-18.4c-7.72-6-16.3-13.38-22.87-21.92,1.18,3.45,2.5,6.82,3.86,10.19,3.54,8.67,7.39,17.17,11,25.81,3.4,8,7,16.46,8.47,25.08.63,3.68,1.23,8.51-1.39,11.64s-7.07,3.85-11,4.11c-15.23.83-31.57-3.2-45.11-10.11-26.76-13.75-42.66-40.92-58.18-65.53,0,5.5,1.26,11.21,2,16.59a252.63,252.63,0,0,1,2.79,25.8c.32,6.89.43,14.7-2.51,21.09-2.11,4.5-6.62,8.3-12,7.21-6.76-1.44-11.24-9.31-14.4-14.81a192.09,192.09,0,0,1-12.81-28.66c-1.87-5.09-3.56-10.23-5.28-15.37-3,7.92-6.43,15.7-10.09,23.37a318.41,318.41,0,0,1-16.25,30.23c-9.26,14.72-19.67,29.18-31.8,41.67-7.06,7.31-22.4,22.68-32.59,11.59-3.88-4.27-5-10.24-5.25-15.85-.34-7.79,1-15.62,2.76-23.18a248.23,248.23,0,0,1,8.72-29.1c-16.48,13-33.35,25.5-52.27,34.91a256.29,256.29,0,0,1-39.32,15.49c-11.66,3.64-23.61,7.43-35.81,8.57-4.63.44-10.26,1-14.66-1-3.45-1.53-7.87-4-8.41-8.16-.48-3.73,1.6-7.24,3.8-10.13,1.34-1.74,2.82-3.38,4.27-5-3.27.83-6.61,1.61-9.83,2.39a418.76,418.76,0,0,1-41.44,7.82A206.36,206.36,0,0,1,408.4,995c-5.94,0-12.77-.09-18.23-2.79-11.63-5.69.89-17.76,6.77-22.48a136.44,136.44,0,0,1,13.85-9.6c-17.58.53-35.2,1-52.62-1.15-10.14-1.25-34.29-4.24-31.76-19.51,1.23-7.27,6.22-13.83,10.85-19.36a203.11,203.11,0,0,1,21.61-21.5C371,887.94,384,878.1,397.15,868.68c-3.28-.37-6.63-.76-9.91-1.18-8.78-1.19-17.75-.91-26.52-2-8.49-1-19.17-2-26.19-7.34-4.41-3.33-5.37-8.55-1.43-12.64,5.45-5.64,13.49-9,20.54-12,9.17-3.9,18.59-7.19,28.1-10.34C400.17,817.13,419,811.1,438.43,809c-6.2-.25-12.41-.52-18.59-1-18.27-1.15-37.13-2.69-54.71-8-8.89-2.64-25.58-9.15-19.28-21.43,3.25-6.37,10.44-9.9,16.87-12.33,9.72-3.76,20.14-5.92,30.51-7.39a231.4,231.4,0,0,1,31.49-2.33c-1.35-.24-2.56-.47-3.86-.69-17.88-3.23-36.24-7-53-14.13-5.6-2.41-12-5.29-16-10.16-2.66-3.29-3.66-8-.64-11.46,3.93-4.47,11.82-5.06,17.3-5.45a155,155,0,0,1,28.72,1.11,249.35,249.35,0,0,1,28.56,5c1.73.38,3.55.8,5.38,1.25a96.83,96.83,0,0,1,.47-23.28c1-6,2.74-14.2,8.73-17.27,6.84-3.47,14.72,1.59,19.82,5.89,1.67,1.4,3.19,2.88,4.75,4.43a118.78,118.78,0,0,1,5.65-18.24c2.12-5.18,4.87-11.55,9.71-14.88,4.44-3,9.45-1,13.24,2.21,6.7,5.8,11.1,14.16,14.54,22.16a137.81,137.81,0,0,1,9.27,30.05c1.36-3.18,2.78-6.35,4.26-9.48,7.86-16.63,17.15-33.33,29.65-47,4.52-4.92,9.74-10,16-12.62,4.06-1.71,10-2.77,13.64.41,4.34,3.82,4.6,11.35,4.74,16.62.24,9.54-1,19.18-2.46,28.61a390.24,390.24,0,0,1-9.1,42.48c2.71-4.92,5.81-9.67,8.79-14.39,6.41-10.12,13.13-20.08,20.44-29.68a171.34,171.34,0,0,1,14.74-17.49c3.54-3.67,7.66-7.86,12.64-9.64,12.83-4.59,10.26,18.63,9.36,24.61-1.92,13.56-6.72,26.54-12.84,38.87a159.9,159.9,0,0,1,15.12-7.09c7.76-3,24.82-8.9,28.1,3.35,1.7,6.28-.77,13.56-3,19.45a175.83,175.83,0,0,1-13,25.76,398.83,398.83,0,0,1-28.74,41.88c-6,7.69-12,15.47-18.39,22.9a250.83,250.83,0,0,1,30-16.35c10-4.6,20.48-8.75,31.33-11,8.17-1.76,17-2.77,25.16-.32a.54.54,0,0,1,.37.59c-1.72,12-10.1,22.11-18.52,31A129.79,129.79,0,0,1,692.9,830c8.94-1.71,18.09-3,27-.54a42.61,42.61,0,0,1,6.53,2.38c1.18-19.35,5-38.58,8.43-57.6,1.24-6.81,2.13-13.68,3.58-20.45,1.91-9,4-18.4,8.36-26.49,2.78-5.16,7-9.38,12.94-6,6.7,3.81,10.58,12,13.57,18.66,2.07,4.52,3.92,9.18,5.63,13.86,4.23-11,9.19-21.74,14.32-32.28,3.33-6.73,6.42-13.43,9.37-20.35a218.17,218.17,0,0,1,10.58-22.4A59.57,59.57,0,0,1,821,667.15c2-2.15,4.4-4.54,7.4-5.11,4.18-.75,7.94,1.61,10.1,5,3.09,4.91,4.09,11.09,4.7,16.75a163.71,163.71,0,0,1,.28,24.46c-.69,12.94-2.24,25.87-4.17,38.68,1.45-1.1,2.88-2.24,4.28-3.39a409.94,409.94,0,0,1,37.93-27.17c8.73-5.39,17.78-10.65,27.45-14,5.67-2,13.67-4.51,19.33-1.26,3.86,2.18,4.62,6.7,4.35,10.73-.52,6.72-3,13.29-5.68,19.42-6.24,14.49-14.36,28.19-23,41.4a226,226,0,0,1,23.06-13.94A173.53,173.53,0,0,1,960,745.09c10.29-3,21.26-5,32-3.75,6.6.73,15.59,2.37,20.06,7.88,2.74,3.39,2.81,7.69,1.56,11.73-1.83,5.74-5.63,10.87-9.42,15.47a167.85,167.85,0,0,1-17.26,17.41c-7,6.27-14.37,12.21-21.88,17.92,3.54-.43,7.11-.72,10.64-1a153,153,0,0,1,31.3,1.11c7.22,1.08,15.35,2.64,21.36,7.19a.56.56,0,0,1,0,.88c-11.63,11.1-26.5,18.22-41.59,23.38a276.1,276.1,0,0,1-36.62,9.57c1.11-.06,2.22-.11,3.35-.15a209.66,209.66,0,0,1,46.49,3.72,281.83,281.83,0,0,1,36.92,10.17c12.18,4.14,24.35,8.69,35.65,14.93,9.74,5.28,19.77,12,25.3,21.89A.72.72,0,0,1,1097.71,904.2Z" transform="translate(12.09 63.91)"/></g><path class="cls-9" d="M279.64,2528.53l-16.87-13.75a9.6,9.6,0,0,0,1-11.19l8.73-7,9.14-7.54a1.34,1.34,0,0,0,.19-1.9l-.06-.07-1.15-1.23a35.09,35.09,0,0,0-23-11.11l.26-4.67a2.64,2.64,0,0,0,0-.93,2.57,2.57,0,0,0-.43-.86,2.27,2.27,0,0,0-2.61-.68,2.51,2.51,0,0,0-.8.52,2.06,2.06,0,0,0-.52.78,1.64,1.64,0,0,0-.12.93l-.27,4.81a34.27,34.27,0,0,0-6.29.88l.33-6a2.7,2.7,0,0,0,0-.94,2.26,2.26,0,0,0-.42-.85,2,2,0,0,0-.76-.59,2.22,2.22,0,0,0-.91-.26,2.18,2.18,0,0,0-.94.17,2.64,2.64,0,0,0-.81.51,2.22,2.22,0,0,0-.5.78,1.64,1.64,0,0,0-.12.93l-.48,7.65a34.21,34.21,0,0,0-17.43,14.57,33.06,33.06,0,0,0-4.24,22,33.72,33.72,0,0,0,10.86,19.78,35.26,35.26,0,0,0,21.16,8.86l25.45,1.33a1.41,1.41,0,0,0,1.49-1.31l.6-12.5A1.44,1.44,0,0,0,279.64,2528.53Zm-26.24,7.65a29.11,29.11,0,0,1-17-6.61,27.8,27.8,0,0,1-9.39-15.34,27.18,27.18,0,0,1,2.1-17.7,28.15,28.15,0,0,1,12.74-12.78l-.47,9.1a2.7,2.7,0,0,0,0,.94,2.57,2.57,0,0,0,.43.86,2.44,2.44,0,0,0,1.67.84,2.17,2.17,0,0,0,.94-.16,2.51,2.51,0,0,0,.8-.52,2.06,2.06,0,0,0,.52-.78,1.64,1.64,0,0,0,.12-.93l.57-11.18a29.16,29.16,0,0,1,9.87-1.16,28.7,28.7,0,0,1,16.75,6.4.68.68,0,0,1,.11,1l-.09.1-13.87,11.23a10.28,10.28,0,0,0-3.81-.95,10.7,10.7,0,0,0-4.31.66,10.08,10.08,0,0,0-5.89,6,9.59,9.59,0,0,0-.53,4.21,10.1,10.1,0,0,0,1.31,4.06,10.49,10.49,0,0,0,2.91,3.17,10.74,10.74,0,0,0,4,1.69,10.18,10.18,0,0,0,4.36-.11l16.41,13.39a.72.72,0,0,1,.25.57l-.24,4.43a.71.71,0,0,1-.75.66Zm5.5-27.49a4.11,4.11,0,0,1-.78,2.15,4.15,4.15,0,0,1-1.89,1.36,3.75,3.75,0,0,1-2.32.1,4.4,4.4,0,0,1-2-1.17,3.79,3.79,0,0,1-.65-4.3,4.05,4.05,0,0,1,1.58-1.7,4.37,4.37,0,0,1,2.27-.56,4,4,0,0,1,2.8,1.31,3.79,3.79,0,0,1,1,2.79Z" transform="translate(12.09 63.91)"/><path class="cls-10" d="M273.39,2496.18a30,30,0,0,1-1.24,25.63l3.73,4.44a39.41,39.41,0,0,0,1.38-34.71l-2.4,2.78Z" transform="translate(12.09 63.91)"/><path class="cls-9" d="M4914.64,2829.53l-16.87-13.75a9.6,9.6,0,0,0,1-11.19l8.73-7,9.14-7.54a1.34,1.34,0,0,0,.19-1.9l-.06-.07-1.15-1.23a35.09,35.09,0,0,0-23-11.11l.26-4.67a2.64,2.64,0,0,0,0-.93,2.57,2.57,0,0,0-.43-.86,2.27,2.27,0,0,0-2.61-.68,2.51,2.51,0,0,0-.8.52,2.06,2.06,0,0,0-.52.78,1.64,1.64,0,0,0-.12.93l-.27,4.81a34.27,34.27,0,0,0-6.29.88l.33-6a2.7,2.7,0,0,0,0-.94,2.26,2.26,0,0,0-.42-.85,2,2,0,0,0-.76-.59,2.22,2.22,0,0,0-.91-.26,2.18,2.18,0,0,0-.94.17,2.64,2.64,0,0,0-.81.51,2.22,2.22,0,0,0-.5.78,1.64,1.64,0,0,0-.12.93l-.48,7.65a34.21,34.21,0,0,0-17.43,14.57,33.06,33.06,0,0,0-4.24,22,33.72,33.72,0,0,0,10.86,19.78,35.26,35.26,0,0,0,21.16,8.86l25.45,1.33a1.41,1.41,0,0,0,1.49-1.31l.6-12.5A1.44,1.44,0,0,0,4914.64,2829.53Zm-26.24,7.65a29.11,29.11,0,0,1-17-6.61,27.8,27.8,0,0,1-9.39-15.34,27.18,27.18,0,0,1,2.1-17.7,28.15,28.15,0,0,1,12.74-12.78l-.47,9.1a2.7,2.7,0,0,0,0,.94,2.57,2.57,0,0,0,.43.86,2.44,2.44,0,0,0,1.67.84,2.17,2.17,0,0,0,.94-.16,2.51,2.51,0,0,0,.8-.52,2.06,2.06,0,0,0,.52-.78,1.64,1.64,0,0,0,.12-.93l.57-11.18a29.16,29.16,0,0,1,9.87-1.16,28.7,28.7,0,0,1,16.75,6.4.68.68,0,0,1,.11,1l-.09.1-13.87,11.23a10.28,10.28,0,0,0-3.81-.95,10.7,10.7,0,0,0-4.31.66,10.08,10.08,0,0,0-5.89,6,9.59,9.59,0,0,0-.53,4.21,10.1,10.1,0,0,0,1.31,4.06,10.49,10.49,0,0,0,2.91,3.17,10.74,10.74,0,0,0,4,1.69,10.18,10.18,0,0,0,4.36-.11l16.41,13.39a.72.72,0,0,1,.25.57l-.24,4.43a.71.71,0,0,1-.75.66Zm5.5-27.49a4.11,4.11,0,0,1-.78,2.15,4.15,4.15,0,0,1-1.89,1.36,3.75,3.75,0,0,1-2.32.1,4.4,4.4,0,0,1-2-1.17,3.79,3.79,0,0,1-.65-4.3,4.05,4.05,0,0,1,1.58-1.7,4.37,4.37,0,0,1,2.27-.56,4,4,0,0,1,2.8,1.31,3.79,3.79,0,0,1,1,2.79Z" transform="translate(12.09 63.91)"/><path class="cls-10" d="M4907.39,2797.18a30,30,0,0,1-1.24,25.63l3.73,4.44a39.41,39.41,0,0,0,1.38-34.71l-2.4,2.78Z" transform="translate(12.09 63.91)"/><path class="cls-9" d="M2051.52,2823.71l-30.7-25a17.49,17.49,0,0,0,1.89-20.37l15.88-12.65,16.64-13.72a2.47,2.47,0,0,0,.34-3.47l-.11-.12-2.09-2.25a63.89,63.89,0,0,0-41.82-20.2l.47-8.5a4.86,4.86,0,0,0,0-1.7,4.62,4.62,0,0,0-.76-1.56,4.11,4.11,0,0,0-1.38-1.07,3.73,3.73,0,0,0-1.67-.46,3.83,3.83,0,0,0-1.7.3,4.3,4.3,0,0,0-1.47.94,3.65,3.65,0,0,0-.94,1.41,3.09,3.09,0,0,0-.22,1.7l-.49,8.75a63.16,63.16,0,0,0-11.44,1.6l.59-10.9a4.85,4.85,0,0,0,0-1.7,4.3,4.3,0,0,0-.77-1.56,3.87,3.87,0,0,0-1.37-1.07,3.91,3.91,0,0,0-1.67-.47,4.13,4.13,0,0,0-1.7.3,4.78,4.78,0,0,0-1.48.94,4,4,0,0,0-.91,1.41,3.09,3.09,0,0,0-.22,1.7l-.86,13.91a62.37,62.37,0,0,0-31.73,26.52,60.17,60.17,0,0,0-7.71,40,61.28,61.28,0,0,0,19.76,36,64.13,64.13,0,0,0,38.5,16.13l46.31,2.42a2.57,2.57,0,0,0,2.71-2.4l1.1-22.74A2.66,2.66,0,0,0,2051.52,2823.71Zm-47.75,13.93a53.08,53.08,0,0,1-31-12,50.67,50.67,0,0,1-17.09-27.92,49.5,49.5,0,0,1,3.82-32.2,51.25,51.25,0,0,1,23.2-23.27l-.87,16.57a5.16,5.16,0,0,0,.05,1.71,4.34,4.34,0,0,0,.77,1.55,4.45,4.45,0,0,0,3,1.54,3.87,3.87,0,0,0,1.71-.3,4.36,4.36,0,0,0,1.46-.94,3.65,3.65,0,0,0,.94-1.41,3,3,0,0,0,.23-1.7l1-20.35a53.7,53.7,0,0,1,18-2.1,52.24,52.24,0,0,1,30.48,11.64,1.26,1.26,0,0,1,.19,1.76,1.29,1.29,0,0,1-.17.16l-25.23,20.44a19.16,19.16,0,0,0-6.93-1.72,19.61,19.61,0,0,0-7.85,1.2,18.31,18.31,0,0,0-10.71,10.85,17.08,17.08,0,0,0-1,7.66,18.25,18.25,0,0,0,2.37,7.38,18.86,18.86,0,0,0,5.3,5.77,19.34,19.34,0,0,0,7.32,3.07,18.4,18.4,0,0,0,7.92-.19l29.87,24.37a1.34,1.34,0,0,1,.47,1l-.46,8.06a1.29,1.29,0,0,1-1.36,1.2Zm10-50a7.39,7.39,0,0,1-1.42,3.91,7.56,7.56,0,0,1-3.43,2.49,7,7,0,0,1-4.23.17,7.91,7.91,0,0,1-3.66-2.13,6.87,6.87,0,0,1-1.18-7.82,7.31,7.31,0,0,1,2.87-3.09,7.87,7.87,0,0,1,4.13-1,7.23,7.23,0,0,1,5.11,2.38,6.93,6.93,0,0,1,1.8,5.08Z" transform="translate(12.09 63.91)"/><path class="cls-10" d="M2040.15,2764.85a54.55,54.55,0,0,1-2.25,46.64l6.78,8.08a71.7,71.7,0,0,0,2.52-63.16l-4.37,5.06Z" transform="translate(12.09 63.91)"/><path class="cls-3" d="M3424.76,3753.58c14.73-9.76,33.34-11,51-11.75a2970.3,2970.3,0,0,1,576.88,31.31" transform="translate(12.09 63.91)"/><path class="cls-3" d="M4013,3718.13a1216.29,1216.29,0,0,1,239.54,25.15" transform="translate(12.09 63.91)"/><path class="cls-3" d="M348.75,3927.84c69.53-3.41,139.25,37.85,169.71,100.45" transform="translate(12.09 63.91)"/><path class="cls-3" d="M210.07,3937.11q85.1,67,165.77,139.45c20.07,18,40.68,37.4,49.24,63,14.84,44.29-8.58,100.31,21.81,135.77" transform="translate(12.09 63.91)"/><path class="cls-3" d="M2157,4005h104" transform="translate(12.09 63.91)"/><path class="cls-3" d="M1901,4117h32" transform="translate(12.09 63.91)"/><path class="cls-3" d="M1493,3901h8" transform="translate(12.09 63.91)"/><path class="cls-3" d="M3309.19,4014.28l55.93-8.49" transform="translate(12.09 63.91)"/><path class="cls-3" d="M4437,3813h88" transform="translate(12.09 63.91)"/></g></g></svg>