<svg xmlns="http://www.w3.org/2000/svg" viewBox="0 0 4907.59 4910.51"><defs><style>.cls-1,.cls-37,.cls-41,.cls-45{isolation:isolate;}.cls-10,.cls-11,.cls-12,.cls-13,.cls-14,.cls-15,.cls-17,.cls-18,.cls-19,.cls-2,.cls-20,.cls-21,.cls-22,.cls-23,.cls-24,.cls-25,.cls-27,.cls-28,.cls-29,.cls-3,.cls-30,.cls-31,.cls-32,.cls-33,.cls-34,.cls-35,.cls-37,.cls-38,.cls-39,.cls-4,.cls-40,.cls-41,.cls-42,.cls-43,.cls-44,.cls-45,.cls-46,.cls-47,.cls-5,.cls-6,.cls-8,.cls-9{fill:none;}.cls-17,.cls-2,.cls-21,.cls-27,.cls-30,.cls-33,.cls-34,.cls-35,.cls-37,.cls-42,.cls-43,.cls-44,.cls-5,.cls-6{stroke:#11bc92;}.cls-12,.cls-13,.cls-15,.cls-16,.cls-17,.cls-18,.cls-19,.cls-2,.cls-22,.cls-23,.cls-25,.cls-26,.cls-27,.cls-28,.cls-29,.cls-3,.cls-37,.cls-38,.cls-39,.cls-4,.cls-40,.cls-41,.cls-42,.cls-43,.cls-44,.cls-45,.cls-46,.cls-47,.cls-6,.cls-7,.cls-8,.cls-9{stroke-miterlimit:10;}.cls-10,.cls-11,.cls-2,.cls-3,.cls-32,.cls-34,.cls-35,.cls-37,.cls-4,.cls-41,.cls-5,.cls-6,.cls-7,.cls-8,.cls-9{stroke-width:16px;}.cls-10,.cls-12,.cls-14,.cls-15,.cls-23,.cls-29,.cls-3,.cls-31,.cls-32,.cls-45{stroke:#5932c4;}.cls-11,.cls-13,.cls-19,.cls-20,.cls-22,.cls-24,.cls-25,.cls-38,.cls-39,.cls-4,.cls-40,.cls-41,.cls-46,.cls-47,.cls-9{stroke:#f3587d;}.cls-10,.cls-11,.cls-14,.cls-15,.cls-19,.cls-20,.cls-21,.cls-24,.cls-25,.cls-29,.cls-30,.cls-31,.cls-35,.cls-5,.cls-6,.cls-9{stroke-linecap:round;}.cls-10,.cls-11,.cls-14,.cls-20,.cls-21,.cls-24,.cls-30,.cls-31,.cls-32,.cls-33,.cls-34,.cls-5{stroke-linejoin:round;}.cls-16,.cls-26,.cls-7{fill:#fff;}.cls-16,.cls-18,.cls-26,.cls-28,.cls-7,.cls-8{stroke:#000;}.cls-12,.cls-13,.cls-14,.cls-15,.cls-16,.cls-17,.cls-18,.cls-19,.cls-20,.cls-21,.cls-45,.cls-46,.cls-47{stroke-width:8px;}.cls-22,.cls-23,.cls-24,.cls-25,.cls-26,.cls-27,.cls-28,.cls-29,.cls-30,.cls-31{stroke-width:5px;}.cls-33,.cls-38,.cls-39,.cls-40,.cls-42,.cls-43,.cls-44{stroke-width:14px;}.cls-35{stroke-linejoin:bevel;}.cls-36{opacity:0.7;}.cls-39,.cls-43,.cls-46{opacity:0.8;}.cls-40,.cls-44,.cls-47{opacity:0.6;mix-blend-mode:overlay;}</style></defs><title>solarpunk 4</title><g class="cls-1"><g id="Layer_1" data-name="Layer 1"><path class="cls-2" d="M4102.25,1446.46c-54.19,59.22-56.05,90.35-49.11,107.57,20.73,51.45,144.48,39.73,479.38,42.09,80.44.57,145.76,1.76,186.35,2.61" transform="translate(-47.27 -62.16)"/><path class="cls-2" d="M4862.84,1598.73c-52,79.8-223.22,363.81-172.47,741,33,245.08,144.64,418,207.68,501.83-140.48,96.28-338.54,262.27-488.3,522.42-84,145.91-183.31,318.42-168.36,540.18,6.78,100.68,37,209.68,29.23,211.63-8.92,2.24-29.25-146.46-113.42-267.75-94.86-136.7-244.74-201-369.94-234.11-82-23-184.35-39.79-300-29-111.73,10.45-191.32,42.46-199.93,45.6" transform="translate(-47.27 -62.16)"/><path class="cls-2" d="M3280.55,2325.88c-42.48-141.92-92.61-159.8-113.69-162.68-34.27-4.69-48.91,22.43-177.13,91.78-60.85,32.91-66.3,31.54-93.54,51.45-33.41,24.42-54.89,48.18-110.49,117.51-75.62,94.27-100.35,130.69-101.73,129.78s57.33-182.63,224.5-305.17c84.83-62.19,181.26-97.17,175.38-147.32-2.12-18.12-17.91-40.9-38.58-49.11-31.26-12.41-62.19,13.05-69,3.51-6-8.45,10.68-39.05,37.42-49.11,21.21-8,36.75,1.49,70.15,9.36,44.26,10.42,82.07,19.32,108.74,4.67,34.89-19.16,17.48-64.84,63.14-136.8,8.68-13.69,25.05-38.16,52.61-70.15,59.2-68.69,152.93-152.13,228-199.94,155.76-99.19,393.4-148.31,530.54-168.16,65.14-9.44,107.61-12.27,107.86-10.73.47,2.88-148.5,11.21-354.28,91.2-118.92,46.22-201.4,94.84-245.53,122.77-141.94,89.81-210.49,170.16-249,224.49-11.38,16-74.15,104.49-56.12,122.77,13.45,13.64,64-19.88,119.26-50.28,67.38-37,161.06-68,348.43-129.78,31.37-10.35,154.31-50.56,307.51-90,335.72-86.51,652.84-127.27,773.83-138,33-2.92,51.46-3.6,51.64-2.35.68,4.69-257.58,33.57-666.46,128.62-83.94,19.51-314.72,74.46-597.48,187.07-185.9,74-348.15,139.8-340.24,192.92,7.86,52.81,176.67,44.68,459.51,98.22,170,32.17,460,87.07,726.09,242,310.22,180.65,458.5,421.94,458.33,422.09s-176.13-232.62-516.79-415.07c-19.8-10.61-56.73-29.92-105.65-52.18-90.58-41.21-188.8-77.3-691.77-181.67-100.94-21-208.77-13.74-305.17-50.28-15.26-5.78-50.25-19.82-62.18-6.66-18.93,20.89,32.93,96.25,54,127.09C3388.67,2433,3481,2597.34,3585.45,2753.66c145,216.93,174.25,283.66,195.26,350.77,31.49,100.56,39.55,186.39,40.92,245.54,3.61,155.48-35.4,281.68-43.26,280.61-7-.95,13.49-101.94,0-266.58-3.67-44.8-9.21-109.21-28.06-182.4-27.88-108.24-70.62-180.28-119.26-263.08C3538.34,2760.72,3439,2606.7,3347.93,2448" transform="translate(-47.27 -62.16)"/><path class="cls-3" d="M3316.6,2392.54q-13.65-24.54-27-49.28-4.71-8.78-9.08-17.38" transform="translate(-47.27 -62.16)"/><path class="cls-2" d="M1880.13,4039.23c-118.94-77.24-351.18-204.89-670-237.36-225.62-23-412.56,10.08-534.34,42.1" transform="translate(-47.27 -62.16)"/><path class="cls-2" d="M624.38,2816.21c26.38,3,38.42,12.38,44.43,21.05,27.35,39.43-23.37,132.13-123,235.78" transform="translate(-47.27 -62.16)"/><path class="cls-4" d="M1962,3486.18A804.6,804.6,0,0,1,1553.91,3423c-7.2,22.19-17.11,29.79-24.55,32.74-15.35,6.09-30.92-3.62-38.58,5.85-3.38,4.16-4.43,10.59-2.34,15.2,2.41,5.32,8.48,7,16.37,9.35,7.59,2.22,19.18,5.65,35.07,10.52a29.79,29.79,0,0,0-17.54-1.17c-12.39,3.18-22.15,15.28-19.87,19.88,1.71,3.46,9.44,1.07,23.38,1.17a147.88,147.88,0,0,1,42,7.7c20.47,7,21.14,15.81,45.74,32,13.94,9.2,28,14.71,56.13,25.73,8.59,3.36,31.21,12,63.14,21a818.3,818.3,0,0,0,83,18.71c37.43,6.68,48.33,6.38,84.19,14,18.59,4,33.62,7.89,43.26,10.53" transform="translate(-47.27 -62.16)"/><path class="cls-2" d="M89.73,3556.28c295.92-119.8,544.29-91.69,610.65,25.78,12.92,22.87,34.19,76.14,1.14,175.84" transform="translate(-47.27 -62.16)"/><path class="cls-5" d="M1442.42,3466.57c-118.2-185.74-206.13-368.86-182-472.63,2.68-11.52,16-61.91.76-70.39-34.32-19.06-184.18,190.23-214.73,232.91C792.58,3511.05,672.47,3845,670,3844c-1.92-.82,67.82-198,199.94-446.65,0,0,79.78-150.17,281.78-423.26,19.48-26.34,37.28-48.44,65.48-70.15,44.34-34.16,85-44.7,82.72-53-2.63-9.74-60.81-1.87-68.69-.81-51.44,7-88.32,20.84-88.86,21.05-92,34.62-127.51,28.27-278.28,84.18-74.1,27.48-187.9,70.33-322.71,152-35.94,21.77-93.55,56.93-156.67,107.57-207,166-307.5,365.61-308.68,364.8-.78-.53,47.54-83,135.63-194.09,52.08-65.68,107.51-135.57,181.23-202.28,0,0,71-64.28,195.22-135.5,94.84-54.4,220.67-112.84,369.52-149.79,55.5-13.78,110.68-28.86,166-43.26,0,0,23.37-6.08,109.91-31.57,63-18.56,66.65-20.43,66.65-22.88,0-18.29-201.55-55-417.42-34.41-94,9-177.55,27.53-244.89,46.77-108.46,31-175,63.7-176,60.8-1.47-4,124.77-72.93,302.83-112.25,314.06-69.36,557.74,4.39,579.36,14,1.59.71,8.47,7,16.46,5.63,11-1.86,15.58-16.06,22.71-27.85,7.25-12,19.74-21,44.43-38.58,37.51-26.69,112.17-74.19,115.75-69,2.9,4.22-42.36,41.19-80.68,72.49-49.8,40.68-80.52,61.71-76.86,68.71,2.79,5.32,23.66-1.26,28.93-2.07,43-6.58,184.32,5,230.33,10.53,140.14,16.9,240.81,80,239.7,83s-114.27-45.17-260.74-62c-32-3.66-8.21.75-106.4-4.67-64.66-3.57-110.75-7.46-122.77,14.61-4.94,9.06-.33,15.54-7.78,27-10.79,16.67-30.18,18.06-43.08,23.82-32.93,14.7-40.85,65.58-45,92.37-25.21,162,109.06,393,151.47,464.19,4.17,7,7.64,12.69,9.89,16.37" transform="translate(-47.27 -62.16)"/><path class="cls-6" d="M1512.32,3530c256.65,377,398.39,529.26,393.53,533.75-6.16,5.68-227.06-244.68-409.76-513.87" transform="translate(-47.27 -62.16)"/><path class="cls-2" d="M3244.62,4515.1c-283.18-112.58-494.54-207.34-640.74-275.94-139.35-65.38-298.3-144-528.49-168.36a1320.14,1320.14,0,0,0-168.37-7" transform="translate(-47.27 -62.16)"/><path class="cls-2" d="M2861.11,4108.21a520.32,520.32,0,0,0,59.63,160.18c64.36,111.76,154.72,171.17,201.43,197.34" transform="translate(-47.27 -62.16)"/><path class="cls-6" d="M2477.6,3479.17A3048.48,3048.48,0,0,1,1972.5,3402c-356.8-85.84-469.63-174.84-514.46-215.14-73.65-66.2-120.78-135.74-149.66-185.91" transform="translate(-47.27 -62.16)"/><path class="cls-7" d="M4294,4174.27" transform="translate(-47.27 -62.16)"/><path class="cls-3" d="M2547.17,3850.4c-42.56-31.37-43.35-44.79-70.15-65.48-42.46-32.79-73.28-24.42-294.65-39.75,0,0-24.54-1.71-123.93-15.2-76.41-10.38-92.71-14.48-105.23-29.24-14.49-17.07-11.42-54.48-4.68-128.61,7.68-84.5,16.06-98.65,28.06-105.23,16.42-9,34.29-.93,65.48,9.35,0,0,45.55,15,140.3,32.74,33.27,6.22,97.12,2.16,226.83-14,13.35-1.67,32.15-4.27,57.88-2.92,31.43,1.64,33.55,7.11,49.11,4.67,38.44-6,49.17-43.08,68.4-39.17,22.09,4.51,14.25,55.19,37.41,65.48,33.11,14.71,110.77-51.59,156.68-133.29,47.74-84.95,54.13-174.07,105.23-187.08,7.79-2,24.78-4.27,44.43-16.37,4-2.48,23.45-14.77,39.76-39.75,44.73-68.52,23.07-166.56,60.8-184.74,25.42-12.25,44,28.06,105.23,35.08,72,8.25,114.48-39.7,132.12-22.22,15.94,15.81-18.16,55.63-40.92,157.85-13,58.24-4.15,55.4-16.37,93.54-25.62,79.91-66.21,98.14-58.46,141.47a45.29,45.29,0,0,0,4.23,13.11c15,29.12,34.77,48.24,48.38,57" transform="translate(-47.27 -62.16)"/><path class="cls-4" d="M3344.15,4606q-9.78-10.35-20.61-21.29c-153-154.47-192.69-121.12-247.87-224.49-32.36-60.62-56.57-143-128.16-197.11-14.41-10.89-35.84-23.31-70.61-50.77-29.17-23-47.26-40.1-94.13-84.77-118.19-112.64-118.4-113.93-130.37-119.84-24.84-12.27-67.43-29.45-105.23-57.29" transform="translate(-47.27 -62.16)"/><path class="cls-3" d="M3764.34,3911.2c29,33.92,14.58,47.6,49.11,94.7,8.69,11.86,33.24,43.23,143.81,108.74,67.06,39.73,100.59,59.59,125.11,66.65,108.47,31.21,156-25.31,211.63,10.52,71.27,45.91,77.41,193,31.57,224.49-26.19,18-58.91-8.85-112.25,17.54-25.68,12.71-28.56,24.13-52.61,31.57-40.1,12.41-78.14-5.07-91.2-10.52-2.81-1.18-7.24-3-13-5.4-187.25-76.34-327.21-47.22-327.21-47.22-11.33,2.87-60.08,15.21-60.21,32.16-.08,10,16.93,12.75,32.35,25.37,45.81,37.51,9.18,106.42,47.74,152.93,30.14,36.36,68.61,13,93.54,46.77,32.14,43.59,11,134-42.09,177.72-76.77,63.25-200.14,12.05-229.17,0-101.74-42.22-104.86-101.8-227.27-231.26" transform="translate(-47.27 -62.16)"/><line class="cls-6" x1="4121.07" y1="4543.8" x2="4535.05" y2="4687.17"/><line class="cls-6" x1="4027.5" y1="4609.62" x2="4178.09" y2="4846.06"/><line class="cls-6" x1="3872.54" y1="4876.02" x2="3884.85" y2="4770.97"/><line class="cls-6" x1="4169.71" y1="4494.44" x2="4566.51" y2="4484.51"/><path class="cls-4" d="M1518.84,3398.49a79.79,79.79,0,0,0-14,21.05c-8.27,18.17-6.19,32.38-11.7,33.9-2.76.77-7.76-1.56-17.53-17.54-.06-2.28-.18-17,11.69-28.06C1500.34,3395.65,1516.92,3398.16,1518.84,3398.49Z" transform="translate(-47.27 -62.16)"/><path class="cls-4" d="M3049.36,2944.83C3047,2842,3066,2773.07,3084.43,2728.52c8.82-21.32,17.05-36,23.39-64.31,10.34-46.26,3.2-73.42,9.35-147.32,1.59-19,3.49-34.32,4.68-43.26l-35.08-44.43c12.84-26.93,14.75-48.36,14-63.14-.9-18.54-6.38-35.51,3.51-50.28,5.1-7.61,12.36-11.75,17.54-14a44.74,44.74,0,0,1,25.72-10.52c17.19-1.13,29,8.38,31.57,10.52,1-.84,9.63-8.27,21.05-5.84,9.39,2,16.83,9.86,18.71,19.87a21.44,21.44,0,0,1,25.72,28.06,37.3,37.3,0,0,1,18.71,11.7,36.38,36.38,0,0,1,7,12.86q-12.86,45.6-25.72,91.2a1392.58,1392.58,0,0,0,0,199.55c1.33,19,2.39,28.89,3.51,42.48,4.49,54.84,7,135.52-3.51,243.2" transform="translate(-47.27 -62.16)"/><path class="cls-2" d="M4420.86,4868.21,3796.49,4466l-81.84-43.26-13.77-11.94,78.11-13.55,239.89,158.86,418.35,277c13.48,8.83,15,25.29,8.19,32.74C4440.36,4871.37,4430.14,4872.6,4420.86,4868.21Z" transform="translate(-47.27 -62.16)"/><path class="cls-6" d="M3919.81,4672.19l56.65-90.26" transform="translate(-47.27 -62.16)"/><path class="cls-8" d="M3919.81,4672.19" transform="translate(-47.27 -62.16)"/><path class="cls-2" d="M4109.77,4929.62c-162.57,21.22-291.26,1.44-346-8.8l56.93-90.71" transform="translate(-47.27 -62.16)"/><path class="cls-2" d="M4395.49,4851.87a1077,1077,0,0,1-196.92,62.46" transform="translate(-47.27 -62.16)"/><path class="cls-3" d="M4395.49,4851.87" transform="translate(-47.27 -62.16)"/><path class="cls-6" d="M4123,4629.16a314.83,314.83,0,0,0,136.41-133.82" transform="translate(-47.27 -62.16)"/><path class="cls-2" d="M4759.91,4597.09a1084.13,1084.13,0,0,1-294.62,222q-14.09,7.23-28.11,13.93" transform="translate(-47.27 -62.16)"/><path class="cls-2" d="M4696.9,4396.81l243.1-54.75a1097.44,1097.44,0,0,1-125.52,192.58" transform="translate(-47.27 -62.16)"/><line class="cls-2" x1="4204.18" y1="4434.97" x2="4422.82" y2="4385.73"/><path class="cls-6" d="M4085.08,4651.9a70.69,70.69,0,0,1-16.16,11.69,72.26,72.26,0,0,1-33.21,8.19" transform="translate(-47.27 -62.16)"/><line class="cls-6" x1="3984.24" y1="4484.51" x2="4204.18" y2="4434.97"/><path class="cls-8" d="M4123,4629.16" transform="translate(-47.27 -62.16)"/><path class="cls-9" d="M3852.19,4677.65c23.6,10.6,52.08,18.38,72.92,5.82,25.6-15.43,21.42-50.54,44.43-57.29,24.46-7.18,52.82,25.55,54.95,28.06,18.43,21.74,15.69,39.33,24.56,64.31,16.89,47.58,47.42,41.9,95.87,102.89,18.38,23.14,61.42,77.32,44.44,119.26-1.92,4.74-8.14,20.1-21,23.39-24.52,6.24-43.83-38.55-93.54-72.5-19.52-13.33-42.12-20.76-86.52-35.07a1165,1165,0,0,0-167.17-40.33" transform="translate(-47.27 -62.16)"/><path class="cls-9" d="M4325,4224c50,41.7,92.23,52.67,121.6,55,31.15,2.42,39-3.52,65.47,1.17,43.79,7.77,49,42.83,98.22,80.67,54.78,42.12,73.78,18.25,130.95,60.8,22,16.39,80.94,60.24,73.66,113.42-4.6,33.62-33.55,55.56-46.77,64.31-10.17-2.64-26.3-7.13-45.6-14-69.73-24.94-90.66-49-177.72-98.22-67-37.87-114.35-57.38-128.61-63.14-30.62-12.36-56.63-21-74.66-26.66" transform="translate(-47.27 -62.16)"/><path class="cls-4" d="M2838.9,3224.27a182.93,182.93,0,0,0,5.38-43.44c0-13.51-1.35-64.56-33.45-107.39-53.06-70.8-150.06-65.67-168.36-64.3-26.68,2-82.7,6.19-119.27,52.61-33.55,42.6-36.44,98.38-28.06,101.72,8.55,3.42,22.49-50.81,76-77.17,8.24-4.05,51.19-24.08,77.17-5.84,20.26,14.22,8.29,36.32,28.06,51.44s41.72.52,99.39,10.53c11.15,1.93,22.87,5.93,33.91,15.2,14.28,12,21.54,28.88,21,29.23-2.95,2-9.33-10.93-7-8.19h0" transform="translate(-47.27 -62.16)"/><path class="cls-3" d="M1488.87,3534.61l-25,48.62-10.2,3.74-3.29-1.62a13,13,0,0,1-1.71-13.82l22.55-48.05" transform="translate(-47.27 -62.16)"/><path class="cls-3" d="M1503.85,3454l49.8-106.13a12.07,12.07,0,0,1,16.11-5.49l3.29,1.61a12.07,12.07,0,0,1,5.5,16.11l-49.18,95.71" transform="translate(-47.27 -62.16)"/><path class="cls-3" d="M3098.57,2394.59l-82-18.58a14.06,14.06,0,0,1-10.58-16.78l4.24-18.72a14.07,14.07,0,0,1,16.78-10.59l72,16.3" transform="translate(-47.27 -62.16)"/><path class="cls-8" d="M3098.57,2394.59" transform="translate(-47.27 -62.16)"/><path class="cls-3" d="M3264.1,2383.63l79.08,17.92a14.05,14.05,0,0,1,10.58,16.78l-4.24,18.72a14.07,14.07,0,0,1-16.78,10.59l-83.43-18.9" transform="translate(-47.27 -62.16)"/><path class="cls-4" d="M1480.13,3426.55c-4.07,4.78-15.7,19.76-14.66,40.27.23,4.64,1.28,25.58,16,33.39,7.27,3.87,19.69,5.48,24.88-1.18,3-3.86,2.49-9.08,2-11.68" transform="translate(-47.27 -62.16)"/><path class="cls-4" d="M1466.22,3469.81a46.55,46.55,0,0,0-4.26,25.07c.62,5.31,2.43,21.86,14.66,27.18,10.21,4.44,24.08-.51,25.85-6.65,0,0,.36-1.24-2.34-11.69" transform="translate(-47.27 -62.16)"/><path class="cls-4" d="M2491.64,3165.81a349.25,349.25,0,0,0,12.86,226.83c1.12,10.1,5,30.4,21,44.81,29.76,26.69,76.84,11.26,87.7,7.48,50.93-17.74,78.85-64,95.87-94.7,22.75-41,31.57-74.76,31.57-74.76-.38-3.65-3-33.6,16.37-52.34,15.76-15.2,50.08-15,81.85,5" transform="translate(-47.27 -62.16)"/><path class="cls-4" d="M2667,3121.38a384.1,384.1,0,0,1-2.34,288.8" transform="translate(-47.27 -62.16)"/><path class="cls-4" d="M3138.22,2436.21c40.7-18,41.48-25.69,40.92-28.06-1.58-6.7-22.82-8.61-38.58-5.84a73.36,73.36,0,0,0-31.57,14" transform="translate(-47.27 -62.16)"/><path class="cls-4" d="M3168.62,2366.06c2.22,16.83-6,30.38-16.37,32.74a18.13,18.13,0,0,1-16.37-4.68c-5.11-5.19-3.89-11.36-3.51-29.23.66-30.95-2.47-37.94,2.34-57.29,1.27-5.11,2.62-9.19,3.51-11.69" transform="translate(-47.27 -62.16)"/><path class="cls-4" d="M3218.9,2313.44c-5.85,20.82-11.74,37.84-16.37,50.28-9.2,24.67-15,35.43-23.39,36.25a12,12,0,0,1-8.18-2.34c-8.06-6.37-3.48-22.76,1.17-47.94,2.09-11.35,4.79-27.7,7-47.94" transform="translate(-47.27 -62.16)"/><path class="cls-4" d="M3244.62,2343.84,3211.88,2407a10.65,10.65,0,0,0,1.17,10.53c3.21,4,9.93,4.87,15.2,1.17l42.09-50.28" transform="translate(-47.27 -62.16)"/><path class="cls-4" d="M3211.18,2409.59a13.13,13.13,0,1,1-21.52-15" transform="translate(-47.27 -62.16)"/><polyline class="cls-3" points="1532.36 3279.03 1400.24 3196.02 1400.24 3524.57"/><line class="cls-3" x1="1339.44" y1="2794.97" x2="1400.24" y2="3196.02"/><polyline class="cls-10" points="2979.87 2267.65 3131.87 2150.73 3302.45 2342.89"/><line class="cls-10" x1="3128.36" y1="2112.14" x2="3131.87" y2="2150.73"/><line class="cls-10" x1="3386.76" y1="3569" x2="4232.09" y2="4122.19"/><line class="cls-10" x1="3749.22" y1="4534.79" x2="3681.3" y2="4376.19"/><line class="cls-10" x1="3323.62" y1="3569" x2="3323.62" y2="3650.85"/><line class="cls-10" x1="3386.76" y1="3703.46" x2="3386.76" y2="3552.63"/><path class="cls-10" d="M3434,3797.2c44.48,128.65,9.33,271.08-88.86,361.29-90,82.7-219.74,109.29-337.5,69.69" transform="translate(-47.27 -62.16)"/><path class="cls-10" d="M3535.76,3828.77c3.43,11.31,62.27,218.58-83,381.16-97.35,108.94-248.32,155.26-391.69,120.43" transform="translate(-47.27 -62.16)"/><path class="cls-4" d="M3344,4606.3l25.88,27.76c29.51,31.64-.09-73.92-6-93.23-18.75-61.29-58.06-79.77-71.32-138-7.89-34.63-2.39-65,2.34-83a70.15,70.15,0,0,1,28.06-14c25.41-5.9,48,5.37,56.12,9.35,95.25,46.63,200.48,98.13,265.41,81.85,45-11.28,68.39-54.51,97.05-107.57,67-124,57.51-253,45.6-323.88a64.13,64.13,0,0,0-7-35.07,63.06,63.06,0,0,0-15.79-19.29c-16.35-11.92-39.83-33.81-75-42.81-31-7.94-70.29-13.89-125-30.86-86.14-26.72-165-51.19-224.49-119.26-45-51.51-71.15-119.18-80.68-143.81-20.28-52.47-22.1-130.79-47.87-137.1a13,13,0,0,0-8.25.3c-15.52,6.49-1.25,44.75-14.61,68.4-16.52,29.22-73.79,39.37-115.76,24.55C3026,3514.1,3004.66,3469,2978,3412.52a417.4,417.4,0,0,1-32.73-102.89,434.41,434.41,0,0,1-3.51-133.29" transform="translate(-47.27 -62.16)"/><path class="cls-10" d="M3286.71,3674.43a229.46,229.46,0,0,1-24.55,108.74c-28.29,55.75-71.74,84.14-90,94.7a3162.67,3162.67,0,0,0-204.62-375.32q-47-73.85-94.71-140.31" transform="translate(-47.27 -62.16)"/><path class="cls-10" d="M2844.74,3435.9,3109,3916.46A499,499,0,0,1,2893.85,4017a688.11,688.11,0,0,1-318-370.64" transform="translate(-47.27 -62.16)"/><path class="cls-10" d="M2489.3,3562.18a888.7,888.7,0,0,0,32.74,84.19c41.51,92.58,89.39,156.87,129.78,210.46,29.45,39.07,51.78,64.59,70.15,84.18,45.58,48.59,68.37,72.88,94.71,80.68,15.13,4.47,32.74,6.32,42.09,21,8.29,13.06,5.9,29.66,2.34,42.1,45.25-1.82,209.26-13.91,344.92-143.82,88-84.23,123.55-179.26,138-228" transform="translate(-47.27 -62.16)"/><path class="cls-11" d="M2765.23,3426.55a1297.23,1297.23,0,0,0-5.84,188.25c2.38,55.27,7.16,80,10.52,94.7a408.56,408.56,0,0,0,55,129.79,1693.92,1693.92,0,0,1,59.63-626.71" transform="translate(-47.27 -62.16)"/><path class="cls-4" d="M2546.59,3520.09c93.32,80.25,158.36,156.6,202.28,215.14,18.8,25.06,63.4,84.5,56.12,91.2-11.2,10.29-138-110.63-171.88-142.65-75.29-71.26-155.08-157.41-155.51-157.85" transform="translate(-47.27 -62.16)"/><path class="cls-11" d="M2553.6,3854.49a1497.91,1497.91,0,0,1-56.12-142.65c-3.95-11.81-6-17.87-8.18-25.72-3.88-13.72-18.89-69.62-15.2-148.49.43-9.26,1.34-23.48,3.5-40.93" transform="translate(-47.27 -62.16)"/><path class="cls-12" d="M2921.46,68.78c-11.74,12.83-12.14,19.58-10.64,23.31,4.49,11.15,31.31,8.61,103.88,9.12,17.43.13,31.59.38,40.38.57" transform="translate(-47.27 -62.16)"/><path class="cls-12" d="M3086.28,101.78c-11.28,17.29-48.37,78.83-37.37,160.57,7.14,53.11,31.34,90.59,45,108.75-30.44,20.86-73.36,56.83-105.81,113.2-18.2,31.62-39.72,69-36.49,117.06,1.47,21.81,8,45.44,6.34,45.86-1.94.48-6.34-31.74-24.58-58-20.55-29.63-53-43.56-80.16-50.73a178.35,178.35,0,0,0-65-6.28,165.94,165.94,0,0,0-43.32,9.88" transform="translate(-47.27 -62.16)"/><path class="cls-12" d="M2743.4,259.35c-9.2-30.76-20.06-34.63-24.63-35.25-7.43-1-10.6,4.86-38.39,19.88-13.18,7.14-14.36,6.84-20.27,11.15-7.23,5.29-11.89,10.44-23.94,25.47-16.38,20.43-21.74,28.32-22,28.12s12.42-39.58,48.65-66.13c18.38-13.47,39.27-21.05,38-31.92a14.4,14.4,0,0,0-8.36-10.64c-6.77-2.69-13.48,2.82-15,.76-1.3-1.84,2.31-8.47,8.11-10.65,4.6-1.72,8,.33,15.2,2,9.59,2.26,17.78,4.19,23.56,1,7.56-4.15,3.79-14.05,13.69-29.64a126.73,126.73,0,0,1,11.4-15.2c12.82-14.89,33.14-33,49.4-43.33,33.75-21.49,85.25-32.13,115-36.44,14.11-2,23.32-2.66,23.37-2.32.1.62-32.18,2.43-76.77,19.76a306.76,306.76,0,0,0-53.21,26.6c-30.75,19.47-45.61,36.88-54,48.65-2.47,3.48-16.07,22.64-12.16,26.6,2.91,3,13.86-4.3,25.84-10.89,14.6-8,34.9-14.73,75.5-28.12,6.8-2.25,33.44-11,66.64-19.51,72.75-18.75,141.47-27.58,167.69-29.9,7.15-.63,11.15-.78,11.18-.51.15,1-55.81,7.28-144.41,27.87A898.36,898.36,0,0,0,2814,167.34c-40.29,16-75.45,30.3-73.73,41.81s38.28,9.68,99.57,21.28c36.83,7,99.68,18.87,157.34,52.45,67.22,39.14,99.35,91.43,99.32,91.46s-38.17-50.41-112-89.94c-4.29-2.3-12.29-6.49-22.89-11.31-19.63-8.93-40.92-16.75-149.91-39.37-21.87-4.54-45.23-3-66.12-10.89-3.31-1.26-10.89-4.3-13.48-1.45-4.1,4.53,7.14,20.86,11.7,27.55,23,33.64,43,69.24,65.62,103.12,31.42,47,37.76,61.46,42.32,76a192.48,192.48,0,0,1,8.86,53.2c.79,33.7-7.67,61-9.37,60.81-1.51-.2,2.92-22.09,0-57.77-.8-9.71-2-23.66-6.08-39.52-6-23.46-15.3-39.07-25.84-57-20.09-34.19-41.62-67.57-61.35-102" transform="translate(-47.27 -62.16)"/><path class="cls-12" d="M2751.22,273.79c-2-3.54-3.92-7.1-5.85-10.68-.68-1.26-1.33-2.52-2-3.76" transform="translate(-47.27 -62.16)"/><path class="cls-12" d="M2439.94,630.62a324.87,324.87,0,0,0-261-42.31" transform="translate(-47.27 -62.16)"/><path class="cls-12" d="M2167.82,365.6c5.72.66,8.33,2.68,9.63,4.56,5.93,8.55-5.06,28.63-26.66,51.09" transform="translate(-47.27 -62.16)"/><path class="cls-13" d="M2457.67,510.78a174.48,174.48,0,0,1-88.42-13.68c-1.56,4.81-3.71,6.45-5.32,7.09-3.33,1.32-6.7-.78-8.36,1.27a3.35,3.35,0,0,0-.51,3.29c.52,1.16,1.84,1.53,3.55,2s4.15,1.22,7.6,2.28a6.39,6.39,0,0,0-3.8-.25c-2.69.69-4.8,3.31-4.31,4.3.37.75,2.05.23,5.07.26a31.94,31.94,0,0,1,9.09,1.67c4.43,1.51,4.58,3.42,9.91,6.94,3,2,6.07,3.19,12.16,5.58,1.86.73,6.77,2.6,13.68,4.56a177.43,177.43,0,0,0,18,4c8.11,1.45,10.48,1.38,18.25,3,4,.86,7.28,1.71,9.37,2.28" transform="translate(-47.27 -62.16)"/><path class="cls-12" d="M2052,526c64.12-26,117.94-19.87,132.32,5.59,2.8,5,7.41,16.5.25,38.1" transform="translate(-47.27 -62.16)"/><path class="cls-14" d="M2345.09,506.53c-25.61-40.25-44.67-79.93-39.44-102.42.59-2.49,3.48-13.41.17-15.25-7.44-4.13-39.91,41.22-46.53,50.47-55,76.84-81,149.21-81.59,149s14.7-42.9,43.33-96.79c0,0,17.29-32.54,61.06-91.71,4.22-5.71,8.08-10.5,14.19-15.21,9.61-7.4,18.41-9.68,17.93-11.48-.57-2.11-13.18-.4-14.89-.17a97.16,97.16,0,0,0-19.26,4.56c-19.92,7.5-27.63,6.13-60.3,18.24-16.05,6-40.71,15.24-69.93,32.94A304.89,304.89,0,0,0,2115.88,452c-44.84,36-66.63,79.22-66.89,79s10.31-18,29.39-42.06c11.29-14.23,23.3-29.38,39.28-43.83,0,0,15.39-13.93,42.3-29.36A314.05,314.05,0,0,1,2240,383.34c12-3,24-6.26,36-9.38,0,0,5.07-1.32,23.82-6.84,13.65-4,14.44-4.42,14.44-5,0-4-43.67-11.91-90.45-7.45a296,296,0,0,0-53.07,10.13c-23.5,6.72-37.91,13.81-38.14,13.18-.32-.88,27-15.81,65.62-24.33,68.05-15,120.86.95,125.54,3,.35.16,1.84,1.52,3.57,1.22,2.37-.4,3.37-3.48,4.92-6s4.28-4.56,9.63-8.36c8.13-5.78,24.3-16.08,25.08-14.95.63.92-9.18,8.93-17.48,15.71-10.8,8.81-17.45,13.37-16.66,14.89.61,1.15,5.13-.28,6.27-.45,9.33-1.43,39.94,1.08,49.91,2.28,30.37,3.66,52.18,17.33,51.94,18s-24.76-9.79-56.5-13.43c-6.93-.79-1.78.16-23-1-14-.78-24-1.62-26.61,3.16-1.07,2-.07,3.37-1.68,5.86-2.34,3.62-6.54,3.92-9.34,5.17-7.14,3.18-8.85,14.21-9.75,20-5.47,35.11,23.63,85.17,32.82,100.59.9,1.51,1.65,2.75,2.14,3.55" transform="translate(-47.27 -62.16)"/><path class="cls-15" d="M2360.24,520.28c55.61,81.69,86.33,114.69,85.27,115.66-1.33,1.23-49.2-53-88.79-111.35" transform="translate(-47.27 -62.16)"/><path class="cls-12" d="M2735.62,733.74c-61.37-24.39-107.17-44.93-138.85-59.79-30.19-14.17-64.64-31.2-114.52-36.49a288,288,0,0,0-36.48-1.52" transform="translate(-47.27 -62.16)"/><path class="cls-12" d="M2652.51,645.57a112.81,112.81,0,0,0,12.93,34.71,115.53,115.53,0,0,0,43.64,42.77" transform="translate(-47.27 -62.16)"/><path class="cls-15" d="M2569.41,509.26A660.73,660.73,0,0,1,2460,492.54c-77.32-18.6-101.77-37.89-111.49-46.62A164.5,164.5,0,0,1,2316,405.63" transform="translate(-47.27 -62.16)"/><path class="cls-16" d="M2963,659.89" transform="translate(-47.27 -62.16)"/><path class="cls-17" d="M2584.48,589.7c-9.22-6.79-9.39-9.7-15.2-14.18-9.2-7.11-15.88-5.3-63.85-8.62,0,0-5.31-.37-26.85-3.29-16.56-2.25-20.09-3.14-22.81-6.34-3.14-3.7-2.47-11.8-1-27.87,1.67-18.31,3.48-21.37,6.08-22.8,3.56-2,7.43-.2,14.19,2,0,0,9.87,3.25,30.4,7.09,7.21,1.35,21.05.47,49.16-3a64.67,64.67,0,0,1,12.54-.63c6.81.35,7.27,1.54,10.64,1,8.33-1.3,10.66-9.34,14.82-8.49,4.79,1,3.09,12,8.11,14.19,7.17,3.19,24-11.18,34-28.88,10.35-18.41,11.73-37.72,22.8-40.54a26.21,26.21,0,0,0,18.25-12.16c9.69-14.85,5-36.1,13.17-40,5.51-2.66,9.54,6.08,22.8,7.6,15.61,1.78,24.81-8.61,28.64-4.82,3.45,3.43-3.94,12.06-8.87,34.21-2.81,12.62-.9,12-3.55,20.27-5.55,17.31-14.35,21.26-12.67,30.65a10,10,0,0,0,.92,2.84,33,33,0,0,0,10.48,12.37" transform="translate(-47.27 -62.16)"/><path class="cls-13" d="M2757.19,753.43c-1.42-1.49-2.9-3-4.47-4.61-33.15-33.47-41.76-26.25-53.71-48.65-7-13.13-12.26-31-27.77-42.71-3.13-2.36-7.77-5.05-15.31-11-6.32-5-10.24-8.69-20.39-18.37-25.61-24.41-25.66-24.69-28.25-26-5.39-2.66-14.62-6.38-22.81-12.42" transform="translate(-47.27 -62.16)"/><path class="cls-17" d="M2848.24,602.88c6.29,7.35,3.16,10.31,10.64,20.52,1.88,2.57,7.2,9.37,31.17,23.56,14.53,8.61,21.79,12.92,27.11,14.45,23.5,6.76,33.8-5.49,45.85,2.28,15.45,9.95,16.78,41.81,6.85,48.64-5.68,3.91-12.77-1.92-24.33,3.8-5.56,2.76-6.19,5.23-11.4,6.84-8.69,2.69-16.93-1.09-19.76-2.28l-2.83-1.16c-40.57-16.55-70.9-10.24-70.9-10.24-2.46.62-13,3.3-13,7,0,2.17,3.67,2.76,7,5.5,9.93,8.13,2,23.06,10.35,33.14,6.53,7.88,14.86,2.81,20.27,10.13,7,9.45,2.37,29-9.13,38.52-16.63,13.7-43.36,2.61-49.66,0-22-9.15-22.72-22.07-49.24-50.12" transform="translate(-47.27 -62.16)"/><line class="cls-15" x1="2888.51" y1="691.27" x2="2978.22" y2="722.34"/><line class="cls-15" x1="2868.24" y1="705.53" x2="2900.87" y2="756.77"/><line class="cls-15" x1="2834.66" y1="763.26" x2="2837.32" y2="740.5"/><line class="cls-15" x1="2899.05" y1="680.57" x2="2985.04" y2="678.42"/><path class="cls-13" d="M2361.65,491.78a17.28,17.28,0,0,0-3,4.56c-1.79,3.94-1.34,7-2.54,7.35-.59.16-1.68-.34-3.8-3.8a8,8,0,0,1,9.38-8.11Z" transform="translate(-47.27 -62.16)"/><path class="cls-13" d="M2693.31,393.47c-.52-22.28,3.6-37.22,7.6-46.87,1.91-4.62,3.69-7.8,5.06-13.94,2.24-10,.7-15.91,2-31.92.34-4.13.76-7.44,1-9.38l-7.6-9.62a28,28,0,0,0,3-13.69c-.19-4-1.38-7.69.76-10.89a8.72,8.72,0,0,1,3.8-3,9.67,9.67,0,0,1,5.58-2.28,9.84,9.84,0,0,1,6.84,2.28,5.54,5.54,0,0,1,4.56-1.27,5.34,5.34,0,0,1,4.05,4.31,4.65,4.65,0,0,1,5.58,6.08,8,8,0,0,1,4.05,2.53,7.9,7.9,0,0,1,1.52,2.79q-2.79,9.88-5.57,19.76a300.35,300.35,0,0,0,0,43.25c.29,4.11.52,6.26.76,9.2a293.72,293.72,0,0,1-.76,52.7" transform="translate(-47.27 -62.16)"/><path class="cls-12" d="M2990.51,810.26l-135.3-87.16-17.74-9.37-3-2.59,16.92-2.94,52,34.43,90.65,60c2.92,1.91,3.26,5.48,1.78,7.09C2994.73,811,2992.51,811.21,2990.51,810.26Z" transform="translate(-47.27 -62.16)"/><path class="cls-15" d="M2881.93,767.78q6.14-9.78,12.28-19.56" transform="translate(-47.27 -62.16)"/><path class="cls-18" d="M2881.93,767.78" transform="translate(-47.27 -62.16)"/><path class="cls-12" d="M2923.09,823.57a241.25,241.25,0,0,1-75-1.91q6.18-9.82,12.34-19.66" transform="translate(-47.27 -62.16)"/><path class="cls-12" d="M2985,806.72a233.44,233.44,0,0,1-42.67,13.53" transform="translate(-47.27 -62.16)"/><path class="cls-12" d="M2985,806.72" transform="translate(-47.27 -62.16)"/><path class="cls-15" d="M2926,758.46a67.85,67.85,0,0,0,8.3-5,68.53,68.53,0,0,0,21.26-24" transform="translate(-47.27 -62.16)"/><path class="cls-12" d="M3064,751.51a234.79,234.79,0,0,1-63.84,48.11q-3,1.56-6.09,3" transform="translate(-47.27 -62.16)"/><path class="cls-12" d="M3050.32,708.11,3103,696.24A237.81,237.81,0,0,1,3075.8,738" transform="translate(-47.27 -62.16)"/><line class="cls-12" x1="2906.52" y1="667.69" x2="2953.9" y2="657.02"/><path class="cls-15" d="M2917.74,763.39a15.17,15.17,0,0,1-3.5,2.53,15.53,15.53,0,0,1-7.2,1.77" transform="translate(-47.27 -62.16)"/><line class="cls-15" x1="2858.86" y1="678.42" x2="2906.52" y2="667.69"/><path class="cls-18" d="M2926,758.46" transform="translate(-47.27 -62.16)"/><path class="cls-19" d="M2867.28,769c5.11,2.29,11.28,4,15.8,1.26,5.55-3.35,4.64-11,9.63-12.42,5.3-1.55,11.44,5.54,11.9,6.08,4,4.71,3.4,8.53,5.32,13.94,3.67,10.31,10.28,9.08,20.78,22.29,4,5,13.31,16.76,9.63,25.85-.42,1-1.77,4.35-4.56,5.07-5.31,1.35-9.5-8.36-20.27-15.71-4.23-2.89-9.13-4.5-18.75-7.6a252.42,252.42,0,0,0-36.22-8.74" transform="translate(-47.27 -62.16)"/><path class="cls-19" d="M2969.73,670.65c10.84,9,20,11.42,26.35,11.91,6.75.53,8.46-.76,14.19.26,9.49,1.68,10.61,9.28,21.28,17.48,11.87,9.12,16,4,28.38,13.17,4.77,3.56,17.54,13.06,16,24.58-1,7.29-7.27,12-10.13,13.94-2.21-.58-5.7-1.55-9.89-3-15.11-5.4-19.64-10.62-38.51-21.28A239.78,239.78,0,0,0,2989.49,714c-6.63-2.68-12.27-4.56-16.18-5.78" transform="translate(-47.27 -62.16)"/><path class="cls-13" d="M2647.7,454a39.47,39.47,0,0,0,1.17-9.42c0-2.93-.3-14-7.25-23.27-11.5-15.34-32.52-14.23-36.49-13.93-5.78.43-17.92,1.34-25.84,11.4-7.27,9.23-7.9,21.32-6.08,22s4.87-11,16.47-16.72c1.78-.88,11.09-5.22,16.72-1.27,4.39,3.08,1.8,7.87,6.08,11.15s9,.11,21.54,2.28a15.07,15.07,0,0,1,7.35,3.29,15.9,15.9,0,0,1,4.56,6.34c-.64.44-2-2.37-1.52-1.78h0" transform="translate(-47.27 -62.16)"/><path class="cls-12" d="M2355.15,521.27l-5.41,10.54-2.21.81-.71-.35a2.9,2.9,0,0,1-.63-1.47,2.83,2.83,0,0,1,.26-1.52l4.88-10.42" transform="translate(-47.27 -62.16)"/><path class="cls-12" d="M2358.4,503.8l10.79-23a2.63,2.63,0,0,1,3.49-1.19l.72.35a2.64,2.64,0,0,1,1.19,3.5l-10.66,20.73" transform="translate(-47.27 -62.16)"/><path class="cls-12" d="M2704,274.24l-17.77-4a3.05,3.05,0,0,1-2.3-3.64l.92-4.05a3.06,3.06,0,0,1,3.64-2.3l15.59,3.54" transform="translate(-47.27 -62.16)"/><path class="cls-18" d="M2704,274.24" transform="translate(-47.27 -62.16)"/><path class="cls-12" d="M2739.84,271.86l17.14,3.88a3.05,3.05,0,0,1,2.29,3.64l-.92,4.06a3.05,3.05,0,0,1-3.64,2.29l-18.07-4.09" transform="translate(-47.27 -62.16)"/><path class="cls-13" d="M2353.26,497.86a12.82,12.82,0,0,0-3.18,8.72c.05,1,.28,5.55,3.46,7.24,1.58.84,4.27,1.19,5.39-.25a3.25,3.25,0,0,0,.44-2.54" transform="translate(-47.27 -62.16)"/><path class="cls-13" d="M2350.25,507.23a10.08,10.08,0,0,0-.93,5.44c.14,1.14.53,4.73,3.18,5.89,2.21,1,5.22-.12,5.6-1.45a9.25,9.25,0,0,0-.51-2.53" transform="translate(-47.27 -62.16)"/><path class="cls-13" d="M2572.45,441.36a75.73,75.73,0,0,0,2.79,49.15c.24,2.19,1.08,6.59,4.56,9.71,6.45,5.78,16.65,2.44,19,1.62,11-3.84,17.09-13.88,20.78-20.52a77.48,77.48,0,0,0,6.84-16.2c-.09-.79-.67-7.28,3.54-11.34,3.42-3.3,10.86-3.25,17.74,1.08" transform="translate(-47.27 -62.16)"/><path class="cls-13" d="M2610.45,431.73a83.23,83.23,0,0,1-.5,62.58" transform="translate(-47.27 -62.16)"/><path class="cls-13" d="M2712.56,283.26c8.82-3.91,9-5.57,8.87-6.08-.34-1.46-4.95-1.87-8.36-1.27a15.81,15.81,0,0,0-6.84,3" transform="translate(-47.27 -62.16)"/><path class="cls-13" d="M2719.15,268.05c.48,3.65-1.31,6.59-3.55,7.1a3.93,3.93,0,0,1-3.54-1c-1.11-1.13-.85-2.47-.77-6.34.15-6.71-.53-8.22.51-12.41.28-1.11.57-2,.76-2.54" transform="translate(-47.27 -62.16)"/><path class="cls-13" d="M2730,256.65c-1.26,4.51-2.54,8.2-3.54,10.9-2,5.34-3.25,7.67-5.07,7.85a2.61,2.61,0,0,1-1.77-.5c-1.75-1.38-.76-4.94.25-10.39.45-2.46,1-6,1.52-10.39" transform="translate(-47.27 -62.16)"/><path class="cls-13" d="M2735.62,263.24l-7.1,13.68a2.3,2.3,0,0,0,.26,2.28,2.46,2.46,0,0,0,3.29.26l9.12-10.9" transform="translate(-47.27 -62.16)"/><path class="cls-13" d="M2728.37,277.49a2.84,2.84,0,1,1-4.66-3.25" transform="translate(-47.27 -62.16)"/><polyline class="cls-13" points="2327.55 417.2 2298.92 399.21 2298.92 470.41"/><line class="cls-13" x1="2285.75" y1="312.31" x2="2298.92" y2="399.21"/><polyline class="cls-20" points="2641.22 198.04 2674.16 172.7 2711.12 214.34"/><line class="cls-20" x1="2673.4" y1="164.34" x2="2674.16" y2="172.7"/><line class="cls-20" x1="2729.39" y1="480.04" x2="2912.57" y2="599.91"/><line class="cls-20" x1="2807.93" y1="689.32" x2="2793.22" y2="654.95"/><line class="cls-20" x1="2715.71" y1="480.04" x2="2715.71" y2="497.77"/><line class="cls-20" x1="2729.39" y1="509.17" x2="2729.39" y2="476.49"/><path class="cls-14" d="M2776.66,578.18c9.64,27.87,2,58.74-19.25,78.29-19.51,17.92-47.62,23.68-73.14,15.1" transform="translate(-47.27 -62.16)"/><path class="cls-14" d="M2798.71,585c.74,2.45,13.49,47.36-18,82.59a86.48,86.48,0,0,1-84.88,26.1" transform="translate(-47.27 -62.16)"/><path class="cls-13" d="M2757.15,753.51l5.61,6c6.4,6.86,0-16-1.3-20.2C2757.4,726,2748.88,722,2746,709.42a37.89,37.89,0,0,1,.5-18,15.24,15.24,0,0,1,6.08-3c5.51-1.28,10.4,1.16,12.17,2,20.64,10.1,43.44,21.26,57.51,17.73,9.75-2.44,14.82-11.81,21-23.31,14.52-26.87,12.46-54.82,9.88-70.18a13.88,13.88,0,0,0-1.52-7.6,13.65,13.65,0,0,0-3.42-4.18c-3.54-2.58-8.63-7.33-16.24-9.28-6.71-1.72-15.23-3-27.09-6.68-18.66-5.79-35.76-11.1-48.64-25.85-9.75-11.16-15.42-25.82-17.48-31.16-4.4-11.37-4.79-28.34-10.38-29.71a2.78,2.78,0,0,0-1.79.07c-3.36,1.4-.27,9.69-3.16,14.82-3.58,6.33-16,8.53-25.09,5.32-10.13-3.58-14.75-13.36-20.52-25.59a90.4,90.4,0,0,1-7.09-22.3,94,94,0,0,1-.76-28.88" transform="translate(-47.27 -62.16)"/><path class="cls-21" d="M2744.74,551.57a49.36,49.36,0,0,1-24.83,44.09,683.57,683.57,0,0,0-44.34-81.33c-6.79-10.67-13.66-20.8-20.52-30.41" transform="translate(-47.27 -62.16)"/><path class="cls-21" d="M2649,499.89,2706.23,604a108.25,108.25,0,0,1-46.62,21.79,149.08,149.08,0,0,1-68.92-80.32" transform="translate(-47.27 -62.16)"/><path class="cls-21" d="M2571.94,527.25a193.13,193.13,0,0,0,7.1,18.24c9,20.06,19.37,34,28.12,45.61a215.85,215.85,0,0,0,15.2,18.24c9.88,10.53,14.82,15.79,20.53,17.48,3.27,1,7.09,1.37,9.12,4.56,1.79,2.83,1.28,6.43.5,9.12,9.81-.39,45.35-3,74.75-31.16a112.77,112.77,0,0,0,29.89-49.41" transform="translate(-47.27 -62.16)"/><path class="cls-20" d="M2631.74,497.86a281.86,281.86,0,0,0-1.27,40.79c.52,12,1.55,17.34,2.28,20.52a88.5,88.5,0,0,0,11.91,28.13,367.34,367.34,0,0,1,12.92-135.81" transform="translate(-47.27 -62.16)"/><path class="cls-13" d="M2584.36,518.13a294.38,294.38,0,0,1,43.83,46.62c4.08,5.43,13.74,18.31,12.16,19.76-2.42,2.23-29.91-24-37.24-30.91-16.32-15.44-33.61-34.11-33.7-34.21" transform="translate(-47.27 -62.16)"/><path class="cls-20" d="M2585.88,590.59a322,322,0,0,1-12.16-30.91c-.86-2.56-1.3-3.87-1.78-5.57a102.68,102.68,0,0,1-3.29-32.18c.09-2,.29-5.09.76-8.87" transform="translate(-47.27 -62.16)"/><path class="cls-22" d="M586.52,4437.64c-6.63,7.24-6.86,11-6,13.16,2.54,6.29,17.68,4.86,58.64,5.15,9.84.07,17.83.21,22.8.32" transform="translate(-47.27 -62.16)"/><path class="cls-22" d="M679.56,4456.27c-6.36,9.76-27.31,44.5-21.1,90.65a131.84,131.84,0,0,0,25.41,61.38c-17.19,11.78-41.41,32.09-59.73,63.91-10.28,17.85-22.43,38.95-20.6,66.08.83,12.32,4.53,25.65,3.58,25.89s-3.58-17.92-13.88-32.75c-11.6-16.73-29.94-24.6-45.25-28.64a100.66,100.66,0,0,0-36.71-3.55,94,94,0,0,0-24.45,5.58" transform="translate(-47.27 -62.16)"/><path class="cls-22" d="M486,4545.22c-5.19-17.36-11.33-19.55-13.91-19.9-4.19-.57-6,2.74-21.66,11.23-7.45,4-8.11,3.85-11.45,6.29-4.08,3-6.71,5.89-13.51,14.37-9.25,11.54-12.28,16-12.45,15.88s7-22.34,27.46-37.33c10.38-7.61,22.18-11.89,21.46-18a8.13,8.13,0,0,0-4.72-6c-3.82-1.52-7.61,1.6-8.44.43s1.31-4.78,4.58-6c2.59-1,4.49.18,8.58,1.15,5.41,1.27,10,2.36,13.3.57,4.27-2.35,2.14-7.93,7.72-16.74a74.7,74.7,0,0,1,6.44-8.58c7.24-8.4,18.71-18.61,27.89-24.46,19.06-12.13,48.13-18.14,64.9-20.57,8-1.15,13.17-1.5,13.2-1.31.05.35-18.17,1.37-43.34,11.16a172.16,172.16,0,0,0-30,15c-17.36,11-25.75,20.81-30.46,27.46-1.4,2-9.07,12.78-6.87,15,1.65,1.66,7.83-2.44,14.59-6.15,8.24-4.54,19.7-8.32,42.62-15.88,3.84-1.27,18.88-6.19,37.62-11,41.07-10.59,79.86-15.57,94.66-16.88,4-.36,6.3-.44,6.32-.29.08.58-31.51,4.11-81.53,15.74a505,505,0,0,0-73.09,22.88c-22.74,9.06-42.59,17.1-41.62,23.6s21.61,5.46,56.21,12c20.79,3.94,56.27,10.66,88.82,29.61,38,22.1,56.09,51.62,56.07,51.64s-21.54-28.46-63.22-50.78c-2.42-1.3-6.94-3.66-12.92-6.38-11.08-5-23.1-9.46-84.62-22.23-12.35-2.56-25.54-1.68-37.33-6.15-1.87-.7-6.15-2.42-7.61-.81-2.32,2.55,4,11.77,6.6,15.55,13,19,24.27,39.09,37,58.21,17.73,26.54,21.31,34.7,23.89,42.91a108.88,108.88,0,0,1,5,30c.44,19-4.33,34.46-5.29,34.33s1.65-12.47,0-32.61a128.79,128.79,0,0,0-3.43-22.31c-3.41-13.24-8.64-22.06-14.59-32.18-11.34-19.31-23.5-38.15-34.64-57.56" transform="translate(-47.27 -62.16)"/><path class="cls-23" d="M490.41,4553.37q-1.67-3-3.3-6l-1.11-2.13" transform="translate(-47.27 -62.16)"/><path class="cls-22" d="M314.69,4754.81a183.4,183.4,0,0,0-147.32-23.88" transform="translate(-47.27 -62.16)"/><path class="cls-22" d="M161.07,4605.2c3.23.37,4.7,1.52,5.44,2.58,3.35,4.82-2.86,16.16-15,28.84" transform="translate(-47.27 -62.16)"/><path class="cls-23" d="M324.7,4687.16a98.56,98.56,0,0,1-49.92-7.73c-.88,2.72-2.09,3.65-3,4-1.88.74-3.78-.44-4.72.71a1.91,1.91,0,0,0-.29,1.86c.3.65,1,.87,2,1.15l4.29,1.28a3.75,3.75,0,0,0-2.15-.14c-1.51.39-2.71,1.87-2.43,2.43s1.16.13,2.86.15a17.75,17.75,0,0,1,5.13.94c2.51.85,2.59,1.93,5.6,3.92a35.82,35.82,0,0,0,6.86,3.15c1.05.41,3.82,1.47,7.73,2.57a97.83,97.83,0,0,0,10.15,2.29c4.58.82,5.91.78,10.3,1.72,2.28.48,4.11,1,5.29,1.28" transform="translate(-47.27 -62.16)"/><path class="cls-22" d="M95.67,4695.73c36.2-14.65,66.58-11.21,74.7,3.16,1.58,2.79,4.18,9.31.14,21.51" transform="translate(-47.27 -62.16)"/><path class="cls-24" d="M261.14,4684.76c-14.45-22.72-25.21-45.12-22.26-57.82.33-1.41,2-7.57.1-8.61-4.2-2.33-22.53,23.27-26.27,28.49-31.06,43.38-45.75,84.23-46.06,84.11s8.3-24.22,24.46-54.64c0,0,9.76-18.37,34.47-51.78a39.65,39.65,0,0,1,8-8.58c5.43-4.18,10.39-5.47,10.12-6.48-.32-1.19-7.44-.23-8.4-.1a54.68,54.68,0,0,0-10.87,2.57c-11.25,4.24-15.6,3.46-34,10.3a218.46,218.46,0,0,0-39.48,18.6A171.45,171.45,0,0,0,131.75,4654,159.29,159.29,0,0,0,94,4698.6c-.09-.06,5.82-10.15,16.59-23.74,6.38-8,13.16-16.59,22.17-24.75,0,0,8.7-7.86,23.88-16.57a177.41,177.41,0,0,1,45.21-18.33c6.79-1.68,13.54-3.53,20.31-5.29,0,0,2.86-.74,13.44-3.86,7.71-2.27,8.16-2.5,8.16-2.8,0-2.24-24.66-6.73-51.07-4.21a167.76,167.76,0,0,0-30,5.72c-13.27,3.79-21.41,7.8-21.54,7.44s15.27-8.92,37.05-13.73c38.42-8.49,68.23.54,70.87,1.72a3,3,0,0,0,2,.68c1.34-.22,1.91-2,2.78-3.4s2.42-2.57,5.44-4.72c4.59-3.27,13.72-9.08,14.16-8.44s-5.19,5-9.87,8.87c-6.1,5-9.85,7.55-9.4,8.4.34.65,2.89-.15,3.53-.25,5.27-.81,22.55.61,28.18,1.29,17.14,2.06,29.46,9.78,29.32,10.15s-14-5.52-31.89-7.58c-3.92-.45-1,.09-13-.57-7.91-.44-13.55-.91-15,1.79-.6,1.11,0,1.9-1,3.3-1.32,2-3.69,2.21-5.27,2.92-4,1.8-5,8-5.51,11.3-3.08,19.82,13.34,48.08,18.53,56.78.51.86.94,1.55,1.21,2" transform="translate(-47.27 -62.16)"/><path class="cls-25" d="M269.7,4692.52c31.39,46.11,48.73,64.75,48.14,65.29-.76.7-27.78-29.93-50.13-62.86" transform="translate(-47.27 -62.16)"/><path class="cls-22" d="M481.61,4813c-34.64-13.77-60.5-25.36-78.38-33.75-17.05-8-36.5-17.61-64.65-20.6a164.79,164.79,0,0,0-20.6-.86" transform="translate(-47.27 -62.16)"/><path class="cls-22" d="M434.69,4763.25a63.73,63.73,0,0,0,7.3,19.6A65.21,65.21,0,0,0,466.63,4807" transform="translate(-47.27 -62.16)"/><path class="cls-25" d="M387.78,4686.3a373.29,373.29,0,0,1-61.79-9.44c-43.65-10.5-57.45-21.39-62.93-26.32a92.56,92.56,0,0,1-18.31-22.74" transform="translate(-47.27 -62.16)"/><path class="cls-26" d="M610,4771.33" transform="translate(-47.27 -62.16)"/><path class="cls-27" d="M396.29,4731.71c-5.21-3.83-5.31-5.48-8.58-8-5.2-4-9-3-36-4.86,0,0-3-.21-15.16-1.86-9.35-1.27-11.34-1.77-12.87-3.58-1.77-2.08-1.4-6.66-.57-15.73.94-10.34,2-12.07,3.43-12.87,2-1.1,4.19-.12,8,1.14a148,148,0,0,0,17.16,4c4.07.76,11.88.26,27.75-1.72a37.48,37.48,0,0,1,7.08-.36c3.85.2,4.1.87,6,.57,4.7-.73,6-5.27,8.37-4.79,2.7.55,1.74,6.75,4.57,8,4.05,1.8,13.55-6.31,19.17-16.3,5.84-10.39,6.62-21.3,12.87-22.89a14.74,14.74,0,0,0,10.3-6.86c5.47-8.39,2.82-20.38,7.44-22.6,3.11-1.5,5.38,3.43,12.87,4.29,8.81,1,14-4.86,16.16-2.72,1.95,1.94-2.22,6.81-5,19.31-1.59,7.13-.51,6.78-2,11.44-3.13,9.78-8.1,12-7.15,17.31a5.78,5.78,0,0,0,.52,1.6,18.55,18.55,0,0,0,5.92,7" transform="translate(-47.27 -62.16)"/><path class="cls-22" d="M625.49,4856.22,549.12,4807l-10-5.29-1.68-1.47,9.55-1.65L576.32,4818l51.18,33.89c1.65,1.08,1.83,3.09,1,4A2.63,2.63,0,0,1,625.49,4856.22Z" transform="translate(-47.27 -62.16)"/><path class="cls-23" d="M493.78,4824.14q-1.2-1.26-2.52-2.61c-18.71-18.89-23.57-14.81-30.32-27.46-4-7.41-6.92-17.49-15.68-24.11-1.76-1.33-4.38-2.85-8.64-6.21a151.15,151.15,0,0,1-11.51-10.37c-14.46-13.78-14.49-13.94-15.95-14.66-3-1.5-8.25-3.6-12.87-7" transform="translate(-47.27 -62.16)"/><path class="cls-27" d="M545.18,4739.15c3.55,4.15,1.79,5.82,6,11.58,1.06,1.46,4.07,5.29,17.59,13.31,8.21,4.86,12.31,7.29,15.31,8.15,13.27,3.82,19.08-3.1,25.89,1.29,8.71,5.61,9.46,23.6,3.86,27.46-3.21,2.2-7.21-1.08-13.73,2.14-3.15,1.56-3.5,3-6.44,3.87-4.9,1.51-9.56-.62-11.16-1.29l-1.59-.66c-22.91-9.34-40-5.78-40-5.78-1.38.35-7.35,1.86-7.36,3.94,0,1.22,2.07,1.56,4,3.1,5.61,4.59,1.13,13,5.84,18.71,3.69,4.44,8.4,1.58,11.45,5.72,3.93,5.33,1.34,16.39-5.15,21.74-9.39,7.74-24.49,1.47-28,0-12.44-5.17-12.82-12.45-27.8-28.29" transform="translate(-47.27 -62.16)"/><line class="cls-25" x1="547.33" y1="4761.98" x2="597.97" y2="4779.52"/><line class="cls-25" x1="535.88" y1="4770.03" x2="554.31" y2="4798.95"/><line class="cls-25" x1="516.93" y1="4802.62" x2="518.43" y2="4790.84"/><line class="cls-25" x1="553.28" y1="4755.94" x2="601.82" y2="4754.72"/><path class="cls-23" d="M270.49,4676.43a9.92,9.92,0,0,0-1.71,2.57c-1,2.23-.76,4-1.43,4.15-.34.1-1-.19-2.15-2.14a4.5,4.5,0,0,1,5.29-4.58Z" transform="translate(-47.27 -62.16)"/><path class="cls-23" d="M457.72,4620.93c-.29-12.57,2-21,4.29-26.46a39.79,39.79,0,0,0,2.86-7.86c1.27-5.66.39-9,1.15-18,.19-2.33.42-4.2.57-5.3l-4.29-5.43a15.87,15.87,0,0,0,1.71-7.73c-.11-2.26-.78-4.34.43-6.15a4.93,4.93,0,0,1,2.15-1.71,5.42,5.42,0,0,1,3.14-1.29,5.56,5.56,0,0,1,3.87,1.29,3.08,3.08,0,0,1,2.57-.72,3,3,0,0,1,2.29,2.43,2.63,2.63,0,0,1,2.57.72,2.66,2.66,0,0,1,.58,2.72,4.52,4.52,0,0,1,2.28,1.43,4.37,4.37,0,0,1,.86,1.57q-1.58,5.58-3.14,11.16a168.86,168.86,0,0,0,0,24.41c.16,2.32.29,3.53.42,5.19a165.53,165.53,0,0,1-.42,29.75" transform="translate(-47.27 -62.16)"/><path class="cls-25" d="M564.2,4832.24l6.93-11" transform="translate(-47.27 -62.16)"/><path class="cls-28" d="M564.2,4832.24" transform="translate(-47.27 -62.16)"/><path class="cls-22" d="M587.44,4863.73a136.1,136.1,0,0,1-42.33-1.07q3.48-5.55,7-11.1" transform="translate(-47.27 -62.16)"/><path class="cls-22" d="M622.39,4854.22a132,132,0,0,1-24.09,7.64" transform="translate(-47.27 -62.16)"/><path class="cls-22" d="M622.39,4854.22" transform="translate(-47.27 -62.16)"/><path class="cls-25" d="M589.06,4827a38,38,0,0,0,4.68-2.8,38.82,38.82,0,0,0,12-13.57" transform="translate(-47.27 -62.16)"/><path class="cls-22" d="M667,4823.05a132.65,132.65,0,0,1-36,27.16c-1.15.59-2.3,1.16-3.44,1.71" transform="translate(-47.27 -62.16)"/><path class="cls-22" d="M659.26,4798.55l29.74-6.69a133.76,133.76,0,0,1-15.36,23.55" transform="translate(-47.27 -62.16)"/><line class="cls-22" x1="557.5" y1="4748.66" x2="584.24" y2="4742.64"/><path class="cls-25" d="M584.42,4829.76a8.67,8.67,0,0,1-2,1.43,8.79,8.79,0,0,1-4.06,1" transform="translate(-47.27 -62.16)"/><path class="cls-29" d="M555.93,4832.91c2.89,1.29,6.37,2.25,8.92.71,3.13-1.89,2.62-6.18,5.43-7,3-.88,6.47,3.13,6.73,3.44,2.25,2.65,1.92,4.81,3,7.86,2.07,5.82,5.8,5.13,11.73,12.59,2.25,2.83,7.51,9.46,5.43,14.59-.23.58-1,2.46-2.57,2.86-3,.76-5.36-4.72-11.44-8.87-2.39-1.63-5.16-2.54-10.59-4.29a142.1,142.1,0,0,0-20.45-4.93" transform="translate(-47.27 -62.16)"/><path class="cls-29" d="M613.77,4777.41c6.11,5.1,11.28,6.44,14.87,6.72,3.81.3,4.78-.43,8,.15,5.36.95,6,5.23,12,9.86,6.7,5.16,9,2.24,16,7.44,2.7,2,9.91,7.37,9,13.88-.57,4.11-4.11,6.79-5.73,7.86-1.24-.32-3.21-.87-5.57-1.71-8.53-3-11.09-6-21.74-12a133.62,133.62,0,0,0-15.74-7.72c-3.74-1.51-6.92-2.58-9.13-3.26" transform="translate(-47.27 -62.16)"/><line class="cls-25" x1="530.59" y1="4754.72" x2="557.5" y2="4748.66"/><path class="cls-28" d="M589.06,4827" transform="translate(-47.27 -62.16)"/><path class="cls-23" d="M432,4655.12a21.75,21.75,0,0,0,.66-5.31,22.51,22.51,0,0,0-4.09-13.14c-6.49-8.66-18.36-8-20.59-7.87-3.27.25-10.12.76-14.59,6.44-4.11,5.21-4.46,12-3.44,12.44s2.75-6.21,9.3-9.44c1-.5,6.26-2.95,9.44-.71,2.48,1.74,1,4.44,3.43,6.29s5.11.06,12.16,1.29a8.39,8.39,0,0,1,4.15,1.86,8.82,8.82,0,0,1,2.57,3.57c-.36.25-1.14-1.34-.86-1h0" transform="translate(-47.27 -62.16)"/><path class="cls-27" d="M266.83,4693.08l-3.06,5.95-1.25.46-.4-.2a1.62,1.62,0,0,1-.35-.83,1.58,1.58,0,0,1,.14-.86l2.76-5.88" transform="translate(-47.27 -62.16)"/><path class="cls-27" d="M268.66,4683.22l6.09-13a1.49,1.49,0,0,1,2-.68l.4.2a1.49,1.49,0,0,1,.68,2l-6,11.71" transform="translate(-47.27 -62.16)"/><path class="cls-27" d="M463.74,4553.63l-10-2.28a1.72,1.72,0,0,1-1.3-2.05l.52-2.29a1.73,1.73,0,0,1,2.05-1.3l8.8,2" transform="translate(-47.27 -62.16)"/><path class="cls-28" d="M463.74,4553.63" transform="translate(-47.27 -62.16)"/><path class="cls-27" d="M484,4552.28l9.67,2.2a1.72,1.72,0,0,1,1.3,2.05l-.52,2.29a1.72,1.72,0,0,1-2.05,1.29l-10.21-2.31" transform="translate(-47.27 -62.16)"/><path class="cls-23" d="M265.76,4679.86a7.27,7.27,0,0,0-1.8,4.93c0,.57.16,3.13,2,4.08.89.48,2.4.67,3-.14a1.86,1.86,0,0,0,.25-1.43" transform="translate(-47.27 -62.16)"/><path class="cls-23" d="M264.06,4685.16a5.6,5.6,0,0,0-.53,3.06c.08.65.3,2.68,1.8,3.33,1.25.54,2.94-.07,3.16-.82a5.58,5.58,0,0,0-.29-1.43" transform="translate(-47.27 -62.16)"/><path class="cls-23" d="M389.49,4648a42.7,42.7,0,0,0,1.58,27.75,8.62,8.62,0,0,0,2.57,5.48c3.64,3.26,9.4,1.37,10.73.91,6.23-2.17,9.65-7.83,11.73-11.58a44,44,0,0,0,3.86-9.15c0-.44-.37-4.11,2-6.4,1.93-1.86,6.13-1.83,10,.61" transform="translate(-47.27 -62.16)"/><path class="cls-23" d="M411,4642.53a47,47,0,0,1-.29,35.33" transform="translate(-47.27 -62.16)"/><path class="cls-23" d="M468.59,4558.72c5-2.21,5.07-3.15,5-3.44-.2-.82-2.8-1.05-4.72-.71a9.12,9.12,0,0,0-3.87,1.71" transform="translate(-47.27 -62.16)"/><path class="cls-23" d="M472.31,4550.13c.27,2.06-.74,3.72-2,4a2.26,2.26,0,0,1-2-.57c-.62-.64-.47-1.39-.43-3.58.09-3.78-.3-4.64.29-7,.16-.62.32-1.12.43-1.43" transform="translate(-47.27 -62.16)"/><path class="cls-23" d="M478.46,4543.7c-.72,2.54-1.44,4.63-2,6.15-1.13,3-1.84,4.33-2.86,4.43a1.49,1.49,0,0,1-1-.28c-1-.78-.42-2.79.15-5.87.25-1.39.58-3.39.86-5.86" transform="translate(-47.27 -62.16)"/><path class="cls-23" d="M481.61,4547.42l-4,7.72a1.33,1.33,0,0,0,.14,1.29,1.4,1.4,0,0,0,1.86.14l5.15-6.15" transform="translate(-47.27 -62.16)"/><path class="cls-23" d="M477.51,4555.46a1.6,1.6,0,1,1-2.63-1.83" transform="translate(-47.27 -62.16)"/><polyline class="cls-27" points="230.66 4607.26 214.5 4597.1 214.5 4637.3"/><line class="cls-27" x1="207.06" y1="4548.04" x2="214.5" y2="4597.1"/><polyline class="cls-30" points="407.73 4483.54 426.32 4469.23 447.19 4492.74"/><line class="cls-30" x1="425.89" y1="4464.52" x2="426.32" y2="4469.24"/><line class="cls-30" x1="457.5" y1="4642.73" x2="560.91" y2="4710.4"/><line class="cls-30" x1="501.84" y1="4760.87" x2="493.53" y2="4741.47"/><line class="cls-30" x1="449.78" y1="4642.73" x2="449.78" y2="4652.74"/><line class="cls-30" x1="457.5" y1="4659.18" x2="457.5" y2="4640.73"/><path class="cls-30" d="M486.75,4710.19a27.85,27.85,0,0,1-14,24.88,387.29,387.29,0,0,0-25-45.91q-5.76-9-11.59-17.16" transform="translate(-47.27 -62.16)"/><path class="cls-31" d="M504.78,4725.2a41.08,41.08,0,0,1-52.16,52.73" transform="translate(-47.27 -62.16)"/><path class="cls-30" d="M389.21,4696.45a109,109,0,0,0,4,10.3c5.08,11.33,10.94,19.19,15.88,25.75a120.55,120.55,0,0,0,8.58,10.3c5.58,5.94,8.36,8.91,11.59,9.87,1.85.54,4,.77,5.15,2.57,1,1.6.72,3.63.28,5.15,5.54-.22,25.6-1.7,42.2-17.59a63.67,63.67,0,0,0,16.87-27.89" transform="translate(-47.27 -62.16)"/><path class="cls-31" d="M517.22,4729.07c.42,1.38,7.62,26.74-10.15,46.62a48.83,48.83,0,0,1-47.92,14.74" transform="translate(-47.27 -62.16)"/><path class="cls-23" d="M493.76,4824.18l3.17,3.4c3.61,3.87,0-9.05-.74-11.41-2.29-7.5-7.1-9.76-8.72-16.88a21.24,21.24,0,0,1,.29-10.15,8.58,8.58,0,0,1,3.43-1.72,10.33,10.33,0,0,1,6.86,1.15c11.66,5.7,24.53,12,32.47,10,5.51-1.38,8.37-6.67,11.87-13.16,8.2-15.17,7-30.95,5.58-39.62a7.86,7.86,0,0,0-.86-4.29,7.62,7.62,0,0,0-1.93-2.36c-2-1.46-4.87-4.14-9.17-5.24-3.78-1-8.59-1.7-15.29-3.77-10.53-3.27-20.18-6.26-27.46-14.59-5.5-6.3-8.7-14.58-9.87-17.59-2.48-6.42-2.7-16-5.85-16.77a1.59,1.59,0,0,0-1,0c-1.9.8-.15,5.48-1.79,8.37-2,3.57-9,4.82-14.16,3-5.72-2-8.33-7.54-11.59-14.44a51.5,51.5,0,0,1-4-12.59,53.33,53.33,0,0,1-.43-16.31" transform="translate(-47.27 -62.16)"/><path class="cls-30" d="M432.69,4681,465,4739.79a61.08,61.08,0,0,1-26.31,12.3,84.16,84.16,0,0,1-38.91-45.34" transform="translate(-47.27 -62.16)"/><path class="cls-31" d="M423,4679.86a158.9,158.9,0,0,0-.71,23,60.34,60.34,0,0,0,1.29,11.59,49.63,49.63,0,0,0,6.72,15.87,206.93,206.93,0,0,1,7.29-76.66" transform="translate(-47.27 -62.16)"/><path class="cls-23" d="M396.22,4691.31A166,166,0,0,1,421,4717.62c2.3,3.07,7.76,10.34,6.87,11.16-1.37,1.26-16.89-13.53-21-17.45-9.21-8.72-19-19.26-19-19.31" transform="translate(-47.27 -62.16)"/><path class="cls-31" d="M397.07,4732.21a183.37,183.37,0,0,1-6.86-17.45c-.48-1.44-.73-2.18-1-3.14a57.8,57.8,0,0,1-1.86-18.17c0-1.13.16-2.87.43-5" transform="translate(-47.27 -62.16)"/><path class="cls-32" d="M2633.5,3182.5l-155,84q2-30,4-60l152-90Q2634,3149.5,2633.5,3182.5Z" transform="translate(-47.27 -62.16)"/><path class="cls-33" d="M1849,2647" transform="translate(-47.27 -62.16)"/><path class="cls-34" d="M2489,3279" transform="translate(-47.27 -62.16)"/><path class="cls-35" d="M4504,531a261.46,261.46,0,0,1-7,228l41,30a317.94,317.94,0,0,0,22.81-64.38c1.71-7.23,8.35-36.37,8.55-77,.3-60.2-13.67-112.93-27.36-150.59Z" transform="translate(-47.27 -62.16)"/><g id="background_2"><path class="cls-2" d="M1870.59,1349.21" transform="translate(-47.27 -62.16)"/><path class="cls-2" d="M1870.59,1349.21a936,936,0,0,0,48.82-231c.47-5.68.87-11.35,1.26-17a931.49,931.49,0,0,0-39.74-336.62v-.06c-100.66-323.83-373.86-576.74-720.31-641.09a950.5,950.5,0,0,0-94.74-12.65,933.39,933.39,0,0,0-227.12,8.81C621.08,154.92,426.29,266.19,285.38,427.39c-126.62,145-209.79,330.3-226.88,537a931.47,931.47,0,0,0,28.74,319.87C186.76,1653.6,508.86,1938.41,912,1971.75q46.34,3.82,91.81,3.11c259.6-3.79,497.13-115.17,665.59-294.26q20.94-22.24,40.42-45.87" transform="translate(-47.27 -62.16)"/><g class="cls-36"><path class="cls-2" d="M1874.69,1337.18a936.5,936.5,0,0,0,44.72-219c.47-5.68.87-11.35,1.26-17a931.49,931.49,0,0,0-39.74-336.62v-.06c-100.66-323.83-373.86-576.74-720.31-641.09a950.5,950.5,0,0,0-94.74-12.65,933.39,933.39,0,0,0-227.12,8.81C621.08,154.92,426.29,266.19,285.38,427.39c-126.62,145-209.79,330.3-226.88,537a931.47,931.47,0,0,0,28.74,319.87C186.76,1653.6,508.86,1938.41,912,1971.75q46.34,3.82,91.81,3.11c259.6-3.79,497.13-115.17,665.59-294.26q16.62-17.67,32.33-36.19" transform="translate(-47.27 -62.16)"/></g><path class="cls-37" d="M522.72,1227.77c2.08,8.79,3.26,16.4-.86,19.67-5.51,4.4-12.94-5-27.11-1.35-7.36,1.92-13.1,7.28-24.59,18-13.43,12.54-12.94,15.49-19.59,17.86-9.38,3.34-13.09-1.54-25.41,1.89-6.27,1.75-14.15,3.94-17.31,10.21-4.46,8.84,5.53,15.75,5.87,35.64.18,11.17-2.94,10.83-1.62,17.57,2.81,14.42,16.92,15,30.76,33,11.4,14.77,16.46,33.35,11.84,37.2-1.15,1-4.72.62-11.85-.05-6.77-.64-10.15-1-11.75-1.64-7.27-3.07-5.85-11.21-13.86-26.77-3.43-6.66-7.44-14.46-15.61-21.32-6.25-5.26-8.94-4.93-11.85-9-6.57-9.12-1.5-22.92.27-28.78,4.16-13.79-2-38.32-14.41-87.36,0,0-11.35-45-29-58.22-1.7-1.28-6.3-4.75-10.46-3.34-4.4,1.5-5.93,7.66-6.61,10.41-3.55,14.35,3.55,28.41,2.53,28.77-.3.1-.65-1.22-1.59-2-5.23-4.1-30.25,8.23-35.15,26.92-2.85,10.88,3.77,13.79,3.18,33.22-.25,8.22-.73,24-8.85,27.75-3.85,1.75-7-.31-23.26-7.34-25.06-10.83-29.53-11.12-32.62-9.1-5.73,3.75-1.62,12.12-8.61,17.46-6.33,4.84-15.87,2.68-20.77,1.57-3.85-.87-8.79-2-12.59-6.12-2.77-3-2.64-5.11-4.61-6.06-2.53-1.22-7.51-.06-18.37,11.24" transform="translate(-47.27 -62.16)"/><path class="cls-37" d="M521,1220.78c.59,2.37,1.18,4.72,1.72,7" transform="translate(-47.27 -62.16)"/><path class="cls-37" d="M690.23,1206.69c-.07,9-13.75,20.89-27.38,21.08-20,.28-33.21-24.84-60.78-39-3.67-1.89-10-4.83-18.08-4.48-7.44.33-8,3.09-15.61,4.46-13.83,2.48-19-5.33-33.37-2.83" transform="translate(-47.27 -62.16)"/><path class="cls-37" d="M874.1,1392.12c-.56-10.42,4-24.91,12.92-34.08,2.71-2.8,8.57-8.86,17.73-11,6.62-1.57,9.53.36,12.53-2.07,4.94-4,5.31-12.12,3.86-19.57" transform="translate(-47.27 -62.16)"/><path class="cls-37" d="M1019.05,1975.75h0c-17.79-56.63-18.67-59.81-18.67-59.81-14.19-51.2-7.1-62.76-17.74-62.54a247.39,247.39,0,0,1-72.75-9.41c-1.79-.51-3.74-1.17-4.67-2.77-2.21-3.82,3.11-7.56,7.41-8.57,8.37-2,17-2.78,25.41-4.48" transform="translate(-47.27 -62.16)"/><path class="cls-37" d="M301.58,1278.32c-3,17.36-25.1,23.6-42.89,25.84q-40,5-80.12,10c-1.95-3.56-12.21-21.49-34.13-27.56-29.64-8.23-52.92,12.89-54.25,14.14" transform="translate(-47.27 -62.16)"/><path class="cls-37" d="M1173.79,133.37c-13.86,12.26,19.44,51.47,3.24,76.58-16,24.77-71.82,22.91-72.07,33.94a7.24,7.24,0,0,0,.42,2.56c2.35,5.85,12.21,2.73,18.19,9,3.71,3.9,1.37,6.66,5.86,11.52s8,3.59,9.74,6.83c2.53,4.6-2,11.66-9.13,22.06-15.74,23-15.91,21.24-17.47,24.83-6.62,15.3,6.47,24.43,16.18,60.44,7.69,28.53,6.52,48.95,15.15,50.67,6.28,1.24,10.23-8.92,19-7.74,7.52,1,8.91,9.14,17.63,16.82,11,9.62,18.67,5.53,33.88,12,25.08,10.73,24.71,30.7,38.71,31.29,18.87.79,23.71-35.29,43.77-36.44,21.45-1.24,29.31,39.28,60.89,41.93,6.24.52,13.47-1.8,27.93-6.44,18.8-6,28.63-12.65,55-21.68,13-4.45,18.2-5.43,23.68-3.27,6.28,2.47,10,8.94,17.33,21.88,4.28,7.52,1.18,3.73,11.86,28.86,1.71,4,3.41,7.94,2.21,12.43-1.51,5.59-6.62,8.71-8.82,10-19.93,11.79-59.79.31-71.27,14.55-5.77,7.15-1.62,21.28,6.67,49.52,9.37,31.91,17.43,41.73,12.77,48.32-3.82,5.41-16.19,8.67-57.63-5.81" transform="translate(-47.27 -62.16)"/><path class="cls-37" d="M1356.11,938.33c54.53,36.56,73.91,43.71,78,39.18,1.49-1.67,3.55-7.88,4.08-13.91,1-11.62-4.12-16.73-.91-21.6,3.52-5.33,11.06-1.23,16.48-6.75,6.57-6.69,4.93-22.29-2.33-27.23-3-2-5.48-1.28-9.55-1.66-17.28-1.58-35.45-20.88-32.62-34,1.32-6.15,7-9.76,7.85-10.29,13.56-8.36,29.73,7,44.43-2a23.15,23.15,0,0,0,6.56-6.22c10-13.15,3.94-29.94,8.64-31.55,2.45-.84,7.11,2.71,8.92,7.27,5.54,14-18.64,30-13.92,39.29,4.44,8.72,27.63-1.77,36.6,9.6,8.07,10.23-3.39,28,6.33,36.56,1.84,1.63,3.49,2.09,10.31,3.49,32.63,6.69,45.09,6.47,49.39,14.39a36.62,36.62,0,0,1,3.23,10.94c.77,5.39-.2,6.8.57,9.31,2.58,8.41,20,13.84,24.51,9,3.68-4-4.39-11.48-5.66-29.67-.37-5.28-1.58-22.57,6.29-26.68,6.5-3.39,14.21,4.82,21.93.27,4.38-2.58,3.56-6.19,7.23-7.4,7.11-2.36,12.68,10.39,21.69,10,8.72-.35,16.59-12.78,19.4-22.53,4.18-14.51-2.75-23.46,4.67-33.54,3.36-4.57,4.48-2.32,8.24-7.29,4.64-6.16,4.72-12,10.85-31.33.64-2,.72-2.2,1-2.46,7-7.48,41,29.16,76.17,31.74,32.22,2.37,64-23.91,78.3-46.58,3.18-5.06,7.8-13.62,10.07-27.65" transform="translate(-47.27 -62.16)"/><path class="cls-37" d="M1430,543.94c5.16,8.08-.29,18.63-6.18,26.2s-12.77,16.48-10.19,25.73l33.26,3c2.08.19,4.39.5,5.72,2.12s1.16,4,.9,6.12q-1.31,10.68-2.6,21.35c-7,5.47-13.74-11.74-22.45-10-3.85.76-5.81,4.9-7.93,8.2-18,28.22-49.39,7.09-66.21-7.58-19.52-17-47.79-18.13-73.71-18.42-9.22-.07-19.57.24-26.11,6.86-6.45,6.42-6.81,16.58-10.07,25.19-3.53,9.34-8.86,14.42-10.72,16.95-4.51,6.14-12.84,22.68-19.56,44.32" transform="translate(-47.27 -62.16)"/><path class="cls-37" d="M1638.6,1659.9c9.61,5.67,17.49-1.09,25.6,5" transform="translate(-47.27 -62.16)"/><path class="cls-37" d="M1540,1289.22a33.78,33.78,0,0,0,1.41,6.49" transform="translate(-47.27 -62.16)"/><path class="cls-37" d="M1626.12,1277.83q6.5-17.82,12.57-35.78c-3.69-3.27-9.42,1.21-11,5.88s-1.82,10.35-5.76,13.32c-2.77,2.08-6.52,2.1-10,2l-33.79-.67c-12.23-.24-26.29.34-33.91,9.9-3.82,4.79-5,10.7-4.31,16.71" transform="translate(-47.27 -62.16)"/><path class="cls-37" d="M1920.91,1100.89c-13.05-20-72.93-1-98.8,7.15-12.66,4-16.82,6.28-20.66,9.58-18.35,15.79-11.23,39.89-27.9,48.49-5.47,2.82-12.48,3.75-21.86,1.93-42-8.17-13.51-26.13-27.18-49.27-2-3.35-5.45-5.49-8.18-8.26-10-10.15-8.7-26.54-6.69-40.67,8,4.19,19.35-.52,22-9.18,1-3.27,1-7,3.25-9.64,4.74-5.61,14.55-.35,16.83,6.64s.53,14.69,2,21.88,9.37,14.25,15.65,10.42c2.62-1.59,4-4.6,4.92-7.54a40,40,0,0,0-7.2-36.41,16.1,16.1,0,0,0-.69-31.28c-10.22-2.24-24.82,3.79-29-5.81a23.22,23.22,0,0,1-9,22.45c-27.09,19.67-88,2.15-82,59.86,1,9.27,4.21,18.31,4,27.63s-5.33,19.63-14.48,21.41c16.45,13.27,10.42,43.66,28.09,55.26a22.46,22.46,0,0,0,27.41-2.91c1.16-1.18,2.28-2.54,3.86-3,3.21-1,6.2,2,9.5,2.74,5.72,1.22,10.68-4.7,16.53-5,8.15-.46,12.59,9.3,14,17.34s3.61,17.88,11.47,20.08c2.68.75,5.58.39,8.26,1.14,5.41,1.52,8.66,7.38,9,13s-1.72,11.05-3.71,16.3c-3.39,3.42-9.45,1.33-12.72-2.21s-5.24-8.25-9-11.24c-2.11-1.67-50.94,2.09-49.41-1.46-2.93,6.8-5.28,16.86-8.7,25.82" transform="translate(-47.27 -62.16)"/><path class="cls-37" d="M297.26,436.43c-.75,6.48-1.16,13.19,1.38,19,4.82,10.86,17.75,15.1,29.27,18.12,44.8,11.84,73.45,9.25,104.5-25.58.88-1,1.73-2,2.54-3.06,8.26-10.51,13.47-22.61,29-25.31,21.13-3.68,29.12,8.16,19.87,28.2-.82,1.78-1.69,3.73-1.24,5.64,1.45,6.1,10.57,2.54,15.77-1,12.15-8.2,27.58-7.67,40.55-2,3.09,1.36,8.8-56.61,5.79-63.26-10.56-23.31-59.4-12.33-49.39-37.7,18.28-.38,37,2,55.36,3.34q1.51-13.23,3-26.46c-.75,6.58,33.39,5.22,37.26,3.25,15-7.63,11-35,37.92-30.55,34.14,5.64,36.09,72.71-2.73,61.76-9.29,19.69-12.81,43.26-13.82,65-7,0-14.1-.13-21.11-.23a19.07,19.07,0,0,0-2.58,17.07c16.85,11.85,41.13,12.07,58.26.54,11.07,8.49,26.75.36,38.15-7.72,16,25.69,61.78,22.11,73.58-5.75S741,366.56,711.46,373a67.76,67.76,0,0,0-14.4-39c36.65,1.24,72.72-23.72,84.41-58.48,5.92-17.48,7.25-38.64,22-49.74,6.53-5,14.83-7,21.67-11.56,15.31-10.3,19.8-30.44,22.21-48.76q2.34-18.39,3.46-36.89" transform="translate(-47.27 -62.16)"/></g><g id="Layer_1-2" data-name="Layer_1"><g id="_1421394342400" data-name=" 1421394342400"><path class="cls-10" d="M962.32,276.19V1357.07l480.31-283.91Z" transform="translate(-47.27 -62.16)"/><polygon class="cls-10" points="915.05 214.03 434.73 1011 915.05 1294.91 915.05 792.67 915.05 214.03"/><path class="cls-10" d="M1340.5,1314.12" transform="translate(-47.27 -62.16)"/><polyline class="cls-10" points="1293.22 1251.96 1399.65 1102.08 919.05 1385.85 913.13 1393.06 913.13 1761.65 919.05 1778.93 1112.06 1507.1"/><line class="cls-10" x1="901.2" y1="1762.23" x2="901.2" y2="1762.23"/><polyline class="cls-10" points="901.2 1762.23 913.05 1778.93 913.05 1385.85 432.73 1102.08 901.2 1762.23"/><polygon class="cls-10" points="915.05 1294.91 1395.35 1011 915.05 792.67 915.05 1294.91"/><polygon class="cls-10" points="434.73 1011 915.05 1294.91 915.05 792.67 434.73 1011"/></g></g><path class="cls-38" d="M1092.92,1518.41c7.29,14.41,22.22,34.14,49.38,42.12,1.61,1,3.27,2.06,5,3a135.63,135.63,0,0,0,18.84,8.37c-3.18,15.57,12.38,30.57,49.13,37.92,21.29,4.11,33.91,8.61,50,16.49,10,4.91,20.07,7.69,33.52,9.51,22.81,3.11,38.76-3.58,55.84-8.2,11.64,15.31,35.57,26.74,69.68,34.72,29.26,6.73,62.39,10.79,82,1.74,25.59,5.71,52.65,7.19,79.36-1.74,23.11-7.83,42.48-11.22,68.37-16.27,14.43-2.78,12-10.57,14.92-16.42,21.82,2.71,45.17,10.2,63.71-.49a14.82,14.82,0,0,0,3,11.54c10.81,14,45.07,26.38,75.65,27.69.24.34.35.87.73,1.4,2.3,4,4.27,7.5,8.86,11,8.71,6.6,20.26,11.19,34.11,15.06,11.3,3.17,26.72,3.39,38.46.78,17.38-3.87,15.56,3.38,23.93,11.24,14.34,13.38,42.62,21.48,73,21.48,32.79,0,66-1.28,80.5-18,5.19-6.12-.25-13.67-4.26-19.45-3.18-4.74-6.06-10.47-4.11-15.4.93-3,7.73-13.18,11.41-5,6.65,15.26,44.52,29.06,76.58,24.56,11.64-1.64,27.55-5.8,39.83-5,8.7.54,16.64,3.83,25.25,4.94,11.89,1.64,26.33,3.24,37.88.17,16.49-4.28,22.45-10.19,25.34-18.94,2.21-7-17.22-15.57-5.92-21.18a6.61,6.61,0,0,0,1.08.58c6.46,3.6,12.62,7.35,18.94,11,25.39,14.54,60.33,27.72,93.85,19.52,35.77,11,88.87,16,118.08.17,19.67-10.66,23.83-24.14,10.47-37.15-9.35-9.19-14.43-10.18,8.22-11.51,13.12-.7,22.86-2.13,33.43-6,13.21-4.82,13.36-13.55,2.88-19.74s-43.94-15.09-32.29-23.12c1.37.88,2.79,1.8,4,2.57,26.62,16,64.2,19,104,21.86,12.28.89,27.3-4.4,26.47-10.93-.59-4.64-4.75-12.82,3.62-16.4,5.48-2.34,23-10,31.56-7.49,19.42,5.46,36,13.25,56.57,17.6,36.07,7.55,86.57,13.5,122.14,1.52,30-10.1,58.14-32,31.22-49.06-14.48-9.19-32.69-12.48-52.22-15.38,11.9-9.77,19.68-19,5.93-32.22-13.07-12.64-40.17-16.44-66.6-17.86a26.64,26.64,0,0,0,2.79-10.38c.09-7.3-7.93-14.17-16.89-19.59-11.15-6.77-23.77-9-37.14-10.06,1.42-4.79-1-10-9.25-15.33-18.79-12.19-52.8-14.46-81.18-16.25-14.24-.8-25.88-.49-36.55-4.84a87.53,87.53,0,0,0-40.18-5.44c-24.51,2.61-33.66,13.23-34.84,24.16a79.66,79.66,0,0,0-23.19,2.08c-3.18-3.63-8.52-7.4-15.42-11.37a11.92,11.92,0,0,1-.24,1.7,10.23,10.23,0,0,0,.24-1.7c-1.32-.67-2.44-1.35-3.91-2.08a18.19,18.19,0,0,0,3.91,1.55,21.79,21.79,0,0,1,4.11-10.23c6.32-9.36,3.43-16.66-7-25.12-28-22.76-138.48-33.43-177-10.67-16.64,9.89-39.44,2.2-61.26,3.75-18.6,1.26-38.61,6.29-49.43,14.27s-12.87,15.43-35.33,16.34c-13.85.59-26,2.76-39.2,4.67-49.52,7.09-27-22.56-42.62-35.94-10.08-8.58-26.23-11.72-43.6-12.64-7.49-34-119.2-45.17-152.82-9-20-3-38.37-4.3-61.32.19-15.66,3-10.91,14.27-22.7,17.25-17,4.35-28,2.54-23.54-7.67,9.83-23.36-14.34-44.49-57-47.37-6.66-23.22-38.37-46.07-92.15-36.5-32.15,5.66-70.42,13.21-99.29,22.11-31.22,9.65-24.51,25.39-17.22,40.21-16-.26-32-1.81-48.11,0-6.9.8-13.7,1.67-20.5,2.69-11.06-12.92-30.92-22.78-67.24-25-28-1.74-63.76-1.19-80.35,12.09-7,5.54-8.27,11.34-13.36,17.29a32.49,32.49,0,0,1-7.53,7.18c-.39.32-.64.56-1,.85-19.28,4.91-50.64,9.34-57.4,19.93-9.59,14.68-4.16,25.87,13.21,38.54a113.65,113.65,0,0,0-18.79,1.26c-14.09,2.37-25.25,7.16-32.29,13.57-6,5.44-6.81,10.59-4.9,15.5-21.73-.24-43.06,1.74-47.81,12.72-4.84,11.37.25,21.62,3.63,32.53C1112.69,1492.94,1083.09,1498.46,1092.92,1518.41Z" transform="translate(-47.27 -62.16)"/><path class="cls-39" d="M1542.19,1299.89c28.87-8.9,67.14-16.45,99.29-22.11,53.78-9.57,85.49,13.28,92.15,36.5,42.71,2.88,66.88,24,57,47.37-4.5,10.21,6.56,12,23.54,7.67,11.79-3,7-14.2,22.7-17.25,22.95-4.49,41.3-3.19,61.32-.19,33.62-36.17,145.33-25,152.82,9,17.37.92,33.52,4.06,43.6,12.64,9.83,8.37,4.6,23.12,11.4,31.2-6.07,6.7-10.17,13.59-5.33,19.59,2.79,3.8,6.17,6.5,13.11,8.83,8.71,2.95,20.66,1.74,28.39,5.39-33.62,1.72-63.81,16-44.78,33.57,19.43,17.77,57.55,21.54,95.67,19.85,10.18-.43,20.5-1.16,30.73-1.84,6.5-.43,2.06,12.38.93,13.64-5.68,7.21-16,12.94-24.27,19.54-16,13.16-6.07,22.59,17.47,30.37-15.42,9.53-30.2,24.24-2.55,32.36,24.42,7.21,55.49,7.62,83.43,6.51,1.08,8.58.25,16.61,7.89,24.45,2.53,2.46,5.91,7.83,13.45,7.11,6.8-.58,11.16.26,17.62,1.5,6.31,1.21,14.34-.73,20.89,0,17.22,1.91,28.87,19.1,39.06,25.68a8.74,8.74,0,0,0,4.74.7c21.14-5.68,52.21-7.74,69.34-16.59,18.2-9.47,5.43-20.45-5.57-29.86-10.48-8.88,5.91-6.7,13-13,3.52-3,5-6.31,4-9.85-3.18-11.65-13.75-22,4.85-31,14.19,21.16,69.43,35.5,112.79,32,16-1.3,38.71-4.11,41.49-13.4,1.23-3.77-1.22-7.83-2.64-11.36-2.69-5.9-3.52-11.47-1.95-17.29,9.83,3.41,23.29,8,34.84,6.6,13.85-1.74,23-9,31.07-14.56,22.07,8.66,43,17.9,63,27.71a7.92,7.92,0,0,0,5.48.44c24.66-6.75,46.14-18.45,28.43-32.55-15.8-12.43-42.13-20.94-68.11-27.72,14.19-7.49,29.85-14.55,35.92-24.68,1-1.63-3.14-2.67-5.93-2.37-10.47,1.28-21.48,1-32.45,1,5.73-5.51,10.68-12.76,1.13-17.55s-23.09-5.86-36.31-5.86c8.37-6.86,16.25-15.38,11.5-23.19-3.38-5.49-14.78-6.31-25.44-5.73,4.2-2.71,6.65-5.22,8-7.69,17.47,2.23,33.77,6,44.92,13.11,8.28,5.37,10.67,10.54,9.25,15.33,13.37,1.09,26,3.29,37.14,10.06,9,5.42,17,12.29,16.89,19.59a26.64,26.64,0,0,1-2.79,10.38c26.43,1.42,53.53,5.22,66.6,17.86,13.75,13.21,6,22.45-5.93,32.22,19.53,2.9,37.74,6.19,52.22,15.38,26.92,17.07-1.22,39-31.22,49.06-35.57,12-86.07,6-122.14-1.52-20.6-4.35-37.15-12.14-56.57-17.6-8.61-2.52-26.08,5.15-31.56,7.49-8.37,3.58-4.21,11.76-3.62,16.4.83,6.53-14.19,11.82-26.47,10.93-39.84-2.9-77.42-5.9-104-21.86-1.22-.77-2.64-1.69-4-2.57-11.65,8,21.87,17,32.29,23.12s10.33,14.92-2.88,19.74c-10.57,3.86-20.31,5.29-33.43,6-22.65,1.33-17.57,2.32-8.22,11.51,13.36,13,9.2,26.49-10.47,37.15-29.21,15.87-82.31,10.81-118.08-.17-33.52,8.2-68.46-5-93.85-19.52-6.32-3.67-12.48-7.42-18.94-11a6.61,6.61,0,0,1-1.08-.58c-11.3,5.61,8.13,14.14,5.92,21.18-2.89,8.75-8.85,14.66-25.34,18.94-11.55,3.07-26,1.47-37.88-.17-8.61-1.11-16.55-4.4-25.25-4.94-12.28-.77-28.19,3.39-39.83,5-32.06,4.5-69.93-9.3-76.58-24.56-3.68-8.2-10.48,2-11.41,5-2,4.93.93,10.66,4.11,15.4,4,5.78,9.45,13.33,4.26,19.45-14.49,16.71-47.71,18-80.5,18-30.34,0-58.62-8.1-73-21.48-8.37-7.86-6.55-15.11-23.93-11.24-11.74,2.61-27.16,2.39-38.46-.78-13.85-3.87-25.4-8.46-34.11-15.06-4.59-3.46-6.56-6.94-8.86-11-.38-.53-.49-1.06-.73-1.4-30.58-1.31-64.84-13.71-75.65-27.69a14.82,14.82,0,0,1-3-11.54c-18.54,10.69-41.89,3.2-63.71.49-2.93,5.85-.49,13.64-14.92,16.42-25.89,5-45.26,8.44-68.37,16.27-26.71,8.93-53.77,7.45-79.36,1.74-19.58,9.05-52.71,5-82-1.74-34.11-8-58-19.41-69.68-34.72-17.08,4.62-33,11.31-55.84,8.2-13.45-1.82-23.54-4.6-33.52-9.51-16.1-7.88-28.72-12.38-50-16.49-36.75-7.35-52.31-22.35-49.13-37.92a135.63,135.63,0,0,1-18.84-8.37c-1.72-.94-3.38-2-5-3-27.16-8-42.09-27.71-49.38-42.12-9.83-20,19.77-25.47,49.63-29.19-3.38-10.91-8.47-21.16-3.63-32.53,4.75-11,26.08-13,47.81-12.72-1.91-4.91-1.07-10.06,4.9-15.5,7-6.41,18.2-11.2,32.29-13.57a113.65,113.65,0,0,1,18.79-1.26c-17.37-12.67-22.8-23.86-13.21-38.54,6.76-10.59,38.12-15,57.4-19.93.34-.29.59-.53,1-.85a32.49,32.49,0,0,0,7.53-7.18c5.09-6,6.32-11.75,13.36-17.29,16.59-13.28,52.31-13.83,80.35-12.09,36.32,2.25,56.18,12.11,67.24,25,6.8-1,13.6-1.89,20.5-2.69,16.06-1.81,32.06-.26,48.11,0-7.29-14.82-14-30.56,17.22-40.21" transform="translate(-47.27 -62.16)"/><path class="cls-40" d="M2022,1511.78c26.32.12,47.07-14.46,73-12.62,22.85,1.67,61.07,11,36.81,24.66-6.17,3.56-16.89,7.65-17.38,12.87-1,8.37,20.65,12.23,21.73,20.22.39,1.93,2.93,3.19,5.48,4.66,6.9,3.75,13.7,6.75,16.25,11.93,2.69,4.88,10.57,9.23,18.93,12,12.29,4,21.78,7,26.23,13.16-8.37-4.55-18.21-7.72-31.32-9.29-5.58-.68-11.3-.39-16.73-.68-11.3-.75-13.7-8-17.62-12.19-6.65-7.44-12.87-13.34-26.71-18-5.68-2-12-3-18.21-4.43-10.08-2.27-14.44-11.46-6.8-15.76,8.61-5,15.17-8.54,13.75-15.51-.74-4.13-11-7.59-18.35-8.39-9.35-1.06-17.13-.58-26.33.1C2047.78,1515.07,2017.69,1518.19,2022,1511.78Z" transform="translate(-47.27 -62.16)"/><path class="cls-40" d="M2382,1370c12,1.57,22.47,5.47,35.67,4.16,5.73-.53,12.53-2.27,18.6-1.69,11.06,1.16,19,3.38,25.35,7.23,11.55,2.68,21.63,5.92,29.9,11.07,13.07,7.89-7.54,16.88-4.89,25.13,1.86,5.83-12.87,4.16-16.74.68-6.9-6.39-3.77-12.67-5.09-19.3a104.22,104.22,0,0,0-14.19-3.24c-9.74-1.62-20.55-7.21-16.15-12.74,2.64-3.32,6.32-4.63-7-3.46-6.07.63-10.82,1.47-17.13,1.4-9.59,0-22-3.77-29.51-6.19C2377.75,1372.05,2377.41,1369.44,2382,1370Z" transform="translate(-47.27 -62.16)"/><path class="cls-3" d="M4100.8,483.63a296.39,296.39,0,0,0-20.45,33.15,285.77,285.77,0,0,0-27,191.64,291.11,291.11,0,0,0,102.23,166,304.36,304.36,0,0,0,186.36,67.3l220.08.44a12.18,12.18,0,0,0,12.29-12l-.22-108.05a12.52,12.52,0,0,0-4.66-9.89l-151.49-111.3a83,83,0,0,0,4.11-97l72.31-63.77,75.58-69a11.71,11.71,0,0,0,.81-16.54c-.17-.19-.35-.37-.54-.55l-10.48-10.15a303,303,0,0,0-203-85.82l.22-40.4a23.54,23.54,0,0,0-.64-8.06,21.25,21.25,0,0,0-4-7.2,18.58,18.58,0,0,0-6.8-4.74,18.25,18.25,0,0,0-8-1.81,18.82,18.82,0,0,0-8,1.83,21.07,21.07,0,0,0-6.75,4.8,17.74,17.74,0,0,0-4.11,6.92,14.48,14.48,0,0,0-.66,8.11l-.22,41.61a300.71,300.71,0,0,0-53.86,10.29l.22-51.81a23.79,23.79,0,0,0-.63-8.06,20.79,20.79,0,0,0-4-7.19,18,18,0,0,0-6.77-4.75,18.25,18.25,0,0,0-8-1.81,18.67,18.67,0,0,0-8,1.83,21.26,21.26,0,0,0-6.77,4.8,17.76,17.76,0,0,0-4,6.88M4346.4,889.56a252.18,252.18,0,0,1-149.68-49.71,240.25,240.25,0,0,1-87.67-128.26A234.94,234.94,0,0,1,4119.51,558a243,243,0,0,1,104.43-115.78l-.16,78.73a23.71,23.71,0,0,0,.64,8.09,20.86,20.86,0,0,0,4,7.19,21.29,21.29,0,0,0,14.76,6.56,18.78,18.78,0,0,0,8-1.83,21.07,21.07,0,0,0,6.75-4.8,17.74,17.74,0,0,0,4.11-6.92,14.48,14.48,0,0,0,.66-8.11l.1-96.7a253.25,253.25,0,0,1,84.63-14.22,247.8,247.8,0,0,1,147.24,47.89,5.94,5.94,0,0,1,1.32,8.3,6.46,6.46,0,0,1-.73.84L4380.53,570.15a90.06,90.06,0,0,0-33.26-6.5,92.55,92.55,0,0,0-36.91,7.54,87,87,0,0,0-48.21,54,81.4,81.4,0,0,0-2.72,36.53,87,87,0,0,0,13,34.39,90.4,90.4,0,0,0,26.5,26.13,92.5,92.5,0,0,0,35.42,12.8,87.91,87.91,0,0,0,37.54-2.76l147.36,108.39a6.19,6.19,0,0,1,2.46,4.78l-.22,38.32a6.14,6.14,0,0,1-6.16,6ZM4382,650a35.07,35.07,0,0,1-5.82,18.88,35.64,35.64,0,0,1-15.67,12.61,33.25,33.25,0,0,1-20,1.84,37.8,37.8,0,0,1-17.87-9.25,32.68,32.68,0,0,1-7.48-36.81A35,35,0,0,1,4328,622a37.59,37.59,0,0,1,19.34-5.83,34.48,34.48,0,0,1,24.76,10.08,32.86,32.86,0,0,1,9.77,23.64Z" transform="translate(-47.27 -62.16)"/><g id="background_2-2" data-name="background_2"><path class="cls-4" d="M3809.68,461.07" transform="translate(-47.27 -62.16)"/><path class="cls-4" d="M3809.68,461.07A550.37,550.37,0,0,0,3781,597c-.28,3.34-.51,6.68-.75,10a548.36,548.36,0,0,0,23.39,198.1v0c59.24,190.57,220,339.41,423.91,377.28a562,562,0,0,0,55.75,7.44,549.41,549.41,0,0,0,133.67-5.18c128.1-20.76,242.73-86.24,325.66-181.11A550.54,550.54,0,0,0,4859.19,499.3c-58.57-217.37-248.13-385-485.39-404.6q-27.27-2.25-54-1.83C4167,95.1,4027.2,160.65,3928.06,266q-12.32,13.09-23.78,27" transform="translate(-47.27 -62.16)"/><g class="cls-36"><path class="cls-4" d="M3807.27,468.15A550.72,550.72,0,0,0,3781,597c-.28,3.34-.51,6.68-.75,10a548.36,548.36,0,0,0,23.39,198.1v0c59.24,190.57,220,339.41,423.91,377.28a562,562,0,0,0,55.75,7.44,549.41,549.41,0,0,0,133.67-5.18c128.1-20.76,242.73-86.24,325.66-181.11A550.54,550.54,0,0,0,4859.19,499.3c-58.57-217.37-248.13-385-485.39-404.6q-27.27-2.25-54-1.83C4167,95.1,4027.2,160.65,3928.06,266q-9.78,10.4-19,21.3" transform="translate(-47.27 -62.16)"/></g><path class="cls-41" d="M4602.91,532.54c-1.23-5.18-1.92-9.65.5-11.58,3.25-2.59,7.62,3,16,.8,4.33-1.13,7.7-4.29,14.46-10.6,7.91-7.39,7.62-9.12,11.54-10.52,5.52-2,7.7.91,14.95-1.11,3.69-1,8.33-2.32,10.19-6,2.62-5.2-3.26-9.27-3.45-21-.12-6.57,1.72-6.37.95-10.34-1.66-8.49-10-8.84-18.1-19.39-6.72-8.7-9.7-19.63-7-21.89.68-.57,2.78-.37,7,0,4,.37,6,.56,6.91,1,4.28,1.81,3.44,6.6,8.16,15.76,2,3.92,4.38,8.5,9.19,12.54,3.68,3.1,5.26,2.9,7,5.27,3.87,5.37.88,13.5-.16,16.94-2.45,8.12,1.2,22.55,8.48,51.41,0,0,6.68,26.46,17.05,34.27,1,.75,3.7,2.79,6.15,2s3.49-4.51,3.89-6.13c2.09-8.44-2.09-16.71-1.49-16.92.18-.06.39.71.94,1.15,3.07,2.41,17.8-4.85,20.69-15.85,1.67-6.4-2.23-8.11-1.88-19.55.15-4.83.43-14.15,5.21-16.32,2.27-1,4.12.17,13.69,4.31,14.75,6.38,17.38,6.55,19.2,5.36,3.37-2.21.95-7.13,5.06-10.28,3.73-2.85,9.34-1.57,12.22-.92,2.27.51,5.18,1.17,7.42,3.6,1.63,1.77,1.55,3,2.71,3.57,1.49.72,4.42,0,10.81-6.62" transform="translate(-47.27 -62.16)"/><path class="cls-41" d="M4603.92,536.65c-.35-1.4-.7-2.78-1-4.11" transform="translate(-47.27 -62.16)"/><path class="cls-41" d="M4310.81,92.35c10.47,33.32,11,35.19,11,35.19,8.35,30.14,4.18,36.94,10.44,36.81a145.41,145.41,0,0,1,42.81,5.54,4.31,4.31,0,0,1,2.75,1.63c1.31,2.25-1.83,4.45-4.36,5-7.3,1.71-12.93,2.06-14.95,2.64-7,2-2.71,46,19.51,154.8" transform="translate(-47.27 -62.16)"/><path class="cls-41" d="M4733.05,502.79c1.77-10.22,14.77-13.89,25.24-15.21q23.56-2.91,47.15-5.86c1.15,2.1,7.18,12.64,20.08,16.22,17.45,4.84,31.15-7.59,31.93-8.33" transform="translate(-47.27 -62.16)"/><path class="cls-41" d="M4219.75,1176.59c8.15-7.21-11.44-30.29-1.91-45.06,9.41-14.58,42.27-13.49,42.41-20a4.12,4.12,0,0,0-.25-1.5c-1.38-3.45-7.18-1.61-10.69-5.3-2.19-2.3-.81-3.92-3.45-6.78s-4.69-2.11-5.74-4c-1.49-2.7,1.19-6.86,5.37-13,9.27-13.55,9.37-12.5,10.29-14.62,3.89-9-3.81-14.37-9.53-35.56-4.52-16.79-3.83-28.81-8.91-29.82-3.69-.73-6,5.25-11.16,4.55-4.43-.6-5.25-5.38-10.38-9.89-6.44-5.67-11-3.26-19.94-7.09-14.76-6.31-14.54-18.06-22.78-18.41-11.1-.47-14,20.77-25.76,21.45-12.62.72-17.25-23.12-35.83-24.68-3.67-.31-7.93,1.06-16.44,3.79-11.06,3.54-16.85,7.44-32.37,12.76-7.65,2.61-10.71,3.19-13.93,1.92-3.7-1.45-5.87-5.26-10.2-12.87-2.52-4.43-.7-2.2-7-17-1-2.37-2-4.67-1.3-7.32.88-3.29,3.89-5.12,5.19-5.89,11.73-6.94,35.18-.18,41.94-8.56,3.4-4.21.95-12.52-3.93-29.14-5.51-18.78-10.25-24.56-7.51-28.44,2.25-3.18,9.53-5.1,33.92,3.42" transform="translate(-47.27 -62.16)"/><path class="cls-41" d="M4044.56,725.55c-24.79-16.61-33.6-19.86-35.43-17.8-.68.75-1.62,3.58-1.86,6.32-.47,5.28,1.88,7.6.41,9.81-1.6,2.43-5,.57-7.49,3.07-3,3-2.23,10.14,1.07,12.38,1.35.92,2.49.58,4.33.75,7.86.72,16.12,9.49,14.83,15.46a8,8,0,0,1-3.57,4.68c-6.16,3.8-13.51-3.19-20.19.89a10.61,10.61,0,0,0-3,2.83c-4.53,6-1.79,13.61-3.93,14.34-1.11.38-3.23-1.23-4.05-3.31-2.52-6.35,8.47-13.63,6.32-17.85-2-4-12.55.8-16.63-4.37-3.67-4.65,1.54-12.72-2.87-16.61-.84-.74-1.59-.95-4.69-1.59-14.83-3-20.5-2.94-22.45-6.54a16.39,16.39,0,0,1-1.47-5c-.35-2.45.09-3.09-.26-4.23-1.17-3.82-9.09-6.29-11.14-4.09-1.67,1.81,2,5.22,2.58,13.49.16,2.4.71,10.26-2.86,12.12-3,1.54-6.46-2.19-10-.12-2,1.17-1.62,2.81-3.29,3.37-3.23,1.06-5.76-4.73-9.86-4.57s-7.54,5.81-8.81,10.24c-1.9,6.6,1.25,10.66-2.12,15.24-1.53,2.08-2,1.06-3.75,3.32-2.11,2.8-2.15,5.45-4.93,14.24-.29.92-.33,1-.44,1.12-3.17,3.4-18.62-13.26-34.62-14.43-14.64-1.08-29.11,10.86-35.58,21.17a32.24,32.24,0,0,0-4.58,12.57" transform="translate(-47.27 -62.16)"/><path class="cls-41" d="M3946.21,278.23c-5.66-3.34-10.3.63-15.07-2.94" transform="translate(-47.27 -62.16)"/><path class="cls-41" d="M4004.26,496.37a20,20,0,0,0-.84-3.82" transform="translate(-47.27 -62.16)"/><path class="cls-41" d="M3953.55,503.08q-3.83,10.49-7.4,21.05c2.18,1.93,5.54-.71,6.47-3.46s1.07-6.09,3.39-7.84c1.63-1.22,3.83-1.23,5.87-1.19l19.89.39c7.19.14,15.46-.2,19.95-5.82a13.09,13.09,0,0,0,2.54-9.84" transform="translate(-47.27 -62.16)"/><path class="cls-41" d="M3780.06,607.21c7.68,11.76,42.92.61,58.15-4.22,7.45-2.35,9.9-3.69,12.16-5.63,10.8-9.29,6.61-23.48,16.41-28.54,3.23-1.66,7.35-2.2,12.87-1.13,24.7,4.8,7.95,15.38,16,29,1.16,2,3.2,3.23,4.81,4.86,5.9,6,5.12,15.63,3.94,23.94-4.74-2.47-11.39.3-13,5.4-.6,1.92-.61,4.13-1.91,5.67-2.79,3.31-8.56.21-9.9-3.9s-.32-8.65-1.21-12.88-5.52-8.39-9.21-6.14a7.52,7.52,0,0,0-2.89,4.44,23.51,23.51,0,0,0,4.23,21.43,9.47,9.47,0,0,0,.41,18.41c6,1.32,14.6-2.23,17,3.42a13.66,13.66,0,0,1,5.29-13.21c15.94-11.58,51.8-1.27,48.23-35.23-.58-5.45-2.48-10.77-2.36-16.26s3.14-11.55,8.53-12.6c-9.68-7.81-6.14-25.7-16.54-32.52a13.21,13.21,0,0,0-16.13,1.71,6,6,0,0,1-2.27,1.79c-1.89.59-3.65-1.2-5.59-1.61-3.37-.72-6.28,2.76-9.73,3-4.79.27-7.41-5.48-8.26-10.2s-2.13-10.53-6.75-11.82c-1.58-.45-3.28-.23-4.86-.67-3.18-.9-5.1-4.35-5.27-7.65s1-6.5,2.19-9.59c2-2,5.56-.78,7.48,1.3s3.08,4.85,5.31,6.61c1.24,1,30-1.22,29.07.86,1.73-4,3.11-9.92,5.13-15.19" transform="translate(-47.27 -62.16)"/><path class="cls-41" d="M4735.59,998.24c.44-3.81.68-7.76-.81-11.2-2.84-6.4-10.45-8.89-17.23-10.67-26.36-7-43.22-5.44-61.49,15.06-.53.59-1,1.19-1.5,1.8-4.86,6.18-7.93,13.3-17.06,14.89-12.43,2.17-17.14-4.8-11.69-16.59a5.29,5.29,0,0,0,.73-3.32c-.86-3.59-6.22-1.5-9.28.57-7.15,4.83-16.23,4.51-23.87,1.15-1.81-.8-5.17,33.32-3.4,37.23,6.21,13.72,34.95,7.26,29.06,22.19-10.76.22-21.77-1.18-32.58-2L4584.7,1063c.44-3.87-19.65-3.06-21.93-1.91-8.84,4.49-6.45,20.6-22.32,18-20.09-3.32-21.24-42.79,1.61-36.35,5.47-11.58,7.54-25.46,8.13-38.24,4.13,0,8.3.08,12.43.13a11.25,11.25,0,0,0,1.52-10,31,31,0,0,0-34.29-.32c-6.51-5-15.74-.21-22.45,4.54-9.41-15.12-36.36-13-43.31,3.39s10.33,37.23,27.74,33.44a39.82,39.82,0,0,0,8.48,23c-21.58-.73-42.8,14-49.68,34.41-3.48,10.29-4.27,22.74-12.95,29.28-3.85,2.92-8.73,4.14-12.76,6.8-9,6.06-11.65,17.91-13.07,28.7q-1.38,10.82-2,21.7" transform="translate(-47.27 -62.16)"/></g><path class="cls-42" d="M4093,479.58c18.63,2.85,41.87,1.12,47.29-7.12,4.17-6.34,5.78-7.3,7.86-10.18a19.4,19.4,0,0,1,4.44-4.22c.23-.19.37-.33.57-.5,11.35-2.89,29.81-5.5,33.78-11.73,5.65-8.64,2.45-15.23-7.77-22.68a65.46,65.46,0,0,0,11.06-.74c8.29-1.4,14.85-4.22,19-8,3.51-3.2,4-6.23,2.88-9.12,12.79.14,25.35-1,28.14-7.49,2.85-6.68-.15-12.72-2.14-19.14A191.12,191.12,0,0,0,4255,366c8.1-6.81,8.85-8.58,9-10,.95-9.27-22.75-18.2-25.72-19.3-.95-.61-1.93-1.21-2.94-1.76a80,80,0,0,0-11.08-4.93c1.87-9.16-7.29-18-28.92-22.31-12.52-2.42-19.95-5.07-29.43-9.71-5.87-2.89-11.81-4.52-19.72-5.59-13.43-1.84-22.81,2.11-32.87,4.82-6.85-9-20.93-15.74-41-20.43-17.23-4-36.72-6.35-48.24-1-15.06-3.36-31-4.22-46.71,1-13.6,4.61-25,6.6-40.23,9.58-8.5,1.63-7.06,6.21-8.78,9.66-12.85-1.6-26.59-6-37.5.28a8.7,8.7,0,0,0-1.79-6.79c-6.36-8.22-26.52-15.52-44.52-16.29-.14-.2-.2-.51-.43-.83a18.38,18.38,0,0,0-5.21-6.44c-5.13-3.89-11.92-6.59-20.07-8.87a50.84,50.84,0,0,0-22.64-.45c-10.22,2.27-9.16-2-14.08-6.62-8.44-7.87-25.08-12.64-42.94-12.64-19.29,0-38.85.75-47.37,10.59-3.06,3.6.14,8,2.5,11.44,1.87,2.79,3.57,6.16,2.42,9.07-.55,1.73-4.55,7.75-6.71,2.93-3.92-9-26.2-17.11-45.07-14.46-6.85,1-16.21,3.41-23.44,3-5.12-.31-9.79-2.25-14.86-2.9-7-1-15.49-1.91-22.29-.11-9.7,2.52-13.22,6-14.92,11.15-1.29,4.14,10.14,9.16,3.49,12.47a3.81,3.81,0,0,0-.64-.35c-3.8-2.12-7.42-4.32-11.14-6.48-14.94-8.56-35.51-16.31-55.24-11.49-21-6.46-52.29-9.44-69.49-.1-11.57,6.28-14,14.2-6.16,21.86,5.5,5.41,8.5,6-4.84,6.77-7.71.42-13.45,1.26-19.67,3.53-7.77,2.84-7.86,8-1.69,11.62s25.86,8.88,19,13.6L3420.7,318c-15.66-9.39-37.78-11.15-61.23-12.86-7.22-.53-16.06,2.59-15.57,6.43.34,2.73,2.79,7.54-2.13,9.65-3.23,1.38-13.51,5.89-18.58,4.41-11.43-3.21-21.16-7.8-33.29-10.36-21.23-4.44-51-7.94-71.88-.89-17.65,5.94-34.21,18.82-18.37,28.87,8.52,5.41,19.23,7.35,30.73,9-7,5.75-11.58,11.19-3.49,19,7.69,7.44,23.64,9.68,39.19,10.52a15.6,15.6,0,0,0-1.64,6.1c-.05,4.3,4.67,8.34,9.94,11.53,6.56,4,14,5.28,21.86,5.92-.84,2.82.57,5.86,5.44,9,11.06,7.18,31.07,8.51,47.77,9.57,8.39.47,15.24.28,21.52,2.84a51.44,51.44,0,0,0,23.64,3.21c14.43-1.54,19.81-7.79,20.51-14.22a47,47,0,0,0,13.64-1.23c1.88,2.14,5,4.36,9.08,6.69a6.7,6.7,0,0,1,.14-1,5.75,5.75,0,0,0-.14,1c.77.4,1.44.8,2.3,1.23a10.39,10.39,0,0,0-2.3-.91,12.91,12.91,0,0,1-2.42,6c-3.72,5.5-2,9.8,4.14,14.78,16.51,13.39,81.5,19.67,104.17,6.28,9.79-5.82,23.21-1.3,36.05-2.21,10.95-.74,22.72-3.7,29.09-8.39s7.57-9.08,20.79-9.62c8.15-.35,15.29-1.63,23.07-2.75,29.14-4.17,15.87,13.28,25.08,21.15,5.93,5.05,15.44,6.9,25.66,7.44,4.41,20,70.15,26.58,89.94,5.3,11.78,1.76,22.57,2.53,36.08-.12,9.22-1.79,6.42-8.4,13.36-10.15,10-2.56,16.5-1.49,13.86,4.52-5.79,13.74,8.43,26.18,33.57,27.87,3.92,13.67,22.58,27.12,54.23,21.48,18.92-3.33,41.44-7.77,58.43-13,18.38-5.67,14.43-14.94,10.14-23.66a156.93,156.93,0,0,0,28.31,0c4.24-.39,8.27-.94,12.06-1.58A106.07,106.07,0,0,0,4093,479.58Z" transform="translate(-47.27 -62.16)"/><path class="cls-43" d="M4093,479.58c-2.1-.13-4.11-.31-6-.52" transform="translate(-47.27 -62.16)"/><path class="cls-43" d="M4002.94,490.09c-17,5.24-39.51,9.68-58.43,13-31.65,5.64-50.31-7.81-54.23-21.48-25.14-1.69-39.36-14.13-33.57-27.87,2.64-6-3.86-7.08-13.86-4.52-6.94,1.75-4.14,8.36-13.36,10.15-13.51,2.65-24.3,1.88-36.08.12-19.79,21.28-85.53,14.68-89.94-5.3-10.22-.54-19.73-2.39-25.66-7.44s-2.71-13.61-6.71-18.36c3.57-3.94,6-8,3.14-11.53-1.64-2.23-3.63-3.83-7.72-5.19-5.12-1.74-12.15-1-16.7-3.18,19.78-1,37.55-9.43,26.35-19.75-11.43-10.46-33.87-12.68-56.3-11.69-6,.26-12.07.69-18.09,1.09-3.83.25-1.21-7.29-.54-8,3.34-4.24,9.41-7.62,14.28-11.5,9.42-7.74,3.57-13.29-10.28-17.87,9.07-5.61,17.77-14.27,1.5-19.05-14.37-4.24-32.66-4.48-49.1-3.83-.64-5.05-.15-9.77-4.64-14.38-1.5-1.46-3.48-4.62-7.92-4.19a33.54,33.54,0,0,1-10.37-.88c-3.71-.71-8.44.43-12.29,0-10.14-1.13-17-11.25-23-15.12a5.14,5.14,0,0,0-2.79-.41c-12.44,3.34-30.73,4.55-40.81,9.76-10.71,5.58-3.19,12,3.29,17.58,6.16,5.22-3.49,3.94-7.63,7.65-2.08,1.78-2.94,3.72-2.36,5.8,1.87,6.86,8.09,12.95-2.86,18.24-8.35-12.45-40.86-20.89-66.38-18.84-9.41.77-22.77,2.42-24.42,7.88-.72,2.22.72,4.62,1.56,6.69a14.57,14.57,0,0,1,1.15,10.18c-5.79-2-13.71-4.74-20.5-3.89-8.15,1-13.57,5.32-18.29,8.57-13-5.09-25.29-10.53-37.06-16.31a4.71,4.71,0,0,0-3.23-.26c-14.51,4-27.16,10.86-16.73,19.16,9.3,7.32,24.79,12.32,40.08,16.31-8.35,4.41-17.56,8.57-21.13,14.53-.58.95,1.84,1.57,3.48,1.39,6.17-.75,12.64-.61,19.1-.61-3.37,3.25-6.28,7.52-.67,10.34s13.59,3.44,21.37,3.44c-4.92,4-9.56,9.05-6.77,13.65,2,3.23,8.7,3.71,15,3.37a13,13,0,0,0-4.69,4.53c-10.29-1.31-19.88-3.5-26.44-7.72-4.87-3.16-6.28-6.2-5.44-9-7.87-.64-15.3-1.94-21.86-5.92-5.27-3.19-10-7.23-9.94-11.53a15.6,15.6,0,0,1,1.64-6.1c-15.55-.84-31.5-3.08-39.19-10.52-8.09-7.77-3.51-13.21,3.49-19-11.5-1.7-22.21-3.64-30.73-9-15.84-10.05.72-22.93,18.37-28.87,20.93-7.05,50.65-3.55,71.88.89,12.13,2.56,21.86,7.15,33.29,10.36,5.07,1.48,15.35-3,18.58-4.41,4.92-2.11,2.47-6.92,2.13-9.65-.49-3.84,8.35-7,15.57-6.43,23.45,1.71,45.57,3.47,61.23,12.86l2.36,1.51c6.86-4.72-12.87-10-19-13.6s-6.08-8.78,1.69-11.62c6.22-2.27,12-3.11,19.67-3.53,13.34-.78,10.34-1.36,4.84-6.77-7.86-7.66-5.41-15.58,6.16-21.86,17.2-9.34,48.44-6.36,69.49.1,19.73-4.82,40.3,2.93,55.24,11.49,3.72,2.16,7.34,4.36,11.14,6.48a3.81,3.81,0,0,1,.64.35c6.65-3.31-4.78-8.33-3.49-12.47,1.7-5.15,5.22-8.63,14.92-11.15,6.8-1.8,15.29-.86,22.29.11,5.07.65,9.74,2.59,14.86,2.9,7.23.45,16.59-2,23.44-3,18.87-2.65,41.15,5.48,45.07,14.46,2.16,4.82,6.16-1.2,6.71-2.93,1.15-2.91-.55-6.28-2.42-9.07-2.36-3.4-5.56-7.84-2.5-11.44,8.52-9.84,28.08-10.58,47.37-10.59,17.86,0,34.5,4.77,42.94,12.64,4.92,4.62,3.86,8.89,14.08,6.62a50.84,50.84,0,0,1,22.64.45c8.15,2.28,14.94,5,20.07,8.87a18.38,18.38,0,0,1,5.21,6.44c.23.32.29.63.43.83,18,.77,38.16,8.07,44.52,16.29a8.7,8.7,0,0,1,1.79,6.79c10.91-6.29,24.65-1.88,37.5-.28,1.72-3.45.28-8,8.78-9.66,15.23-3,26.63-5,40.23-9.58,15.72-5.25,31.65-4.39,46.71-1,11.52-5.32,31-2.93,48.24,1,20.07,4.69,34.15,11.43,41,20.43,10.06-2.71,19.44-6.66,32.87-4.82,7.91,1.07,13.85,2.7,19.72,5.59,9.48,4.64,16.91,7.29,29.43,9.71,8.08,1.61,14.42,3.86,19.09,6.51" transform="translate(-47.27 -62.16)"/><path class="cls-44" d="M3508.71,448.85c-7.08-.93-13.22-3.22-21-2.45-3.37.31-7.38,1.34-10.95,1-6.51-.69-11.2-2-14.92-4.26-6.79-1.58-12.72-3.48-17.59-6.52-7.69-4.63,4.43-9.93,2.88-14.78-1.1-3.43,7.57-2.45,9.85-.4,4.06,3.76,2.22,7.46,3,11.36a62.2,62.2,0,0,0,8.35,1.9c5.73,1,12.1,4.24,9.51,7.5-1.56,1.95-3.72,2.72,4.14,2a81.4,81.4,0,0,1,10.08-.83c5.65,0,12.93,2.22,17.37,3.65C3511.21,447.63,3511.41,449.16,3508.71,448.85Z" transform="translate(-47.27 -62.16)"/><g id="background_2-3" data-name="background_2"><path class="cls-12" d="M1060.94,4662.9" transform="translate(-47.27 -62.16)"/><path class="cls-12" d="M1060.94,4662.9a163.74,163.74,0,0,0-8.53,40.34c-.08,1-.15,2-.22,3a162.73,162.73,0,0,0,6.94,58.8h0a163.24,163.24,0,0,0,125.81,112q8.13,1.5,16.55,2.21a163.07,163.07,0,1,0,26.87-325q-8.08-.66-16-.54a162.81,162.81,0,0,0-116.25,51.4q-3.64,3.88-7.06,8" transform="translate(-47.27 -62.16)"/><g class="cls-36"><path class="cls-12" d="M1060.22,4665a163.48,163.48,0,0,0-7.81,38.24c-.08,1-.15,2-.22,3a162.73,162.73,0,0,0,6.94,58.8h0a163.24,163.24,0,0,0,125.81,112q8.13,1.5,16.55,2.21a163.07,163.07,0,1,0,26.87-325q-8.08-.66-16-.54a162.81,162.81,0,0,0-116.25,51.4q-2.89,3.07-5.64,6.32" transform="translate(-47.27 -62.16)"/></g><path class="cls-45" d="M1296.36,4684.11c-.37-1.54-.57-2.87.15-3.44,1-.77,2.26.88,4.73.24,1.29-.34,2.29-1.28,4.3-3.15,2.34-2.19,2.26-2.7,3.42-3.12,1.64-.58,2.29.27,4.44-.33,1.09-.3,2.47-.69,3-1.78.78-1.55-1-2.75-1-6.23,0-1.95.52-1.89.29-3.06-.49-2.52-3-2.63-5.37-5.76-2-2.58-2.88-5.83-2.07-6.5.2-.16.82-.11,2.07,0a9.45,9.45,0,0,1,2,.29c1.27.53,1,2,2.42,4.67a11,11,0,0,0,2.73,3.73c1.09.92,1.56.86,2.07,1.56,1.14,1.59.26,4,0,5-.73,2.41.35,6.69,2.51,15.26,0,0,2,7.85,5.06,10.17.3.22,1.1.82,1.83.58s1-1.34,1.15-1.82c.62-2.51-.61-5-.44-5s.12.21.28.34c.91.71,5.28-1.44,6.14-4.7.5-1.91-.66-2.41-.56-5.81,0-1.43.13-4.2,1.55-4.84.67-.31,1.22,0,4.06,1.28,4.38,1.89,5.16,1.94,5.7,1.59,1-.66.28-2.12,1.5-3.05s2.78-.47,3.63-.28a4,4,0,0,1,2.2,1.07c.48.53.46.9.81,1.06s1.31,0,3.2-2" transform="translate(-47.27 -62.16)"/><path class="cls-45" d="M1296.66,4685.33c-.11-.42-.21-.83-.3-1.22" transform="translate(-47.27 -62.16)"/><path class="cls-45" d="M1209.67,4553.46c3.1,9.9,3.26,10.45,3.26,10.45,2.48,8.94,1.24,11,3.1,10.93a42.94,42.94,0,0,1,12.7,1.64,1.27,1.27,0,0,1,.82.48c.39.67-.54,1.32-1.29,1.5-2.17.51-3.84.61-4.44.78-2.08.6-.81,13.65,5.79,45.94" transform="translate(-47.27 -62.16)"/><path class="cls-45" d="M1335,4675.28c.53-3,4.38-4.12,7.49-4.52,4.67-.57,9.33-1.16,14-1.74a10.11,10.11,0,0,0,6,4.82c5.17,1.43,9.24-2.25,9.47-2.47" transform="translate(-47.27 -62.16)"/><path class="cls-45" d="M1182.64,4875.25c2.42-2.14-3.39-9-.56-13.37s12.54-4,12.58-5.93a1.21,1.21,0,0,0-.07-.45c-.41-1-2.13-.47-3.18-1.57-.65-.68-.24-1.16-1-2s-1.39-.63-1.7-1.2c-.44-.8.35-2,1.59-3.85,2.75-4,2.78-3.71,3-4.34,1.16-2.67-1.13-4.26-2.82-10.55-1.35-5-1.14-8.55-2.65-8.85-1.09-.22-1.78,1.56-3.31,1.35-1.32-.18-1.56-1.6-3.08-2.94-1.91-1.68-3.26-1-5.92-2.1-4.38-1.87-4.31-5.36-6.76-5.46-3.29-.14-4.14,6.16-7.64,6.36-3.75.22-5.12-6.86-10.64-7.32-1.09-.09-2.35.31-4.88,1.12-3.28,1.06-5,2.21-9.6,3.79-2.27.78-3.18.95-4.14.57s-1.74-1.56-3-3.82c-.74-1.31-.2-.65-2.07-5a3.23,3.23,0,0,1-.38-2.17,3.1,3.1,0,0,1,1.54-1.75c3.48-2.06,10.44-.06,12.45-2.54,1-1.25.28-3.72-1.17-8.65-1.64-5.57-3-7.29-2.23-8.44.67-.95,2.83-1.52,10.07,1" transform="translate(-47.27 -62.16)"/><path class="cls-45" d="M1130.65,4741.39c-7.36-4.93-10-5.89-10.52-5.28a4.23,4.23,0,0,0-.55,1.87c-.14,1.57.56,2.26.12,2.92s-1.49.16-2.22.91a2.77,2.77,0,0,0,.32,3.67c.4.27.74.17,1.28.22,2.34.22,4.79,2.82,4.4,4.59a2.37,2.37,0,0,1-1,1.39c-1.83,1.13-4-1-6,.26a3.25,3.25,0,0,0-.88.84c-1.35,1.78-.53,4-1.17,4.26-.33.11-1-.37-1.2-1-.75-1.89,2.51-4.05,1.88-5.3s-3.73.24-4.94-1.3c-1.09-1.38.46-3.77-.85-4.93-.25-.22-.48-.28-1.39-.47-4.41-.9-6.09-.87-6.67-1.94a4.81,4.81,0,0,1-.43-1.48c-.11-.72,0-.91-.08-1.25-.35-1.14-2.7-1.87-3.31-1.21s.6,1.55.77,4c0,.71.21,3-.85,3.6-.88.45-1.92-.65-3,0-.59.35-.48.84-1,1-1,.32-1.71-1.4-2.93-1.35s-2.24,1.72-2.62,3c-.56,2,.37,3.17-.63,4.53-.45.61-.6.31-1.11,1-.62.83-.63,1.62-1.46,4.23a1.11,1.11,0,0,1-.13.33c-.94,1-5.53-3.93-10.28-4.28-4.34-.32-8.63,3.22-10.56,6.28a9.65,9.65,0,0,0-1.36,3.73" transform="translate(-47.27 -62.16)"/><path class="cls-45" d="M1101.46,4608.63c-1.68-1-3.06.19-4.47-.87" transform="translate(-47.27 -62.16)"/><path class="cls-45" d="M1118.69,4673.37a6.35,6.35,0,0,0-.25-1.13" transform="translate(-47.27 -62.16)"/><path class="cls-45" d="M1103.64,4675.36q-1.14,3.12-2.2,6.25c.65.57,1.65-.21,1.92-1s.32-1.8,1-2.32a2.79,2.79,0,0,1,1.74-.36l5.9.12c2.14,0,4.59-.06,5.92-1.73a3.85,3.85,0,0,0,.76-2.92" transform="translate(-47.27 -62.16)"/><path class="cls-45" d="M1052.15,4706.27c2.28,3.49,12.74.18,17.26-1.25a9.09,9.09,0,0,0,3.6-1.68c3.21-2.75,2-7,4.88-8.46a5.67,5.67,0,0,1,3.82-.34c7.33,1.43,2.36,4.56,4.74,8.6a8.91,8.91,0,0,0,1.43,1.45c1.75,1.77,1.52,4.63,1.17,7.1a2.84,2.84,0,0,0-3.85,1.6,4.57,4.57,0,0,1-.57,1.69c-.83,1-2.54.06-2.94-1.16s-.09-2.57-.36-3.82-1.63-2.49-2.73-1.82a2.21,2.21,0,0,0-.86,1.31,7,7,0,0,0,1.26,6.36,2.82,2.82,0,0,0,.12,5.47c1.78.39,4.33-.67,5.06,1a4,4,0,0,1,1.57-3.92c4.73-3.44,15.37-.38,14.31-10.46a39.42,39.42,0,0,1-.7-4.82c0-1.63.93-3.43,2.53-3.74-2.87-2.32-1.82-7.63-4.91-9.65a3.9,3.9,0,0,0-4.78.51,1.85,1.85,0,0,1-.68.53c-.56.17-1.08-.36-1.65-.48-1-.22-1.87.82-2.89.88-1.43.08-2.2-1.63-2.45-3s-.64-3.13-2-3.51c-.47-.13-1-.07-1.44-.2a2.41,2.41,0,0,1-1.56-2.27,7,7,0,0,1,.64-2.84c.6-.6,1.65-.24,2.23.38a16.75,16.75,0,0,0,1.57,2c.37.29,8.9-.37,8.63.25.51-1.19.92-2.94,1.52-4.51" transform="translate(-47.27 -62.16)"/><path class="cls-45" d="M1335.74,4822.32a6.45,6.45,0,0,0-.25-3.33c-.84-1.89-3.1-2.63-5.11-3.16-7.82-2.07-12.83-1.62-18.25,4.47-.15.17-.3.35-.44.53-1.45,1.84-2.36,3.95-5.07,4.42-3.69.65-5.08-1.42-3.47-4.92a1.53,1.53,0,0,0,.22-1c-.25-1.06-1.85-.44-2.75.17a7.33,7.33,0,0,1-7.09.34c-.53-.23-1.53,9.89-1,11,1.85,4.08,10.38,2.16,8.63,6.59-3.19.06-6.46-.35-9.67-.59-.18,1.55-.35,3.09-.53,4.63.13-1.15-5.83-.91-6.51-.57-2.62,1.33-1.91,6.11-6.62,5.33-6-1-6.3-12.7.48-10.78a30.38,30.38,0,0,0,2.41-11.35c1.23,0,2.46,0,3.69,0a3.33,3.33,0,0,0,.45-3,9.23,9.23,0,0,0-10.18-.1c-1.93-1.48-4.67-.06-6.66,1.35-2.79-4.49-10.79-3.86-12.85,1s3.07,11.05,8.23,9.93a11.81,11.81,0,0,0,2.52,6.81,15.44,15.44,0,0,0-14.75,10.21c-1,3.06-1.26,6.75-3.84,8.69-1.14.87-2.59,1.23-3.79,2-2.67,1.8-3.45,5.32-3.87,8.52q-.42,3.21-.61,6.44" transform="translate(-47.27 -62.16)"/></g><path class="cls-13" d="M1145,4668.39c5.53.85,12.43.33,14-2.11a31.39,31.39,0,0,1,2.33-3,5.86,5.86,0,0,1,1.31-1.26l.18-.15c3.36-.85,8.84-1.63,10-3.48,1.68-2.56.73-4.52-2.31-6.73a19.19,19.19,0,0,0,3.29-.22,11.12,11.12,0,0,0,5.64-2.37,2.31,2.31,0,0,0,.85-2.71c3.8.05,7.52-.3,8.35-2.22s0-3.77-.63-5.68a56.25,56.25,0,0,0,5-3.76c2.41-2,2.63-2.54,2.67-3,.29-2.75-6.75-5.4-7.63-5.72-.28-.19-.57-.36-.87-.53A24,24,0,0,0,1184,4624c.56-2.72-2.16-5.34-8.58-6.62a31.48,31.48,0,0,1-8.74-2.88,17.8,17.8,0,0,0-5.85-1.66c-4-.55-6.77.62-9.75,1.43-2-2.67-6.22-4.67-12.17-6.07-5.12-1.17-10.9-1.88-14.32-.3a25.64,25.64,0,0,0-13.86.3,86.92,86.92,0,0,1-11.94,2.85c-2.52.48-2.1,1.84-2.61,2.86-3.81-.47-7.89-1.78-11.13.09a2.55,2.55,0,0,0-.53-2c-1.89-2.44-7.87-4.6-13.21-4.83,0-.06-.06-.15-.13-.25a5.34,5.34,0,0,0-1.55-1.91,17.63,17.63,0,0,0-5.95-2.63,15.23,15.23,0,0,0-6.72-.14c-3,.68-2.72-.59-4.18-2-2.51-2.34-7.44-3.75-12.74-3.75-5.73,0-11.53.22-14.06,3.14-.91,1.07,0,2.39.74,3.4a3.1,3.1,0,0,1,.72,2.69c-.16.51-1.35,2.3-2,.87-1.17-2.67-7.78-5.08-13.38-4.29-2,.28-4.81,1-7,.87-1.52-.09-2.9-.66-4.41-.86a18.14,18.14,0,0,0-6.61,0c-2.88.75-3.92,1.78-4.43,3.31-.38,1.23,3,2.72,1,3.7a1.54,1.54,0,0,0-.19-.1c-1.13-.63-2.21-1.28-3.31-1.93-4.44-2.53-10.54-4.84-16.39-3.41-6.25-1.91-15.52-2.8-20.63,0-3.43,1.86-4.16,4.21-1.83,6.48,1.64,1.61,2.53,1.78-1.43,2a19.34,19.34,0,0,0-5.84,1.05c-2.31.84-2.33,2.37-.5,3.45s7.67,2.63,5.64,4l-.7-.45c-4.65-2.79-11.22-3.31-18.17-3.82-2.15-.16-4.77.77-4.63,1.91.1.81.83,2.24-.63,2.86-1,.41-4,1.75-5.51,1.31-3.4-.95-6.28-2.31-9.88-3.07-6.3-1.32-15.12-2.36-21.34-.27-5.23,1.77-10.15,5.59-5.45,8.57,2.53,1.61,5.71,2.18,9.12,2.69-2.08,1.7-3.44,3.32-1,5.62s7,2.88,11.63,3.12a4.78,4.78,0,0,0-.49,1.82c0,1.27,1.39,2.47,3,3.42a14.44,14.44,0,0,0,6.49,1.75c-.25.84.17,1.74,1.61,2.68,3.29,2.13,9.23,2.53,14.18,2.84,2.49.14,4.52.09,6.39.85a15.34,15.34,0,0,0,7,.95c4.29-.46,5.88-2.31,6.09-4.22a14,14,0,0,0,4-.37,10.87,10.87,0,0,0,2.69,2,1.87,1.87,0,0,1,0-.3,1.71,1.71,0,0,0,0,.3c.23.12.43.24.69.36a3.25,3.25,0,0,0-.69-.27,3.66,3.66,0,0,1-.72,1.79c-1.1,1.63-.59,2.91,1.24,4.39,4.89,4,24.18,5.83,30.91,1.86,2.9-1.73,6.89-.39,10.7-.66,3.25-.22,6.74-1.09,8.63-2.49s2.25-2.69,6.17-2.85a63.16,63.16,0,0,0,6.85-.82c8.65-1.24,4.71,3.94,7.44,6.28,1.76,1.5,4.58,2.05,7.62,2.21,1.31,5.93,20.82,7.89,26.69,1.57a29.65,29.65,0,0,0,10.71,0c2.73-.54,1.91-2.5,4-3,3-.76,4.9-.44,4.12,1.34-1.72,4.08,2.5,7.77,10,8.28,1.16,4.05,6.7,8,16.09,6.37a157.15,157.15,0,0,0,17.35-3.86c5.45-1.68,4.28-4.44,3-7a47,47,0,0,0,8.4,0c1.26-.12,2.45-.28,3.58-.47A31.44,31.44,0,0,0,1145,4668.39Z" transform="translate(-47.27 -62.16)"/><path class="cls-46" d="M1145,4668.39c-.62,0-1.22-.09-1.79-.16" transform="translate(-47.27 -62.16)"/><path class="cls-46" d="M1118.3,4671.51a157.15,157.15,0,0,1-17.35,3.86c-9.39,1.67-14.93-2.32-16.09-6.37-7.46-.51-11.68-4.2-10-8.28.78-1.78-1.15-2.1-4.12-1.34-2,.52-1.23,2.48-4,3a29.65,29.65,0,0,1-10.71,0c-5.87,6.32-25.38,4.36-26.69-1.57-3-.16-5.86-.71-7.62-2.21s-.8-4-2-5.45c1.06-1.17,1.78-2.37.93-3.42a4.09,4.09,0,0,0-2.29-1.54c-1.52-.52-3.6-.31-5-.94,5.88-.3,11.15-2.81,7.83-5.87s-10.05-3.76-16.71-3.47c-1.78.08-3.58.21-5.37.33-1.14.07-.36-2.17-.16-2.39,1-1.25,2.79-2.26,4.24-3.41,2.79-2.3,1.06-3.94-3.06-5.3,2.7-1.67,5.28-4.24.45-5.66-4.27-1.25-9.69-1.33-14.57-1.13-.19-1.5,0-2.9-1.38-4.27a2.72,2.72,0,0,0-2.35-1.24,9.89,9.89,0,0,1-3.08-.27c-1.1-.21-2.5.13-3.65,0-3-.33-5-3.34-6.82-4.49a1.58,1.58,0,0,0-.82-.12c-3.7,1-9.12,1.35-12.12,2.9-3.18,1.65-.95,3.57,1,5.22s-1,1.17-2.27,2.27a1.65,1.65,0,0,0-.7,1.72c.56,2,2.4,3.84-.84,5.41-2.48-3.69-12.13-6.2-19.7-5.59-2.8.23-6.76.72-7.25,2.34-.22.66.21,1.37.46,2a4.25,4.25,0,0,1,.34,3c-1.72-.59-4.07-1.4-6.08-1.15a11.85,11.85,0,0,0-5.43,2.54c-3.86-1.51-7.51-3.12-11-4.84a1.37,1.37,0,0,0-1-.07c-4.31,1.18-8.06,3.22-5,5.68,2.76,2.17,7.36,3.66,11.89,4.84-2.48,1.31-5.21,2.55-6.27,4.32-.17.28.55.46,1,.41a48.26,48.26,0,0,1,5.67-.18c-1,1-1.86,2.23-.2,3.06a14.81,14.81,0,0,0,6.35,1c-1.47,1.2-2.84,2.68-2,4.05.59,1,2.58,1.1,4.44,1a3.88,3.88,0,0,0-1.39,1.34c-3-.39-5.9-1-7.85-2.29-1.44-.94-1.86-1.84-1.61-2.68a14.44,14.44,0,0,1-6.49-1.75c-1.56-.95-3-2.15-3-3.42a4.78,4.78,0,0,1,.49-1.82c-4.62-.24-9.35-.91-11.63-3.12s-1.05-3.92,1-5.62c-3.41-.51-6.59-1.08-9.12-2.69-4.7-3,.22-6.8,5.45-8.57,6.22-2.09,15-1.05,21.34.27,3.6.76,6.48,2.12,9.88,3.07,1.5.44,4.55-.9,5.51-1.31,1.46-.62.73-2.05.63-2.86-.14-1.14,2.48-2.07,4.63-1.91,6.95.51,13.52,1,18.17,3.82l.7.45c2-1.41-3.82-3-5.64-4s-1.81-2.61.5-3.45a19.34,19.34,0,0,1,5.84-1.05c4-.23,3.07-.4,1.43-2-2.33-2.27-1.6-4.62,1.83-6.48,5.11-2.78,14.38-1.89,20.63,0,5.85-1.43,12,.88,16.39,3.41,1.1.65,2.18,1.3,3.31,1.93a1.54,1.54,0,0,1,.19.1c2-1-1.42-2.47-1-3.7.51-1.53,1.55-2.56,4.43-3.31a18.14,18.14,0,0,1,6.61,0c1.51.2,2.89.77,4.41.86,2.15.14,4.93-.59,7-.87,5.6-.79,12.21,1.62,13.38,4.29.64,1.43,1.83-.36,2-.87a3.1,3.1,0,0,0-.72-2.69c-.7-1-1.65-2.33-.74-3.4,2.53-2.92,8.33-3.14,14.06-3.14,5.3,0,10.23,1.41,12.74,3.75,1.46,1.37,1.14,2.64,4.18,2a15.23,15.23,0,0,1,6.72.14,17.63,17.63,0,0,1,5.95,2.63,5.34,5.34,0,0,1,1.55,1.91c.07.1.09.19.13.25,5.34.23,11.32,2.39,13.21,4.83a2.55,2.55,0,0,1,.53,2c3.24-1.87,7.32-.56,11.13-.09.51-1,.09-2.38,2.61-2.86a86.92,86.92,0,0,0,11.94-2.85,25.64,25.64,0,0,1,13.86-.3c3.42-1.58,9.2-.87,14.32.3,5.95,1.4,10.13,3.4,12.17,6.07,3-.81,5.77-2,9.75-1.43a17.8,17.8,0,0,1,5.85,1.66,31.48,31.48,0,0,0,8.74,2.88,19,19,0,0,1,5.66,1.93" transform="translate(-47.27 -62.16)"/><path class="cls-47" d="M971.62,4659.27c-2.11-.28-3.93-1-6.23-.73a17.39,17.39,0,0,1-3.25.3,10.42,10.42,0,0,1-4.43-1.26,17.15,17.15,0,0,1-5.22-1.94c-2.28-1.38,1.31-3,.85-4.39-.32-1,2.25-.72,2.93-.12,1.2,1.12.65,2.22.88,3.38a19.39,19.39,0,0,0,2.48.56c1.7.28,3.59,1.26,2.82,2.23-.46.58-1.1.8,1.23.6a22.63,22.63,0,0,1,3-.24,18.8,18.8,0,0,1,5.15,1.08C972.36,4658.91,972.42,4659.36,971.62,4659.27Z" transform="translate(-47.27 -62.16)"/></g></g></svg>